%TF.GenerationSoftware,Altium Limited,Altium Designer,24.3.1 (35)*%
G04 Layer_Color=32896*
%FSLAX45Y45*%
%MOMM*%
%TF.SameCoordinates,DF3E14FC-9D5E-4248-BDD6-FF016006D845*%
%TF.FilePolarity,Positive*%
%TF.FileFunction,Other,Stiffener_Bot*%
%TF.Part,Single*%
G01*
G75*
%TA.AperFunction,NonConductor*%
%ADD19C,0.20000*%
%ADD25C,0.15000*%
D19*
X2740000Y3950000D02*
X4360000D01*
X2740000Y4680000D02*
X4360000D01*
Y3950000D02*
Y4680000D01*
X2740000Y3950000D02*
Y4680000D01*
X11540000Y3950000D02*
X13160001D01*
X11540000Y4680000D02*
X13160001D01*
Y3950000D02*
Y4680000D01*
X11540000Y3950000D02*
Y4680000D01*
X130000Y4350000D02*
X730000D01*
X130000Y6050000D02*
X730000D01*
Y4350000D02*
Y6050000D01*
X130000Y4350000D02*
Y6050000D01*
X23339999Y3950000D02*
X24960001D01*
X23339999Y4680000D02*
X24960001D01*
Y3950000D02*
Y4680000D01*
X23339999Y3950000D02*
Y4680000D01*
X35729999Y3950000D02*
X36460001D01*
X35729999Y6450000D02*
X36460001D01*
Y3950000D02*
Y6450000D01*
X35729999Y3950000D02*
Y6450000D01*
X32139999Y3950000D02*
X33760001D01*
X32139999Y4680000D02*
X33760001D01*
Y3950000D02*
Y4680000D01*
X32139999Y3950000D02*
Y4680000D01*
D25*
X118394Y6602606D02*
X85072Y6585944D01*
X51749Y6552622D01*
Y6519299D01*
X68411Y6502638D01*
X101733D01*
X118394Y6519299D01*
Y6535961D01*
X101733Y6552622D01*
X51749D01*
X151717Y6585944D02*
X218362Y6519299D01*
X151717D02*
X218362Y6585944D01*
X151717Y6552622D02*
X218362D01*
X185040Y6519299D02*
Y6585944D01*
X251685Y6502638D02*
X285008D01*
X268346D01*
Y6602606D01*
X251685Y6585944D01*
X334991Y6602606D02*
X401636D01*
Y6585944D01*
X334991Y6519299D01*
Y6502638D01*
X534927D02*
Y6602606D01*
X584911D01*
X601572Y6585944D01*
Y6552622D01*
X584911Y6535961D01*
X534927D01*
X651556Y6502638D02*
X684879D01*
X701540Y6519299D01*
Y6552622D01*
X684879Y6569283D01*
X651556D01*
X634895Y6552622D01*
Y6519299D01*
X651556Y6502638D01*
X734863D02*
X768185D01*
X751524D01*
Y6602606D01*
X734863D01*
X818169Y6569283D02*
Y6519299D01*
X834830Y6502638D01*
X884814D01*
Y6485977D01*
X868153Y6469315D01*
X851492D01*
X884814Y6502638D02*
Y6569283D01*
X918137Y6502638D02*
X951459D01*
X934798D01*
Y6569283D01*
X918137D01*
X1001443Y6502638D02*
Y6569283D01*
X1018105D01*
X1034766Y6552622D01*
Y6502638D01*
Y6552622D01*
X1051427Y6569283D01*
X1068088Y6552622D01*
Y6502638D01*
X1101411D02*
X1134734D01*
X1118072D01*
Y6569283D01*
X1101411D01*
X1251362Y6602606D02*
Y6502638D01*
X1201379D01*
X1184717Y6519299D01*
Y6552622D01*
X1201379Y6569283D01*
X1251362D01*
X1334669Y6502638D02*
X1301347D01*
X1284685Y6519299D01*
Y6552622D01*
X1301347Y6569283D01*
X1334669D01*
X1351330Y6552622D01*
Y6535961D01*
X1284685D01*
X185040Y6396661D02*
X168379Y6413323D01*
X135056D01*
X118395Y6396661D01*
Y6380000D01*
X135056Y6363339D01*
X168379D01*
X185040Y6346677D01*
Y6330016D01*
X168379Y6313355D01*
X135056D01*
X118395Y6330016D01*
X235024Y6396661D02*
Y6380000D01*
X218363D01*
X251685D01*
X235024D01*
Y6330016D01*
X251685Y6313355D01*
X301669D02*
X334991D01*
X318330D01*
Y6380000D01*
X301669D01*
X401637Y6313355D02*
Y6396661D01*
Y6363339D01*
X384975D01*
X418298D01*
X401637D01*
Y6396661D01*
X418298Y6413323D01*
X484943Y6313355D02*
Y6396661D01*
Y6363339D01*
X468282D01*
X501604D01*
X484943D01*
Y6396661D01*
X501604Y6413323D01*
X601572Y6313355D02*
X568250D01*
X551588Y6330016D01*
Y6363339D01*
X568250Y6380000D01*
X601572D01*
X618233Y6363339D01*
Y6346677D01*
X551588D01*
X651556Y6313355D02*
Y6380000D01*
X701540D01*
X718201Y6363339D01*
Y6313355D01*
X801508D02*
X768185D01*
X751524Y6330016D01*
Y6363339D01*
X768185Y6380000D01*
X801508D01*
X818169Y6363339D01*
Y6346677D01*
X751524D01*
X851492Y6380000D02*
Y6313355D01*
Y6346677D01*
X868153Y6363339D01*
X884814Y6380000D01*
X901475D01*
X1051427Y6413323D02*
Y6313355D01*
X1101411D01*
X1118072Y6330016D01*
Y6346677D01*
X1101411Y6363339D01*
X1051427D01*
X1101411D01*
X1118072Y6380000D01*
Y6396661D01*
X1101411Y6413323D01*
X1051427D01*
X1168056Y6313355D02*
X1201379D01*
X1218040Y6330016D01*
Y6363339D01*
X1201379Y6380000D01*
X1168056D01*
X1151395Y6363339D01*
Y6330016D01*
X1168056Y6313355D01*
X1268024Y6396661D02*
Y6380000D01*
X1251363D01*
X1284685D01*
X1268024D01*
Y6330016D01*
X1284685Y6313355D01*
X376645Y6257362D02*
X443290D01*
X409967D01*
Y6157394D01*
X576580Y6190717D02*
X643225D01*
X576580Y6224039D02*
X643225D01*
X776516Y6240701D02*
X793177Y6257362D01*
X826500D01*
X843161Y6240701D01*
Y6174056D01*
X826500Y6157394D01*
X793177D01*
X776516Y6174056D01*
Y6240701D01*
X876484Y6157394D02*
Y6174056D01*
X893145D01*
Y6157394D01*
X876484D01*
X1026435D02*
X959790D01*
X1026435Y6224039D01*
Y6240701D01*
X1009774Y6257362D01*
X976451D01*
X959790Y6240701D01*
X32116934Y3712638D02*
X32150259D01*
X32133597D01*
Y3812606D01*
X32116934Y3795944D01*
X32266888Y3812606D02*
X32233563Y3795944D01*
X32200241Y3762622D01*
Y3729299D01*
X32216904Y3712638D01*
X32250226D01*
X32266888Y3729299D01*
Y3745961D01*
X32250226Y3762622D01*
X32200241D01*
X32300208Y3712638D02*
Y3729299D01*
X32316870D01*
Y3712638D01*
X32300208D01*
X32450162D02*
X32383517D01*
X32450162Y3779283D01*
Y3795944D01*
X32433499Y3812606D01*
X32400177D01*
X32383517Y3795944D01*
X32483484D02*
X32550128Y3729299D01*
X32483484D02*
X32550128Y3795944D01*
X32483484Y3762622D02*
X32550128D01*
X32516806Y3729299D02*
Y3795944D01*
X32583450Y3812606D02*
X32650095D01*
Y3795944D01*
X32583450Y3729299D01*
Y3712638D01*
X32683420D02*
Y3729299D01*
X32700082D01*
Y3712638D01*
X32683420D01*
X32766727Y3795944D02*
X32783386Y3812606D01*
X32816711D01*
X32833371Y3795944D01*
Y3779283D01*
X32816711Y3762622D01*
X32800049D01*
X32816711D01*
X32833371Y3745961D01*
Y3729299D01*
X32816711Y3712638D01*
X32783386D01*
X32766727Y3729299D01*
X32966660Y3712638D02*
Y3812606D01*
X33016644D01*
X33033307Y3795944D01*
Y3762622D01*
X33016644Y3745961D01*
X32966660D01*
X33083289Y3712638D02*
X33116614D01*
X33133273Y3729299D01*
Y3762622D01*
X33116614Y3779283D01*
X33083289D01*
X33066629Y3762622D01*
Y3729299D01*
X33083289Y3712638D01*
X33166599D02*
X33199918D01*
X33183258D01*
Y3812606D01*
X33166599D01*
X33249902Y3779283D02*
Y3729299D01*
X33266565Y3712638D01*
X33316547D01*
Y3695977D01*
X33299887Y3679315D01*
X33283224D01*
X33316547Y3712638D02*
Y3779283D01*
X33349872Y3712638D02*
X33383194D01*
X33366531D01*
Y3779283D01*
X33349872D01*
X33433176Y3712638D02*
Y3779283D01*
X33449838D01*
X33466501Y3762622D01*
Y3712638D01*
Y3762622D01*
X33483160Y3779283D01*
X33499823Y3762622D01*
Y3712638D01*
X33533145D02*
X33566467D01*
X33549808D01*
Y3779283D01*
X33533145D01*
X33683096Y3812606D02*
Y3712638D01*
X33633112D01*
X33616452Y3729299D01*
Y3762622D01*
X33633112Y3779283D01*
X33683096D01*
X33766403Y3712638D02*
X33733081D01*
X33716418Y3729299D01*
Y3762622D01*
X33733081Y3779283D01*
X33766403D01*
X33783066Y3762622D01*
Y3745961D01*
X33716418D01*
X32433499Y3606661D02*
X32416840Y3623323D01*
X32383517D01*
X32366855Y3606661D01*
Y3590000D01*
X32383517Y3573339D01*
X32416840D01*
X32433499Y3556677D01*
Y3540016D01*
X32416840Y3523355D01*
X32383517D01*
X32366855Y3540016D01*
X32483484Y3606661D02*
Y3590000D01*
X32466824D01*
X32500146D01*
X32483484D01*
Y3540016D01*
X32500146Y3523355D01*
X32550128D02*
X32583450D01*
X32566791D01*
Y3590000D01*
X32550128D01*
X32650098Y3523355D02*
Y3606661D01*
Y3573339D01*
X32633435D01*
X32666757D01*
X32650098D01*
Y3606661D01*
X32666757Y3623323D01*
X32733401Y3523355D02*
Y3606661D01*
Y3573339D01*
X32716742D01*
X32750064D01*
X32733401D01*
Y3606661D01*
X32750064Y3623323D01*
X32850031Y3523355D02*
X32816711D01*
X32800049Y3540016D01*
Y3573339D01*
X32816711Y3590000D01*
X32850031D01*
X32866693Y3573339D01*
Y3556677D01*
X32800049D01*
X32900015Y3523355D02*
Y3590000D01*
X32950000D01*
X32966660Y3573339D01*
Y3523355D01*
X33049969D02*
X33016644D01*
X32999985Y3540016D01*
Y3573339D01*
X33016644Y3590000D01*
X33049969D01*
X33066629Y3573339D01*
Y3556677D01*
X32999985D01*
X33099951Y3590000D02*
Y3523355D01*
Y3556677D01*
X33116614Y3573339D01*
X33133273Y3590000D01*
X33149936D01*
X33299887Y3623323D02*
Y3523355D01*
X33349872D01*
X33366531Y3540016D01*
Y3556677D01*
X33349872Y3573339D01*
X33299887D01*
X33349872D01*
X33366531Y3590000D01*
Y3606661D01*
X33349872Y3623323D01*
X33299887D01*
X33416516Y3523355D02*
X33449838D01*
X33466501Y3540016D01*
Y3573339D01*
X33449838Y3590000D01*
X33416516D01*
X33399854Y3573339D01*
Y3540016D01*
X33416516Y3523355D01*
X33516483Y3606661D02*
Y3590000D01*
X33499823D01*
X33533145D01*
X33516483D01*
Y3540016D01*
X33533145Y3523355D01*
X32625104Y3467362D02*
X32691751D01*
X32658426D01*
Y3367394D01*
X32825040Y3400717D02*
X32891684D01*
X32825040Y3434039D02*
X32891684D01*
X33024976Y3450701D02*
X33041638Y3467362D01*
X33074960D01*
X33091620Y3450701D01*
Y3384056D01*
X33074960Y3367394D01*
X33041638D01*
X33024976Y3384056D01*
Y3450701D01*
X33124945Y3367394D02*
Y3384056D01*
X33141605D01*
Y3367394D01*
X33124945D01*
X33274896D02*
X33208249D01*
X33274896Y3434039D01*
Y3450701D01*
X33258234Y3467362D01*
X33224911D01*
X33208249Y3450701D01*
X35424472Y7062606D02*
X35491116D01*
Y7045945D01*
X35424472Y6979299D01*
Y6962638D01*
X35524438D02*
Y6979299D01*
X35541101D01*
Y6962638D01*
X35524438D01*
X35607745Y7045945D02*
X35624408Y7062606D01*
X35657730D01*
X35674390Y7045945D01*
Y7029283D01*
X35657730Y7012622D01*
X35641068D01*
X35657730D01*
X35674390Y6995961D01*
Y6979299D01*
X35657730Y6962638D01*
X35624408D01*
X35607745Y6979299D01*
X35707715Y7045945D02*
X35774359Y6979299D01*
X35707715D02*
X35774359Y7045945D01*
X35707715Y7012622D02*
X35774359D01*
X35741037Y6979299D02*
Y7045945D01*
X35874326Y6962638D02*
X35807681D01*
X35874326Y7029283D01*
Y7045945D01*
X35857666Y7062606D01*
X35824344D01*
X35807681Y7045945D01*
X35974295Y7062606D02*
X35907648D01*
Y7012622D01*
X35940973Y7029283D01*
X35957632D01*
X35974295Y7012622D01*
Y6979299D01*
X35957632Y6962638D01*
X35924310D01*
X35907648Y6979299D01*
X36107584Y6962638D02*
Y7062606D01*
X36157568D01*
X36174231Y7045945D01*
Y7012622D01*
X36157568Y6995961D01*
X36107584D01*
X36224213Y6962638D02*
X36257538D01*
X36274197Y6979299D01*
Y7012622D01*
X36257538Y7029283D01*
X36224213D01*
X36207553Y7012622D01*
Y6979299D01*
X36224213Y6962638D01*
X36307520D02*
X36340842D01*
X36324182D01*
Y7062606D01*
X36307520D01*
X36390826Y7029283D02*
Y6979299D01*
X36407489Y6962638D01*
X36457471D01*
Y6945977D01*
X36440811Y6929316D01*
X36424149D01*
X36457471Y6962638D02*
Y7029283D01*
X36490796Y6962638D02*
X36524118D01*
X36507455D01*
Y7029283D01*
X36490796D01*
X36574100Y6962638D02*
Y7029283D01*
X36590762D01*
X36607425Y7012622D01*
Y6962638D01*
Y7012622D01*
X36624084Y7029283D01*
X36640747Y7012622D01*
Y6962638D01*
X36674069D02*
X36707391D01*
X36690729D01*
Y7029283D01*
X36674069D01*
X36824020Y7062606D02*
Y6962638D01*
X36774036D01*
X36757376Y6979299D01*
Y7012622D01*
X36774036Y7029283D01*
X36824020D01*
X36907327Y6962638D02*
X36874005D01*
X36857343Y6979299D01*
Y7012622D01*
X36874005Y7029283D01*
X36907327D01*
X36923987Y7012622D01*
Y6995961D01*
X36857343D01*
X35657730Y6856661D02*
X35641068Y6873323D01*
X35607745D01*
X35591086Y6856661D01*
Y6840000D01*
X35607745Y6823339D01*
X35641068D01*
X35657730Y6806678D01*
Y6790016D01*
X35641068Y6773355D01*
X35607745D01*
X35591086Y6790016D01*
X35707715Y6856661D02*
Y6840000D01*
X35691052D01*
X35724374D01*
X35707715D01*
Y6790016D01*
X35724374Y6773355D01*
X35774359D02*
X35807681D01*
X35791019D01*
Y6840000D01*
X35774359D01*
X35874326Y6773355D02*
Y6856661D01*
Y6823339D01*
X35857666D01*
X35890988D01*
X35874326D01*
Y6856661D01*
X35890988Y6873323D01*
X35957632Y6773355D02*
Y6856661D01*
Y6823339D01*
X35940973D01*
X35974295D01*
X35957632D01*
Y6856661D01*
X35974295Y6873323D01*
X36074261Y6773355D02*
X36040939D01*
X36024277Y6790016D01*
Y6823339D01*
X36040939Y6840000D01*
X36074261D01*
X36090924Y6823339D01*
Y6806678D01*
X36024277D01*
X36124246Y6773355D02*
Y6840000D01*
X36174231D01*
X36190891Y6823339D01*
Y6773355D01*
X36274197D02*
X36240875D01*
X36224213Y6790016D01*
Y6823339D01*
X36240875Y6840000D01*
X36274197D01*
X36290860Y6823339D01*
Y6806678D01*
X36224213D01*
X36324182Y6840000D02*
Y6773355D01*
Y6806678D01*
X36340842Y6823339D01*
X36357504Y6840000D01*
X36374167D01*
X36524118Y6873323D02*
Y6773355D01*
X36574100D01*
X36590762Y6790016D01*
Y6806678D01*
X36574100Y6823339D01*
X36524118D01*
X36574100D01*
X36590762Y6840000D01*
Y6856661D01*
X36574100Y6873323D01*
X36524118D01*
X36640747Y6773355D02*
X36674069D01*
X36690729Y6790016D01*
Y6823339D01*
X36674069Y6840000D01*
X36640747D01*
X36624084Y6823339D01*
Y6790016D01*
X36640747Y6773355D01*
X36740714Y6856661D02*
Y6840000D01*
X36724054D01*
X36757376D01*
X36740714D01*
Y6790016D01*
X36757376Y6773355D01*
X35849335Y6717362D02*
X35915979D01*
X35882657D01*
Y6617394D01*
X36049271Y6650717D02*
X36115915D01*
X36049271Y6684039D02*
X36115915D01*
X36249207Y6700701D02*
X36265866Y6717362D01*
X36299191D01*
X36315851Y6700701D01*
Y6634056D01*
X36299191Y6617394D01*
X36265866D01*
X36249207Y6634056D01*
Y6700701D01*
X36349173Y6617394D02*
Y6634056D01*
X36365836D01*
Y6617394D01*
X36349173D01*
X36499124D02*
X36432480D01*
X36499124Y6684039D01*
Y6700701D01*
X36482465Y6717362D01*
X36449142D01*
X36432480Y6700701D01*
X2716935Y3712638D02*
X2750258D01*
X2733597D01*
Y3812606D01*
X2716935Y3795944D01*
X2866887Y3812606D02*
X2833564Y3795944D01*
X2800242Y3762622D01*
Y3729299D01*
X2816903Y3712638D01*
X2850226D01*
X2866887Y3729299D01*
Y3745961D01*
X2850226Y3762622D01*
X2800242D01*
X2900210Y3712638D02*
Y3729299D01*
X2916871D01*
Y3712638D01*
X2900210D01*
X3050161D02*
X2983516D01*
X3050161Y3779283D01*
Y3795944D01*
X3033500Y3812606D01*
X3000177D01*
X2983516Y3795944D01*
X3083484D02*
X3150129Y3729299D01*
X3083484D02*
X3150129Y3795944D01*
X3083484Y3762622D02*
X3150129D01*
X3116806Y3729299D02*
Y3795944D01*
X3183452Y3812606D02*
X3250097D01*
Y3795944D01*
X3183452Y3729299D01*
Y3712638D01*
X3283419D02*
Y3729299D01*
X3300081D01*
Y3712638D01*
X3283419D01*
X3366726Y3795944D02*
X3383387Y3812606D01*
X3416710D01*
X3433371Y3795944D01*
Y3779283D01*
X3416710Y3762622D01*
X3400048D01*
X3416710D01*
X3433371Y3745961D01*
Y3729299D01*
X3416710Y3712638D01*
X3383387D01*
X3366726Y3729299D01*
X3566661Y3712638D02*
Y3812606D01*
X3616645D01*
X3633306Y3795944D01*
Y3762622D01*
X3616645Y3745961D01*
X3566661D01*
X3683291Y3712638D02*
X3716613D01*
X3733274Y3729299D01*
Y3762622D01*
X3716613Y3779283D01*
X3683291D01*
X3666629Y3762622D01*
Y3729299D01*
X3683291Y3712638D01*
X3766597D02*
X3799920D01*
X3783258D01*
Y3812606D01*
X3766597D01*
X3849903Y3779283D02*
Y3729299D01*
X3866565Y3712638D01*
X3916548D01*
Y3695977D01*
X3899887Y3679315D01*
X3883226D01*
X3916548Y3712638D02*
Y3779283D01*
X3949871Y3712638D02*
X3983194D01*
X3966533D01*
Y3779283D01*
X3949871D01*
X4033178Y3712638D02*
Y3779283D01*
X4049839D01*
X4066500Y3762622D01*
Y3712638D01*
Y3762622D01*
X4083162Y3779283D01*
X4099823Y3762622D01*
Y3712638D01*
X4133145D02*
X4166468D01*
X4149807D01*
Y3779283D01*
X4133145D01*
X4283097Y3812606D02*
Y3712638D01*
X4233113D01*
X4216452Y3729299D01*
Y3762622D01*
X4233113Y3779283D01*
X4283097D01*
X4366404Y3712638D02*
X4333081D01*
X4316420Y3729299D01*
Y3762622D01*
X4333081Y3779283D01*
X4366404D01*
X4383065Y3762622D01*
Y3745961D01*
X4316420D01*
X3033500Y3606661D02*
X3016839Y3623323D01*
X2983516D01*
X2966855Y3606661D01*
Y3590000D01*
X2983516Y3573339D01*
X3016839D01*
X3033500Y3556677D01*
Y3540016D01*
X3016839Y3523355D01*
X2983516D01*
X2966855Y3540016D01*
X3083484Y3606661D02*
Y3590000D01*
X3066823D01*
X3100145D01*
X3083484D01*
Y3540016D01*
X3100145Y3523355D01*
X3150129D02*
X3183452D01*
X3166790D01*
Y3590000D01*
X3150129D01*
X3250097Y3523355D02*
Y3606661D01*
Y3573339D01*
X3233435D01*
X3266758D01*
X3250097D01*
Y3606661D01*
X3266758Y3623323D01*
X3333403Y3523355D02*
Y3606661D01*
Y3573339D01*
X3316742D01*
X3350064D01*
X3333403D01*
Y3606661D01*
X3350064Y3623323D01*
X3450032Y3523355D02*
X3416710D01*
X3400048Y3540016D01*
Y3573339D01*
X3416710Y3590000D01*
X3450032D01*
X3466693Y3573339D01*
Y3556677D01*
X3400048D01*
X3500016Y3523355D02*
Y3590000D01*
X3550000D01*
X3566661Y3573339D01*
Y3523355D01*
X3649968D02*
X3616645D01*
X3599984Y3540016D01*
Y3573339D01*
X3616645Y3590000D01*
X3649968D01*
X3666629Y3573339D01*
Y3556677D01*
X3599984D01*
X3699952Y3590000D02*
Y3523355D01*
Y3556677D01*
X3716613Y3573339D01*
X3733274Y3590000D01*
X3749936D01*
X3899887Y3623323D02*
Y3523355D01*
X3949871D01*
X3966532Y3540016D01*
Y3556677D01*
X3949871Y3573339D01*
X3899887D01*
X3949871D01*
X3966532Y3590000D01*
Y3606661D01*
X3949871Y3623323D01*
X3899887D01*
X4016516Y3523355D02*
X4049839D01*
X4066500Y3540016D01*
Y3573339D01*
X4049839Y3590000D01*
X4016516D01*
X3999855Y3573339D01*
Y3540016D01*
X4016516Y3523355D01*
X4116484Y3606661D02*
Y3590000D01*
X4099823D01*
X4133145D01*
X4116484D01*
Y3540016D01*
X4133145Y3523355D01*
X3225105Y3467362D02*
X3291750D01*
X3258427D01*
Y3367394D01*
X3425040Y3400717D02*
X3491685D01*
X3425040Y3434039D02*
X3491685D01*
X3624976Y3450701D02*
X3641637Y3467362D01*
X3674960D01*
X3691621Y3450701D01*
Y3384056D01*
X3674960Y3367394D01*
X3641637D01*
X3624976Y3384056D01*
Y3450701D01*
X3724944Y3367394D02*
Y3384056D01*
X3741605D01*
Y3367394D01*
X3724944D01*
X3874895D02*
X3808250D01*
X3874895Y3434039D01*
Y3450701D01*
X3858234Y3467362D01*
X3824912D01*
X3808250Y3450701D01*
X11516936Y3712638D02*
X11550258D01*
X11533597D01*
Y3812606D01*
X11516936Y3795944D01*
X11666887Y3812606D02*
X11633564Y3795944D01*
X11600242Y3762622D01*
Y3729299D01*
X11616903Y3712638D01*
X11650226D01*
X11666887Y3729299D01*
Y3745961D01*
X11650226Y3762622D01*
X11600242D01*
X11700210Y3712638D02*
Y3729299D01*
X11716871D01*
Y3712638D01*
X11700210D01*
X11850161D02*
X11783516D01*
X11850161Y3779283D01*
Y3795944D01*
X11833500Y3812606D01*
X11800178D01*
X11783516Y3795944D01*
X11883484D02*
X11950129Y3729299D01*
X11883484D02*
X11950129Y3795944D01*
X11883484Y3762622D02*
X11950129D01*
X11916806Y3729299D02*
Y3795944D01*
X11983452Y3812606D02*
X12050097D01*
Y3795944D01*
X11983452Y3729299D01*
Y3712638D01*
X12083420D02*
Y3729299D01*
X12100081D01*
Y3712638D01*
X12083420D01*
X12166726Y3795944D02*
X12183387Y3812606D01*
X12216710D01*
X12233371Y3795944D01*
Y3779283D01*
X12216710Y3762622D01*
X12200048D01*
X12216710D01*
X12233371Y3745961D01*
Y3729299D01*
X12216710Y3712638D01*
X12183387D01*
X12166726Y3729299D01*
X12366662Y3712638D02*
Y3812606D01*
X12416645D01*
X12433307Y3795944D01*
Y3762622D01*
X12416645Y3745961D01*
X12366662D01*
X12483291Y3712638D02*
X12516613D01*
X12533274Y3729299D01*
Y3762622D01*
X12516613Y3779283D01*
X12483291D01*
X12466629Y3762622D01*
Y3729299D01*
X12483291Y3712638D01*
X12566597D02*
X12599920D01*
X12583259D01*
Y3812606D01*
X12566597D01*
X12649904Y3779283D02*
Y3729299D01*
X12666565Y3712638D01*
X12716549D01*
Y3695977D01*
X12699887Y3679315D01*
X12683226D01*
X12716549Y3712638D02*
Y3779283D01*
X12749871Y3712638D02*
X12783194D01*
X12766533D01*
Y3779283D01*
X12749871D01*
X12833179Y3712638D02*
Y3779283D01*
X12849838D01*
X12866499Y3762622D01*
Y3712638D01*
Y3762622D01*
X12883162Y3779283D01*
X12899823Y3762622D01*
Y3712638D01*
X12933147D02*
X12966467D01*
X12949808D01*
Y3779283D01*
X12933147D01*
X13083096Y3812606D02*
Y3712638D01*
X13033113D01*
X13016452Y3729299D01*
Y3762622D01*
X13033113Y3779283D01*
X13083096D01*
X13166405Y3712638D02*
X13133081D01*
X13116420Y3729299D01*
Y3762622D01*
X13133081Y3779283D01*
X13166405D01*
X13183064Y3762622D01*
Y3745961D01*
X13116420D01*
X11833500Y3606661D02*
X11816839Y3623323D01*
X11783516D01*
X11766855Y3606661D01*
Y3590000D01*
X11783516Y3573339D01*
X11816839D01*
X11833500Y3556677D01*
Y3540016D01*
X11816839Y3523355D01*
X11783516D01*
X11766855Y3540016D01*
X11883484Y3606661D02*
Y3590000D01*
X11866823D01*
X11900145D01*
X11883484D01*
Y3540016D01*
X11900145Y3523355D01*
X11950129D02*
X11983452D01*
X11966791D01*
Y3590000D01*
X11950129D01*
X12050097Y3523355D02*
Y3606661D01*
Y3573339D01*
X12033436D01*
X12066758D01*
X12050097D01*
Y3606661D01*
X12066758Y3623323D01*
X12133403Y3523355D02*
Y3606661D01*
Y3573339D01*
X12116742D01*
X12150065D01*
X12133403D01*
Y3606661D01*
X12150065Y3623323D01*
X12250032Y3523355D02*
X12216710D01*
X12200048Y3540016D01*
Y3573339D01*
X12216710Y3590000D01*
X12250032D01*
X12266694Y3573339D01*
Y3556677D01*
X12200048D01*
X12300016Y3523355D02*
Y3590000D01*
X12350000D01*
X12366661Y3573339D01*
Y3523355D01*
X12449968D02*
X12416645D01*
X12399984Y3540016D01*
Y3573339D01*
X12416645Y3590000D01*
X12449968D01*
X12466629Y3573339D01*
Y3556677D01*
X12399984D01*
X12499952Y3590000D02*
Y3523355D01*
Y3556677D01*
X12516613Y3573339D01*
X12533274Y3590000D01*
X12549936D01*
X12699887Y3623323D02*
Y3523355D01*
X12749871D01*
X12766533Y3540016D01*
Y3556677D01*
X12749871Y3573339D01*
X12699887D01*
X12749871D01*
X12766533Y3590000D01*
Y3606661D01*
X12749871Y3623323D01*
X12699887D01*
X12816518Y3523355D02*
X12849838D01*
X12866499Y3540016D01*
Y3573339D01*
X12849838Y3590000D01*
X12816518D01*
X12799855Y3573339D01*
Y3540016D01*
X12816518Y3523355D01*
X12916484Y3606661D02*
Y3590000D01*
X12899823D01*
X12933147D01*
X12916484D01*
Y3540016D01*
X12933147Y3523355D01*
X12025105Y3467362D02*
X12091750D01*
X12058427D01*
Y3367394D01*
X12225041Y3400717D02*
X12291686D01*
X12225041Y3434039D02*
X12291686D01*
X12424976Y3450701D02*
X12441638Y3467362D01*
X12474960D01*
X12491621Y3450701D01*
Y3384056D01*
X12474960Y3367394D01*
X12441638D01*
X12424976Y3384056D01*
Y3450701D01*
X12524944Y3367394D02*
Y3384056D01*
X12541605D01*
Y3367394D01*
X12524944D01*
X12674895D02*
X12608250D01*
X12674895Y3434039D01*
Y3450701D01*
X12658234Y3467362D01*
X12624912D01*
X12608250Y3450701D01*
X23316936Y3712638D02*
X23350258D01*
X23333597D01*
Y3812606D01*
X23316936Y3795944D01*
X23466887Y3812606D02*
X23433565Y3795944D01*
X23400243Y3762622D01*
Y3729299D01*
X23416904Y3712638D01*
X23450226D01*
X23466887Y3729299D01*
Y3745961D01*
X23450226Y3762622D01*
X23400243D01*
X23500211Y3712638D02*
Y3729299D01*
X23516872D01*
Y3712638D01*
X23500211D01*
X23650162D02*
X23583516D01*
X23650162Y3779283D01*
Y3795944D01*
X23633501Y3812606D01*
X23600177D01*
X23583516Y3795944D01*
X23683484D02*
X23750130Y3729299D01*
X23683484D02*
X23750130Y3795944D01*
X23683484Y3762622D02*
X23750130D01*
X23716806Y3729299D02*
Y3795944D01*
X23783452Y3812606D02*
X23850098D01*
Y3795944D01*
X23783452Y3729299D01*
Y3712638D01*
X23883418D02*
Y3729299D01*
X23900081D01*
Y3712638D01*
X23883418D01*
X23966727Y3795944D02*
X23983388Y3812606D01*
X24016710D01*
X24033371Y3795944D01*
Y3779283D01*
X24016710Y3762622D01*
X24000047D01*
X24016710D01*
X24033371Y3745961D01*
Y3729299D01*
X24016710Y3712638D01*
X23983388D01*
X23966727Y3729299D01*
X24166661Y3712638D02*
Y3812606D01*
X24216644D01*
X24233305Y3795944D01*
Y3762622D01*
X24216644Y3745961D01*
X24166661D01*
X24283292Y3712638D02*
X24316612D01*
X24333273Y3729299D01*
Y3762622D01*
X24316612Y3779283D01*
X24283292D01*
X24266629Y3762622D01*
Y3729299D01*
X24283292Y3712638D01*
X24366597D02*
X24399919D01*
X24383258D01*
Y3812606D01*
X24366597D01*
X24449902Y3779283D02*
Y3729299D01*
X24466565Y3712638D01*
X24516548D01*
Y3695977D01*
X24499887Y3679315D01*
X24483226D01*
X24516548Y3712638D02*
Y3779283D01*
X24549870Y3712638D02*
X24583194D01*
X24566533D01*
Y3779283D01*
X24549870D01*
X24633179Y3712638D02*
Y3779283D01*
X24649838D01*
X24666499Y3762622D01*
Y3712638D01*
Y3762622D01*
X24683160Y3779283D01*
X24699823Y3762622D01*
Y3712638D01*
X24733145D02*
X24766467D01*
X24749808D01*
Y3779283D01*
X24733145D01*
X24883096Y3812606D02*
Y3712638D01*
X24833113D01*
X24816452Y3729299D01*
Y3762622D01*
X24833113Y3779283D01*
X24883096D01*
X24966403Y3712638D02*
X24933081D01*
X24916420Y3729299D01*
Y3762622D01*
X24933081Y3779283D01*
X24966403D01*
X24983064Y3762622D01*
Y3745961D01*
X24916420D01*
X23633501Y3606661D02*
X23616840Y3623323D01*
X23583516D01*
X23566855Y3606661D01*
Y3590000D01*
X23583516Y3573339D01*
X23616840D01*
X23633501Y3556677D01*
Y3540016D01*
X23616840Y3523355D01*
X23583516D01*
X23566855Y3540016D01*
X23683484Y3606661D02*
Y3590000D01*
X23666823D01*
X23700145D01*
X23683484D01*
Y3540016D01*
X23700145Y3523355D01*
X23750130D02*
X23783452D01*
X23766789D01*
Y3590000D01*
X23750130D01*
X23850098Y3523355D02*
Y3606661D01*
Y3573339D01*
X23833435D01*
X23866759D01*
X23850098D01*
Y3606661D01*
X23866759Y3623323D01*
X23933403Y3523355D02*
Y3606661D01*
Y3573339D01*
X23916742D01*
X23950064D01*
X23933403D01*
Y3606661D01*
X23950064Y3623323D01*
X24050032Y3523355D02*
X24016710D01*
X24000047Y3540016D01*
Y3573339D01*
X24016710Y3590000D01*
X24050032D01*
X24066693Y3573339D01*
Y3556677D01*
X24000047D01*
X24100015Y3523355D02*
Y3590000D01*
X24150000D01*
X24166661Y3573339D01*
Y3523355D01*
X24249968D02*
X24216644D01*
X24199985Y3540016D01*
Y3573339D01*
X24216644Y3590000D01*
X24249968D01*
X24266629Y3573339D01*
Y3556677D01*
X24199985D01*
X24299953Y3590000D02*
Y3523355D01*
Y3556677D01*
X24316612Y3573339D01*
X24333273Y3590000D01*
X24349936D01*
X24499887Y3623323D02*
Y3523355D01*
X24549870D01*
X24566531Y3540016D01*
Y3556677D01*
X24549870Y3573339D01*
X24499887D01*
X24549870D01*
X24566531Y3590000D01*
Y3606661D01*
X24549870Y3623323D01*
X24499887D01*
X24616516Y3523355D02*
X24649838D01*
X24666499Y3540016D01*
Y3573339D01*
X24649838Y3590000D01*
X24616516D01*
X24599855Y3573339D01*
Y3540016D01*
X24616516Y3523355D01*
X24716484Y3606661D02*
Y3590000D01*
X24699823D01*
X24733145D01*
X24716484D01*
Y3540016D01*
X24733145Y3523355D01*
X23825105Y3467362D02*
X23891750D01*
X23858427D01*
Y3367394D01*
X24025040Y3400717D02*
X24091685D01*
X24025040Y3434039D02*
X24091685D01*
X24224976Y3450701D02*
X24241637Y3467362D01*
X24274960D01*
X24291621Y3450701D01*
Y3384056D01*
X24274960Y3367394D01*
X24241637D01*
X24224976Y3384056D01*
Y3450701D01*
X24324944Y3367394D02*
Y3384056D01*
X24341605D01*
Y3367394D01*
X24324944D01*
X24474895D02*
X24408250D01*
X24474895Y3434039D01*
Y3450701D01*
X24458234Y3467362D01*
X24424911D01*
X24408250Y3450701D01*
%TF.MD5,776b470fa15c8f9cfd60ffe5d6245373*%
M02*
