%TF.GenerationSoftware,Altium Limited,Altium Designer,24.3.1 (35)*%
G04 Layer_Physical_Order=2*
G04 Layer_Color=16711680*
%FSLAX45Y45*%
%MOMM*%
%TF.SameCoordinates,DF3E14FC-9D5E-4248-BDD6-FF016006D845*%
%TF.FilePolarity,Positive*%
%TF.FileFunction,Copper,L2,Bot,Signal*%
%TF.Part,Single*%
G01*
G75*
%TA.AperFunction,NonConductor*%
%ADD10C,0.20320*%
%TA.AperFunction,Conductor*%
%ADD16C,0.75000*%
%ADD17C,0.30000*%
%TA.AperFunction,ViaPad*%
%ADD18C,0.50000*%
D10*
X33350159Y5650000D02*
G03*
X33249841Y5650000I-50160J0D01*
G01*
Y5555655D02*
G03*
X33149841Y5550000I-49840J-5655D01*
G01*
Y5455657D02*
G03*
X33049841Y5450000I-49840J-5657D01*
G01*
Y5355655D02*
G03*
X32949841Y5350000I-49840J-5655D01*
G01*
Y5255655D02*
G03*
X32849841Y5250000I-49840J-5655D01*
G01*
Y5155655D02*
G03*
X32749841Y5150000I-49840J-5655D01*
G01*
X35672659Y4850000D02*
G03*
X35572659Y4917320I-72660J0D01*
G01*
Y4950000D02*
G03*
X35427341Y4950000I-72660J0D01*
G01*
X35527341Y4450000D02*
G03*
X35672659Y4450000I72660J0D01*
G01*
X35427341Y4550000D02*
G03*
X35527341Y4482680I72660J0D01*
G01*
X32749841Y5055655D02*
G03*
X32649841Y5050000I-49840J-5655D01*
G01*
X33150000Y4295996D02*
G03*
X33250000Y4295998I50000J4004D01*
G01*
X33050000D02*
G03*
X33150000Y4295996I50000J4002D01*
G01*
X33250000Y4295998D02*
G03*
X33350159Y4300000I50000J4002D01*
G01*
X32950000Y4295998D02*
G03*
X33050000Y4295998I50000J4002D01*
G01*
X32649841Y4300000D02*
G03*
X32750000Y4295998I50160J0D01*
G01*
X32750000D02*
G03*
X32850000Y4295998I50000J4002D01*
G01*
X32850000D02*
G03*
X32950000Y4295998I50000J4002D01*
G01*
X24550160Y5650000D02*
G03*
X24449840Y5650000I-50160J0D01*
G01*
X24450000Y4295998D02*
G03*
X24550160Y4300000I50000J4002D01*
G01*
X24449840Y5555655D02*
G03*
X24349840Y5550000I-49840J-5655D01*
G01*
Y5455657D02*
G03*
X24249840Y5450000I-49840J-5657D01*
G01*
Y5355655D02*
G03*
X24149840Y5350000I-49840J-5655D01*
G01*
Y5255655D02*
G03*
X24049840Y5250000I-49840J-5655D01*
G01*
Y5155655D02*
G03*
X23949840Y5150000I-49840J-5655D01*
G01*
Y5055655D02*
G03*
X23849840Y5050000I-49840J-5655D01*
G01*
X24250000Y4295998D02*
G03*
X24350000Y4295996I50000J4002D01*
G01*
X24150000Y4295998D02*
G03*
X24250000Y4295998I50000J4002D01*
G01*
X24350000Y4295996D02*
G03*
X24450000Y4295998I50000J4004D01*
G01*
X24050000D02*
G03*
X24150000Y4295998I50000J4002D01*
G01*
X23849840Y4300000D02*
G03*
X23950000Y4295998I50160J0D01*
G01*
X23845320Y4300000D02*
G03*
X23845320Y4300000I-45320J0D01*
G01*
X23950000Y4295998D02*
G03*
X24050000Y4295998I50000J4002D01*
G01*
X12750160Y5650000D02*
G03*
X12649840Y5650000I-50160J0D01*
G01*
Y5555655D02*
G03*
X12549840Y5550000I-49840J-5655D01*
G01*
Y5455657D02*
G03*
X12449840Y5450000I-49840J-5657D01*
G01*
Y5355655D02*
G03*
X12349840Y5350000I-49840J-5655D01*
G01*
Y5255655D02*
G03*
X12249840Y5250000I-49840J-5655D01*
G01*
X12650000Y4295998D02*
G03*
X12750160Y4300000I50000J4002D01*
G01*
X12450000Y4295998D02*
G03*
X12550000Y4295996I50000J4002D01*
G01*
D02*
G03*
X12650000Y4295998I50000J4004D01*
G01*
X12250000D02*
G03*
X12350000Y4295998I50000J4002D01*
G01*
X12350000D02*
G03*
X12450000Y4295998I50000J4002D01*
G01*
X12249840Y5155655D02*
G03*
X12149840Y5150000I-49840J-5655D01*
G01*
Y5055655D02*
G03*
X12049840Y5050000I-49840J-5655D01*
G01*
X12150000Y4295998D02*
G03*
X12250000Y4295998I50000J4002D01*
G01*
X12049840Y4300000D02*
G03*
X12150000Y4295998I50160J0D01*
G01*
X3950160Y5650000D02*
G03*
X3849840Y5650000I-50160J0D01*
G01*
Y5555655D02*
G03*
X3749840Y5550000I-49840J-5655D01*
G01*
Y5455657D02*
G03*
X3649840Y5450000I-49840J-5657D01*
G01*
Y5355655D02*
G03*
X3549840Y5350000I-49840J-5655D01*
G01*
Y5255655D02*
G03*
X3449840Y5250000I-49840J-5655D01*
G01*
Y5155655D02*
G03*
X3349840Y5150000I-49840J-5655D01*
G01*
Y5055655D02*
G03*
X3249840Y5050000I-49840J-5655D01*
G01*
X3750000Y4295996D02*
G03*
X3850000Y4295998I50000J4004D01*
G01*
X3650000D02*
G03*
X3750000Y4295996I50000J4002D01*
G01*
X3850000Y4295998D02*
G03*
X3950160Y4300000I50000J4002D01*
G01*
X3450000Y4295998D02*
G03*
X3550000Y4295998I50000J4002D01*
G01*
X3550000D02*
G03*
X3650000Y4295998I50000J4002D01*
G01*
X3250000Y4295996D02*
G03*
X3350000Y4295998I50000J4004D01*
G01*
X3249840Y4755657D02*
G03*
X3235469Y4785468I-49840J-5657D01*
G01*
X3249840Y4755657D02*
G03*
X3235469Y4785468I-49840J-5657D01*
G01*
X3350000Y4295998D02*
G03*
X3450000Y4295998I50000J4002D01*
G01*
X3235468Y4785468D02*
G03*
X3149840Y4749840I-35468J-35468D01*
G01*
X3235468Y4785468D02*
G03*
X3149840Y4750000I-35468J-35469D01*
G01*
Y4300000D02*
G03*
X3250000Y4295996I50160J0D01*
G01*
X35618805Y6248400D02*
X36396072D01*
X35669604Y6299200D02*
X36396072D01*
X35568005Y6197600D02*
X36396072D01*
X35517206Y6146800D02*
X36396072D01*
X35466406Y6096000D02*
X36396072D01*
X35415607Y6045200D02*
X36396072D01*
X35359644Y5994400D02*
X36396072D01*
X33330786Y5689600D02*
X36396072D01*
X33350159Y5638800D02*
X36396072D01*
X35720407Y6350000D02*
X36396072D01*
X35756479Y6386073D02*
X36396072D01*
X35375204Y6004797D02*
X35756479Y6386073D01*
X35354462Y5990939D02*
X35375204Y6004797D01*
X35329999Y5986073D02*
X35354462Y5990939D01*
X33324799Y5693600D02*
Y5986073D01*
X33273999Y5692895D02*
Y5986073D01*
X33223199Y5594472D02*
Y5986073D01*
X33350159Y5435600D02*
X36396072D01*
X33350159Y5486400D02*
X36396072D01*
X33350159Y5384800D02*
X36396072D01*
X33350159Y5588000D02*
X36396072D01*
X33350159Y5537200D02*
X36396072D01*
X33350159Y5232400D02*
X36396072D01*
X33350159Y5181600D02*
X36396072D01*
X33350159Y5334000D02*
X36396072D01*
X33350159Y5283200D02*
X36396072D01*
X35610800Y4921853D02*
Y6240394D01*
X35661600Y4888535D02*
Y6291194D01*
X35509201Y5022075D02*
Y6138794D01*
X35560001Y4990982D02*
Y6189594D01*
X35458401Y5009573D02*
Y6087994D01*
X33350159Y4300000D02*
Y5650000D01*
X33232742Y5588000D02*
X33249841D01*
Y5555655D02*
Y5650000D01*
X33172400Y5591884D02*
Y5986073D01*
X24550160Y5588000D02*
X33167258D01*
X24530788Y5689600D02*
X33269214D01*
X24550160Y5638800D02*
X33249841D01*
X33134512Y5486400D02*
X33149841D01*
Y5455657D02*
Y5550000D01*
X24550160Y5537200D02*
X33149841D01*
X33121600Y5495271D02*
Y5986073D01*
X33070801Y5490785D02*
Y5986073D01*
X33020001Y5396000D02*
Y5986073D01*
X32969199Y5389590D02*
Y5986073D01*
X24550160Y5384800D02*
X32963876D01*
X33036124D02*
X33049841D01*
X24550160Y5486400D02*
X33065488D01*
X24550160Y5435600D02*
X33049841D01*
Y5355655D02*
Y5450000D01*
X32949841Y5255655D02*
Y5350000D01*
X32918399Y5296663D02*
Y5986073D01*
X32867599Y5288292D02*
Y5986073D01*
X32937601Y5283200D02*
X32949841D01*
X24550160Y5334000D02*
X32949841D01*
X24550160Y5283200D02*
X32862399D01*
X32816800Y5197263D02*
Y5986073D01*
X32766000Y5186879D02*
Y5986073D01*
X32715201Y5097801D02*
Y5986073D01*
X32664401Y5085337D02*
Y5986073D01*
X32849841Y5155655D02*
Y5250000D01*
X24550160Y5232400D02*
X32849841D01*
X24550160Y5181600D02*
X32761044D01*
X35667538Y4876800D02*
X36396072D01*
X35572659Y4927600D02*
X36396072D01*
X35566879Y4978400D02*
X36396072D01*
X35572659Y4917320D02*
Y4950000D01*
X35672659Y4724400D02*
X36396072D01*
X35672659Y4673600D02*
X36396072D01*
X35672659Y4826000D02*
X36396072D01*
X35672659Y4775200D02*
X36396072D01*
X33350159Y4876800D02*
X35427341D01*
X33350159Y4978400D02*
X35433121D01*
X33350159Y4927600D02*
X35427341D01*
X33350159Y4724400D02*
X35427341D01*
X33350159Y4673600D02*
X35427341D01*
X33350159Y4826000D02*
X35427341D01*
X33350159Y4775200D02*
X35427341D01*
X35672659Y4521200D02*
X36396072D01*
X35672659Y4572000D02*
X36396072D01*
X35672659Y4470400D02*
X36396072D01*
X35672659Y4622800D02*
X36396072D01*
X35672659Y4450000D02*
Y4850000D01*
X35665994Y4419600D02*
X36396072D01*
X33350159Y4368800D02*
X36396072D01*
X33350159Y4318000D02*
X36396072D01*
X35427341Y4550000D02*
Y4950000D01*
X33350159Y4622800D02*
X35427341D01*
X33350159Y4572000D02*
X35427341D01*
X35527341Y4450000D02*
Y4482680D01*
X33350159Y4419600D02*
X35534006D01*
X33350159Y4521200D02*
X35433292D01*
X33350159Y4470400D02*
X35527341D01*
X33350159Y5130800D02*
X36396072D01*
X32838956Y5181600D02*
X32849841D01*
X32749841Y5055655D02*
Y5150000D01*
X24550160Y5130800D02*
X32749841D01*
X33350159Y5080000D02*
X36396072D01*
X33350159Y5029200D02*
X36396072D01*
X24550160Y5080000D02*
X32659799D01*
X32740201D02*
X32749841D01*
X24550160Y4622800D02*
X32649841D01*
X24550160Y4572000D02*
X32649841D01*
X24550160Y5029200D02*
X32649841D01*
X24550160Y4978400D02*
X32649841D01*
X24550160Y4419600D02*
X32649841D01*
X24550160Y4368800D02*
X32649841D01*
X24550160Y4521200D02*
X32649841D01*
X24550160Y4470400D02*
X32649841D01*
X32937949Y4267200D02*
X32962051D01*
X33237949D02*
X33262051D01*
X33337949D02*
X36396072D01*
X33037949D02*
X33062051D01*
X33137949D02*
X33162051D01*
X24550160Y4318000D02*
X32649841D01*
Y4300000D02*
Y5050000D01*
X32837949Y4267200D02*
X32862051D01*
X24537950D02*
X32662051D01*
X32737949D02*
X32762051D01*
X27178000Y4013927D02*
Y5986073D01*
X27127200Y4013927D02*
Y5986073D01*
X27228799Y4013927D02*
Y5986073D01*
X27025601Y4013927D02*
Y5986073D01*
X27076401Y4013927D02*
Y5986073D01*
X27381201Y4013927D02*
Y5986073D01*
X27432001Y4013927D02*
Y5986073D01*
X27279599Y4013927D02*
Y5986073D01*
X27330399Y4013927D02*
Y5986073D01*
X26720801Y4013927D02*
Y5986073D01*
X26670001Y4013927D02*
Y5986073D01*
X26771600Y4013927D02*
Y5986073D01*
X26568399Y4013927D02*
Y5986073D01*
X26619199Y4013927D02*
Y5986073D01*
X26923999Y4013927D02*
Y5986073D01*
X26974799Y4013927D02*
Y5986073D01*
X26822400Y4013927D02*
Y5986073D01*
X26873199Y4013927D02*
Y5986073D01*
X28041599Y4013927D02*
Y5986073D01*
X27990799Y4013927D02*
Y5986073D01*
X28092401Y4013927D02*
Y5986073D01*
X27889200Y4013927D02*
Y5986073D01*
X27939999Y4013927D02*
Y5986073D01*
X28244800Y4013927D02*
Y5986073D01*
X28295599Y4013927D02*
Y5986073D01*
X28143201Y4013927D02*
Y5986073D01*
X28194000Y4013927D02*
Y5986073D01*
X27584399Y4013927D02*
Y5986073D01*
X27635199Y4013927D02*
Y5986073D01*
X27482800Y4013927D02*
Y5986073D01*
X27533600Y4013927D02*
Y5986073D01*
X27787601Y4013927D02*
Y5986073D01*
X27838400Y4013927D02*
Y5986073D01*
X27685999Y4013927D02*
Y5986073D01*
X27736801Y4013927D02*
Y5986073D01*
X24384000Y5597540D02*
Y5986073D01*
X24282401Y5496971D02*
Y5986073D01*
X24333200Y5487600D02*
Y5986073D01*
X24180800Y5396340D02*
Y5986073D01*
X24231599Y5388955D02*
Y5986073D01*
X24536400Y5684512D02*
Y5986073D01*
X24587199Y4013927D02*
Y5986073D01*
X24485600Y5698048D02*
Y5986073D01*
X24434801Y5586124D02*
Y5986073D01*
X23875999Y5094046D02*
Y5986073D01*
X23926801Y5092400D02*
Y5986073D01*
X23825200Y4337668D02*
Y5986073D01*
X23774400Y4337397D02*
Y5986073D01*
X24079201Y5295644D02*
Y5986073D01*
X24130000Y5290200D02*
Y5986073D01*
X23977600Y5194881D02*
Y5986073D01*
X24028400Y5191346D02*
Y5986073D01*
X26009601Y4013927D02*
Y5986073D01*
X25146001Y4013927D02*
Y5986073D01*
X26314401Y4013927D02*
Y5986073D01*
X25044400Y4013927D02*
Y5986073D01*
X25095200Y4013927D02*
Y5986073D01*
X26466800Y4013927D02*
Y5986073D01*
X26517599Y4013927D02*
Y5986073D01*
X26365201Y4013927D02*
Y5986073D01*
X26416000Y4013927D02*
Y5986073D01*
X24739600Y4013927D02*
Y5986073D01*
X24790401Y4013927D02*
Y5986073D01*
X24638000Y4013927D02*
Y5986073D01*
X24688800Y4013927D02*
Y5986073D01*
X24942799Y4013927D02*
Y5986073D01*
X24993600Y4013927D02*
Y5986073D01*
X24841200Y4013927D02*
Y5986073D01*
X24892000Y4013927D02*
Y5986073D01*
X25298399Y4013927D02*
Y5986073D01*
X25247600Y4013927D02*
Y5986073D01*
X25349200Y4013927D02*
Y5986073D01*
X24550160Y4927600D02*
X32649841D01*
X24550160Y4876800D02*
X32649841D01*
X24550160Y4724400D02*
X32649841D01*
X24550160Y4673600D02*
X32649841D01*
X24550160Y4826000D02*
X32649841D01*
X24550160Y4775200D02*
X32649841D01*
X24550160Y4300000D02*
Y5650000D01*
X25196800Y4013927D02*
Y5986073D01*
X24449840Y5555655D02*
Y5650000D01*
X24485600Y4013927D02*
Y4251952D01*
X24536400Y4013927D02*
Y4265488D01*
X24437950Y4267200D02*
X24462050D01*
X25958801Y4013927D02*
Y5986073D01*
X25907999Y4013927D02*
Y5986073D01*
X26060400Y4013927D02*
Y5986073D01*
X25806400Y4013927D02*
Y5986073D01*
X25857199Y4013927D02*
Y5986073D01*
X26212799Y4013927D02*
Y5986073D01*
X26263599Y4013927D02*
Y5986073D01*
X26111200Y4013927D02*
Y5986073D01*
X26162000Y4013927D02*
Y5986073D01*
X25501601Y4013927D02*
Y5986073D01*
X25552400Y4013927D02*
Y5986073D01*
X25400000Y4013927D02*
Y5986073D01*
X25450800Y4013927D02*
Y5986073D01*
X25704800Y4013927D02*
Y5986073D01*
X25755600Y4013927D02*
Y5986073D01*
X25603201Y4013927D02*
Y5986073D01*
X25654001Y4013927D02*
Y5986073D01*
X24432742Y5588000D02*
X24449840D01*
X24349840Y5455657D02*
Y5550000D01*
X24334512Y5486400D02*
X24349840D01*
X24236125Y5384800D02*
X24249840D01*
Y5355655D02*
Y5450000D01*
X24137601Y5283200D02*
X24149840D01*
Y5255655D02*
Y5350000D01*
X24049840Y5155655D02*
Y5250000D01*
X24038956Y5181600D02*
X24049840D01*
X23949840Y5055655D02*
Y5150000D01*
X23940199Y5080000D02*
X23949840D01*
X24137950Y4267200D02*
X24162050D01*
X24384000Y4013927D02*
Y4252460D01*
X24434801Y4013927D02*
Y4263876D01*
X24237950Y4267200D02*
X24262051D01*
X24337950D02*
X24362050D01*
X23849840Y4300000D02*
Y5050000D01*
X23841592Y4318000D02*
X23849840D01*
X24037950Y4267200D02*
X24062050D01*
X23831274D02*
X23862050D01*
X23937950D02*
X23962050D01*
X32410400Y4013927D02*
Y5986073D01*
X32359601Y4013927D02*
Y5986073D01*
X32461200Y4013927D02*
Y5986073D01*
X32257999Y4013927D02*
Y5986073D01*
X32308801Y4013927D02*
Y5986073D01*
X32613599Y4013927D02*
Y5986073D01*
X33832800Y4013927D02*
Y5986073D01*
X32512000Y4013927D02*
Y5986073D01*
X32562799Y4013927D02*
Y5986073D01*
X31953201Y4013927D02*
Y5986073D01*
X31902399Y4013927D02*
Y5986073D01*
X32004001Y4013927D02*
Y5986073D01*
X31800800Y4013927D02*
Y5986073D01*
X31851599Y4013927D02*
Y5986073D01*
X32156400Y4013927D02*
Y5986073D01*
X32207199Y4013927D02*
Y5986073D01*
X32054800Y4013927D02*
Y5986073D01*
X32105600Y4013927D02*
Y5986073D01*
X36169601Y4013927D02*
Y6386073D01*
X36118799Y4013927D02*
Y6386073D01*
X36220401Y4013927D02*
Y6386073D01*
X36017200Y4013927D02*
Y6386073D01*
X36067999Y4013927D02*
Y6386073D01*
X36372800Y4013927D02*
Y6386073D01*
X36396072Y4013927D02*
Y6386073D01*
X36271201Y4013927D02*
Y6386073D01*
X36322000Y4013927D02*
Y6386073D01*
X35864801Y4013927D02*
Y6386073D01*
X35915601Y4013927D02*
Y6386073D01*
X35763199Y4013927D02*
Y6386073D01*
X35814001Y4013927D02*
Y6386073D01*
X35712399Y4013927D02*
Y6341994D01*
X35966400Y4013927D02*
Y6386073D01*
X35356799Y4013927D02*
Y5992500D01*
X35407599Y4013927D02*
Y6037194D01*
X30632401Y4013927D02*
Y5986073D01*
X30581601Y4013927D02*
Y5986073D01*
X30683200Y4013927D02*
Y5986073D01*
X30479999Y4013927D02*
Y5986073D01*
X30530801Y4013927D02*
Y5986073D01*
X30835599Y4013927D02*
Y5986073D01*
X30886401Y4013927D02*
Y5986073D01*
X30734000Y4013927D02*
Y5986073D01*
X30784799Y4013927D02*
Y5986073D01*
X30175201Y4013927D02*
Y5986073D01*
X30226001Y4013927D02*
Y5986073D01*
X30073599Y4013927D02*
Y5986073D01*
X30124399Y4013927D02*
Y5986073D01*
X30378400Y4013927D02*
Y5986073D01*
X30429199Y4013927D02*
Y5986073D01*
X30276801Y4013927D02*
Y5986073D01*
X30327600Y4013927D02*
Y5986073D01*
X31495999Y4013927D02*
Y5986073D01*
X31445200Y4013927D02*
Y5986073D01*
X31546799Y4013927D02*
Y5986073D01*
X31343600Y4013927D02*
Y5986073D01*
X31394400Y4013927D02*
Y5986073D01*
X31699200Y4013927D02*
Y5986073D01*
X31750000Y4013927D02*
Y5986073D01*
X31597601Y4013927D02*
Y5986073D01*
X31648401Y4013927D02*
Y5986073D01*
X31038800Y4013927D02*
Y5986073D01*
X31089600Y4013927D02*
Y5986073D01*
X30937201Y4013927D02*
Y5986073D01*
X30988000Y4013927D02*
Y5986073D01*
X31242001Y4013927D02*
Y5986073D01*
X31292801Y4013927D02*
Y5986073D01*
X31140399Y4013927D02*
Y5986073D01*
X31191199Y4013927D02*
Y5986073D01*
X34442401Y4013927D02*
Y5986073D01*
X34391599Y4013927D02*
Y5986073D01*
X34493201Y4013927D02*
Y5986073D01*
X34289999Y4013927D02*
Y5986073D01*
X34340799Y4013927D02*
Y5986073D01*
X34645599Y4013927D02*
Y5986073D01*
X34696399Y4013927D02*
Y5986073D01*
X34544000Y4013927D02*
Y5986073D01*
X34594800Y4013927D02*
Y5986073D01*
X33985199Y4013927D02*
Y5986073D01*
X34035999Y4013927D02*
Y5986073D01*
X33883600Y4013927D02*
Y5986073D01*
X33934399Y4013927D02*
Y5986073D01*
X34188400Y4013927D02*
Y5986073D01*
X34239200Y4013927D02*
Y5986073D01*
X34086801Y4013927D02*
Y5986073D01*
X34137601Y4013927D02*
Y5986073D01*
X35306000Y4013927D02*
Y5986073D01*
X35255200Y4013927D02*
Y5986073D01*
X35458401Y4013927D02*
Y4490427D01*
X35153601Y4013927D02*
Y5986073D01*
X35204401Y4013927D02*
Y5986073D01*
X35610800Y4013927D02*
Y4378147D01*
X35661600Y4013927D02*
Y4411465D01*
X35509201Y4013927D02*
Y4477925D01*
X35560001Y4013927D02*
Y4389341D01*
X34848801Y4013927D02*
Y5986073D01*
X34899600Y4013927D02*
Y5986073D01*
X34747198Y4013927D02*
Y5986073D01*
X34798001Y4013927D02*
Y5986073D01*
X35051999Y4013927D02*
Y5986073D01*
X35102802Y4013927D02*
Y5986073D01*
X34950400Y4013927D02*
Y5986073D01*
X35001199Y4013927D02*
Y5986073D01*
X32664401Y4013927D02*
Y4264664D01*
X30022800Y4013927D02*
Y5986073D01*
X32766000Y4013927D02*
Y4263122D01*
X29921201Y4013927D02*
Y5986073D01*
X29972000Y4013927D02*
Y5986073D01*
X32867599Y4013927D02*
Y4261708D01*
X32918399Y4013927D02*
Y4253337D01*
X32715201Y4013927D02*
Y4252199D01*
X32816800Y4013927D02*
Y4252737D01*
X29616400Y4013927D02*
Y5986073D01*
X29667200Y4013927D02*
Y5986073D01*
X29514801Y4013927D02*
Y5986073D01*
X29565601Y4013927D02*
Y5986073D01*
X29819601Y4013927D02*
Y5986073D01*
X29870401Y4013927D02*
Y5986073D01*
X29717999Y4013927D02*
Y5986073D01*
X29768799Y4013927D02*
Y5986073D01*
X33528000Y4013927D02*
Y5986073D01*
X33477200Y4013927D02*
Y5986073D01*
X33578799Y4013927D02*
Y5986073D01*
X33375601Y4013927D02*
Y5986073D01*
X33426401Y4013927D02*
Y5986073D01*
X33731201Y4013927D02*
Y5986073D01*
X33782001Y4013927D02*
Y5986073D01*
X33629599Y4013927D02*
Y5986073D01*
X33680399Y4013927D02*
Y5986073D01*
X33172400Y4013927D02*
Y4258116D01*
X33273999Y4013927D02*
Y4257105D01*
X32969199Y4013927D02*
Y4260410D01*
X33070801Y4013927D02*
Y4259216D01*
X33223199Y4013927D02*
Y4255528D01*
X33324799Y4013927D02*
Y4256400D01*
X33020001Y4013927D02*
Y4254000D01*
X33121600Y4013927D02*
Y4254729D01*
X20929601Y4013927D02*
Y5986073D01*
X20878799Y4013927D02*
Y5986073D01*
X20980400Y4013927D02*
Y5986073D01*
X20777200Y4013927D02*
Y5986073D01*
X20828000Y4013927D02*
Y5986073D01*
X21132800Y4013927D02*
Y5986073D01*
X21183600Y4013927D02*
Y5986073D01*
X21031200Y4013927D02*
Y5986073D01*
X21082001Y4013927D02*
Y5986073D01*
X20472400Y4013927D02*
Y5986073D01*
X20421600Y4013927D02*
Y5986073D01*
X20523199Y4013927D02*
Y5986073D01*
X20320000Y4013927D02*
Y5986073D01*
X20370799Y4013927D02*
Y5986073D01*
X20675600Y4013927D02*
Y5986073D01*
X20726401Y4013927D02*
Y5986073D01*
X20574001Y4013927D02*
Y5986073D01*
X20624800Y4013927D02*
Y5986073D01*
X21793201Y4013927D02*
Y5986073D01*
X21742400Y4013927D02*
Y5986073D01*
X21844000Y4013927D02*
Y5986073D01*
X21640800Y4013927D02*
Y5986073D01*
X21691600Y4013927D02*
Y5986073D01*
X21996400Y4013927D02*
Y5986073D01*
X22047200Y4013927D02*
Y5986073D01*
X21894800Y4013927D02*
Y5986073D01*
X21945599Y4013927D02*
Y5986073D01*
X21336000Y4013927D02*
Y5986073D01*
X21386800Y4013927D02*
Y5986073D01*
X21234399Y4013927D02*
Y5986073D01*
X21285201Y4013927D02*
Y5986073D01*
X21539200Y4013927D02*
Y5986073D01*
X21589999Y4013927D02*
Y5986073D01*
X21437601Y4013927D02*
Y5986073D01*
X21488400Y4013927D02*
Y5986073D01*
X19151601Y4013927D02*
Y5986073D01*
X19100800Y4013927D02*
Y5986073D01*
X19202400Y4013927D02*
Y5986073D01*
X18999200Y4013927D02*
Y5986073D01*
X19050000Y4013927D02*
Y5986073D01*
X19354800Y4013927D02*
Y5986073D01*
X19405600Y4013927D02*
Y5986073D01*
X19253200Y4013927D02*
Y5986073D01*
X19303999Y4013927D02*
Y5986073D01*
X18694400Y4013927D02*
Y5986073D01*
X18745200Y4013927D02*
Y5986073D01*
X18592799Y4013927D02*
Y5986073D01*
X18643600Y4013927D02*
Y5986073D01*
X18897600Y4013927D02*
Y5986073D01*
X18948399Y4013927D02*
Y5986073D01*
X18796001Y4013927D02*
Y5986073D01*
X18846800Y4013927D02*
Y5986073D01*
X20015199Y4013927D02*
Y5986073D01*
X19964400Y4013927D02*
Y5986073D01*
X20066000Y4013927D02*
Y5986073D01*
X19862801Y4013927D02*
Y5986073D01*
X19913600Y4013927D02*
Y5986073D01*
X20218401Y4013927D02*
Y5986073D01*
X20269200Y4013927D02*
Y5986073D01*
X20116800Y4013927D02*
Y5986073D01*
X20167599Y4013927D02*
Y5986073D01*
X19558000Y4013927D02*
Y5986073D01*
X19608800Y4013927D02*
Y5986073D01*
X19456400Y4013927D02*
Y5986073D01*
X19507201Y4013927D02*
Y5986073D01*
X19761200Y4013927D02*
Y5986073D01*
X19812000Y4013927D02*
Y5986073D01*
X19659599Y4013927D02*
Y5986073D01*
X19710400Y4013927D02*
Y5986073D01*
X28498801Y4013927D02*
Y5986073D01*
X28448001Y4013927D02*
Y5986073D01*
X28549600Y4013927D02*
Y5986073D01*
X28346399Y4013927D02*
Y5986073D01*
X28397198Y4013927D02*
Y5986073D01*
X24333200Y4013927D02*
Y4262400D01*
X28600400Y4013927D02*
Y5986073D01*
X24231599Y4013927D02*
Y4261045D01*
X24282401Y4013927D02*
Y4253029D01*
X24028400Y4013927D02*
Y4258654D01*
X24130000Y4013927D02*
Y4259800D01*
X23825200Y4013927D02*
Y4262332D01*
X23926801Y4013927D02*
Y4257600D01*
X24079201Y4013927D02*
Y4254356D01*
X24180800Y4013927D02*
Y4253660D01*
X23875999Y4013927D02*
Y4255954D01*
X23977600Y4013927D02*
Y4255120D01*
X29210001Y4013927D02*
Y5986073D01*
X29159201Y4013927D02*
Y5986073D01*
X29260800Y4013927D02*
Y5986073D01*
X29057599Y4013927D02*
Y5986073D01*
X29108401Y4013927D02*
Y5986073D01*
X29413199Y4013927D02*
Y5986073D01*
X29464001Y4013927D02*
Y5986073D01*
X29311600Y4013927D02*
Y5986073D01*
X29362399Y4013927D02*
Y5986073D01*
X28752802Y4013927D02*
Y5986073D01*
X28803601Y4013927D02*
Y5986073D01*
X28651199Y4013927D02*
Y5986073D01*
X28701999Y4013927D02*
Y5986073D01*
X28956000Y4013927D02*
Y5986073D01*
X29006799Y4013927D02*
Y5986073D01*
X28854401Y4013927D02*
Y5986073D01*
X28905200Y4013927D02*
Y5986073D01*
X22656799Y4013927D02*
Y5986073D01*
X22606000Y4013927D02*
Y5986073D01*
X22707600Y4013927D02*
Y5986073D01*
X22504401Y4013927D02*
Y5986073D01*
X22555200Y4013927D02*
Y5986073D01*
X22860001Y4013927D02*
Y5986073D01*
X22910800Y4013927D02*
Y5986073D01*
X22758400Y4013927D02*
Y5986073D01*
X22809200Y4013927D02*
Y5986073D01*
X22199600Y4013927D02*
Y5986073D01*
X22250400Y4013927D02*
Y5986073D01*
X22098000Y4013927D02*
Y5986073D01*
X22148801Y4013927D02*
Y5986073D01*
X22402800Y4013927D02*
Y5986073D01*
X22453600Y4013927D02*
Y5986073D01*
X22301199Y4013927D02*
Y5986073D01*
X22352000Y4013927D02*
Y5986073D01*
X23520399Y4013927D02*
Y5986073D01*
X23469600Y4013927D02*
Y5986073D01*
X23571201Y4013927D02*
Y5986073D01*
X23367999Y4013927D02*
Y5986073D01*
X23418800Y4013927D02*
Y5986073D01*
X23723599Y4013927D02*
Y5986073D01*
X23774400Y4013927D02*
Y4262603D01*
X23622000Y4013927D02*
Y5986073D01*
X23672800Y4013927D02*
Y5986073D01*
X23063200Y4013927D02*
Y5986073D01*
X23114000Y4013927D02*
Y5986073D01*
X22961600Y4013927D02*
Y5986073D01*
X23012399Y4013927D02*
Y5986073D01*
X23266400Y4013927D02*
Y5986073D01*
X23317200Y4013927D02*
Y5986073D01*
X23164799Y4013927D02*
Y5986073D01*
X23215601Y4013927D02*
Y5986073D01*
X12730787Y5689600D02*
X24469212D01*
X12700000Y5700160D02*
Y5986073D01*
X12750160Y5638800D02*
X24449840D01*
X12750160Y5486400D02*
X24265488D01*
X12750160Y5435600D02*
X24249840D01*
X12750160Y5588000D02*
X24367258D01*
X12750160Y5537200D02*
X24349840D01*
X12649200Y5559766D02*
Y5986073D01*
X12598400Y5600135D02*
Y5986073D01*
X12649840Y5555655D02*
Y5650000D01*
X12496800Y5500058D02*
Y5986073D01*
X12547600Y5465820D02*
Y5986073D01*
X12632742Y5588000D02*
X12649840D01*
X12549840Y5455657D02*
Y5550000D01*
X12534512Y5486400D02*
X12549840D01*
X12449840Y5355655D02*
Y5450000D01*
X12446000Y5370001D02*
Y5986073D01*
X12750160Y4300000D02*
Y5650000D01*
X12395200Y5399930D02*
Y5986073D01*
X12750160Y5384800D02*
X24163876D01*
X12750160Y5334000D02*
X24149840D01*
X12436124Y5384800D02*
X12449840D01*
X12349840Y5255655D02*
Y5350000D01*
X12090400Y5099233D02*
Y5986073D01*
X12141200Y5078611D02*
Y5986073D01*
X8483600Y4013927D02*
Y5986073D01*
X8534400Y4013927D02*
Y5986073D01*
X12293600Y5299750D02*
Y5986073D01*
X12344400Y5273338D02*
Y5986073D01*
X12192000Y5199518D02*
Y5986073D01*
X12242800Y5176157D02*
Y5986073D01*
X1310000Y5842000D02*
X36396072D01*
X1310000Y5892800D02*
X36396072D01*
X1310000Y5791200D02*
X36396072D01*
X1310000Y5986073D02*
X35329999D01*
X1310000Y5943600D02*
X36396072D01*
X3950160Y5638800D02*
X12649840D01*
X3950160Y5588000D02*
X12567258D01*
X1310000Y5740400D02*
X36396072D01*
X3930787Y5689600D02*
X12669213D01*
X7518400Y4013927D02*
Y5986073D01*
X7569200Y4013927D02*
Y5986073D01*
X3950160Y5537200D02*
X12549840D01*
X7467600Y4013927D02*
Y5986073D01*
X3950160Y5384800D02*
X12363876D01*
X3950160Y5334000D02*
X12349840D01*
X3950160Y5486400D02*
X12465488D01*
X3950160Y5435600D02*
X12449840D01*
X8178800Y4013927D02*
Y5986073D01*
X8128000Y4013927D02*
Y5986073D01*
X8229600Y4013927D02*
Y5986073D01*
X8026400Y4013927D02*
Y5986073D01*
X8077200Y4013927D02*
Y5986073D01*
X8382000Y4013927D02*
Y5986073D01*
X8432800Y4013927D02*
Y5986073D01*
X8280400Y4013927D02*
Y5986073D01*
X8331200Y4013927D02*
Y5986073D01*
X7721600Y4013927D02*
Y5986073D01*
X7772400Y4013927D02*
Y5986073D01*
X7620000Y4013927D02*
Y5986073D01*
X7670800Y4013927D02*
Y5986073D01*
X7924800Y4013927D02*
Y5986073D01*
X7975600Y4013927D02*
Y5986073D01*
X7823200Y4013927D02*
Y5986073D01*
X7874000Y4013927D02*
Y5986073D01*
X12750160Y5181600D02*
X23961044D01*
X12750160Y5130800D02*
X23949840D01*
X12750160Y5080000D02*
X23859801D01*
X12750160Y5283200D02*
X24062399D01*
X12750160Y5232400D02*
X24049840D01*
X12750160Y4724400D02*
X23849840D01*
X12750160Y4673600D02*
X23849840D01*
X12750160Y4826000D02*
X23849840D01*
X12750160Y4775200D02*
X23849840D01*
X12337600Y5283200D02*
X12349840D01*
X12249840Y5155655D02*
Y5250000D01*
X12238955Y5181600D02*
X12249840D01*
X12750160Y4927600D02*
X23849840D01*
X12750160Y4876800D02*
X23849840D01*
X12750160Y5029200D02*
X23849840D01*
X12750160Y4978400D02*
X23849840D01*
X12750160Y4470400D02*
X23849840D01*
X12750160Y4521200D02*
X23849840D01*
X12750160Y4419600D02*
X23849840D01*
X12750160Y4622800D02*
X23849840D01*
X12750160Y4572000D02*
X23849840D01*
X12750160Y4368800D02*
X23849840D01*
X12750160Y4318000D02*
X23758408D01*
X12737950Y4267200D02*
X23768726D01*
X12537950D02*
X12562050D01*
X12637950D02*
X12662050D01*
X12337950D02*
X12362050D01*
X12437950D02*
X12462051D01*
X3950160Y5181600D02*
X12161045D01*
X12149840Y5055655D02*
Y5150000D01*
X3950160Y5283200D02*
X12262400D01*
X3950160Y5232400D02*
X12249840D01*
X12140200Y5080000D02*
X12149840D01*
X3950160Y5130800D02*
X12149840D01*
X3950160Y5080000D02*
X12059800D01*
X3950160Y4927600D02*
X12049840D01*
X3950160Y4876800D02*
X12049840D01*
X3950160Y5029200D02*
X12049840D01*
X3950160Y4978400D02*
X12049840D01*
X3950160Y4724400D02*
X12049840D01*
X3950160Y4673600D02*
X12049840D01*
X3950160Y4826000D02*
X12049840D01*
X3950160Y4775200D02*
X12049840D01*
X12237950Y4267200D02*
X12262050D01*
X12137950D02*
X12162050D01*
X3937950D02*
X12062050D01*
X2665607Y4114800D02*
X36396072D01*
X2716407Y4064000D02*
X36396072D01*
X2564007Y4216400D02*
X36396072D01*
X2614807Y4165600D02*
X36396072D01*
X3950160Y4521200D02*
X12049840D01*
Y4300000D02*
Y5050000D01*
X3950160Y4622800D02*
X12049840D01*
X3950160Y4572000D02*
X12049840D01*
X3950160Y4368800D02*
X12049840D01*
X3950160Y4318000D02*
X12049840D01*
X3950160Y4470400D02*
X12049840D01*
X3950160Y4419600D02*
X12049840D01*
X3911600Y5698800D02*
Y5986073D01*
X3860800Y5681295D02*
Y5986073D01*
X3810000Y5599153D02*
Y5986073D01*
X3759200Y5579178D02*
Y5986073D01*
X3708400Y5499452D02*
Y5986073D01*
X3950160Y4300000D02*
Y5650000D01*
X6553200Y4013927D02*
Y5986073D01*
X3849840Y5555655D02*
Y5650000D01*
X3454400Y5270896D02*
Y5986073D01*
X3403600Y5200031D02*
Y5986073D01*
X3352800Y5166976D02*
Y5986073D01*
X3302000Y5100120D02*
Y5986073D01*
X3251200Y5061601D02*
Y5986073D01*
X3657600Y5476800D02*
Y5986073D01*
X3606800Y5399697D02*
Y5986073D01*
X3556000Y5374083D02*
Y5986073D01*
X3505200Y5299890D02*
Y5986073D01*
X7162800Y4013927D02*
Y5986073D01*
X7112000Y4013927D02*
Y5986073D01*
X7213600Y4013927D02*
Y5986073D01*
X7010400Y4013927D02*
Y5986073D01*
X7061200Y4013927D02*
Y5986073D01*
X7366000Y4013927D02*
Y5986073D01*
X7416800Y4013927D02*
Y5986073D01*
X7264400Y4013927D02*
Y5986073D01*
X7315200Y4013927D02*
Y5986073D01*
X6705600Y4013927D02*
Y5986073D01*
X6756400Y4013927D02*
Y5986073D01*
X6604000Y4013927D02*
Y5986073D01*
X6654800Y4013927D02*
Y5986073D01*
X6908800Y4013927D02*
Y5986073D01*
X6959600Y4013927D02*
Y5986073D01*
X6807200Y4013927D02*
Y5986073D01*
X6858000Y4013927D02*
Y5986073D01*
X1778000Y4413927D02*
Y5986073D01*
X1727200Y4413927D02*
Y5986073D01*
X1828800Y4413927D02*
Y5986073D01*
X1625600Y4413927D02*
Y5986073D01*
X1676400Y4413927D02*
Y5986073D01*
X3200400Y4800158D02*
Y5986073D01*
X1879600Y4413927D02*
Y5986073D01*
X1310000Y5689600D02*
X3869213D01*
X1310000Y5638800D02*
X3849840D01*
X1320800Y4413927D02*
Y5986073D01*
X1371600Y4413927D02*
Y5986073D01*
X1310000Y4413927D02*
Y5986073D01*
Y4413927D02*
Y5986073D01*
X1524000Y4413927D02*
Y5986073D01*
X1574800Y4413927D02*
Y5986073D01*
X1422400Y4413927D02*
Y5986073D01*
X1473200Y4413927D02*
Y5986073D01*
X2489200Y4291207D02*
Y5986073D01*
X2438400Y4342007D02*
Y5986073D01*
X2540000Y4240407D02*
Y5986073D01*
X2336800Y4413927D02*
Y5986073D01*
X2387600Y4392807D02*
Y5986073D01*
X2692400Y4088007D02*
Y5986073D01*
X2743200Y4037207D02*
Y5986073D01*
X2590800Y4189607D02*
Y5986073D01*
X2641600Y4138807D02*
Y5986073D01*
X2032000Y4413927D02*
Y5986073D01*
X2082800Y4413927D02*
Y5986073D01*
X1930400Y4413927D02*
Y5986073D01*
X1981200Y4413927D02*
Y5986073D01*
X2235200Y4413927D02*
Y5986073D01*
X2286000Y4413927D02*
Y5986073D01*
X2133600Y4413927D02*
Y5986073D01*
X2184400Y4413927D02*
Y5986073D01*
X3832742Y5588000D02*
X3849840D01*
X3749840Y5455657D02*
Y5550000D01*
X3734512Y5486400D02*
X3749840D01*
X3636125Y5384800D02*
X3649840D01*
Y5355655D02*
Y5450000D01*
X3537600Y5283200D02*
X3549840D01*
Y5255655D02*
Y5350000D01*
X3449840Y5155655D02*
Y5250000D01*
X3438955Y5181600D02*
X3449840D01*
X3349840Y5055655D02*
Y5150000D01*
X3340200Y5080000D02*
X3349840D01*
X3737950Y4267200D02*
X3762050D01*
X3837950D02*
X3862050D01*
X3537950D02*
X3562051D01*
X3637950D02*
X3662051D01*
X3249840Y4755657D02*
Y5050000D01*
X3437950Y4267200D02*
X3462050D01*
X3237950D02*
X3262050D01*
X3337950D02*
X3362050D01*
X1310000Y5486400D02*
X3665488D01*
X1310000Y5435600D02*
X3649840D01*
X1310000Y5384800D02*
X3563876D01*
X1310000Y5588000D02*
X3767258D01*
X1310000Y5537200D02*
X3749840D01*
X1310000Y5232400D02*
X3449840D01*
X1310000Y5181600D02*
X3361045D01*
X1310000Y5334000D02*
X3549840D01*
X1310000Y5283200D02*
X3462400D01*
X1310000Y5029200D02*
X3249840D01*
X1310000Y4978400D02*
X3249840D01*
X1310000Y5130800D02*
X3349840D01*
X1310000Y5080000D02*
X3259800D01*
X1310000Y4826000D02*
X3249840D01*
X1310000Y4775200D02*
X3156630D01*
X1310000Y4927600D02*
X3249840D01*
X1310000Y4876800D02*
X3249840D01*
X3149840Y4300000D02*
Y4749840D01*
X1310000Y4470400D02*
X3149840D01*
X1310000Y4419600D02*
X3149840D01*
X2513207Y4267200D02*
X3162051D01*
X2411607Y4368800D02*
X3149840D01*
X2462407Y4318000D02*
X3149840D01*
X1310000Y4622800D02*
X3149840D01*
X1310000Y4572000D02*
X3149840D01*
X1310000Y4724400D02*
X3149840D01*
X1310000Y4673600D02*
X3149840D01*
X2340000Y4413927D02*
X2364464Y4409061D01*
X2385204Y4395203D01*
X1310000Y4521200D02*
X3149840D01*
X1310000Y4413927D02*
X2340000D01*
X14681200Y4013927D02*
Y5986073D01*
X14630400Y4013927D02*
Y5986073D01*
X14732001Y4013927D02*
Y5986073D01*
X14528799Y4013927D02*
Y5986073D01*
X14579601Y4013927D02*
Y5986073D01*
X14884399Y4013927D02*
Y5986073D01*
X14935201Y4013927D02*
Y5986073D01*
X14782800Y4013927D02*
Y5986073D01*
X14833600Y4013927D02*
Y5986073D01*
X14224001Y4013927D02*
Y5986073D01*
X14173199Y4013927D02*
Y5986073D01*
X14274800Y4013927D02*
Y5986073D01*
X14071600Y4013927D02*
Y5986073D01*
X14122400Y4013927D02*
Y5986073D01*
X14427200Y4013927D02*
Y5986073D01*
X14478000Y4013927D02*
Y5986073D01*
X14325600Y4013927D02*
Y5986073D01*
X14376401Y4013927D02*
Y5986073D01*
X18288000Y4013927D02*
Y5986073D01*
X18237199Y4013927D02*
Y5986073D01*
X18338800Y4013927D02*
Y5986073D01*
X18135600Y4013927D02*
Y5986073D01*
X18186400Y4013927D02*
Y5986073D01*
X18491200Y4013927D02*
Y5986073D01*
X18542000Y4013927D02*
Y5986073D01*
X18389600Y4013927D02*
Y5986073D01*
X18440401Y4013927D02*
Y5986073D01*
X15087601Y4013927D02*
Y5986073D01*
X15138400Y4013927D02*
Y5986073D01*
X14986000Y4013927D02*
Y5986073D01*
X15036800Y4013927D02*
Y5986073D01*
X18034000Y4013927D02*
Y5986073D01*
X18084801Y4013927D02*
Y5986073D01*
X17932401Y4013927D02*
Y5986073D01*
X17983200Y4013927D02*
Y5986073D01*
X12903200Y4013927D02*
Y5986073D01*
X12852400Y4013927D02*
Y5986073D01*
X12953999Y4013927D02*
Y5986073D01*
X12750800Y4013927D02*
Y5986073D01*
X12801601Y4013927D02*
Y5986073D01*
X13106400Y4013927D02*
Y5986073D01*
X13157201Y4013927D02*
Y5986073D01*
X13004800Y4013927D02*
Y5986073D01*
X13055600Y4013927D02*
Y5986073D01*
X11785600Y4013927D02*
Y5986073D01*
X11836400Y4013927D02*
Y5986073D01*
X11684000Y4013927D02*
Y5986073D01*
X11734800Y4013927D02*
Y5986073D01*
X11988800Y4013927D02*
Y5986073D01*
X12039600Y4013927D02*
Y5986073D01*
X11887200Y4013927D02*
Y5986073D01*
X11938000Y4013927D02*
Y5986073D01*
X13766800Y4013927D02*
Y5986073D01*
X13716000Y4013927D02*
Y5986073D01*
X13817599Y4013927D02*
Y5986073D01*
X13614400Y4013927D02*
Y5986073D01*
X13665199Y4013927D02*
Y5986073D01*
X13970000Y4013927D02*
Y5986073D01*
X14020799Y4013927D02*
Y5986073D01*
X13868401Y4013927D02*
Y5986073D01*
X13919200Y4013927D02*
Y5986073D01*
X13309599Y4013927D02*
Y5986073D01*
X13360400Y4013927D02*
Y5986073D01*
X13208000Y4013927D02*
Y5986073D01*
X13258800Y4013927D02*
Y5986073D01*
X13512801Y4013927D02*
Y5986073D01*
X13563600Y4013927D02*
Y5986073D01*
X13411200Y4013927D02*
Y5986073D01*
X13462000Y4013927D02*
Y5986073D01*
X16764000Y4013927D02*
Y5986073D01*
X16713200Y4013927D02*
Y5986073D01*
X16814799Y4013927D02*
Y5986073D01*
X16611600Y4013927D02*
Y5986073D01*
X16662399Y4013927D02*
Y5986073D01*
X16967200Y4013927D02*
Y5986073D01*
X17017999Y4013927D02*
Y5986073D01*
X16865601Y4013927D02*
Y5986073D01*
X16916400Y4013927D02*
Y5986073D01*
X16306799Y4013927D02*
Y5986073D01*
X16357600Y4013927D02*
Y5986073D01*
X16205200Y4013927D02*
Y5986073D01*
X16256000Y4013927D02*
Y5986073D01*
X16510001Y4013927D02*
Y5986073D01*
X16560800Y4013927D02*
Y5986073D01*
X16408400Y4013927D02*
Y5986073D01*
X16459200Y4013927D02*
Y5986073D01*
X17627600Y4013927D02*
Y5986073D01*
X17576801Y4013927D02*
Y5986073D01*
X17678400Y4013927D02*
Y5986073D01*
X17475200Y4013927D02*
Y5986073D01*
X17525999Y4013927D02*
Y5986073D01*
X17830800Y4013927D02*
Y5986073D01*
X17881599Y4013927D02*
Y5986073D01*
X17729201Y4013927D02*
Y5986073D01*
X17780000Y4013927D02*
Y5986073D01*
X17170399Y4013927D02*
Y5986073D01*
X17221201Y4013927D02*
Y5986073D01*
X17068800Y4013927D02*
Y5986073D01*
X17119600Y4013927D02*
Y5986073D01*
X17373599Y4013927D02*
Y5986073D01*
X17424400Y4013927D02*
Y5986073D01*
X17272000Y4013927D02*
Y5986073D01*
X17322800Y4013927D02*
Y5986073D01*
X15239999Y4013927D02*
Y5986073D01*
X15189200Y4013927D02*
Y5986073D01*
X15290800Y4013927D02*
Y5986073D01*
X12547600Y4013927D02*
Y4284180D01*
X12649200Y4013927D02*
Y4290234D01*
X12598400Y4013927D02*
Y4249866D01*
X12700000Y4013927D02*
Y4249840D01*
X2766480Y4013927D02*
X36396072D01*
X12496800D02*
Y4249942D01*
X12344400Y4013927D02*
Y4276662D01*
X12446000Y4013927D02*
Y4279999D01*
X12141200Y4013927D02*
Y4271389D01*
X12242800Y4013927D02*
Y4273843D01*
X12293600Y4013927D02*
Y4250250D01*
X12395200Y4013927D02*
Y4250070D01*
X12090400Y4013927D02*
Y4250767D01*
X12192000Y4013927D02*
Y4250482D01*
X15900400Y4013927D02*
Y5986073D01*
X15849600Y4013927D02*
Y5986073D01*
X15951199Y4013927D02*
Y5986073D01*
X15748000Y4013927D02*
Y5986073D01*
X15798801Y4013927D02*
Y5986073D01*
X16103600Y4013927D02*
Y5986073D01*
X16154401Y4013927D02*
Y5986073D01*
X16002000Y4013927D02*
Y5986073D01*
X16052800Y4013927D02*
Y5986073D01*
X15443201Y4013927D02*
Y5986073D01*
X15494000Y4013927D02*
Y5986073D01*
X15341600Y4013927D02*
Y5986073D01*
X15392400Y4013927D02*
Y5986073D01*
X15646400Y4013927D02*
Y5986073D01*
X15697200Y4013927D02*
Y5986073D01*
X15544800Y4013927D02*
Y5986073D01*
X15595599Y4013927D02*
Y5986073D01*
X5842000Y4013927D02*
Y5986073D01*
X5791200Y4013927D02*
Y5986073D01*
X5892800Y4013927D02*
Y5986073D01*
X5689600Y4013927D02*
Y5986073D01*
X5740400Y4013927D02*
Y5986073D01*
X6045200Y4013927D02*
Y5986073D01*
X6096000Y4013927D02*
Y5986073D01*
X5943600Y4013927D02*
Y5986073D01*
X5994400Y4013927D02*
Y5986073D01*
X5384800Y4013927D02*
Y5986073D01*
X5435600Y4013927D02*
Y5986073D01*
X5283200Y4013927D02*
Y5986073D01*
X5334000Y4013927D02*
Y5986073D01*
X5588000Y4013927D02*
Y5986073D01*
X5638800Y4013927D02*
Y5986073D01*
X5486400Y4013927D02*
Y5986073D01*
X5537200Y4013927D02*
Y5986073D01*
X11379200Y4013927D02*
Y5986073D01*
X11328400Y4013927D02*
Y5986073D01*
X11430000Y4013927D02*
Y5986073D01*
X11226800Y4013927D02*
Y5986073D01*
X11277600Y4013927D02*
Y5986073D01*
X11582400Y4013927D02*
Y5986073D01*
X11633200Y4013927D02*
Y5986073D01*
X11480800Y4013927D02*
Y5986073D01*
X11531600Y4013927D02*
Y5986073D01*
X10922000Y4013927D02*
Y5986073D01*
X10972800Y4013927D02*
Y5986073D01*
X6146800Y4013927D02*
Y5986073D01*
X10769600Y4013927D02*
Y5986073D01*
X11125200Y4013927D02*
Y5986073D01*
X11176000Y4013927D02*
Y5986073D01*
X11023600Y4013927D02*
Y5986073D01*
X11074400Y4013927D02*
Y5986073D01*
X4114800Y4013927D02*
Y5986073D01*
X4064000Y4013927D02*
Y5986073D01*
X4165600Y4013927D02*
Y5986073D01*
X3962400Y4013927D02*
Y5986073D01*
X4013200Y4013927D02*
Y5986073D01*
X4318000Y4013927D02*
Y5986073D01*
X4368800Y4013927D02*
Y5986073D01*
X4216400Y4013927D02*
Y5986073D01*
X4267200Y4013927D02*
Y5986073D01*
X2895600Y4013927D02*
Y5986073D01*
X2946400Y4013927D02*
Y5986073D01*
X2794000Y4013927D02*
Y5986073D01*
X2844800Y4013927D02*
Y5986073D01*
X3098800Y4013927D02*
Y5986073D01*
X3149600Y4013927D02*
Y5986073D01*
X2997200Y4013927D02*
Y5986073D01*
X3048000Y4013927D02*
Y5986073D01*
X4978400Y4013927D02*
Y5986073D01*
X4927600Y4013927D02*
Y5986073D01*
X5029200Y4013927D02*
Y5986073D01*
X4826000Y4013927D02*
Y5986073D01*
X4876800Y4013927D02*
Y5986073D01*
X5181600Y4013927D02*
Y5986073D01*
X5232400Y4013927D02*
Y5986073D01*
X5080000Y4013927D02*
Y5986073D01*
X5130800Y4013927D02*
Y5986073D01*
X4521200Y4013927D02*
Y5986073D01*
X4572000Y4013927D02*
Y5986073D01*
X4419600Y4013927D02*
Y5986073D01*
X4470400Y4013927D02*
Y5986073D01*
X4724400Y4013927D02*
Y5986073D01*
X4775200Y4013927D02*
Y5986073D01*
X4622800Y4013927D02*
Y5986073D01*
X4673600Y4013927D02*
Y5986073D01*
X9702800Y4013927D02*
Y5986073D01*
X9652000Y4013927D02*
Y5986073D01*
X9753600Y4013927D02*
Y5986073D01*
X9550400Y4013927D02*
Y5986073D01*
X9601200Y4013927D02*
Y5986073D01*
X9906000Y4013927D02*
Y5986073D01*
X9956800Y4013927D02*
Y5986073D01*
X9804400Y4013927D02*
Y5986073D01*
X9855200Y4013927D02*
Y5986073D01*
X9245600Y4013927D02*
Y5986073D01*
X9296400Y4013927D02*
Y5986073D01*
X9144000Y4013927D02*
Y5986073D01*
X9194800Y4013927D02*
Y5986073D01*
X9448800Y4013927D02*
Y5986073D01*
X9499600Y4013927D02*
Y5986073D01*
X9347200Y4013927D02*
Y5986073D01*
X9398000Y4013927D02*
Y5986073D01*
X10566400Y4013927D02*
Y5986073D01*
X10515600Y4013927D02*
Y5986073D01*
X10617200Y4013927D02*
Y5986073D01*
X10414000Y4013927D02*
Y5986073D01*
X10464800Y4013927D02*
Y5986073D01*
X10820400Y4013927D02*
Y5986073D01*
X10871200Y4013927D02*
Y5986073D01*
X10668000Y4013927D02*
Y5986073D01*
X10718800Y4013927D02*
Y5986073D01*
X10109200Y4013927D02*
Y5986073D01*
X10160000Y4013927D02*
Y5986073D01*
X10007600Y4013927D02*
Y5986073D01*
X10058400Y4013927D02*
Y5986073D01*
X10312400Y4013927D02*
Y5986073D01*
X10363200Y4013927D02*
Y5986073D01*
X10210800Y4013927D02*
Y5986073D01*
X10261600Y4013927D02*
Y5986073D01*
X3860800Y4013927D02*
Y4268705D01*
X3759200Y4013927D02*
Y4270822D01*
X6197600Y4013927D02*
Y5986073D01*
X3556000Y4013927D02*
Y4275917D01*
X3657600Y4013927D02*
Y4273200D01*
X3810000Y4013927D02*
Y4250847D01*
X3911600Y4013927D02*
Y4251200D01*
X3606800Y4013927D02*
Y4250303D01*
X3708400Y4013927D02*
Y4250549D01*
X3352800Y4013927D02*
Y4283024D01*
X3454400Y4013927D02*
Y4279104D01*
X2385204Y4395203D02*
X2766480Y4013927D01*
X3251200D02*
Y4288399D01*
X3403600Y4013927D02*
Y4249969D01*
X3505200Y4013927D02*
Y4250110D01*
X3200400Y4013927D02*
Y4249842D01*
X3302000Y4013927D02*
Y4249880D01*
X8839200Y4013927D02*
Y5986073D01*
X8788400Y4013927D02*
Y5986073D01*
X8890000Y4013927D02*
Y5986073D01*
X8686800Y4013927D02*
Y5986073D01*
X8737600Y4013927D02*
Y5986073D01*
X9042400Y4013927D02*
Y5986073D01*
X9093200Y4013927D02*
Y5986073D01*
X8940800Y4013927D02*
Y5986073D01*
X8991600Y4013927D02*
Y5986073D01*
X6350000Y4013927D02*
Y5986073D01*
X6400800Y4013927D02*
Y5986073D01*
X6248400Y4013927D02*
Y5986073D01*
X6299200Y4013927D02*
Y5986073D01*
X8585200Y4013927D02*
Y5986073D01*
X8636000Y4013927D02*
Y5986073D01*
X6451600Y4013927D02*
Y5986073D01*
X6502400Y4013927D02*
Y5986073D01*
D16*
X35500000Y4550000D02*
Y4950000D01*
X35600000Y4450000D02*
Y4850000D01*
D17*
X3200000Y4300000D02*
Y4750000D01*
X3200000Y4750000D02*
X3200000Y4750000D01*
X3300000Y4300000D02*
Y5050000D01*
X3400000Y4300000D02*
Y5150000D01*
X3500000Y4300000D02*
Y5250000D01*
X3600000Y4300000D02*
Y5350000D01*
X3700000Y4300000D02*
Y5450000D01*
X3800000Y4300000D02*
Y5550000D01*
X3900000Y4300000D02*
Y5650000D01*
X12100000Y4300000D02*
Y5050000D01*
X12200000Y4300000D02*
Y5150000D01*
X12300000Y4300000D02*
Y5250000D01*
X12400000Y4300000D02*
Y5350000D01*
X12500000Y4300000D02*
Y5450000D01*
X12600000Y4300000D02*
Y5550000D01*
X12700000Y4300000D02*
Y5650000D01*
X23900000Y4300000D02*
Y5050000D01*
X24000000Y4300000D02*
Y5150000D01*
X24100000Y4300000D02*
Y5250000D01*
X24200000Y4300000D02*
Y5350000D01*
X24300000Y4300000D02*
Y5450000D01*
X24400000Y4300000D02*
Y5550000D01*
X24500000Y4300000D02*
Y5650000D01*
X33300000Y4300000D02*
Y5650000D01*
X33200000Y4300000D02*
Y5550000D01*
X33100000Y4300000D02*
Y5450000D01*
X33000000Y4300000D02*
Y5350000D01*
X32900000Y4300000D02*
Y5250000D01*
X32800000Y4300000D02*
Y5150000D01*
X32700000Y4300000D02*
Y5050000D01*
D18*
X36200021Y6200003D02*
D03*
X36300021Y6000003D02*
D03*
X36200021Y5800003D02*
D03*
X36300021Y5600003D02*
D03*
X36200021Y5400003D02*
D03*
X36300021Y5200003D02*
D03*
X36200021Y5000003D02*
D03*
X36300021Y4800003D02*
D03*
X36200021Y4600002D02*
D03*
X36300021Y4400002D02*
D03*
X36200021Y4200002D02*
D03*
X36100018Y6000003D02*
D03*
X36000018Y5800003D02*
D03*
X36100018Y5600003D02*
D03*
X36000018Y5400003D02*
D03*
X36100018Y5200003D02*
D03*
X36000018Y5000003D02*
D03*
X36100018Y4800003D02*
D03*
X36000018Y4600002D02*
D03*
X36100018Y4400002D02*
D03*
X35800018Y6200003D02*
D03*
Y5800003D02*
D03*
Y4200002D02*
D03*
X35700018Y6000003D02*
D03*
X35600018Y5800003D02*
D03*
Y4200002D02*
D03*
X35500018Y6000003D02*
D03*
X35400018Y5800003D02*
D03*
Y4600002D02*
D03*
X35500018Y4400002D02*
D03*
X35400018Y4200002D02*
D03*
X35200018Y5800003D02*
D03*
Y4600002D02*
D03*
X35300018Y4400002D02*
D03*
X35200018Y4200002D02*
D03*
X35000018Y5800003D02*
D03*
Y4600002D02*
D03*
X35100018Y4400002D02*
D03*
X35000018Y4200002D02*
D03*
X34800018Y5800003D02*
D03*
Y4600002D02*
D03*
X34900018Y4400002D02*
D03*
X34800018Y4200002D02*
D03*
X34600018Y5800003D02*
D03*
Y4600002D02*
D03*
X34700018Y4400002D02*
D03*
X34600018Y4200002D02*
D03*
X34400018Y5800003D02*
D03*
Y4600002D02*
D03*
X34500018Y4400002D02*
D03*
X34400018Y4200002D02*
D03*
X34200018Y5800003D02*
D03*
Y4600002D02*
D03*
X34300018Y4400002D02*
D03*
X34200018Y4200002D02*
D03*
X34000018Y5800003D02*
D03*
Y4600002D02*
D03*
X34100018Y4400002D02*
D03*
X34000018Y4200002D02*
D03*
X33800018Y5800003D02*
D03*
Y4600002D02*
D03*
X33900018Y4400002D02*
D03*
X33800018Y4200002D02*
D03*
X33600018Y5800003D02*
D03*
Y4600002D02*
D03*
X33700018Y4400002D02*
D03*
X33400018Y5800003D02*
D03*
Y4600002D02*
D03*
X33500018Y4400002D02*
D03*
X33400018Y4200002D02*
D03*
X33200018Y5800003D02*
D03*
X33000018D02*
D03*
X32800018D02*
D03*
X32600018D02*
D03*
X32400018D02*
D03*
X32500018Y4400002D02*
D03*
X32200018Y5800003D02*
D03*
X32300018Y4400002D02*
D03*
X32000018Y5800003D02*
D03*
X32100018Y4400002D02*
D03*
X32000018Y4200002D02*
D03*
X31800018Y5800003D02*
D03*
X31900018Y4400002D02*
D03*
X31800018Y4200002D02*
D03*
X31600018Y5800003D02*
D03*
X31700018Y4400002D02*
D03*
X31600018Y4200002D02*
D03*
X31400018Y5800003D02*
D03*
X31500018Y4400002D02*
D03*
X31400018Y4200002D02*
D03*
X31200018Y5800003D02*
D03*
X31300018Y4400002D02*
D03*
X31200018Y4200002D02*
D03*
X31000018Y5800003D02*
D03*
X31100018Y4400002D02*
D03*
X31000018Y4200002D02*
D03*
X30800018Y5800003D02*
D03*
X30900018Y4400002D02*
D03*
X30800018Y4200002D02*
D03*
X30600018Y5800003D02*
D03*
X30700018Y4400002D02*
D03*
X30600018Y4200002D02*
D03*
X30400015Y5800003D02*
D03*
X30500015Y4400002D02*
D03*
X30400015Y4200002D02*
D03*
X30200015Y5800003D02*
D03*
X30300015Y4400002D02*
D03*
X30200015Y4200002D02*
D03*
X30000015Y5800003D02*
D03*
X30100015Y4400002D02*
D03*
X30000015Y4200002D02*
D03*
X29800015Y5800003D02*
D03*
X29900015Y4400002D02*
D03*
X29800015Y4200002D02*
D03*
X29600015Y5800003D02*
D03*
X29700015Y4400002D02*
D03*
X29600015Y4200002D02*
D03*
X29400015Y5800003D02*
D03*
X29500015Y4400002D02*
D03*
X29400015Y4200002D02*
D03*
X29200015Y5800003D02*
D03*
X29300015Y4400002D02*
D03*
X29200015Y4200002D02*
D03*
X29000015Y5800003D02*
D03*
X29100015Y4400002D02*
D03*
X29000015Y4200002D02*
D03*
X28800015Y5800003D02*
D03*
X28900015Y4400002D02*
D03*
X28800015Y4200002D02*
D03*
X28600015Y5800003D02*
D03*
X28700015Y4400002D02*
D03*
X28600015Y4200002D02*
D03*
X28400015Y5800003D02*
D03*
X28500015Y4400002D02*
D03*
X28400015Y4200002D02*
D03*
X28200015Y5800003D02*
D03*
X28300015Y4400002D02*
D03*
X28200015Y4200002D02*
D03*
X28000015Y5800003D02*
D03*
X28100015Y4400002D02*
D03*
X28000015Y4200002D02*
D03*
X27800015Y5800003D02*
D03*
X27900015Y4400002D02*
D03*
X27800015Y4200002D02*
D03*
X27600015Y5800003D02*
D03*
X27700015Y4400002D02*
D03*
X27600015Y4200002D02*
D03*
X27400015Y5800003D02*
D03*
X27500015Y4400002D02*
D03*
X27400015Y4200002D02*
D03*
X27200015Y5800003D02*
D03*
X27300015Y4400002D02*
D03*
X27200015Y4200002D02*
D03*
X27000015Y5800003D02*
D03*
X27100015Y4400002D02*
D03*
X27000015Y4200002D02*
D03*
X26800015Y5800003D02*
D03*
X26900015Y4400002D02*
D03*
X26800015Y4200002D02*
D03*
X26600015Y5800003D02*
D03*
X26700015Y4400002D02*
D03*
X26600015Y4200002D02*
D03*
X26400015Y5800003D02*
D03*
X26500015Y4400002D02*
D03*
X26400015Y4200002D02*
D03*
X26200015Y5800003D02*
D03*
X26300015Y4400002D02*
D03*
X26200015Y4200002D02*
D03*
X26000015Y5800003D02*
D03*
X26100015Y4400002D02*
D03*
X26000015Y4200002D02*
D03*
X25800015Y5800003D02*
D03*
X25900015Y4400002D02*
D03*
X25800015Y4200002D02*
D03*
X25600015Y5800003D02*
D03*
X25700015Y4400002D02*
D03*
X25600015Y4200002D02*
D03*
X25400014Y5800003D02*
D03*
X25500014Y4400002D02*
D03*
X25400014Y4200002D02*
D03*
X25200014Y5800003D02*
D03*
X25300014Y4400002D02*
D03*
X25200014Y4200002D02*
D03*
X25000014Y5800003D02*
D03*
X25100014Y4400002D02*
D03*
X25000014Y4200002D02*
D03*
X24800014Y5800003D02*
D03*
X24900014Y4400002D02*
D03*
X24600014Y5800003D02*
D03*
X24700014Y4400002D02*
D03*
X24600014Y4200002D02*
D03*
X24400014Y5800003D02*
D03*
X24200014D02*
D03*
X24000014D02*
D03*
X23800014D02*
D03*
X23600014D02*
D03*
X23700014Y4400002D02*
D03*
X23400014Y5800003D02*
D03*
X23500014Y4400002D02*
D03*
X23200014Y5800003D02*
D03*
X23300014Y4400002D02*
D03*
X23200014Y4200002D02*
D03*
X23000012Y5800003D02*
D03*
X23100012Y4400002D02*
D03*
X23000012Y4200002D02*
D03*
X22800012Y5800003D02*
D03*
X22900012Y4400002D02*
D03*
X22800012Y4200002D02*
D03*
X22600012Y5800003D02*
D03*
X22700012Y4400002D02*
D03*
X22600012Y4200002D02*
D03*
X22400012Y5800003D02*
D03*
X22500012Y4400002D02*
D03*
X22400012Y4200002D02*
D03*
X22200012Y5800003D02*
D03*
X22300012Y4400002D02*
D03*
X22200012Y4200002D02*
D03*
X22000012Y5800003D02*
D03*
X22100012Y4400002D02*
D03*
X22000012Y4200002D02*
D03*
X21800012Y5800003D02*
D03*
X21900012Y4400002D02*
D03*
X21800012Y4200002D02*
D03*
X21600012Y5800003D02*
D03*
X21700012Y4400002D02*
D03*
X21600012Y4200002D02*
D03*
X21400012Y5800003D02*
D03*
X21500012Y4400002D02*
D03*
X21400012Y4200002D02*
D03*
X21200011Y5800003D02*
D03*
X21300012Y4400002D02*
D03*
X21200011Y4200002D02*
D03*
X21000011Y5800003D02*
D03*
X21100011Y4400002D02*
D03*
X21000011Y4200002D02*
D03*
X20800011Y5800003D02*
D03*
X20900011Y4400002D02*
D03*
X20800011Y4200002D02*
D03*
X20600011Y5800003D02*
D03*
X20700011Y4400002D02*
D03*
X20600011Y4200002D02*
D03*
X20400011Y5800003D02*
D03*
X20500011Y4400002D02*
D03*
X20400011Y4200002D02*
D03*
X20200011Y5800003D02*
D03*
X20300011Y4400002D02*
D03*
X20200011Y4200002D02*
D03*
X20000011Y5800003D02*
D03*
X20100011Y4400002D02*
D03*
X20000011Y4200002D02*
D03*
X19800011Y5800003D02*
D03*
X19900011Y4400002D02*
D03*
X19800011Y4200002D02*
D03*
X19600011Y5800003D02*
D03*
X19700011Y4400002D02*
D03*
X19600011Y4200002D02*
D03*
X19400011Y5800003D02*
D03*
X19500011Y4400002D02*
D03*
X19400011Y4200002D02*
D03*
X19200011Y5800003D02*
D03*
X19300011Y4400002D02*
D03*
X19200011Y4200002D02*
D03*
X19000011Y5800003D02*
D03*
X19100011Y4400002D02*
D03*
X19000011Y4200002D02*
D03*
X18800011Y5800003D02*
D03*
X18900011Y4400002D02*
D03*
X18800011Y4200002D02*
D03*
X18600011Y5800003D02*
D03*
X18700011Y4400002D02*
D03*
X18600011Y4200002D02*
D03*
X18400011Y5800003D02*
D03*
X18500011Y4400002D02*
D03*
X18400011Y4200002D02*
D03*
X18200011Y5800003D02*
D03*
X18300011Y4400002D02*
D03*
X18200011Y4200002D02*
D03*
X18000011Y5800003D02*
D03*
X18100011Y4400002D02*
D03*
X18000011Y4200002D02*
D03*
X17800011Y5800003D02*
D03*
X17900011Y4400002D02*
D03*
X17800011Y4200002D02*
D03*
X17600011Y5800003D02*
D03*
X17700011Y4400002D02*
D03*
X17600011Y4200002D02*
D03*
X17400009Y5800003D02*
D03*
X17500009Y4400002D02*
D03*
X17400009Y4200002D02*
D03*
X17200009Y5800003D02*
D03*
X17300009Y4400002D02*
D03*
X17200009Y4200002D02*
D03*
X17000009Y5800003D02*
D03*
X17100009Y4400002D02*
D03*
X17000009Y4200002D02*
D03*
X16800009Y5800003D02*
D03*
X16900009Y4400002D02*
D03*
X16800009Y4200002D02*
D03*
X16600009Y5800003D02*
D03*
X16700009Y4400002D02*
D03*
X16600009Y4200002D02*
D03*
X16400009Y5800003D02*
D03*
X16500009Y4400002D02*
D03*
X16400009Y4200002D02*
D03*
X16200009Y5800003D02*
D03*
X16300009Y4400002D02*
D03*
X16200009Y4200002D02*
D03*
X16000009Y5800003D02*
D03*
X16100009Y4400002D02*
D03*
X16000009Y4200002D02*
D03*
X15800009Y5800003D02*
D03*
X15900009Y4400002D02*
D03*
X15800009Y4200002D02*
D03*
X15600008Y5800003D02*
D03*
X15700008Y4400002D02*
D03*
X15600008Y4200002D02*
D03*
X15400008Y5800003D02*
D03*
X15500008Y4400002D02*
D03*
X15400008Y4200002D02*
D03*
X15200008Y5800003D02*
D03*
X15300008Y4400002D02*
D03*
X15200008Y4200002D02*
D03*
X15000008Y5800003D02*
D03*
X15100008Y4400002D02*
D03*
X15000008Y4200002D02*
D03*
X14800008Y5800003D02*
D03*
X14900008Y4400002D02*
D03*
X14800008Y4200002D02*
D03*
X14600008Y5800003D02*
D03*
X14700008Y4400002D02*
D03*
X14600008Y4200002D02*
D03*
X14400008Y5800003D02*
D03*
X14500008Y4400002D02*
D03*
X14400008Y4200002D02*
D03*
X14200008Y5800003D02*
D03*
X14300008Y4400002D02*
D03*
X14200008Y4200002D02*
D03*
X14000008Y5800003D02*
D03*
X14100008Y4400002D02*
D03*
X14000008Y4200002D02*
D03*
X13800008Y5800003D02*
D03*
X13900008Y4400002D02*
D03*
X13800008Y4200002D02*
D03*
X13600008Y5800003D02*
D03*
X13700008Y4400002D02*
D03*
X13600008Y4200002D02*
D03*
X13400008Y5800003D02*
D03*
X13500008Y4400002D02*
D03*
X13400008Y4200002D02*
D03*
X13200008Y5800003D02*
D03*
X13300008Y4400002D02*
D03*
X13200008Y4200002D02*
D03*
X13000008Y5800003D02*
D03*
X13100008Y4400002D02*
D03*
X12800008Y5800003D02*
D03*
X12900008Y4400002D02*
D03*
X12800008Y4200002D02*
D03*
X12600007Y5800003D02*
D03*
X12400007D02*
D03*
X12200007D02*
D03*
X12000006D02*
D03*
X11800006D02*
D03*
X11600006D02*
D03*
X11400006D02*
D03*
Y4200002D02*
D03*
X11200006Y5800003D02*
D03*
Y4200002D02*
D03*
X11000006Y5800003D02*
D03*
Y4200002D02*
D03*
X10800006Y5800003D02*
D03*
Y4200002D02*
D03*
X10600006Y5800003D02*
D03*
Y4200002D02*
D03*
X10400006Y5800003D02*
D03*
Y4200002D02*
D03*
X10200006Y5800003D02*
D03*
Y4200002D02*
D03*
X10000005Y5800003D02*
D03*
Y4200002D02*
D03*
X9800005Y5800003D02*
D03*
Y4200002D02*
D03*
X9600005Y5800003D02*
D03*
Y4200002D02*
D03*
X9400005Y5800003D02*
D03*
Y4200002D02*
D03*
X9200005Y5800003D02*
D03*
Y4200002D02*
D03*
X9000005Y5800003D02*
D03*
Y4200002D02*
D03*
X8800005Y5800003D02*
D03*
Y4200002D02*
D03*
X8600005Y5800003D02*
D03*
Y4200002D02*
D03*
X8400005Y5800003D02*
D03*
Y4200002D02*
D03*
X8200004Y5800003D02*
D03*
Y4200002D02*
D03*
X8000004Y5800003D02*
D03*
Y4200002D02*
D03*
X7800004Y5800003D02*
D03*
Y4200002D02*
D03*
X7600004Y5800003D02*
D03*
Y4200002D02*
D03*
X7400004Y5800003D02*
D03*
Y4200002D02*
D03*
X7200004Y5800003D02*
D03*
Y4200002D02*
D03*
X7000004Y5800003D02*
D03*
Y4200002D02*
D03*
X6800004Y5800003D02*
D03*
Y4200002D02*
D03*
X6600004Y5800003D02*
D03*
Y4200002D02*
D03*
X6400003Y5800003D02*
D03*
Y4200002D02*
D03*
X6200003Y5800003D02*
D03*
Y4200002D02*
D03*
X6000003Y5800003D02*
D03*
Y4200002D02*
D03*
X5800003Y5800003D02*
D03*
Y4200002D02*
D03*
X5600003Y5800003D02*
D03*
Y4200002D02*
D03*
X5400003Y5800003D02*
D03*
Y4200002D02*
D03*
X5200003Y5800003D02*
D03*
Y4200002D02*
D03*
X5000003Y5800003D02*
D03*
Y4200002D02*
D03*
X4800003Y5800003D02*
D03*
Y4200002D02*
D03*
X4600002Y5800003D02*
D03*
Y4200002D02*
D03*
X4400002Y5800003D02*
D03*
Y4200002D02*
D03*
X4200002Y5800003D02*
D03*
X4000002D02*
D03*
Y4200002D02*
D03*
X3800002Y5800003D02*
D03*
X3600002D02*
D03*
X3400002D02*
D03*
X3200002D02*
D03*
X3000002D02*
D03*
X2800002D02*
D03*
X2600001D02*
D03*
Y4200002D02*
D03*
X2400001Y5800003D02*
D03*
X2200001D02*
D03*
X2000001D02*
D03*
X1800001D02*
D03*
X1600001D02*
D03*
X1400001D02*
D03*
X3200000Y4750000D02*
D03*
Y4300000D02*
D03*
X3300000D02*
D03*
X3400000D02*
D03*
X3500000D02*
D03*
X3600000D02*
D03*
X3700000D02*
D03*
X3800000D02*
D03*
X3900000D02*
D03*
X3300000Y5050000D02*
D03*
X3400000Y5150000D02*
D03*
X3500000Y5250000D02*
D03*
X3600000Y5350000D02*
D03*
X3700000Y5450000D02*
D03*
X3800000Y5550000D02*
D03*
X3900000Y5650000D02*
D03*
X12100000Y4300000D02*
D03*
X12200000D02*
D03*
X12300000D02*
D03*
X12400000D02*
D03*
X12500000D02*
D03*
X12600000D02*
D03*
X12700000D02*
D03*
X12100000Y5050000D02*
D03*
X12200000Y5150000D02*
D03*
X12300000Y5250000D02*
D03*
X12400000Y5350000D02*
D03*
X12500000Y5450000D02*
D03*
X12600000Y5550000D02*
D03*
X12700000Y5650000D02*
D03*
X23800000Y4300000D02*
D03*
X23900000D02*
D03*
X24000000D02*
D03*
X24100000D02*
D03*
X24200000D02*
D03*
X24300000D02*
D03*
X24400000D02*
D03*
X24500000D02*
D03*
X23900000Y5050000D02*
D03*
X24000000Y5150000D02*
D03*
X24100000Y5250000D02*
D03*
X24200000Y5350000D02*
D03*
X24300000Y5450000D02*
D03*
X24400000Y5550000D02*
D03*
X24500000Y5650000D02*
D03*
X33300000D02*
D03*
X33200000Y5550000D02*
D03*
X33100000Y5450000D02*
D03*
X33000000Y5350000D02*
D03*
X32900000Y5250000D02*
D03*
X32800000Y5150000D02*
D03*
X32700000Y5050000D02*
D03*
X33300000Y4300000D02*
D03*
X33200000D02*
D03*
X33100000D02*
D03*
X33000000D02*
D03*
X32900000D02*
D03*
X32800000D02*
D03*
X32700000D02*
D03*
X35500000Y4950000D02*
D03*
Y4550000D02*
D03*
X35600000Y4850000D02*
D03*
Y4450000D02*
D03*
%TF.MD5,f2a13f5788dae97e87052aedcc96c781*%
M02*
