%TF.GenerationSoftware,Altium Limited,Altium Designer,24.3.1 (35)*%
G04 Layer_Color=65535*
%FSLAX45Y45*%
%MOMM*%
%TF.SameCoordinates,DF3E14FC-9D5E-4248-BDD6-FF016006D845*%
%TF.FilePolarity,Positive*%
%TF.FileFunction,Legend,Top*%
%TF.Part,Single*%
G01*
G75*
%TA.AperFunction,NonConductor*%
%ADD19C,0.20000*%
%ADD20C,0.25400*%
%ADD21C,0.12700*%
D19*
X35795001Y4450000D02*
G03*
X35795001Y4450000I-10000J0D01*
G01*
X12009480Y4021220D02*
G03*
X12009480Y4021220I-10000J0D01*
G01*
X3209480D02*
G03*
X3209480Y4021220I-10000J0D01*
G01*
X32609479D02*
G03*
X32609479Y4021220I-10000J0D01*
G01*
X23809480D02*
G03*
X23809480Y4021220I-10000J0D01*
G01*
D20*
X701000Y4450000D02*
G03*
X701000Y4450000I-1000J0D01*
G01*
D21*
X35950000Y4010000D02*
Y4038000D01*
Y6362000D02*
Y6390000D01*
Y4010000D02*
X36420001D01*
Y6390000D01*
X35950000D02*
X36420001D01*
X11862000Y4185000D02*
X11953000D01*
X12747000D02*
X12838000D01*
X13139999D02*
Y4655000D01*
X11560000D02*
X13139999D01*
X11560000Y4185000D02*
Y4655000D01*
Y4185000D02*
X11588000D01*
X13112000D02*
X13139999D01*
X3062000D02*
X3153000D01*
X3947000D02*
X4038000D01*
X4340000D02*
Y4655000D01*
X2760000D02*
X4340000D01*
X2760000Y4185000D02*
Y4655000D01*
Y4185000D02*
X2788000D01*
X4312000D02*
X4340000D01*
X32462000D02*
X32553000D01*
X33347000D02*
X33438000D01*
X33739999D02*
Y4655000D01*
X32160001D02*
X33739999D01*
X32160001Y4185000D02*
Y4655000D01*
Y4185000D02*
X32188000D01*
X33712000D02*
X33739999D01*
X23662000D02*
X23753000D01*
X24547000D02*
X24638000D01*
X24939999D02*
Y4655000D01*
X23360001D02*
X24939999D01*
X23360001Y4185000D02*
Y4655000D01*
Y4185000D02*
X23388000D01*
X24912000D02*
X24939999D01*
%TF.MD5,89db437a5fe29c8a58b9d0a5e8af319f*%
M02*
