%TF.GenerationSoftware,Altium Limited,Altium Designer,24.3.1 (35)*%
G04 Layer_Physical_Order=1*
G04 Layer_Color=255*
%FSLAX45Y45*%
%MOMM*%
%TF.SameCoordinates,DF3E14FC-9D5E-4248-BDD6-FF016006D845*%
%TF.FilePolarity,Positive*%
%TF.FileFunction,Copper,L1,Top,Signal*%
%TF.Part,Single*%
G01*
G75*
%TA.AperFunction,NonConductor*%
%ADD10C,0.20320*%
%TA.AperFunction,SMDPad,CuDef*%
%ADD11R,1.10000X0.30000*%
%ADD12R,0.50000X0.50000*%
%ADD13R,0.30000X1.10000*%
%ADD14R,1.00000X1.00000*%
%ADD15R,5.00000X0.75000*%
%TA.AperFunction,Conductor*%
%ADD16C,0.75000*%
%ADD17C,0.30000*%
%TA.AperFunction,ViaPad*%
%ADD18C,0.50000*%
G36*
X2820000Y4315000D02*
X2900000D01*
Y4350000D01*
X3030000D01*
Y4155000D01*
X2820000D01*
Y4315000D01*
D02*
G37*
G36*
X4070000Y4350000D02*
X4200000D01*
Y4315000D01*
X4280000D01*
Y4155000D01*
X4070000D01*
Y4350000D01*
D02*
G37*
G36*
X11620000Y4315000D02*
X11700000D01*
Y4350000D01*
X11830000D01*
Y4155000D01*
X11620000D01*
Y4315000D01*
D02*
G37*
G36*
X12870000Y4350000D02*
X13000000D01*
Y4315000D01*
X13080000D01*
Y4155000D01*
X12870000D01*
Y4350000D01*
D02*
G37*
G36*
X23420000Y4315000D02*
X23500000D01*
Y4350000D01*
X23630000D01*
Y4155000D01*
X23420000D01*
Y4315000D01*
D02*
G37*
G36*
X24670000Y4350000D02*
X24800000D01*
Y4315000D01*
X24880000D01*
Y4155000D01*
X24670000D01*
Y4350000D01*
D02*
G37*
G36*
X32220001Y4315000D02*
X32300000D01*
Y4350000D01*
X32429999D01*
Y4155000D01*
X32220001D01*
Y4315000D01*
D02*
G37*
G36*
X33470001Y4350000D02*
X33600000D01*
Y4315000D01*
X33679999D01*
Y4155000D01*
X33470001D01*
Y4350000D01*
D02*
G37*
G36*
X36114999Y4280000D02*
Y4150000D01*
X36079999D01*
Y4070000D01*
X35920001D01*
Y4280000D01*
X36114999D01*
D02*
G37*
G36*
X36079999Y6330000D02*
Y6250000D01*
X36114999D01*
Y6120000D01*
X35920001D01*
Y6330000D01*
X36079999D01*
D02*
G37*
D10*
X35940616Y5685320D02*
G03*
X35904999Y5700160I-35616J-35320D01*
G01*
X35940616Y5585320D02*
G03*
X35909003Y5600000I-35616J-35320D01*
G01*
Y5600000D02*
G03*
X35940616Y5614680I-4002J50000D01*
G01*
X35909003Y5300000D02*
G03*
X35940616Y5314680I-4002J50000D01*
G01*
Y5485320D02*
G03*
X35909003Y5500000I-35616J-35320D01*
G01*
Y5500000D02*
G03*
X35940616Y5514680I-4002J50000D01*
G01*
Y5385320D02*
G03*
X35909003Y5400000I-35616J-35320D01*
G01*
Y5400000D02*
G03*
X35940616Y5414680I-4002J50000D01*
G01*
X35802567Y5700160D02*
G03*
X35750000Y5722660I-52568J-50160D01*
G01*
X35940616Y5185320D02*
G03*
X35909003Y5200000I-35616J-35320D01*
G01*
D02*
G03*
X35940616Y5214680I-4004J50000D01*
G01*
Y5285320D02*
G03*
X35909003Y5300000I-35616J-35320D01*
G01*
X35940616Y5085320D02*
G03*
X35909003Y5100000I-35616J-35320D01*
G01*
Y5100000D02*
G03*
X35940616Y5114680I-4002J50000D01*
G01*
X35904999Y4999840D02*
G03*
X35940616Y5014680I0J50160D01*
G01*
Y4785320D02*
G03*
X35904999Y4800160I-35616J-35320D01*
G01*
Y4699840D02*
G03*
X35940616Y4714680I0J50160D01*
G01*
Y4485320D02*
G03*
X35909003Y4500000I-35616J-35320D01*
G01*
X35940616Y4585320D02*
G03*
X35904999Y4600160I-35616J-35320D01*
G01*
Y4399840D02*
G03*
X35940616Y4414680I0J50160D01*
G01*
X35909003Y4500000D02*
G03*
X35940616Y4514680I-4002J50000D01*
G01*
X35750000Y4977340D02*
G03*
X35802567Y4999840I0J72660D01*
G01*
Y4800160D02*
G03*
X35750000Y4822660I-52569J-50160D01*
G01*
Y4677340D02*
G03*
X35802567Y4699840I0J72660D01*
G01*
X35672659Y4850000D02*
G03*
X35600000Y4922660I-72660J0D01*
G01*
X35572659Y4950000D02*
G03*
X35567319Y4977340I-72660J0D01*
G01*
Y4922660D02*
G03*
X35572659Y4950000I-67320J27340D01*
G01*
X35667319Y4822660D02*
G03*
X35672659Y4850000I-67320J27340D01*
G01*
X35802567Y4600160D02*
G03*
X35750000Y4622660I-52569J-50160D01*
G01*
X35500000D02*
G03*
X35500000Y4477340I0J-72660D01*
G01*
X35532681D02*
G03*
X35600000Y4377340I67320J-27340D01*
G01*
X35750000D02*
G03*
X35802567Y4399840I0J72660D01*
G01*
X32672659Y4650000D02*
G03*
X32667319Y4677340I-72660J0D01*
G01*
X32650159Y4597431D02*
G03*
X32672659Y4650000I-50160J52569D01*
G01*
X23850160Y4497432D02*
G03*
X23872659Y4550000I-50160J52568D01*
G01*
D02*
G03*
X23867320Y4577340I-72660J0D01*
G01*
X33350159Y4300000D02*
G03*
X33250000Y4304002I-50160J0D01*
G01*
X32950000Y4304003D02*
G03*
X32850000Y4304002I-50000J-4003D01*
G01*
X32850000D02*
G03*
X32750000Y4304002I-50000J-4002D01*
G01*
X32750000D02*
G03*
X32650159Y4305657I-50000J-4002D01*
G01*
X33150000Y4304004D02*
G03*
X33064532Y4335468I-50000J-4004D01*
G01*
X33064532Y4335468D02*
G03*
X33050000Y4304003I35468J-35468D01*
G01*
X33064532Y4335468D02*
G03*
X33050000Y4304003I35468J-35468D01*
G01*
X33250000Y4304002D02*
G03*
X33150000Y4304004I-50000J-4002D01*
G01*
X33150000Y4304002D02*
G03*
X33064532Y4335468I-50000J-4002D01*
G01*
X32964532Y4335468D02*
G03*
X32950000Y4304003I35468J-35468D01*
G01*
X32964532Y4335468D02*
G03*
X32950000Y4304003I35468J-35468D01*
G01*
X33050000Y4304002D02*
G03*
X32964532Y4335468I-50000J-4002D01*
G01*
X33050000Y4304003D02*
G03*
X32964532Y4335468I-50000J-4003D01*
G01*
X33335321Y4104384D02*
G03*
X33350159Y4140000I-35320J35616D01*
G01*
X33250000Y4135998D02*
G03*
X33264679Y4104384I50000J4002D01*
G01*
X33235321D02*
G03*
X33250000Y4135998I-35320J35616D01*
G01*
X32850000D02*
G03*
X32864679Y4104384I50000J4002D01*
G01*
X33035321D02*
G03*
X33050000Y4135998I-35320J35616D01*
G01*
X32835321Y4104384D02*
G03*
X32850000Y4135998I-35320J35616D01*
G01*
X33135321Y4104384D02*
G03*
X33150000Y4135998I-35320J35616D01*
G01*
X33050000D02*
G03*
X33064679Y4104384I50000J4002D01*
G01*
X32650000Y4135998D02*
G03*
X32664679Y4104384I50000J4002D01*
G01*
X32635321D02*
G03*
X32650000Y4135998I-35320J35616D01*
G01*
X32750000D02*
G03*
X32764679Y4104384I50000J4002D01*
G01*
X32735321D02*
G03*
X32750000Y4135998I-35320J35616D01*
G01*
X33150000D02*
G03*
X33164679Y4104384I50000J4002D01*
G01*
X32950000Y4135997D02*
G03*
X32964679Y4104384I50000J4004D01*
G01*
X32935321D02*
G03*
X32950000Y4135997I-35320J35616D01*
G01*
X32549841Y4140000D02*
G03*
X32564679Y4104384I50160J0D01*
G01*
X24350000Y4304004D02*
G03*
X24264532Y4335468I-50000J-4004D01*
G01*
X24450000Y4304002D02*
G03*
X24350000Y4304004I-50000J-4002D01*
G01*
X24350000Y4304002D02*
G03*
X24264532Y4335468I-50000J-4002D01*
G01*
X24550160Y4300000D02*
G03*
X24450000Y4304002I-50160J0D01*
G01*
X24164532Y4335468D02*
G03*
X24150000Y4304003I35468J-35468D01*
G01*
X24164532Y4335468D02*
G03*
X24150000Y4304003I35468J-35468D01*
G01*
X24250000Y4304002D02*
G03*
X24164532Y4335468I-50000J-4002D01*
G01*
X24250000Y4304003D02*
G03*
X24164532Y4335468I-50000J-4003D01*
G01*
X24264532Y4335468D02*
G03*
X24250000Y4304003I35468J-35468D01*
G01*
X24264532Y4335468D02*
G03*
X24250000Y4304003I35468J-35468D01*
G01*
X24450000Y4135998D02*
G03*
X24464680Y4104384I50000J4002D01*
G01*
X24435320D02*
G03*
X24450000Y4135998I-35320J35616D01*
G01*
X24535320Y4104384D02*
G03*
X24550160Y4140000I-35320J35616D01*
G01*
X24250000Y4135998D02*
G03*
X24264680Y4104384I50000J4002D01*
G01*
X24335320D02*
G03*
X24350000Y4135998I-35320J35616D01*
G01*
X24235320Y4104384D02*
G03*
X24250000Y4135998I-35320J35616D01*
G01*
X24350000D02*
G03*
X24364680Y4104384I50000J4002D01*
G01*
X24150000Y4135997D02*
G03*
X24164680Y4104384I50000J4004D01*
G01*
X24135320D02*
G03*
X24150000Y4135997I-35320J35616D01*
G01*
X24050000Y4304002D02*
G03*
X23950000Y4304002I-50000J-4002D01*
G01*
X24150000Y4304003D02*
G03*
X24050000Y4304002I-50000J-4003D01*
G01*
X23950000D02*
G03*
X23850160Y4305657I-50000J-4002D01*
G01*
X23835320Y4104384D02*
G03*
X23850000Y4135998I-35320J35616D01*
G01*
X23749840Y4140000D02*
G03*
X23764680Y4104384I50160J0D01*
G01*
X23950000Y4135998D02*
G03*
X23964680Y4104384I50000J4002D01*
G01*
X24050000Y4135998D02*
G03*
X24064680Y4104384I50000J4002D01*
G01*
X24035320D02*
G03*
X24050000Y4135998I-35320J35616D01*
G01*
X23850000D02*
G03*
X23864680Y4104384I50000J4002D01*
G01*
X23935320D02*
G03*
X23950000Y4135998I-35320J35616D01*
G01*
X12072660Y4450000D02*
G03*
X12067320Y4477340I-72660J0D01*
G01*
X12050160Y4397431D02*
G03*
X12072660Y4450000I-50160J52569D01*
G01*
X12550000Y4304004D02*
G03*
X12464532Y4335468I-50000J-4004D01*
G01*
X12464532Y4335468D02*
G03*
X12450000Y4304003I35468J-35468D01*
G01*
X12364532Y4335468D02*
G03*
X12350000Y4304003I35468J-35468D01*
G01*
X12364532Y4335468D02*
G03*
X12350000Y4304003I35468J-35468D01*
G01*
X12464532Y4335468D02*
G03*
X12450000Y4304003I35468J-35468D01*
G01*
D02*
G03*
X12364532Y4335468I-50000J-4003D01*
G01*
X3750000Y4304004D02*
G03*
X3664532Y4335468I-50000J-4004D01*
G01*
X3650000Y4304003D02*
G03*
X3564532Y4335468I-50000J-4003D01*
G01*
X3664532Y4335468D02*
G03*
X3650000Y4304003I35468J-35468D01*
G01*
X3664532Y4335468D02*
G03*
X3650000Y4304003I35468J-35468D01*
G01*
X3250000Y4304004D02*
G03*
X3164532Y4335468I-50000J-4004D01*
G01*
X12735320Y4104384D02*
G03*
X12750160Y4140000I-35320J35616D01*
G01*
Y4300000D02*
G03*
X12650000Y4304002I-50160J0D01*
G01*
X12650000Y4135998D02*
G03*
X12664680Y4104384I50000J4002D01*
G01*
X12650000Y4304002D02*
G03*
X12550000Y4304004I-50000J-4002D01*
G01*
X12635320Y4104384D02*
G03*
X12650000Y4135998I-35320J35616D01*
G01*
X12550000D02*
G03*
X12564680Y4104384I50000J4002D01*
G01*
X12450000Y4304002D02*
G03*
X12364532Y4335468I-50000J-4002D01*
G01*
X12550000Y4304002D02*
G03*
X12464532Y4335468I-50000J-4002D01*
G01*
X12435320Y4104384D02*
G03*
X12450000Y4135998I-35320J35616D01*
G01*
X12450000D02*
G03*
X12464680Y4104384I50000J4002D01*
G01*
X12250000Y4135998D02*
G03*
X12264680Y4104384I50000J4002D01*
G01*
X12350000Y4304003D02*
G03*
X12250000Y4304002I-50000J-4003D01*
G01*
X12250000D02*
G03*
X12150000Y4304002I-50000J-4002D01*
G01*
X12235320Y4104384D02*
G03*
X12250000Y4135998I-35320J35616D01*
G01*
X12150000D02*
G03*
X12164680Y4104384I50000J4002D01*
G01*
X12535320Y4104384D02*
G03*
X12550000Y4135998I-35320J35616D01*
G01*
X12350000Y4135997D02*
G03*
X12364680Y4104384I50000J4004D01*
G01*
X12335320Y4104384D02*
G03*
X12350000Y4135997I-35320J35616D01*
G01*
X12150000Y4304002D02*
G03*
X12050160Y4305655I-50000J-4002D01*
G01*
X12135320Y4104384D02*
G03*
X12150000Y4135998I-35320J35616D01*
G01*
X12035320Y4104384D02*
G03*
X12050000Y4135998I-35320J35616D01*
G01*
X12050000D02*
G03*
X12064680Y4104384I50000J4002D01*
G01*
X11949840Y4140000D02*
G03*
X11964680Y4104384I50160J0D01*
G01*
X3850000Y4304002D02*
G03*
X3750000Y4304004I-50000J-4002D01*
G01*
X3750000Y4304002D02*
G03*
X3664532Y4335468I-50000J-4002D01*
G01*
X3935320Y4104384D02*
G03*
X3950160Y4140000I-35320J35616D01*
G01*
Y4300000D02*
G03*
X3850000Y4304002I-50160J0D01*
G01*
X3750000Y4135998D02*
G03*
X3764680Y4104384I50000J4002D01*
G01*
X3850000Y4135998D02*
G03*
X3864680Y4104384I50000J4002D01*
G01*
X3835320D02*
G03*
X3850000Y4135998I-35320J35616D01*
G01*
X3650000D02*
G03*
X3664680Y4104384I50000J4002D01*
G01*
X3735320D02*
G03*
X3750000Y4135998I-35320J35616D01*
G01*
X3564532Y4335468D02*
G03*
X3550000Y4304003I35468J-35468D01*
G01*
X3564532Y4335468D02*
G03*
X3550000Y4304003I35468J-35468D01*
G01*
X3450000Y4304002D02*
G03*
X3350000Y4304002I-50000J-4002D01*
G01*
X3650000Y4304002D02*
G03*
X3564532Y4335468I-50000J-4002D01*
G01*
X3550000Y4304003D02*
G03*
X3450000Y4304002I-50000J-4003D01*
G01*
X3350000D02*
G03*
X3250000Y4304004I-50000J-4002D01*
G01*
X3250000Y4304002D02*
G03*
X3164532Y4335468I-50000J-4002D01*
G01*
X3164532Y4335468D02*
G03*
X3149840Y4300000I35468J-35468D01*
G01*
X3164532Y4335468D02*
G03*
X3149840Y4300000I35468J-35468D01*
G01*
X3550000Y4135997D02*
G03*
X3564680Y4104384I50000J4004D01*
G01*
X3335320D02*
G03*
X3350000Y4135998I-35320J35616D01*
G01*
X3250000D02*
G03*
X3264680Y4104384I50000J4002D01*
G01*
X3149840Y4140000D02*
G03*
X3164680Y4104384I50160J0D01*
G01*
X3635320D02*
G03*
X3650000Y4135998I-35320J35616D01*
G01*
X3535320Y4104384D02*
G03*
X3550000Y4135997I-35320J35616D01*
G01*
X3450000Y4135998D02*
G03*
X3464680Y4104384I50000J4002D01*
G01*
X3435320D02*
G03*
X3450000Y4135998I-35320J35616D01*
G01*
X3235320Y4104384D02*
G03*
X3250000Y4135998I-35320J35616D01*
G01*
X3350000D02*
G03*
X3364680Y4104384I50000J4002D01*
G01*
X36114999Y6270718D02*
X36122928Y6269141D01*
X36129651Y6264650D01*
X36118799Y6269962D02*
Y6386073D01*
X36134140Y6257928D02*
X36135718Y6250000D01*
X36129651Y6264650D02*
X36134140Y6257928D01*
X36100717Y6299200D02*
X36396072D01*
X36083609Y6350000D02*
X36396072D01*
X36100717Y6270718D02*
X36114999D01*
X36100717D02*
Y6330000D01*
X36135718Y6197600D02*
X36396072D01*
X36135718Y6146800D02*
X36396072D01*
X36135718Y6248400D02*
X36396072D01*
X36134140Y6112072D02*
X36135718Y6120000D01*
Y6250000D01*
X36129651Y6105350D02*
X36134140Y6112072D01*
X36122928Y6100859D02*
X36129651Y6105350D01*
X36114999Y6099282D02*
X36122928Y6100859D01*
X35920001Y6099282D02*
X36114999D01*
X36017200Y6350718D02*
Y6386073D01*
X36067999Y6350718D02*
Y6386073D01*
X35966400Y6350718D02*
Y6386073D01*
X36087927Y6349141D02*
X36094650Y6344650D01*
X36079999Y6350718D02*
X36087927Y6349141D01*
X35920001Y6350718D02*
X36079999D01*
X35915601Y6349843D02*
Y6386073D01*
X35912070Y6349141D02*
X35920001Y6350718D01*
X35905350Y6344650D02*
X35912070Y6349141D01*
X36094650Y6344650D02*
X36099142Y6337928D01*
X36100717Y6330000D01*
X35900858Y6112072D02*
X35905350Y6105350D01*
X35912070Y6100859D02*
X35920001Y6099282D01*
X35905350Y6105350D02*
X35912070Y6100859D01*
X35900858Y6337928D02*
X35905350Y6344650D01*
X35899283Y6330000D02*
X35900858Y6337928D01*
X35899283Y6120000D02*
X35900858Y6112072D01*
X35899283Y6120000D02*
Y6330000D01*
X35980319Y5638800D02*
X36396072D01*
X35980319Y5537200D02*
X36396072D01*
X35940616Y5585320D02*
X35980319D01*
Y5514680D02*
Y5585320D01*
X35940616Y5514680D02*
X35980319D01*
X35935788Y5689600D02*
X36396072D01*
X35940616Y5614680D02*
X35980319D01*
X35939511Y5486400D02*
X36396072D01*
X35937741Y5588000D02*
X36396072D01*
X35980319Y5435600D02*
X36396072D01*
X35980319Y5384800D02*
X36396072D01*
X35980319Y5414680D02*
Y5485320D01*
Y5334000D02*
X36396072D01*
X35980319Y5314680D02*
Y5385320D01*
X35940616Y5414680D02*
X35980319D01*
X35940616Y5485320D02*
X35980319D01*
X35940616Y5314680D02*
X35980319D01*
X35940616Y5385320D02*
X35980319D01*
X35966400Y5685320D02*
Y6099282D01*
X35940616Y5685320D02*
X35980319D01*
X35915601Y5699027D02*
Y6100157D01*
X35980319Y5614680D02*
Y5685320D01*
X35966400Y5585320D02*
Y5614680D01*
X35864801Y5700160D02*
Y6386073D01*
X35966400Y5385320D02*
Y5414680D01*
Y5485320D02*
Y5514680D01*
Y5285320D02*
Y5314680D01*
X35756479Y6386073D02*
X36396072D01*
X35720407Y6350000D02*
X35916391D01*
X35669604Y6299200D02*
X35899283D01*
X35568005Y6197600D02*
X35899283D01*
X35618805Y6248400D02*
X35899283D01*
X35466406Y6096000D02*
X36396072D01*
X35517206Y6146800D02*
X35899283D01*
X35415607Y6045200D02*
X36396072D01*
X35375204Y6004797D02*
X35756479Y6386073D01*
X35354462Y5990939D02*
X35375204Y6004797D01*
X35359644Y5994400D02*
X36396072D01*
X35329999Y5986073D02*
X35354462Y5990939D01*
X34747198Y5722660D02*
Y5986073D01*
X34696399Y5722660D02*
Y5986073D01*
X34544000Y5722660D02*
Y5986073D01*
X34493201Y5722660D02*
Y5986073D01*
X34645599Y5722660D02*
Y5986073D01*
X34594800Y5722660D02*
Y5986073D01*
X33832800Y5722660D02*
Y5986073D01*
X33883600Y5722660D02*
Y5986073D01*
X33782001Y5722660D02*
Y5986073D01*
X33985199Y5722660D02*
Y5986073D01*
X33934399Y5722660D02*
Y5986073D01*
X33629599Y5722660D02*
Y5986073D01*
X33578799Y5722660D02*
Y5986073D01*
X33731201Y5722660D02*
Y5986073D01*
X33680399Y5722660D02*
Y5986073D01*
X34289999Y5722660D02*
Y5986073D01*
X34340799Y5722660D02*
Y5986073D01*
X34239200Y5722660D02*
Y5986073D01*
X34442401Y5722660D02*
Y5986073D01*
X34391599Y5722660D02*
Y5986073D01*
X34086801Y5722660D02*
Y5986073D01*
X34035999Y5722660D02*
Y5986073D01*
X34188400Y5722660D02*
Y5986073D01*
X34137601Y5722660D02*
Y5986073D01*
X35712399Y5722660D02*
Y6341994D01*
X35661600Y5722660D02*
Y6291194D01*
X35610800Y5722660D02*
Y6240394D01*
X35814001Y5700160D02*
Y6386073D01*
X35763199Y5721451D02*
Y6386073D01*
X35458401Y5722660D02*
Y6087994D01*
X35407599Y5722660D02*
Y6037194D01*
X35560001Y5722660D02*
Y6189594D01*
X35509201Y5722660D02*
Y6138794D01*
X35356799Y5722660D02*
Y5992500D01*
X35306000Y5722660D02*
Y5986073D01*
X35255200Y5722660D02*
Y5986073D01*
X35802567Y5700160D02*
X35904999D01*
X33300000Y5722660D02*
X35750000D01*
X35102802D02*
Y5986073D01*
X35204401Y5722660D02*
Y5986073D01*
X35153601Y5722660D02*
Y5986073D01*
X33324799Y5722660D02*
Y5986073D01*
X33375601Y5722660D02*
Y5986073D01*
X33273999Y5722660D02*
Y5986073D01*
X33477200Y5722660D02*
Y5986073D01*
X33426401Y5722660D02*
Y5986073D01*
X33121600Y5722660D02*
Y5986073D01*
X33070801Y5722660D02*
Y5986073D01*
X33223199Y5722660D02*
Y5986073D01*
X33172400Y5722660D02*
Y5986073D01*
X34950400Y5722660D02*
Y5986073D01*
X34899600Y5722660D02*
Y5986073D01*
X35051999Y5722660D02*
Y5986073D01*
X35001199Y5722660D02*
Y5986073D01*
X33528000Y5722660D02*
Y5986073D01*
X24500000Y5722660D02*
X33300000D01*
X34848801D02*
Y5986073D01*
X34798001Y5722660D02*
Y5986073D01*
X35980319Y5232400D02*
X36396072D01*
X35980319Y5181600D02*
X36396072D01*
X35980319Y5283200D02*
X36396072D01*
X35980319Y5130800D02*
X36396072D01*
X35980319Y5014680D02*
Y5085320D01*
X35940616Y5214680D02*
X35980319D01*
X35940616Y5285320D02*
X35980319D01*
X35940616Y5185320D02*
X35980319D01*
Y5214680D02*
Y5285320D01*
Y4927600D02*
X36396072D01*
X35980319Y4876800D02*
X36396072D01*
X35980319Y4978400D02*
X36396072D01*
X35980319Y4826000D02*
X36396072D01*
X35980319Y4814680D02*
Y4885320D01*
Y5029200D02*
X36396072D01*
X35980319Y5080000D02*
X36396072D01*
X35980319Y4914680D02*
Y4985320D01*
X35940616Y5014680D02*
X35980319D01*
X35966400Y5185320D02*
Y5214680D01*
X35940616Y5114680D02*
X35980319D01*
Y5185320D01*
X35966400Y5085320D02*
Y5114680D01*
X35940616Y5085320D02*
X35980319D01*
X35966400Y4985320D02*
Y5014680D01*
X35915601Y4985320D02*
Y5000973D01*
X35966400Y4885320D02*
Y4914680D01*
X35915601Y4885320D02*
Y4914680D01*
X35864801Y4985320D02*
Y4999840D01*
Y4885320D02*
Y4914680D01*
X35829681D02*
Y4985320D01*
X35980319Y4724400D02*
X36396072D01*
X35980319Y4673600D02*
X36396072D01*
X35980319Y4775200D02*
X36396072D01*
X35980319Y4622800D02*
X36396072D01*
X35980319Y4614680D02*
Y4685320D01*
Y4714680D02*
Y4785320D01*
X35940616Y4714680D02*
X35980319D01*
X35940616Y4585320D02*
X35980319D01*
X35829681Y4685320D02*
X35980319D01*
Y4521200D02*
X36396072D01*
X35980319Y4470400D02*
X36396072D01*
X35980319Y4572000D02*
X36396072D01*
X35980319Y4419600D02*
X36396072D01*
X35980319Y4414680D02*
Y4485320D01*
Y4514680D02*
Y4585320D01*
X35940616Y4514680D02*
X35980319D01*
X35940616Y4414680D02*
X35980319D01*
X35940616Y4485320D02*
X35980319D01*
X35966400Y4785320D02*
Y4814680D01*
X35940616Y4785320D02*
X35980319D01*
X35915601Y4799027D02*
Y4814680D01*
X35966400Y4685320D02*
Y4714680D01*
X35915601Y4685320D02*
Y4700973D01*
X35864801Y4800160D02*
Y4814680D01*
Y4685320D02*
Y4699840D01*
X35966400Y4585320D02*
Y4614680D01*
X35915601Y4599027D02*
Y4614680D01*
X35966400Y4485320D02*
Y4514680D01*
X35864801Y4600160D02*
Y4614680D01*
X35829681Y4914680D02*
X35980319D01*
X35829681Y4885320D02*
X35980319D01*
X35829681Y4985320D02*
X35980319D01*
X35829681Y4814680D02*
Y4885320D01*
X35814001Y4800160D02*
Y4999840D01*
X35802567D02*
X35904999D01*
X35762366Y4978400D02*
X35829681D01*
X35569122Y4927600D02*
X35829681D01*
Y4814680D02*
X35980319D01*
X35802567Y4800160D02*
X35904999D01*
X35802567Y4699840D02*
X35904999D01*
X35668582Y4826000D02*
X35829681D01*
X35667538Y4876800D02*
X35829681D01*
X32667377Y4622800D02*
X35829681D01*
X32668719Y4673600D02*
X35829681D01*
X35661600Y4888535D02*
Y4977340D01*
X35610800Y4921853D02*
Y4977340D01*
X35763199Y4821451D02*
Y4978549D01*
X35712399Y4822660D02*
Y4977340D01*
X35567319D02*
X35750000D01*
X35567319Y4922660D02*
X35600000D01*
X35667319Y4822660D02*
X35750000D01*
X35610800Y4622660D02*
Y4677340D01*
X35712399Y4622660D02*
Y4677340D01*
X35661600Y4622660D02*
Y4677340D01*
X35500000Y4622660D02*
X35750000D01*
X32667319Y4677340D02*
X35750000D01*
X35560001Y4622660D02*
Y4677340D01*
X35509201Y4622660D02*
Y4677340D01*
X35829681Y4614680D02*
Y4685320D01*
Y4614680D02*
X35980319D01*
X35763199Y4621451D02*
Y4678549D01*
X35802567Y4600160D02*
X35904999D01*
X35814001D02*
Y4699840D01*
X35458401Y4609573D02*
Y4677340D01*
X32650159Y4572000D02*
X35430750D01*
X35802567Y4399840D02*
X35904999D01*
X35500000Y4477340D02*
X35532681D01*
X35600000Y4377340D02*
X35750000D01*
X32650159Y4470400D02*
X35530261D01*
X32650159Y4521200D02*
X35433292D01*
X33608438Y4368800D02*
X36396072D01*
X32650159Y4419600D02*
X35534006D01*
X33528000Y4370718D02*
Y4677340D01*
X33470001Y4370718D02*
X33600000D01*
X33477200D02*
Y4677340D01*
X33578799Y4370718D02*
Y4677340D01*
X33462073Y4369141D02*
X33470001Y4370718D01*
X33223199Y4344472D02*
Y4677340D01*
X33121600Y4345271D02*
Y4677340D01*
X33324799Y4343600D02*
Y4677340D01*
X33273999Y4342896D02*
Y4677340D01*
X33607928Y4369141D02*
X33614651Y4364650D01*
X33600000Y4370718D02*
X33607928Y4369141D01*
X33619141Y4357928D02*
X33620718Y4350000D01*
X33614651Y4364650D02*
X33619141Y4357928D01*
X33455350Y4364650D02*
X33462073Y4369141D01*
X32650159Y4368800D02*
X33461560D01*
X33450858Y4357928D02*
X33455350Y4364650D01*
X33449283Y4350000D02*
X33450858Y4357928D01*
X26517599Y5722660D02*
Y5986073D01*
X26568399Y5722660D02*
Y5986073D01*
X26466800Y5722660D02*
Y5986073D01*
X26670001Y5722660D02*
Y5986073D01*
X26619199Y5722660D02*
Y5986073D01*
X26314401Y5722660D02*
Y5986073D01*
X26263599Y5722660D02*
Y5986073D01*
X26416000Y5722660D02*
Y5986073D01*
X26365201Y5722660D02*
Y5986073D01*
X26974799Y5722660D02*
Y5986073D01*
X27025601Y5722660D02*
Y5986073D01*
X26923999Y5722660D02*
Y5986073D01*
X31242001Y5722660D02*
Y5986073D01*
X27076401Y5722660D02*
Y5986073D01*
X26771600Y5722660D02*
Y5986073D01*
X26720801Y5722660D02*
Y5986073D01*
X26873199Y5722660D02*
Y5986073D01*
X26822400Y5722660D02*
Y5986073D01*
X25603201Y5722660D02*
Y5986073D01*
X25654001Y5722660D02*
Y5986073D01*
X25552400Y5722660D02*
Y5986073D01*
X25755600Y5722660D02*
Y5986073D01*
X25704800Y5722660D02*
Y5986073D01*
X25400000Y5722660D02*
Y5986073D01*
X25349200Y5722660D02*
Y5986073D01*
X25501601Y5722660D02*
Y5986073D01*
X25450800Y5722660D02*
Y5986073D01*
X26060400Y5722660D02*
Y5986073D01*
X26111200Y5722660D02*
Y5986073D01*
X26009601Y5722660D02*
Y5986073D01*
X26212799Y5722660D02*
Y5986073D01*
X26162000Y5722660D02*
Y5986073D01*
X25857199Y5722660D02*
Y5986073D01*
X25806400Y5722660D02*
Y5986073D01*
X25958801Y5722660D02*
Y5986073D01*
X25907999Y5722660D02*
Y5986073D01*
X32410400Y5722660D02*
Y5986073D01*
X32461200Y5722660D02*
Y5986073D01*
X32359601Y5722660D02*
Y5986073D01*
X32562799Y5722660D02*
Y5986073D01*
X32512000Y5722660D02*
Y5986073D01*
X32207199Y5722660D02*
Y5986073D01*
X32156400Y5722660D02*
Y5986073D01*
X32308801Y5722660D02*
Y5986073D01*
X32257999Y5722660D02*
Y5986073D01*
X32867599Y5722660D02*
Y5986073D01*
X32918399Y5722660D02*
Y5986073D01*
X32816800Y5722660D02*
Y5986073D01*
X33020001Y5722660D02*
Y5986073D01*
X32969199Y5722660D02*
Y5986073D01*
X32664401Y5722660D02*
Y5986073D01*
X32613599Y5722660D02*
Y5986073D01*
X32766000Y5722660D02*
Y5986073D01*
X32715201Y5722660D02*
Y5986073D01*
X31546799Y5722660D02*
Y5986073D01*
X31597601Y5722660D02*
Y5986073D01*
X31495999Y5722660D02*
Y5986073D01*
X31699200Y5722660D02*
Y5986073D01*
X31648401Y5722660D02*
Y5986073D01*
X31343600Y5722660D02*
Y5986073D01*
X31292801Y5722660D02*
Y5986073D01*
X31445200Y5722660D02*
Y5986073D01*
X31394400Y5722660D02*
Y5986073D01*
X32004001Y5722660D02*
Y5986073D01*
X31953201Y5722660D02*
Y5986073D01*
X32105600Y5722660D02*
Y5986073D01*
X32054800Y5722660D02*
Y5986073D01*
X31800800Y5722660D02*
Y5986073D01*
X31750000Y5722660D02*
Y5986073D01*
X31902399Y5722660D02*
Y5986073D01*
X31851599Y5722660D02*
Y5986073D01*
X22910800Y5722660D02*
Y5986073D01*
X22961600Y5722660D02*
Y5986073D01*
X22860001Y5722660D02*
Y5986073D01*
X23063200Y5722660D02*
Y5986073D01*
X23012399Y5722660D02*
Y5986073D01*
X22707600Y5722660D02*
Y5986073D01*
X22656799Y5722660D02*
Y5986073D01*
X22809200Y5722660D02*
Y5986073D01*
X22758400Y5722660D02*
Y5986073D01*
X23367999Y5722660D02*
Y5986073D01*
X23418800Y5722660D02*
Y5986073D01*
X23317200Y5722660D02*
Y5986073D01*
X23520399Y5722660D02*
Y5986073D01*
X23469600Y5722660D02*
Y5986073D01*
X23164799Y5722660D02*
Y5986073D01*
X23114000Y5722660D02*
Y5986073D01*
X23266400Y5722660D02*
Y5986073D01*
X23215601Y5722660D02*
Y5986073D01*
X21996400Y5722660D02*
Y5986073D01*
X22047200Y5722660D02*
Y5986073D01*
X21945599Y5722660D02*
Y5986073D01*
X22148801Y5722660D02*
Y5986073D01*
X22098000Y5722660D02*
Y5986073D01*
X21793201Y5722660D02*
Y5986073D01*
X21742400Y5722660D02*
Y5986073D01*
X21894800Y5722660D02*
Y5986073D01*
X21844000Y5722660D02*
Y5986073D01*
X22453600Y5722660D02*
Y5986073D01*
X22504401Y5722660D02*
Y5986073D01*
X22402800Y5722660D02*
Y5986073D01*
X22606000Y5722660D02*
Y5986073D01*
X22555200Y5722660D02*
Y5986073D01*
X22250400Y5722660D02*
Y5986073D01*
X22199600Y5722660D02*
Y5986073D01*
X22352000Y5722660D02*
Y5986073D01*
X22301199Y5722660D02*
Y5986073D01*
X24688800Y5722660D02*
Y5986073D01*
X24739600Y5722660D02*
Y5986073D01*
X24638000Y5722660D02*
Y5986073D01*
X24841200Y5722660D02*
Y5986073D01*
X24790401Y5722660D02*
Y5986073D01*
X24485600Y5722660D02*
Y5986073D01*
X24434801Y5722660D02*
Y5986073D01*
X24587199Y5722660D02*
Y5986073D01*
X24536400Y5722660D02*
Y5986073D01*
X25146001Y5722660D02*
Y5986073D01*
X25196800Y5722660D02*
Y5986073D01*
X25095200Y5722660D02*
Y5986073D01*
X25298399Y5722660D02*
Y5986073D01*
X25247600Y5722660D02*
Y5986073D01*
X24942799Y5722660D02*
Y5986073D01*
X24892000Y5722660D02*
Y5986073D01*
X25044400Y5722660D02*
Y5986073D01*
X24993600Y5722660D02*
Y5986073D01*
X23825200Y5722660D02*
Y5986073D01*
X23875999Y5722660D02*
Y5986073D01*
X23774400Y5722660D02*
Y5986073D01*
X23977600Y5722660D02*
Y5986073D01*
X23926801Y5722660D02*
Y5986073D01*
X23622000Y5722660D02*
Y5986073D01*
X23571201Y5722660D02*
Y5986073D01*
X23723599Y5722660D02*
Y5986073D01*
X23672800Y5722660D02*
Y5986073D01*
X24282401Y5722660D02*
Y5986073D01*
X24231599Y5722660D02*
Y5986073D01*
X24384000Y5722660D02*
Y5986073D01*
X24333200Y5722660D02*
Y5986073D01*
X24079201Y5722660D02*
Y5986073D01*
X24028400Y5722660D02*
Y5986073D01*
X24180800Y5722660D02*
Y5986073D01*
X24130000Y5722660D02*
Y5986073D01*
X29768799Y5722660D02*
Y5986073D01*
X29819601Y5722660D02*
Y5986073D01*
X29717999Y5722660D02*
Y5986073D01*
X29921201Y5722660D02*
Y5986073D01*
X29870401Y5722660D02*
Y5986073D01*
X29565601Y5722660D02*
Y5986073D01*
X29514801Y5722660D02*
Y5986073D01*
X29667200Y5722660D02*
Y5986073D01*
X29616400Y5722660D02*
Y5986073D01*
X30226001Y5722660D02*
Y5986073D01*
X30276801Y5722660D02*
Y5986073D01*
X30175201Y5722660D02*
Y5986073D01*
X30378400Y5722660D02*
Y5986073D01*
X30327600Y5722660D02*
Y5986073D01*
X30022800Y5722660D02*
Y5986073D01*
X29972000Y5722660D02*
Y5986073D01*
X30124399Y5722660D02*
Y5986073D01*
X30073599Y5722660D02*
Y5986073D01*
X28854401Y5722660D02*
Y5986073D01*
X28905200Y5722660D02*
Y5986073D01*
X28803601Y5722660D02*
Y5986073D01*
X29006799Y5722660D02*
Y5986073D01*
X28956000Y5722660D02*
Y5986073D01*
X28651199Y5722660D02*
Y5986073D01*
X28600400Y5722660D02*
Y5986073D01*
X28752802Y5722660D02*
Y5986073D01*
X28701999Y5722660D02*
Y5986073D01*
X29311600Y5722660D02*
Y5986073D01*
X29362399Y5722660D02*
Y5986073D01*
X29260800Y5722660D02*
Y5986073D01*
X29464001Y5722660D02*
Y5986073D01*
X29413199Y5722660D02*
Y5986073D01*
X29108401Y5722660D02*
Y5986073D01*
X29057599Y5722660D02*
Y5986073D01*
X29210001Y5722660D02*
Y5986073D01*
X29159201Y5722660D02*
Y5986073D01*
X32715201Y4347801D02*
Y4677340D01*
X32816800Y4347263D02*
Y4677340D01*
X33020001Y4346000D02*
Y4677340D01*
X32918399Y4346663D02*
Y4677340D01*
X32308801Y4370718D02*
Y4577340D01*
X32410400Y4370718D02*
Y4577340D01*
X32359601Y4370718D02*
Y4577340D01*
X32437927Y4369141D02*
X32444650Y4364650D01*
X32438440Y4368800D02*
X32549841D01*
X32429999Y4370718D02*
X32437927Y4369141D01*
X32449142Y4357928D02*
X32450717Y4350000D01*
X32444650Y4364650D02*
X32449142Y4357928D01*
X32300000Y4370718D02*
X32429999D01*
X32292072Y4369141D02*
X32300000Y4370718D01*
X32285349Y4364650D02*
X32292072Y4369141D01*
X32280859Y4357928D02*
X32285349Y4364650D01*
X30683200Y5722660D02*
Y5986073D01*
X30734000Y5722660D02*
Y5986073D01*
X30632401Y5722660D02*
Y5986073D01*
X30835599Y5722660D02*
Y5986073D01*
X30784799Y5722660D02*
Y5986073D01*
X30479999Y5722660D02*
Y5986073D01*
X30429199Y5722660D02*
Y5986073D01*
X30581601Y5722660D02*
Y5986073D01*
X30530801Y5722660D02*
Y5986073D01*
X31140399Y5722660D02*
Y5986073D01*
X31089600Y5722660D02*
Y5986073D01*
X32279282Y4350000D02*
X32280859Y4357928D01*
X31191199Y5722660D02*
Y5986073D01*
X30937201Y5722660D02*
Y5986073D01*
X30886401Y5722660D02*
Y5986073D01*
X31038800Y5722660D02*
Y5986073D01*
X30988000Y5722660D02*
Y5986073D01*
X28194000Y5722660D02*
Y5986073D01*
X28244800Y5722660D02*
Y5986073D01*
X28143201Y5722660D02*
Y5986073D01*
X28346399Y5722660D02*
Y5986073D01*
X28295599Y5722660D02*
Y5986073D01*
X27990799Y5722660D02*
Y5986073D01*
X27939999Y5722660D02*
Y5986073D01*
X28092401Y5722660D02*
Y5986073D01*
X28041599Y5722660D02*
Y5986073D01*
X28448001Y5722660D02*
Y5986073D01*
X28498801Y5722660D02*
Y5986073D01*
X28397198Y5722660D02*
Y5986073D01*
X23869249Y4572000D02*
X32549841D01*
X28549600Y5722660D02*
Y5986073D01*
X23866708Y4521200D02*
X32549841D01*
X23867320Y4577340D02*
X32549841D01*
X23850160Y4419600D02*
X32549841D01*
X23850160Y4470400D02*
X32549841D01*
X27381201Y5722660D02*
Y5986073D01*
X27432001Y5722660D02*
Y5986073D01*
X27330399Y5722660D02*
Y5986073D01*
X27533600Y5722660D02*
Y5986073D01*
X27482800Y5722660D02*
Y5986073D01*
X27178000Y5722660D02*
Y5986073D01*
X27127200Y5722660D02*
Y5986073D01*
X27279599Y5722660D02*
Y5986073D01*
X27228799Y5722660D02*
Y5986073D01*
X27736801Y5722660D02*
Y5986073D01*
X27787601Y5722660D02*
Y5986073D01*
X27685999Y5722660D02*
Y5986073D01*
X27889200Y5722660D02*
Y5986073D01*
X27838400Y5722660D02*
Y5986073D01*
X27635199Y5722660D02*
Y5986073D01*
X27584399Y5722660D02*
Y5986073D01*
X24739600Y4370718D02*
Y4577340D01*
X24670000Y4370718D02*
X24800000D01*
X24688800D02*
Y4577340D01*
X24790401Y4370718D02*
Y4577340D01*
X24662073Y4369141D02*
X24670000Y4370718D01*
X24485600Y4348048D02*
Y4577340D01*
X24384000Y4347540D02*
Y4577340D01*
X24282401Y4346971D02*
Y4577340D01*
X24180800Y4346340D02*
Y4577340D01*
X24807928Y4369141D02*
X24814650Y4364650D01*
X24808440Y4368800D02*
X32291562D01*
X24800000Y4370718D02*
X24807928Y4369141D01*
X24819141Y4357928D02*
X24820718Y4350000D01*
X24814650Y4364650D02*
X24819141Y4357928D01*
X24655350Y4364650D02*
X24662073Y4369141D01*
X23850160Y4368800D02*
X24661562D01*
X24650859Y4357928D02*
X24655350Y4364650D01*
X24649281Y4350000D02*
X24650859Y4357928D01*
X23977600Y4344881D02*
Y4577340D01*
X24079201Y4345644D02*
Y4577340D01*
X23622000Y4370718D02*
Y4477340D01*
X23926801Y4342400D02*
Y4577340D01*
X23875999Y4344046D02*
Y4577340D01*
X23500000Y4370718D02*
X23630000D01*
X23520399D02*
Y4477340D01*
X23571201Y4370718D02*
Y4477340D01*
X23492072Y4369141D02*
X23500000Y4370718D01*
X23638438Y4368800D02*
X23749840D01*
X23637927Y4369141D02*
X23644650Y4364650D01*
X23649141Y4357928D02*
X23650719Y4350000D01*
X23644650Y4364650D02*
X23649141Y4357928D01*
X23630000Y4370718D02*
X23637927Y4369141D01*
X23485350Y4364650D02*
X23492072Y4369141D01*
X23480859Y4357928D02*
X23485350Y4364650D01*
X23479282Y4350000D02*
X23480859Y4357928D01*
X36118799Y4299962D02*
Y6100038D01*
X36067999Y4300718D02*
Y6099282D01*
X36017200Y4300718D02*
Y6099282D01*
X34442401Y4013927D02*
Y4677340D01*
X34391599Y4013927D02*
Y4677340D01*
X34239200Y4013927D02*
Y4677340D01*
X34188400Y4013927D02*
Y4677340D01*
X34340799Y4013927D02*
Y4677340D01*
X34289999Y4013927D02*
Y4677340D01*
X35966400Y4300718D02*
Y4414680D01*
X36114999Y4300718D02*
X36122928Y4299141D01*
X35915601Y4299843D02*
Y4400973D01*
X34696399Y4013927D02*
Y4677340D01*
X34645599Y4013927D02*
Y4677340D01*
X33700122Y4318000D02*
X36396072D01*
X34493201Y4013927D02*
Y4677340D01*
X34594800Y4013927D02*
Y4677340D01*
X34544000Y4013927D02*
Y4677340D01*
X33985199Y4013927D02*
Y4677340D01*
X34035999Y4013927D02*
Y4677340D01*
X33934399Y4013927D02*
Y4677340D01*
X34137601Y4013927D02*
Y4677340D01*
X34086801Y4013927D02*
Y4677340D01*
X33629599Y4335718D02*
Y4677340D01*
X33172400Y4341884D02*
Y4677340D01*
X33680399Y4335639D02*
Y4677340D01*
X33687927Y4334141D02*
X33694650Y4329650D01*
X33699142Y4322928D01*
X33679999Y4335718D02*
X33687927Y4334141D01*
X33700717Y4155000D02*
Y4315000D01*
X33699142Y4322928D02*
X33700717Y4315000D01*
X33620718Y4335718D02*
X33679999D01*
X33620718D02*
Y4350000D01*
X33449283Y4155000D02*
Y4350000D01*
X33346820Y4318000D02*
X33449283D01*
X36271201Y4013927D02*
Y6386073D01*
X36322000Y4013927D02*
Y6386073D01*
X36220401Y4013927D02*
Y6386073D01*
X36396072Y4013927D02*
Y6386073D01*
X36372800Y4013927D02*
Y6386073D01*
X35356799Y4013927D02*
Y4677340D01*
X35306000Y4013927D02*
Y4677340D01*
X36169601Y4013927D02*
Y6386073D01*
X35407599Y4013927D02*
Y4677340D01*
X35763199Y4013927D02*
Y4378549D01*
X35712399Y4013927D02*
Y4377340D01*
X35661600Y4013927D02*
Y4377340D01*
X35864801Y4013927D02*
Y4399840D01*
X35814001Y4013927D02*
Y4399840D01*
X35509201Y4013927D02*
Y4477340D01*
X35458401Y4013927D02*
Y4490427D01*
X35610800Y4013927D02*
Y4377340D01*
X35560001Y4013927D02*
Y4389341D01*
X33883600Y4013927D02*
Y4677340D01*
X34747198Y4013927D02*
Y4677340D01*
X33832800Y4013927D02*
Y4677340D01*
X34848801Y4013927D02*
Y4677340D01*
X34798001Y4013927D02*
Y4677340D01*
X33426401Y4013927D02*
Y4677340D01*
X33375601Y4013927D02*
Y4677340D01*
X33782001Y4013927D02*
Y4677340D01*
X33731201Y4013927D02*
Y4677340D01*
X35153601Y4013927D02*
Y4677340D01*
X35102802Y4013927D02*
Y4677340D01*
X35255200Y4013927D02*
Y4677340D01*
X35204401Y4013927D02*
Y4677340D01*
X34950400Y4013927D02*
Y4677340D01*
X34899600Y4013927D02*
Y4677340D01*
X35051999Y4013927D02*
Y4677340D01*
X35001199Y4013927D02*
Y4677340D01*
X32969199Y4339590D02*
Y4677340D01*
X33070801Y4340785D02*
Y4677340D01*
X32867599Y4338292D02*
Y4677340D01*
X32766000Y4336879D02*
Y4677340D01*
X32664401Y4335337D02*
Y4616353D01*
X32650159Y4305657D02*
Y4597431D01*
X32257999Y4335718D02*
Y4577340D01*
X32279282Y4335718D02*
Y4350000D01*
X32207199Y4330886D02*
Y4577340D01*
X32549841Y4300159D02*
Y4577340D01*
X31953201Y4013927D02*
Y4577340D01*
X31800800Y4013927D02*
Y4577340D01*
X30632401Y4013927D02*
Y4577340D01*
X31902399Y4013927D02*
Y4577340D01*
X31851599Y4013927D02*
Y4577340D01*
X32212070Y4334141D02*
X32220001Y4335718D01*
X32279282D01*
X32205350Y4329650D02*
X32212070Y4334141D01*
X32450717Y4318000D02*
X32549841D01*
X32450717Y4155000D02*
Y4350000D01*
X32200858Y4322928D02*
X32205350Y4329650D01*
X24900121Y4318000D02*
X32199878D01*
X32199283Y4315000D02*
X32200858Y4322928D01*
X32199283Y4155000D02*
Y4315000D01*
X31445200Y4013927D02*
Y4577340D01*
X31495999Y4013927D02*
Y4577340D01*
X31394400Y4013927D02*
Y4577340D01*
X31597601Y4013927D02*
Y4577340D01*
X31546799Y4013927D02*
Y4577340D01*
X31242001Y4013927D02*
Y4577340D01*
X31191199Y4013927D02*
Y4577340D01*
X31343600Y4013927D02*
Y4577340D01*
X31292801Y4013927D02*
Y4577340D01*
X32105600Y4013927D02*
Y4577340D01*
X32156400Y4013927D02*
Y4577340D01*
X32054800Y4013927D02*
Y4577340D01*
X32512000Y4013927D02*
Y4577340D01*
X32461200Y4013927D02*
Y4577340D01*
X31699200Y4013927D02*
Y4577340D01*
X31648401Y4013927D02*
Y4577340D01*
X32004001Y4013927D02*
Y4577340D01*
X31750000Y4013927D02*
Y4577340D01*
X30530801Y4013927D02*
Y4577340D01*
X30581601Y4013927D02*
Y4577340D01*
X30479999Y4013927D02*
Y4577340D01*
X30734000Y4013927D02*
Y4577340D01*
X30683200Y4013927D02*
Y4577340D01*
X30327600Y4013927D02*
Y4577340D01*
X30276801Y4013927D02*
Y4577340D01*
X30429199Y4013927D02*
Y4577340D01*
X30378400Y4013927D02*
Y4577340D01*
X31038800Y4013927D02*
Y4577340D01*
X30988000Y4013927D02*
Y4577340D01*
X31140399Y4013927D02*
Y4577340D01*
X31089600Y4013927D02*
Y4577340D01*
X30835599Y4013927D02*
Y4577340D01*
X30784799Y4013927D02*
Y4577340D01*
X30937201Y4013927D02*
Y4577340D01*
X30886401Y4013927D02*
Y4577340D01*
X36122928Y4299141D02*
X36129651Y4294650D01*
X36134140Y4287928D01*
X35920001Y4300718D02*
X36114999D01*
X36135718Y4150000D02*
Y4280000D01*
X36134140Y4287928D02*
X36135718Y4280000D01*
X35912070Y4299141D02*
X35920001Y4300718D01*
X35905350Y4294650D02*
X35912070Y4299141D01*
X35900858Y4287928D02*
X35905350Y4294650D01*
X35899283Y4280000D02*
X35900858Y4287928D01*
X36135718Y4216400D02*
X36396072D01*
X36135718Y4165600D02*
X36396072D01*
X36135718Y4267200D02*
X36396072D01*
X36134140Y4142072D02*
X36135718Y4150000D01*
X36129651Y4135350D02*
X36134140Y4142072D01*
X36122928Y4130859D02*
X36129651Y4135350D01*
X36100717Y4129282D02*
X36114999D01*
X36100717Y4114800D02*
X36396072D01*
X36114999Y4129282D02*
X36122928Y4130859D01*
X33700717Y4216400D02*
X35899283D01*
X33700717Y4165600D02*
X35899283D01*
X33700717Y4267200D02*
X35899283D01*
X33699142Y4147072D02*
X33700717Y4155000D01*
X33449283D02*
X33450858Y4147072D01*
X33350159Y4216400D02*
X33449283D01*
X33350159Y4267200D02*
X33449283D01*
X33350159Y4165600D02*
X33449283D01*
X33350159Y4140000D02*
Y4300000D01*
X33694650Y4140350D02*
X33699142Y4147072D01*
X33687927Y4135859D02*
X33694650Y4140350D01*
X33462073Y4135859D02*
X33470001Y4134282D01*
X33679999D02*
X33687927Y4135859D01*
X33470001Y4134282D02*
X33679999D01*
X33455350Y4140350D02*
X33462073Y4135859D01*
X33450858Y4147072D02*
X33455350Y4140350D01*
X33343369Y4114800D02*
X35899283D01*
X33243369D02*
X33256631D01*
X36099142Y4062072D02*
X36100717Y4070000D01*
X36099524Y4064000D02*
X36396072D01*
X36100717Y4070000D02*
Y4129282D01*
X36118799Y4013927D02*
Y4130038D01*
X36094650Y4055350D02*
X36099142Y4062072D01*
X35899283Y4070000D02*
X35900858Y4062072D01*
X35899283Y4070000D02*
Y4280000D01*
X35900858Y4062072D02*
X35905350Y4055350D01*
X33680399Y4013927D02*
Y4134362D01*
X36087927Y4050859D02*
X36094650Y4055350D01*
X36079999Y4049282D02*
X36087927Y4050859D01*
X35966400Y4013927D02*
Y4049282D01*
X36067999Y4013927D02*
Y4049282D01*
X36017200Y4013927D02*
Y4049282D01*
X35912070Y4050859D02*
X35920001Y4049282D01*
X35905350Y4055350D02*
X35912070Y4050859D01*
X35920001Y4049282D02*
X36079999D01*
X35915601Y4013927D02*
Y4050157D01*
X33477200Y4013927D02*
Y4134282D01*
X33528000Y4013927D02*
Y4134282D01*
X33629599Y4013927D02*
Y4134282D01*
X33578799Y4013927D02*
Y4134282D01*
X33235321Y4064680D02*
Y4104384D01*
X33164679Y4064680D02*
Y4104384D01*
X33335321Y4064680D02*
Y4104384D01*
X33264679Y4064680D02*
X33335321D01*
X33324799Y4013927D02*
Y4064680D01*
X33273999Y4013927D02*
Y4064680D01*
X33264679D02*
Y4104384D01*
X33164679Y4064680D02*
X33235321D01*
X33223199Y4013927D02*
Y4064680D01*
X33172400Y4013927D02*
Y4064680D01*
X33043369Y4114800D02*
X33056631D01*
X33143369D02*
X33156631D01*
X32943369D02*
X32956631D01*
X32743369D02*
X32756631D01*
X32643369D02*
X32656631D01*
X32843369D02*
X32856631D01*
X32450717Y4216400D02*
X32549841D01*
X32450717Y4165600D02*
X32549841D01*
X32450717Y4267200D02*
X32549841D01*
Y4140000D02*
Y4300000D01*
X32449142Y4147072D02*
X32450717Y4155000D01*
X24900719Y4216400D02*
X32199283D01*
X24900719Y4267200D02*
X32199283D01*
Y4155000D02*
X32200858Y4147072D01*
X24900719Y4165600D02*
X32199283D01*
X32444650Y4140350D02*
X32449142Y4147072D01*
X32437927Y4135859D02*
X32444650Y4140350D01*
X32220001Y4134282D02*
X32429999D01*
X32437927Y4135859D01*
X32205350Y4140350D02*
X32212070Y4135859D01*
X32200858Y4147072D02*
X32205350Y4140350D01*
X24543370Y4114800D02*
X32556631D01*
X32212070Y4135859D02*
X32220001Y4134282D01*
X32964679Y4064680D02*
Y4104384D01*
X33035321Y4064680D02*
Y4104384D01*
X32935321Y4064680D02*
Y4104384D01*
X33135321Y4064680D02*
Y4104384D01*
X33064679Y4064680D02*
Y4104384D01*
X32835321Y4064680D02*
Y4104384D01*
X32764679Y4064680D02*
X32835321D01*
X32864679D02*
Y4104384D01*
X32816800Y4013927D02*
Y4064680D01*
X33020001Y4013927D02*
Y4064680D01*
X33064679D02*
X33135321D01*
X32969199Y4013927D02*
Y4064680D01*
X33121600Y4013927D02*
Y4064680D01*
X33070801Y4013927D02*
Y4064680D01*
X32964679D02*
X33035321D01*
X32864679D02*
X32935321D01*
X32918399Y4013927D02*
Y4064680D01*
X32867599Y4013927D02*
Y4064680D01*
X32564679D02*
Y4104384D01*
X32635321Y4064680D02*
Y4104384D01*
X32410400Y4013927D02*
Y4134282D01*
X32664401Y4013927D02*
Y4104664D01*
X32562799Y4013927D02*
Y4106352D01*
X32257999Y4013927D02*
Y4134282D01*
X32207199Y4013927D02*
Y4139114D01*
X32359601Y4013927D02*
Y4134282D01*
X32308801Y4013927D02*
Y4134282D01*
X32764679Y4064680D02*
Y4104384D01*
X32735321Y4064680D02*
Y4104384D01*
X32766000Y4013927D02*
Y4064680D01*
X32715201Y4013927D02*
Y4064680D01*
X32664679D02*
Y4104384D01*
X32564679Y4064680D02*
X32635321D01*
X32664679D02*
X32735321D01*
X32613599Y4013927D02*
Y4064680D01*
X27838400Y4013927D02*
Y4577340D01*
X27889200Y4013927D02*
Y4577340D01*
X27787601Y4013927D02*
Y4577340D01*
X27990799Y4013927D02*
Y4577340D01*
X27939999Y4013927D02*
Y4577340D01*
X27635199Y4013927D02*
Y4577340D01*
X27584399Y4013927D02*
Y4577340D01*
X27736801Y4013927D02*
Y4577340D01*
X27685999Y4013927D02*
Y4577340D01*
X28295599Y4013927D02*
Y4577340D01*
X28346399Y4013927D02*
Y4577340D01*
X28244800Y4013927D02*
Y4577340D01*
X28448001Y4013927D02*
Y4577340D01*
X28397198Y4013927D02*
Y4577340D01*
X28092401Y4013927D02*
Y4577340D01*
X28041599Y4013927D02*
Y4577340D01*
X28194000Y4013927D02*
Y4577340D01*
X28143201Y4013927D02*
Y4577340D01*
X26923999Y4013927D02*
Y4577340D01*
X26974799Y4013927D02*
Y4577340D01*
X26873199Y4013927D02*
Y4577340D01*
X27076401Y4013927D02*
Y4577340D01*
X27025601Y4013927D02*
Y4577340D01*
X26720801Y4013927D02*
Y4577340D01*
X26670001Y4013927D02*
Y4577340D01*
X26822400Y4013927D02*
Y4577340D01*
X26771600Y4013927D02*
Y4577340D01*
X27381201Y4013927D02*
Y4577340D01*
X27432001Y4013927D02*
Y4577340D01*
X27330399Y4013927D02*
Y4577340D01*
X27533600Y4013927D02*
Y4577340D01*
X27482800Y4013927D02*
Y4577340D01*
X27178000Y4013927D02*
Y4577340D01*
X27127200Y4013927D02*
Y4577340D01*
X27279599Y4013927D02*
Y4577340D01*
X27228799Y4013927D02*
Y4577340D01*
X29616400Y4013927D02*
Y4577340D01*
X29667200Y4013927D02*
Y4577340D01*
X29565601Y4013927D02*
Y4577340D01*
X29768799Y4013927D02*
Y4577340D01*
X29717999Y4013927D02*
Y4577340D01*
X29413199Y4013927D02*
Y4577340D01*
X29362399Y4013927D02*
Y4577340D01*
X29514801Y4013927D02*
Y4577340D01*
X29464001Y4013927D02*
Y4577340D01*
X30073599Y4013927D02*
Y4577340D01*
X30124399Y4013927D02*
Y4577340D01*
X30022800Y4013927D02*
Y4577340D01*
X30226001Y4013927D02*
Y4577340D01*
X30175201Y4013927D02*
Y4577340D01*
X29870401Y4013927D02*
Y4577340D01*
X29819601Y4013927D02*
Y4577340D01*
X29972000Y4013927D02*
Y4577340D01*
X29921201Y4013927D02*
Y4577340D01*
X28752802Y4013927D02*
Y4577340D01*
X28803601Y4013927D02*
Y4577340D01*
X28701999Y4013927D02*
Y4577340D01*
X28905200Y4013927D02*
Y4577340D01*
X28854401Y4013927D02*
Y4577340D01*
X28549600Y4013927D02*
Y4577340D01*
X28498801Y4013927D02*
Y4577340D01*
X28651199Y4013927D02*
Y4577340D01*
X28600400Y4013927D02*
Y4577340D01*
X29210001Y4013927D02*
Y4577340D01*
X29159201Y4013927D02*
Y4577340D01*
X29311600Y4013927D02*
Y4577340D01*
X29260800Y4013927D02*
Y4577340D01*
X29006799Y4013927D02*
Y4577340D01*
X28956000Y4013927D02*
Y4577340D01*
X29108401Y4013927D02*
Y4577340D01*
X29057599Y4013927D02*
Y4577340D01*
X24536400Y4334512D02*
Y4577340D01*
X24841200Y4335718D02*
Y4577340D01*
X24434801Y4336124D02*
Y4577340D01*
X24638000Y4013927D02*
Y4577340D01*
X24587199Y4013927D02*
Y4577340D01*
X24130000Y4340200D02*
Y4577340D01*
X24028400Y4341346D02*
Y4577340D01*
X24333200Y4337600D02*
Y4577340D01*
X24231599Y4338955D02*
Y4577340D01*
X24892000Y4331421D02*
Y4577340D01*
X23850160Y4305657D02*
Y4497432D01*
X23749840Y4300159D02*
Y4477340D01*
X23723599Y4013927D02*
Y4477340D01*
X23672800Y4013927D02*
Y4477340D01*
X23469600Y4335718D02*
Y4477340D01*
X23418800Y4335479D02*
Y4477340D01*
X22961600Y4013927D02*
Y4477340D01*
X22860001Y4013927D02*
Y4477340D01*
X22199600Y4013927D02*
Y4477340D01*
X22250400Y4013927D02*
Y4477340D01*
X22148801Y4013927D02*
Y4477340D01*
X22352000Y4013927D02*
Y4477340D01*
X22301199Y4013927D02*
Y4477340D01*
X21894800Y4013927D02*
Y4477340D01*
X21844000Y4013927D02*
Y4477340D01*
X22098000Y4013927D02*
Y4477340D01*
X22047200Y4013927D02*
Y4477340D01*
X22656799Y4013927D02*
Y4477340D01*
X22707600Y4013927D02*
Y4477340D01*
X22606000Y4013927D02*
Y4477340D01*
X22809200Y4013927D02*
Y4477340D01*
X22758400Y4013927D02*
Y4477340D01*
X22453600Y4013927D02*
Y4477340D01*
X22402800Y4013927D02*
Y4477340D01*
X22555200Y4013927D02*
Y4477340D01*
X22504401Y4013927D02*
Y4477340D01*
X26009601Y4013927D02*
Y4577340D01*
X26060400Y4013927D02*
Y4577340D01*
X25958801Y4013927D02*
Y4577340D01*
X26162000Y4013927D02*
Y4577340D01*
X26111200Y4013927D02*
Y4577340D01*
X25806400Y4013927D02*
Y4577340D01*
X25755600Y4013927D02*
Y4577340D01*
X25907999Y4013927D02*
Y4577340D01*
X25857199Y4013927D02*
Y4577340D01*
X26466800Y4013927D02*
Y4577340D01*
X26517599Y4013927D02*
Y4577340D01*
X26416000Y4013927D02*
Y4577340D01*
X26619199Y4013927D02*
Y4577340D01*
X26568399Y4013927D02*
Y4577340D01*
X26263599Y4013927D02*
Y4577340D01*
X26212799Y4013927D02*
Y4577340D01*
X26365201Y4013927D02*
Y4577340D01*
X26314401Y4013927D02*
Y4577340D01*
X25196800Y4013927D02*
Y4577340D01*
X25247600Y4013927D02*
Y4577340D01*
X25146001Y4013927D02*
Y4577340D01*
X25349200Y4013927D02*
Y4577340D01*
X25298399Y4013927D02*
Y4577340D01*
X24993600Y4013927D02*
Y4577340D01*
X24942799Y4013927D02*
Y4577340D01*
X25095200Y4013927D02*
Y4577340D01*
X25044400Y4013927D02*
Y4577340D01*
X25603201Y4013927D02*
Y4577340D01*
X25552400Y4013927D02*
Y4577340D01*
X25704800Y4013927D02*
Y4577340D01*
X25654001Y4013927D02*
Y4577340D01*
X25400000Y4013927D02*
Y4577340D01*
X21793201Y4013927D02*
Y4477340D01*
X25501601Y4013927D02*
Y4577340D01*
X25450800Y4013927D02*
Y4577340D01*
X24887927Y4334141D02*
X24894650Y4329650D01*
X24899141Y4322928D01*
X24880000Y4335718D02*
X24887927Y4334141D01*
X24900719Y4155000D02*
Y4315000D01*
X24899141Y4322928D02*
X24900719Y4315000D01*
X24820718Y4335718D02*
X24880000D01*
X24820718D02*
Y4350000D01*
X24550160Y4165600D02*
X24649281D01*
X24550160Y4216400D02*
X24649281D01*
X24899141Y4147072D02*
X24900719Y4155000D01*
X24894650Y4140350D02*
X24899141Y4147072D01*
X24887927Y4135859D02*
X24894650Y4140350D01*
X24880000Y4134282D02*
X24887927Y4135859D01*
X24670000Y4134282D02*
X24880000D01*
X24650859Y4147072D02*
X24655350Y4140350D01*
X24649281Y4155000D02*
X24650859Y4147072D01*
X24662073Y4135859D02*
X24670000Y4134282D01*
X24655350Y4140350D02*
X24662073Y4135859D01*
X24649281Y4155000D02*
Y4350000D01*
X24546819Y4318000D02*
X24649281D01*
X24550160Y4267200D02*
X24649281D01*
X24550160Y4140000D02*
Y4300000D01*
X24443370Y4114800D02*
X24456630D01*
X24343370D02*
X24356630D01*
X24243370D02*
X24256630D01*
X24143370D02*
X24156630D01*
X24739600Y4013927D02*
Y4134282D01*
X24790401Y4013927D02*
Y4134282D01*
X24688800Y4013927D02*
Y4134282D01*
X24892000Y4013927D02*
Y4138579D01*
X24841200Y4013927D02*
Y4134282D01*
X24536400Y4013927D02*
Y4105488D01*
X24464680Y4064680D02*
Y4104384D01*
Y4064680D02*
X24535320D01*
X24435320D02*
Y4104384D01*
X24535320Y4064680D02*
Y4104384D01*
X24485600Y4013927D02*
Y4064680D01*
X24364680D02*
X24435320D01*
X24364680D02*
Y4104384D01*
X24434801Y4013927D02*
Y4064680D01*
X24384000Y4013927D02*
Y4064680D01*
X24235320D02*
Y4104384D01*
X24164680Y4064680D02*
Y4104384D01*
X24135320Y4064680D02*
Y4104384D01*
X24335320Y4064680D02*
Y4104384D01*
X24264680Y4064680D02*
X24335320D01*
X24333200Y4013927D02*
Y4064680D01*
X24282401Y4013927D02*
Y4064680D01*
X24264680D02*
Y4104384D01*
X24164680Y4064680D02*
X24235320D01*
X24231599Y4013927D02*
Y4064680D01*
X24180800Y4013927D02*
Y4064680D01*
X23650719Y4318000D02*
X23749840D01*
X23650719Y4216400D02*
X23749840D01*
Y4140000D02*
Y4300000D01*
X23650719Y4165600D02*
X23749840D01*
X24043370Y4114800D02*
X24056630D01*
X23943370D02*
X23956630D01*
X23843370D02*
X23856630D01*
X23764680Y4064680D02*
Y4104384D01*
X23479282Y4335718D02*
Y4350000D01*
X23420000Y4335718D02*
X23479282D01*
X23412073Y4334141D02*
X23420000Y4335718D01*
X23650719Y4267200D02*
X23749840D01*
X23650719Y4155000D02*
Y4350000D01*
X23405350Y4329650D02*
X23412073Y4334141D01*
X23400859Y4322928D02*
X23405350Y4329650D01*
X23399281Y4315000D02*
X23400859Y4322928D01*
X23399281Y4155000D02*
Y4315000D01*
X23649141Y4147072D02*
X23650719Y4155000D01*
X23644650Y4140350D02*
X23649141Y4147072D01*
X23637927Y4135859D02*
X23644650Y4140350D01*
X23630000Y4134282D02*
X23637927Y4135859D01*
X23420000Y4134282D02*
X23630000D01*
X23400859Y4147072D02*
X23405350Y4140350D01*
X23399281Y4155000D02*
X23400859Y4147072D01*
X23412073Y4135859D02*
X23420000Y4134282D01*
X23405350Y4140350D02*
X23412073Y4135859D01*
X23935320Y4064680D02*
Y4104384D01*
X23964680Y4064680D02*
Y4104384D01*
X23864680Y4064680D02*
Y4104384D01*
X24064680Y4064680D02*
Y4104384D01*
X24035320Y4064680D02*
Y4104384D01*
X23835320Y4064680D02*
Y4104384D01*
X23764680Y4064680D02*
X23835320D01*
X23825200Y4013927D02*
Y4064680D01*
X23774400Y4013927D02*
Y4064680D01*
X24028400Y4013927D02*
Y4064680D01*
X24064680D02*
X24135320D01*
X23977600Y4013927D02*
Y4064680D01*
X24130000Y4013927D02*
Y4064680D01*
X24079201Y4013927D02*
Y4064680D01*
X23964680D02*
X24035320D01*
X23864680D02*
X23935320D01*
X23926801Y4013927D02*
Y4064680D01*
X23875999Y4013927D02*
Y4064680D01*
X23063200Y4013927D02*
Y4477340D01*
X23114000Y4013927D02*
Y4477340D01*
X23012399Y4013927D02*
Y4477340D01*
X23215601Y4013927D02*
Y4477340D01*
X23164799Y4013927D02*
Y4477340D01*
X21945599Y4013927D02*
Y4477340D01*
X21742400Y4013927D02*
Y4477340D01*
X22910800Y4013927D02*
Y4477340D01*
X21996400Y4013927D02*
Y4477340D01*
X23520399Y4013927D02*
Y4134282D01*
X23469600Y4013927D02*
Y4134282D01*
X23622000Y4013927D02*
Y4134282D01*
X23571201Y4013927D02*
Y4134282D01*
X23317200Y4013927D02*
Y4477340D01*
X23266400Y4013927D02*
Y4477340D01*
X23418800Y4013927D02*
Y4134521D01*
X23367999Y4013927D02*
Y4477340D01*
X19303999Y5722660D02*
Y5986073D01*
X19354800Y5722660D02*
Y5986073D01*
X19253200Y5722660D02*
Y5986073D01*
X19456400Y5722660D02*
Y5986073D01*
X19405600Y5722660D02*
Y5986073D01*
X19100800Y5722660D02*
Y5986073D01*
X19050000Y5722660D02*
Y5986073D01*
X19202400Y5722660D02*
Y5986073D01*
X19151601Y5722660D02*
Y5986073D01*
X19761200Y5722660D02*
Y5986073D01*
X19812000Y5722660D02*
Y5986073D01*
X19710400Y5722660D02*
Y5986073D01*
X19913600Y5722660D02*
Y5986073D01*
X19862801Y5722660D02*
Y5986073D01*
X19558000Y5722660D02*
Y5986073D01*
X19507201Y5722660D02*
Y5986073D01*
X19659599Y5722660D02*
Y5986073D01*
X19608800Y5722660D02*
Y5986073D01*
X18389600Y5722660D02*
Y5986073D01*
X18440401Y5722660D02*
Y5986073D01*
X18338800Y5722660D02*
Y5986073D01*
X18542000Y5722660D02*
Y5986073D01*
X18491200Y5722660D02*
Y5986073D01*
X14986000Y5722660D02*
Y5986073D01*
X14935201Y5722660D02*
Y5986073D01*
X15087601Y5722660D02*
Y5986073D01*
X15036800Y5722660D02*
Y5986073D01*
X18846800Y5722660D02*
Y5986073D01*
X18897600Y5722660D02*
Y5986073D01*
X18796001Y5722660D02*
Y5986073D01*
X18999200Y5722660D02*
Y5986073D01*
X18948399Y5722660D02*
Y5986073D01*
X18643600Y5722660D02*
Y5986073D01*
X18592799Y5722660D02*
Y5986073D01*
X18745200Y5722660D02*
Y5986073D01*
X18694400Y5722660D02*
Y5986073D01*
X21082001Y5722660D02*
Y5986073D01*
X21132800Y5722660D02*
Y5986073D01*
X21031200Y5722660D02*
Y5986073D01*
X21234399Y5722660D02*
Y5986073D01*
X21183600Y5722660D02*
Y5986073D01*
X20878799Y5722660D02*
Y5986073D01*
X20828000Y5722660D02*
Y5986073D01*
X20980400Y5722660D02*
Y5986073D01*
X20929601Y5722660D02*
Y5986073D01*
X21539200Y5722660D02*
Y5986073D01*
X21589999Y5722660D02*
Y5986073D01*
X21488400Y5722660D02*
Y5986073D01*
X21691600Y5722660D02*
Y5986073D01*
X21640800Y5722660D02*
Y5986073D01*
X21336000Y5722660D02*
Y5986073D01*
X21285201Y5722660D02*
Y5986073D01*
X21437601Y5722660D02*
Y5986073D01*
X21386800Y5722660D02*
Y5986073D01*
X20218401Y5722660D02*
Y5986073D01*
X20269200Y5722660D02*
Y5986073D01*
X20167599Y5722660D02*
Y5986073D01*
X20370799Y5722660D02*
Y5986073D01*
X20320000Y5722660D02*
Y5986073D01*
X20015199Y5722660D02*
Y5986073D01*
X19964400Y5722660D02*
Y5986073D01*
X20116800Y5722660D02*
Y5986073D01*
X20066000Y5722660D02*
Y5986073D01*
X20675600Y5722660D02*
Y5986073D01*
X20624800Y5722660D02*
Y5986073D01*
X20777200Y5722660D02*
Y5986073D01*
X20726401Y5722660D02*
Y5986073D01*
X20472400Y5722660D02*
Y5986073D01*
X20421600Y5722660D02*
Y5986073D01*
X20574001Y5722660D02*
Y5986073D01*
X20523199Y5722660D02*
Y5986073D01*
X12547600Y5722660D02*
Y5986073D01*
X12598400Y5722660D02*
Y5986073D01*
X12496800Y5722660D02*
Y5986073D01*
X12700000Y5722660D02*
Y5986073D01*
X12649200Y5722660D02*
Y5986073D01*
X12344400Y5722660D02*
Y5986073D01*
X12293600Y5722660D02*
Y5986073D01*
X12446000Y5722660D02*
Y5986073D01*
X12395200Y5722660D02*
Y5986073D01*
X12953999Y5722660D02*
Y5986073D01*
X13004800Y5722660D02*
Y5986073D01*
X12903200Y5722660D02*
Y5986073D01*
X13106400Y5722660D02*
Y5986073D01*
X13055600Y5722660D02*
Y5986073D01*
X193927D02*
X35329999D01*
X12750800Y5722660D02*
Y5986073D01*
X12852400Y5722660D02*
Y5986073D01*
X12801601Y5722660D02*
Y5986073D01*
X11633200Y5722660D02*
Y5986073D01*
X11684000Y5722660D02*
Y5986073D01*
X11582400Y5722660D02*
Y5986073D01*
X11785600Y5722660D02*
Y5986073D01*
X11734800Y5722660D02*
Y5986073D01*
X11430000Y5722660D02*
Y5986073D01*
X11379200Y5722660D02*
Y5986073D01*
X11531600Y5722660D02*
Y5986073D01*
X11480800Y5722660D02*
Y5986073D01*
X12090400Y5722660D02*
Y5986073D01*
X12141200Y5722660D02*
Y5986073D01*
X12039600Y5722660D02*
Y5986073D01*
X12242800Y5722660D02*
Y5986073D01*
X12192000Y5722660D02*
Y5986073D01*
X11887200Y5722660D02*
Y5986073D01*
X11836400Y5722660D02*
Y5986073D01*
X11988800Y5722660D02*
Y5986073D01*
X11938000Y5722660D02*
Y5986073D01*
X14274800Y5722660D02*
Y5986073D01*
X14325600Y5722660D02*
Y5986073D01*
X14224001Y5722660D02*
Y5986073D01*
X14427200Y5722660D02*
Y5986073D01*
X14376401Y5722660D02*
Y5986073D01*
X14071600Y5722660D02*
Y5986073D01*
X14020799Y5722660D02*
Y5986073D01*
X14173199Y5722660D02*
Y5986073D01*
X14122400Y5722660D02*
Y5986073D01*
X14732001Y5722660D02*
Y5986073D01*
X14782800Y5722660D02*
Y5986073D01*
X14681200Y5722660D02*
Y5986073D01*
X14884399Y5722660D02*
Y5986073D01*
X14833600Y5722660D02*
Y5986073D01*
X14528799Y5722660D02*
Y5986073D01*
X14478000Y5722660D02*
Y5986073D01*
X14630400Y5722660D02*
Y5986073D01*
X14579601Y5722660D02*
Y5986073D01*
X13411200Y5722660D02*
Y5986073D01*
X13462000Y5722660D02*
Y5986073D01*
X13360400Y5722660D02*
Y5986073D01*
X13563600Y5722660D02*
Y5986073D01*
X13512801Y5722660D02*
Y5986073D01*
X13208000Y5722660D02*
Y5986073D01*
X13157201Y5722660D02*
Y5986073D01*
X13309599Y5722660D02*
Y5986073D01*
X13258800Y5722660D02*
Y5986073D01*
X13868401Y5722660D02*
Y5986073D01*
X13817599Y5722660D02*
Y5986073D01*
X13970000Y5722660D02*
Y5986073D01*
X13919200Y5722660D02*
Y5986073D01*
X13665199Y5722660D02*
Y5986073D01*
X13614400Y5722660D02*
Y5986073D01*
X13766800Y5722660D02*
Y5986073D01*
X13716000Y5722660D02*
Y5986073D01*
X16306799Y5722660D02*
Y5986073D01*
X16357600Y5722660D02*
Y5986073D01*
X16256000Y5722660D02*
Y5986073D01*
X16459200Y5722660D02*
Y5986073D01*
X16408400Y5722660D02*
Y5986073D01*
X16103600Y5722660D02*
Y5986073D01*
X16052800Y5722660D02*
Y5986073D01*
X16205200Y5722660D02*
Y5986073D01*
X16154401Y5722660D02*
Y5986073D01*
X18135600Y5722660D02*
Y5986073D01*
X18186400Y5722660D02*
Y5986073D01*
X18084801Y5722660D02*
Y5986073D01*
X18288000Y5722660D02*
Y5986073D01*
X18237199Y5722660D02*
Y5986073D01*
X17932401Y5722660D02*
Y5986073D01*
X16510001Y5722660D02*
Y5986073D01*
X18034000Y5722660D02*
Y5986073D01*
X17983200Y5722660D02*
Y5986073D01*
X15392400Y5722660D02*
Y5986073D01*
X15443201Y5722660D02*
Y5986073D01*
X15341600Y5722660D02*
Y5986073D01*
X15544800Y5722660D02*
Y5986073D01*
X15494000Y5722660D02*
Y5986073D01*
X15189200Y5722660D02*
Y5986073D01*
X15138400Y5722660D02*
Y5986073D01*
X15290800Y5722660D02*
Y5986073D01*
X15239999Y5722660D02*
Y5986073D01*
X15849600Y5722660D02*
Y5986073D01*
X15900400Y5722660D02*
Y5986073D01*
X15798801Y5722660D02*
Y5986073D01*
X16002000Y5722660D02*
Y5986073D01*
X15951199Y5722660D02*
Y5986073D01*
X15646400Y5722660D02*
Y5986073D01*
X15595599Y5722660D02*
Y5986073D01*
X15748000Y5722660D02*
Y5986073D01*
X15697200Y5722660D02*
Y5986073D01*
X17322800Y5722660D02*
Y5986073D01*
X17373599Y5722660D02*
Y5986073D01*
X17272000Y5722660D02*
Y5986073D01*
X17475200Y5722660D02*
Y5986073D01*
X17424400Y5722660D02*
Y5986073D01*
X17119600Y5722660D02*
Y5986073D01*
X17068800Y5722660D02*
Y5986073D01*
X17221201Y5722660D02*
Y5986073D01*
X17170399Y5722660D02*
Y5986073D01*
X17729201Y5722660D02*
Y5986073D01*
X17780000Y5722660D02*
Y5986073D01*
X17678400Y5722660D02*
Y5986073D01*
X17881599Y5722660D02*
Y5986073D01*
X17830800Y5722660D02*
Y5986073D01*
X17576801Y5722660D02*
Y5986073D01*
X17525999Y5722660D02*
Y5986073D01*
X13100122Y4318000D02*
X23399879D01*
X17627600Y5722660D02*
Y5986073D01*
X16814799Y5722660D02*
Y5986073D01*
X16865601Y5722660D02*
Y5986073D01*
X16764000Y5722660D02*
Y5986073D01*
X16967200Y5722660D02*
Y5986073D01*
X16916400Y5722660D02*
Y5986073D01*
X16611600Y5722660D02*
Y5986073D01*
X16560800Y5722660D02*
Y5986073D01*
X16713200Y5722660D02*
Y5986073D01*
X16662399Y5722660D02*
Y5986073D01*
X17017999Y5722660D02*
Y5986073D01*
X13087929Y4334141D02*
X13094650Y4329650D01*
X13099141Y4322928D02*
X13100719Y4315000D01*
X13094650Y4329650D02*
X13099141Y4322928D01*
X13020718Y4335718D02*
X13080000D01*
X13020718D02*
Y4350000D01*
X13080000Y4335718D02*
X13087929Y4334141D01*
X13055600Y4335718D02*
Y4477340D01*
X193927Y5740400D02*
X36396072D01*
X12700000Y5722660D02*
X24500000D01*
X12903200Y4370718D02*
Y4477340D01*
X13004800Y4369763D02*
Y4477340D01*
X12953999Y4370718D02*
Y4477340D01*
X193927Y5892800D02*
X36396072D01*
X193927Y5943600D02*
X36396072D01*
X193927Y5791200D02*
X36396072D01*
X193927Y5842000D02*
X36396072D01*
X12870000Y4370718D02*
X13000000D01*
X13007928Y4369141D01*
X12862073D02*
X12870000Y4370718D01*
X13008440Y4368800D02*
X23491560D01*
X13007928Y4369141D02*
X13014650Y4364650D01*
X12069737Y4470400D02*
X23749840D01*
X12067320Y4477340D02*
X23749840D01*
X12065995Y4419600D02*
X23749840D01*
X12855350Y4364650D02*
X12862073Y4369141D01*
X11700000Y4370718D02*
X11830000D01*
X12852400Y4360234D02*
Y4477340D01*
X11836400Y4369445D02*
Y4377340D01*
X3900000Y5722660D02*
X12700000D01*
X2403067Y4377340D02*
X11949840D01*
X11692072Y4369141D02*
X11700000Y4370718D01*
X11684000Y4362629D02*
Y4377340D01*
X11838439Y4368800D02*
X11949840D01*
X12050160D02*
X12861562D01*
X11837929Y4369141D02*
X11844650Y4364650D01*
X12850859Y4357928D02*
X12855350Y4364650D01*
X11844650D02*
X11849141Y4357928D01*
X11830000Y4370718D02*
X11837929Y4369141D01*
X4208439Y4368800D02*
X11691562D01*
X11685350Y4364650D02*
X11692072Y4369141D01*
X11680859Y4357928D02*
X11685350Y4364650D01*
X12700000Y4350160D02*
Y4477340D01*
X13014650Y4364650D02*
X13019141Y4357928D01*
X12598400Y4350135D02*
Y4477340D01*
X12649200Y4309766D02*
Y4477340D01*
X12547600Y4315820D02*
Y4477340D01*
X12496800Y4350058D02*
Y4477340D01*
X12395200Y4349930D02*
Y4477340D01*
X12446000Y4320001D02*
Y4477340D01*
X12344400Y4323338D02*
Y4477340D01*
X12849281Y4350000D02*
X12850859Y4357928D01*
X13019141D02*
X13020718Y4350000D01*
X12746819Y4318000D02*
X12849281D01*
X12192000Y4349518D02*
Y4477340D01*
X12293600Y4349750D02*
Y4477340D01*
X12090400Y4349233D02*
Y4477340D01*
X12242800Y4326157D02*
Y4477340D01*
X12141200Y4328611D02*
Y4477340D01*
X11849141Y4357928D02*
X11850718Y4350000D01*
X11679282D02*
X11680859Y4357928D01*
X12050160Y4305655D02*
Y4397431D01*
X11633200Y4335718D02*
Y4377340D01*
X11679282Y4335718D02*
Y4350000D01*
X11620000Y4335718D02*
X11679282D01*
X11850718Y4318000D02*
X11949840D01*
X11612072Y4334141D02*
X11620000Y4335718D01*
X11605350Y4329650D02*
X11612072Y4334141D01*
X11600859Y4322928D02*
X11605350Y4329650D01*
X11599282Y4315000D02*
X11600859Y4322928D01*
X4300121Y4318000D02*
X11599879D01*
X8940800Y5722660D02*
Y5986073D01*
X8991600Y5722660D02*
Y5986073D01*
X8890000Y5722660D02*
Y5986073D01*
X9093200Y5722660D02*
Y5986073D01*
X9042400Y5722660D02*
Y5986073D01*
X8737600Y5722660D02*
Y5986073D01*
X8686800Y5722660D02*
Y5986073D01*
X8839200Y5722660D02*
Y5986073D01*
X8788400Y5722660D02*
Y5986073D01*
X9398000Y5722660D02*
Y5986073D01*
X9448800Y5722660D02*
Y5986073D01*
X9347200Y5722660D02*
Y5986073D01*
X9550400Y5722660D02*
Y5986073D01*
X9499600Y5722660D02*
Y5986073D01*
X9194800Y5722660D02*
Y5986073D01*
X9144000Y5722660D02*
Y5986073D01*
X9296400Y5722660D02*
Y5986073D01*
X9245600Y5722660D02*
Y5986073D01*
X4013200Y5722660D02*
Y5986073D01*
X4064000Y5722660D02*
Y5986073D01*
X3962400Y5722660D02*
Y5986073D01*
X4165600Y5722660D02*
Y5986073D01*
X4114800Y5722660D02*
Y5986073D01*
X3810000Y5722660D02*
Y5986073D01*
X3759200Y5722660D02*
Y5986073D01*
X3911600Y5722660D02*
Y5986073D01*
X3860800Y5722660D02*
Y5986073D01*
X8483600Y5722660D02*
Y5986073D01*
X8534400Y5722660D02*
Y5986073D01*
X8432800Y5722660D02*
Y5986073D01*
X8636000Y5722660D02*
Y5986073D01*
X8585200Y5722660D02*
Y5986073D01*
X4267200Y5722660D02*
Y5986073D01*
X4216400Y5722660D02*
Y5986073D01*
X8382000Y5722660D02*
Y5986073D01*
X5892800Y5722660D02*
Y5986073D01*
X10718800Y5722660D02*
Y5986073D01*
X10769600Y5722660D02*
Y5986073D01*
X10668000Y5722660D02*
Y5986073D01*
X10871200Y5722660D02*
Y5986073D01*
X10820400Y5722660D02*
Y5986073D01*
X10515600Y5722660D02*
Y5986073D01*
X10464800Y5722660D02*
Y5986073D01*
X10617200Y5722660D02*
Y5986073D01*
X10566400Y5722660D02*
Y5986073D01*
X11176000Y5722660D02*
Y5986073D01*
X11226800Y5722660D02*
Y5986073D01*
X11125200Y5722660D02*
Y5986073D01*
X11328400Y5722660D02*
Y5986073D01*
X11277600Y5722660D02*
Y5986073D01*
X10972800Y5722660D02*
Y5986073D01*
X10922000Y5722660D02*
Y5986073D01*
X11074400Y5722660D02*
Y5986073D01*
X11023600Y5722660D02*
Y5986073D01*
X9855200Y5722660D02*
Y5986073D01*
X9906000Y5722660D02*
Y5986073D01*
X9804400Y5722660D02*
Y5986073D01*
X10007600Y5722660D02*
Y5986073D01*
X9956800Y5722660D02*
Y5986073D01*
X9652000Y5722660D02*
Y5986073D01*
X9601200Y5722660D02*
Y5986073D01*
X9753600Y5722660D02*
Y5986073D01*
X9702800Y5722660D02*
Y5986073D01*
X10312400Y5722660D02*
Y5986073D01*
X10261600Y5722660D02*
Y5986073D01*
X10414000Y5722660D02*
Y5986073D01*
X10363200Y5722660D02*
Y5986073D01*
X10109200Y5722660D02*
Y5986073D01*
X10058400Y5722660D02*
Y5986073D01*
X10210800Y5722660D02*
Y5986073D01*
X10160000Y5722660D02*
Y5986073D01*
X1320800Y5722660D02*
Y5986073D01*
X1371600Y5722660D02*
Y5986073D01*
X1270000Y5722660D02*
Y5986073D01*
X1473200Y5722660D02*
Y5986073D01*
X1422400Y5722660D02*
Y5986073D01*
X1117600Y5722660D02*
Y5986073D01*
X1066800Y5722660D02*
Y5986073D01*
X1219200Y5722660D02*
Y5986073D01*
X1168400Y5722660D02*
Y5986073D01*
X1778000Y5722660D02*
Y5986073D01*
X1828800Y5722660D02*
Y5986073D01*
X1727200Y5722660D02*
Y5986073D01*
X1930400Y5722660D02*
Y5986073D01*
X1879600Y5722660D02*
Y5986073D01*
X1574800Y5722660D02*
Y5986073D01*
X1524000Y5722660D02*
Y5986073D01*
X1676400Y5722660D02*
Y5986073D01*
X1625600Y5722660D02*
Y5986073D01*
X406400Y5722660D02*
Y5986073D01*
X457200Y5722660D02*
Y5986073D01*
X355600Y5722660D02*
Y5986073D01*
X558800Y5722660D02*
Y5986073D01*
X508000Y5722660D02*
Y5986073D01*
X203200Y5722660D02*
Y5986073D01*
X193927Y5722660D02*
Y5986073D01*
X304800Y5722660D02*
Y5986073D01*
X254000Y5722660D02*
Y5986073D01*
X863600Y5722660D02*
Y5986073D01*
X914400Y5722660D02*
Y5986073D01*
X812800Y5722660D02*
Y5986073D01*
X1016000Y5722660D02*
Y5986073D01*
X965200Y5722660D02*
Y5986073D01*
X660400Y5722660D02*
Y5986073D01*
X609600Y5722660D02*
Y5986073D01*
X762000Y5722660D02*
Y5986073D01*
X711200Y5722660D02*
Y5986073D01*
X3098800Y5722660D02*
Y5986073D01*
X3149600Y5722660D02*
Y5986073D01*
X3048000Y5722660D02*
Y5986073D01*
X3251200Y5722660D02*
Y5986073D01*
X3200400Y5722660D02*
Y5986073D01*
X2895600Y5722660D02*
Y5986073D01*
X2844800Y5722660D02*
Y5986073D01*
X2997200Y5722660D02*
Y5986073D01*
X2946400Y5722660D02*
Y5986073D01*
X3556000Y5722660D02*
Y5986073D01*
X3606800Y5722660D02*
Y5986073D01*
X3505200Y5722660D02*
Y5986073D01*
X3708400Y5722660D02*
Y5986073D01*
X3657600Y5722660D02*
Y5986073D01*
X3352800Y5722660D02*
Y5986073D01*
X3302000Y5722660D02*
Y5986073D01*
X3454400Y5722660D02*
Y5986073D01*
X3403600Y5722660D02*
Y5986073D01*
X2235200Y5722660D02*
Y5986073D01*
X2286000Y5722660D02*
Y5986073D01*
X2184400Y5722660D02*
Y5986073D01*
X2387600Y5722660D02*
Y5986073D01*
X2336800Y5722660D02*
Y5986073D01*
X2032000Y5722660D02*
Y5986073D01*
X1981200Y5722660D02*
Y5986073D01*
X2133600Y5722660D02*
Y5986073D01*
X2082800Y5722660D02*
Y5986073D01*
X2692400Y5722660D02*
Y5986073D01*
X2641600Y5722660D02*
Y5986073D01*
X2794000Y5722660D02*
Y5986073D01*
X2743200Y5722660D02*
Y5986073D01*
X2489200Y5722660D02*
Y5986073D01*
X2438400Y5722660D02*
Y5986073D01*
X2590800Y5722660D02*
Y5986073D01*
X2540000Y5722660D02*
Y5986073D01*
X5943600Y5722660D02*
Y5986073D01*
X5994400Y5722660D02*
Y5986073D01*
X5842000Y5722660D02*
Y5986073D01*
X6096000Y5722660D02*
Y5986073D01*
X6045200Y5722660D02*
Y5986073D01*
X5689600Y5722660D02*
Y5986073D01*
X5638800Y5722660D02*
Y5986073D01*
X5791200Y5722660D02*
Y5986073D01*
X5740400Y5722660D02*
Y5986073D01*
X6400800Y5722660D02*
Y5986073D01*
X6451600Y5722660D02*
Y5986073D01*
X6350000Y5722660D02*
Y5986073D01*
X6553200Y5722660D02*
Y5986073D01*
X6502400Y5722660D02*
Y5986073D01*
X6197600Y5722660D02*
Y5986073D01*
X6146800Y5722660D02*
Y5986073D01*
X6299200Y5722660D02*
Y5986073D01*
X6248400Y5722660D02*
Y5986073D01*
X4978400Y5722660D02*
Y5986073D01*
X5029200Y5722660D02*
Y5986073D01*
X4927600Y5722660D02*
Y5986073D01*
X5130800Y5722660D02*
Y5986073D01*
X5080000Y5722660D02*
Y5986073D01*
X4775200Y5722660D02*
Y5986073D01*
X4724400Y5722660D02*
Y5986073D01*
X4876800Y5722660D02*
Y5986073D01*
X4826000Y5722660D02*
Y5986073D01*
X5435600Y5722660D02*
Y5986073D01*
X5486400Y5722660D02*
Y5986073D01*
X5384800Y5722660D02*
Y5986073D01*
X5588000Y5722660D02*
Y5986073D01*
X5537200Y5722660D02*
Y5986073D01*
X5232400Y5722660D02*
Y5986073D01*
X5181600Y5722660D02*
Y5986073D01*
X5334000Y5722660D02*
Y5986073D01*
X5283200Y5722660D02*
Y5986073D01*
X7721600Y5722660D02*
Y5986073D01*
X7772400Y5722660D02*
Y5986073D01*
X7670800Y5722660D02*
Y5986073D01*
X7874000Y5722660D02*
Y5986073D01*
X7823200Y5722660D02*
Y5986073D01*
X7518400Y5722660D02*
Y5986073D01*
X7467600Y5722660D02*
Y5986073D01*
X7620000Y5722660D02*
Y5986073D01*
X7569200Y5722660D02*
Y5986073D01*
X8178800Y5722660D02*
Y5986073D01*
X8229600Y5722660D02*
Y5986073D01*
X8128000Y5722660D02*
Y5986073D01*
X8331200Y5722660D02*
Y5986073D01*
X8280400Y5722660D02*
Y5986073D01*
X7975600Y5722660D02*
Y5986073D01*
X7924800Y5722660D02*
Y5986073D01*
X8077200Y5722660D02*
Y5986073D01*
X8026400Y5722660D02*
Y5986073D01*
X6858000Y5722660D02*
Y5986073D01*
X6908800Y5722660D02*
Y5986073D01*
X6807200Y5722660D02*
Y5986073D01*
X7010400Y5722660D02*
Y5986073D01*
X6959600Y5722660D02*
Y5986073D01*
X6654800Y5722660D02*
Y5986073D01*
X6604000Y5722660D02*
Y5986073D01*
X6756400Y5722660D02*
Y5986073D01*
X6705600Y5722660D02*
Y5986073D01*
X7315200Y5722660D02*
Y5986073D01*
X7264400Y5722660D02*
Y5986073D01*
X7416800Y5722660D02*
Y5986073D01*
X7366000Y5722660D02*
Y5986073D01*
X7112000Y5722660D02*
Y5986073D01*
X7061200Y5722660D02*
Y5986073D01*
X7213600Y5722660D02*
Y5986073D01*
X7162800Y5722660D02*
Y5986073D01*
X4521200Y5722660D02*
Y5986073D01*
X4572000Y5722660D02*
Y5986073D01*
X4470400Y5722660D02*
Y5986073D01*
X4673600Y5722660D02*
Y5986073D01*
X4622800Y5722660D02*
Y5986073D01*
X4368800Y5722660D02*
Y5986073D01*
X4318000Y5722660D02*
Y5986073D01*
X4419600Y5722660D02*
Y5986073D01*
X4064000Y4369524D02*
Y4377340D01*
X4216400Y4362031D02*
Y4377340D01*
X4207928Y4369141D02*
X4214650Y4364650D01*
X4200000Y4370718D02*
X4207928Y4369141D01*
X4219141Y4357928D02*
X4220718Y4350000D01*
X4214650Y4364650D02*
X4219141Y4357928D01*
X4070000Y4370718D02*
X4200000D01*
X4062072Y4369141D02*
X4070000Y4370718D01*
X4055350Y4364650D02*
X4062072Y4369141D01*
X3038439Y4368800D02*
X4061561D01*
X3048000Y4359636D02*
Y4377340D01*
X3200400Y4350158D02*
Y4377340D01*
X3030000Y4370718D02*
X3037928Y4369141D01*
X3403600Y4350031D02*
Y4377340D01*
X3302000Y4350120D02*
Y4377340D01*
X400000Y5722660D02*
X3900000D01*
X193927D02*
X400000D01*
X2900000Y4370718D02*
X3030000D01*
X2892072Y4369141D02*
X2900000Y4370718D01*
X3044650Y4364650D02*
X3049141Y4357928D01*
X4050859D02*
X4055350Y4364650D01*
X3037928Y4369141D02*
X3044650Y4364650D01*
X4049282Y4350000D02*
X4050859Y4357928D01*
X3049141D02*
X3050718Y4350000D01*
X2885350Y4364650D02*
X2892072Y4369141D01*
X2411607Y4368800D02*
X2891561D01*
X2880859Y4357928D02*
X2885350Y4364650D01*
X2879282Y4350000D02*
X2880859Y4357928D01*
X3911600Y4348800D02*
Y4377340D01*
X4267200Y4335718D02*
Y4377340D01*
X3810000Y4349153D02*
Y4377340D01*
X3860800Y4331295D02*
Y4377340D01*
X3759200Y4329178D02*
Y4377340D01*
X3708400Y4349452D02*
Y4377340D01*
X3657600Y4326800D02*
Y4377340D01*
X4280000Y4335718D02*
X4287928Y4334141D01*
X4294650Y4329650D01*
X4220718Y4335718D02*
X4280000D01*
X4299141Y4322928D02*
X4300718Y4315000D01*
X4294650Y4329650D02*
X4299141Y4322928D01*
X4220718Y4335718D02*
Y4350000D01*
X3946819Y4318000D02*
X4049282D01*
X3556000Y4324084D02*
Y4377340D01*
X3606800Y4349697D02*
Y4377340D01*
X3505200Y4349890D02*
Y4377340D01*
X3454400Y4320896D02*
Y4377340D01*
X3352800Y4316976D02*
Y4377340D01*
X2844800Y4335718D02*
Y4377340D01*
X2438400Y4342007D02*
Y4377340D01*
X3251200Y4311601D02*
Y4377340D01*
X2879282Y4335718D02*
Y4350000D01*
X2820000Y4335718D02*
X2879282D01*
X3050718Y4318000D02*
X3153181D01*
X2812072Y4334141D02*
X2820000Y4335718D01*
X2805350Y4329650D02*
X2812072Y4334141D01*
X2800859Y4322928D02*
X2805350Y4329650D01*
X2799282Y4315000D02*
X2800859Y4322928D01*
X2462407Y4318000D02*
X2799879D01*
X19303999Y4013927D02*
Y4477340D01*
X19354800Y4013927D02*
Y4477340D01*
X19253200Y4013927D02*
Y4477340D01*
X19456400Y4013927D02*
Y4477340D01*
X19405600Y4013927D02*
Y4477340D01*
X19100800Y4013927D02*
Y4477340D01*
X19050000Y4013927D02*
Y4477340D01*
X19202400Y4013927D02*
Y4477340D01*
X19151601Y4013927D02*
Y4477340D01*
X19761200Y4013927D02*
Y4477340D01*
X19812000Y4013927D02*
Y4477340D01*
X19710400Y4013927D02*
Y4477340D01*
X19913600Y4013927D02*
Y4477340D01*
X19862801Y4013927D02*
Y4477340D01*
X19558000Y4013927D02*
Y4477340D01*
X19507201Y4013927D02*
Y4477340D01*
X19659599Y4013927D02*
Y4477340D01*
X19608800Y4013927D02*
Y4477340D01*
X18389600Y4013927D02*
Y4477340D01*
X18440401Y4013927D02*
Y4477340D01*
X18338800Y4013927D02*
Y4477340D01*
X18542000Y4013927D02*
Y4477340D01*
X18491200Y4013927D02*
Y4477340D01*
X18186400Y4013927D02*
Y4477340D01*
X18135600Y4013927D02*
Y4477340D01*
X18288000Y4013927D02*
Y4477340D01*
X18237199Y4013927D02*
Y4477340D01*
X18846800Y4013927D02*
Y4477340D01*
X18897600Y4013927D02*
Y4477340D01*
X18796001Y4013927D02*
Y4477340D01*
X18999200Y4013927D02*
Y4477340D01*
X18948399Y4013927D02*
Y4477340D01*
X18643600Y4013927D02*
Y4477340D01*
X18592799Y4013927D02*
Y4477340D01*
X18745200Y4013927D02*
Y4477340D01*
X18694400Y4013927D02*
Y4477340D01*
X21082001Y4013927D02*
Y4477340D01*
X21132800Y4013927D02*
Y4477340D01*
X21031200Y4013927D02*
Y4477340D01*
X21234399Y4013927D02*
Y4477340D01*
X21183600Y4013927D02*
Y4477340D01*
X20878799Y4013927D02*
Y4477340D01*
X20828000Y4013927D02*
Y4477340D01*
X20980400Y4013927D02*
Y4477340D01*
X20929601Y4013927D02*
Y4477340D01*
X21539200Y4013927D02*
Y4477340D01*
X21589999Y4013927D02*
Y4477340D01*
X21488400Y4013927D02*
Y4477340D01*
X21691600Y4013927D02*
Y4477340D01*
X21640800Y4013927D02*
Y4477340D01*
X21336000Y4013927D02*
Y4477340D01*
X21285201Y4013927D02*
Y4477340D01*
X21437601Y4013927D02*
Y4477340D01*
X21386800Y4013927D02*
Y4477340D01*
X20218401Y4013927D02*
Y4477340D01*
X20269200Y4013927D02*
Y4477340D01*
X20167599Y4013927D02*
Y4477340D01*
X20370799Y4013927D02*
Y4477340D01*
X20320000Y4013927D02*
Y4477340D01*
X20015199Y4013927D02*
Y4477340D01*
X19964400Y4013927D02*
Y4477340D01*
X20116800Y4013927D02*
Y4477340D01*
X20066000Y4013927D02*
Y4477340D01*
X20675600Y4013927D02*
Y4477340D01*
X20624800Y4013927D02*
Y4477340D01*
X20777200Y4013927D02*
Y4477340D01*
X20726401Y4013927D02*
Y4477340D01*
X20472400Y4013927D02*
Y4477340D01*
X20421600Y4013927D02*
Y4477340D01*
X20574001Y4013927D02*
Y4477340D01*
X20523199Y4013927D02*
Y4477340D01*
X14173199Y4013927D02*
Y4477340D01*
X14224001Y4013927D02*
Y4477340D01*
X14122400Y4013927D02*
Y4477340D01*
X14325600Y4013927D02*
Y4477340D01*
X14274800Y4013927D02*
Y4477340D01*
X13970000Y4013927D02*
Y4477340D01*
X13919200Y4013927D02*
Y4477340D01*
X14071600Y4013927D02*
Y4477340D01*
X14020799Y4013927D02*
Y4477340D01*
X14630400Y4013927D02*
Y4477340D01*
X14681200Y4013927D02*
Y4477340D01*
X14579601Y4013927D02*
Y4477340D01*
X14782800Y4013927D02*
Y4477340D01*
X14732001Y4013927D02*
Y4477340D01*
X14427200Y4013927D02*
Y4477340D01*
X14376401Y4013927D02*
Y4477340D01*
X14528799Y4013927D02*
Y4477340D01*
X14478000Y4013927D02*
Y4477340D01*
X13258800Y4013927D02*
Y4477340D01*
X13309599Y4013927D02*
Y4477340D01*
X13208000Y4013927D02*
Y4477340D01*
X13411200Y4013927D02*
Y4477340D01*
X13360400Y4013927D02*
Y4477340D01*
X12801601Y4013927D02*
Y4477340D01*
X12750800Y4013927D02*
Y4477340D01*
X13157201Y4013927D02*
Y4477340D01*
X13106400Y4013927D02*
Y4477340D01*
X13716000Y4013927D02*
Y4477340D01*
X13766800Y4013927D02*
Y4477340D01*
X13665199Y4013927D02*
Y4477340D01*
X13868401Y4013927D02*
Y4477340D01*
X13817599Y4013927D02*
Y4477340D01*
X13512801Y4013927D02*
Y4477340D01*
X13462000Y4013927D02*
Y4477340D01*
X13614400Y4013927D02*
Y4477340D01*
X13563600Y4013927D02*
Y4477340D01*
X17475200Y4013927D02*
Y4477340D01*
X17525999Y4013927D02*
Y4477340D01*
X17424400Y4013927D02*
Y4477340D01*
X17627600Y4013927D02*
Y4477340D01*
X17576801Y4013927D02*
Y4477340D01*
X17272000Y4013927D02*
Y4477340D01*
X17221201Y4013927D02*
Y4477340D01*
X17373599Y4013927D02*
Y4477340D01*
X17322800Y4013927D02*
Y4477340D01*
X17932401Y4013927D02*
Y4477340D01*
X17983200Y4013927D02*
Y4477340D01*
X17881599Y4013927D02*
Y4477340D01*
X18084801Y4013927D02*
Y4477340D01*
X18034000Y4013927D02*
Y4477340D01*
X17729201Y4013927D02*
Y4477340D01*
X17678400Y4013927D02*
Y4477340D01*
X17830800Y4013927D02*
Y4477340D01*
X17780000Y4013927D02*
Y4477340D01*
X16611600Y4013927D02*
Y4477340D01*
X16662399Y4013927D02*
Y4477340D01*
X16560800Y4013927D02*
Y4477340D01*
X16764000Y4013927D02*
Y4477340D01*
X16713200Y4013927D02*
Y4477340D01*
X16408400Y4013927D02*
Y4477340D01*
X16357600Y4013927D02*
Y4477340D01*
X16510001Y4013927D02*
Y4477340D01*
X16459200Y4013927D02*
Y4477340D01*
X17068800Y4013927D02*
Y4477340D01*
X17017999Y4013927D02*
Y4477340D01*
X17170399Y4013927D02*
Y4477340D01*
X17119600Y4013927D02*
Y4477340D01*
X16865601Y4013927D02*
Y4477340D01*
X16814799Y4013927D02*
Y4477340D01*
X16967200Y4013927D02*
Y4477340D01*
X16916400Y4013927D02*
Y4477340D01*
X13100719Y4216400D02*
X23399281D01*
X13100719Y4165600D02*
X23399281D01*
X13100719Y4267200D02*
X23399281D01*
X13100719Y4155000D02*
Y4315000D01*
X12849281Y4155000D02*
X12850859Y4147072D01*
X12750160Y4216400D02*
X12849281D01*
X12750160Y4267200D02*
X12849281D01*
Y4155000D02*
Y4350000D01*
X12750160Y4165600D02*
X12849281D01*
X13099141Y4147072D02*
X13100719Y4155000D01*
X13094650Y4140350D02*
X13099141Y4147072D01*
X13087929Y4135859D02*
X13094650Y4140350D01*
X13080000Y4134282D02*
X13087929Y4135859D01*
X12870000Y4134282D02*
X13080000D01*
X12855350Y4140350D02*
X12862073Y4135859D01*
X12850859Y4147072D02*
X12855350Y4140350D01*
X12743370Y4114800D02*
X23756630D01*
X12862073Y4135859D02*
X12870000Y4134282D01*
X12750160Y4140000D02*
Y4300000D01*
X12649200Y4013927D02*
Y4130234D01*
X12547600Y4013927D02*
Y4124181D01*
X12664680Y4064680D02*
Y4104384D01*
Y4064680D02*
X12735320D01*
X12643370Y4114800D02*
X12656630D01*
X12735320Y4064680D02*
Y4104384D01*
X12700000Y4013927D02*
Y4064680D01*
X12564680D02*
X12635320D01*
X12564680D02*
Y4104384D01*
X12635320Y4064680D02*
Y4104384D01*
X12598400Y4013927D02*
Y4064680D01*
X15697200Y4013927D02*
Y4477340D01*
X15748000Y4013927D02*
Y4477340D01*
X15646400Y4013927D02*
Y4477340D01*
X15849600Y4013927D02*
Y4477340D01*
X15798801Y4013927D02*
Y4477340D01*
X15494000Y4013927D02*
Y4477340D01*
X15443201Y4013927D02*
Y4477340D01*
X15595599Y4013927D02*
Y4477340D01*
X15544800Y4013927D02*
Y4477340D01*
X16154401Y4013927D02*
Y4477340D01*
X16205200Y4013927D02*
Y4477340D01*
X16103600Y4013927D02*
Y4477340D01*
X16306799Y4013927D02*
Y4477340D01*
X16256000Y4013927D02*
Y4477340D01*
X15951199Y4013927D02*
Y4477340D01*
X15900400Y4013927D02*
Y4477340D01*
X16052800Y4013927D02*
Y4477340D01*
X16002000Y4013927D02*
Y4477340D01*
X15087601Y4013927D02*
Y4477340D01*
X15138400Y4013927D02*
Y4477340D01*
X15036800Y4013927D02*
Y4477340D01*
X15239999Y4013927D02*
Y4477340D01*
X15189200Y4013927D02*
Y4477340D01*
X14884399Y4013927D02*
Y4477340D01*
X14833600Y4013927D02*
Y4477340D01*
X14986000Y4013927D02*
Y4477340D01*
X14935201Y4013927D02*
Y4477340D01*
X15290800Y4013927D02*
Y4477340D01*
X13055600Y4013927D02*
Y4134282D01*
X15392400Y4013927D02*
Y4477340D01*
X15341600Y4013927D02*
Y4477340D01*
X12903200Y4013927D02*
Y4134282D01*
X12852400Y4013927D02*
Y4144766D01*
X13004800Y4013927D02*
Y4134282D01*
X12953999Y4013927D02*
Y4134282D01*
X12443370Y4114800D02*
X12456630D01*
X12543370D02*
X12556630D01*
X12343370D02*
X12356630D01*
X12243370D02*
X12256630D01*
X12143370D02*
X12156630D01*
X12264680Y4064680D02*
Y4104384D01*
X11850718Y4216400D02*
X11949840D01*
Y4300000D02*
Y4377340D01*
Y4140000D02*
Y4300000D01*
X11850718Y4165600D02*
X11949840D01*
X11850718Y4267200D02*
X11949840D01*
X11850718Y4155000D02*
Y4350000D01*
X11849141Y4147072D02*
X11850718Y4155000D01*
X11844650Y4140350D02*
X11849141Y4147072D01*
X12043370Y4114800D02*
X12056630D01*
X11837929Y4135859D02*
X11844650Y4140350D01*
X11620000Y4134282D02*
X11830000D01*
X3943370Y4114800D02*
X11956630D01*
X11830000Y4134282D02*
X11837929Y4135859D01*
X12435320Y4064680D02*
Y4104384D01*
X12464680Y4064680D02*
Y4104384D01*
X12364680Y4064680D02*
Y4104384D01*
X12535320Y4064680D02*
Y4104384D01*
X12446000Y4013927D02*
Y4120000D01*
X12335320Y4064680D02*
Y4104384D01*
X12235320Y4064680D02*
Y4104384D01*
X12344400Y4013927D02*
Y4116662D01*
X12242800Y4013927D02*
Y4113843D01*
X12364680Y4064680D02*
X12435320D01*
X12464680D02*
X12535320D01*
X12293600Y4013927D02*
Y4064680D01*
X12496800Y4013927D02*
Y4064680D01*
X12395200Y4013927D02*
Y4064680D01*
X12264680D02*
X12335320D01*
X12164680D02*
X12235320D01*
X2766480Y4013927D02*
X36396072D01*
X2716407Y4064000D02*
X35900476D01*
X12035320Y4064680D02*
Y4104384D01*
X12135320Y4064680D02*
Y4104384D01*
X11938000Y4013927D02*
Y4377340D01*
X12141200Y4013927D02*
Y4111389D01*
X12039600Y4013927D02*
Y4109213D01*
X11785600Y4013927D02*
Y4134282D01*
X11734800Y4013927D02*
Y4134282D01*
X11887200Y4013927D02*
Y4377340D01*
X11836400Y4013927D02*
Y4135555D01*
X12164680Y4064680D02*
Y4104384D01*
X12064680Y4064680D02*
X12135320D01*
X12192000Y4013927D02*
Y4064680D01*
X12090400Y4013927D02*
Y4064680D01*
X11964680D02*
X12035320D01*
X11964680D02*
Y4104384D01*
X12064680Y4064680D02*
Y4104384D01*
X11988800Y4013927D02*
Y4064680D01*
X9194800Y4013927D02*
Y4377340D01*
X9245600Y4013927D02*
Y4377340D01*
X9144000Y4013927D02*
Y4377340D01*
X9347200Y4013927D02*
Y4377340D01*
X9296400Y4013927D02*
Y4377340D01*
X8991600Y4013927D02*
Y4377340D01*
X8940800Y4013927D02*
Y4377340D01*
X9093200Y4013927D02*
Y4377340D01*
X9042400Y4013927D02*
Y4377340D01*
X9652000Y4013927D02*
Y4377340D01*
X9702800Y4013927D02*
Y4377340D01*
X9601200Y4013927D02*
Y4377340D01*
X9804400Y4013927D02*
Y4377340D01*
X9753600Y4013927D02*
Y4377340D01*
X9448800Y4013927D02*
Y4377340D01*
X9398000Y4013927D02*
Y4377340D01*
X9550400Y4013927D02*
Y4377340D01*
X9499600Y4013927D02*
Y4377340D01*
X8280400Y4013927D02*
Y4377340D01*
X8331200Y4013927D02*
Y4377340D01*
X8229600Y4013927D02*
Y4377340D01*
X8432800Y4013927D02*
Y4377340D01*
X8382000Y4013927D02*
Y4377340D01*
X8077200Y4013927D02*
Y4377340D01*
X8026400Y4013927D02*
Y4377340D01*
X8178800Y4013927D02*
Y4377340D01*
X8128000Y4013927D02*
Y4377340D01*
X8737600Y4013927D02*
Y4377340D01*
X8788400Y4013927D02*
Y4377340D01*
X8686800Y4013927D02*
Y4377340D01*
X8890000Y4013927D02*
Y4377340D01*
X8839200Y4013927D02*
Y4377340D01*
X8534400Y4013927D02*
Y4377340D01*
X8483600Y4013927D02*
Y4377340D01*
X8636000Y4013927D02*
Y4377340D01*
X8585200Y4013927D02*
Y4377340D01*
X10972800Y4013927D02*
Y4377340D01*
X11023600Y4013927D02*
Y4377340D01*
X10922000Y4013927D02*
Y4377340D01*
X11125200Y4013927D02*
Y4377340D01*
X11074400Y4013927D02*
Y4377340D01*
X10769600Y4013927D02*
Y4377340D01*
X10718800Y4013927D02*
Y4377340D01*
X10871200Y4013927D02*
Y4377340D01*
X10820400Y4013927D02*
Y4377340D01*
X11430000Y4013927D02*
Y4377340D01*
X11480800Y4013927D02*
Y4377340D01*
X11379200Y4013927D02*
Y4377340D01*
X11582400Y4013927D02*
Y4377340D01*
X11531600Y4013927D02*
Y4377340D01*
X11226800Y4013927D02*
Y4377340D01*
X11176000Y4013927D02*
Y4377340D01*
X11328400Y4013927D02*
Y4377340D01*
X11277600Y4013927D02*
Y4377340D01*
X10109200Y4013927D02*
Y4377340D01*
X10160000Y4013927D02*
Y4377340D01*
X10058400Y4013927D02*
Y4377340D01*
X10261600Y4013927D02*
Y4377340D01*
X10210800Y4013927D02*
Y4377340D01*
X9906000Y4013927D02*
Y4377340D01*
X9855200Y4013927D02*
Y4377340D01*
X10007600Y4013927D02*
Y4377340D01*
X9956800Y4013927D02*
Y4377340D01*
X10566400Y4013927D02*
Y4377340D01*
X10515600Y4013927D02*
Y4377340D01*
X10668000Y4013927D02*
Y4377340D01*
X10617200Y4013927D02*
Y4377340D01*
X10363200Y4013927D02*
Y4377340D01*
X10312400Y4013927D02*
Y4377340D01*
X10464800Y4013927D02*
Y4377340D01*
X10414000Y4013927D02*
Y4377340D01*
X4876800Y4013927D02*
Y4377340D01*
X5638800Y4013927D02*
Y4377340D01*
X4826000Y4013927D02*
Y4377340D01*
X5740400Y4013927D02*
Y4377340D01*
X5689600Y4013927D02*
Y4377340D01*
X4673600Y4013927D02*
Y4377340D01*
X4622800Y4013927D02*
Y4377340D01*
X4775200Y4013927D02*
Y4377340D01*
X4724400Y4013927D02*
Y4377340D01*
X6045200Y4013927D02*
Y4377340D01*
X6096000Y4013927D02*
Y4377340D01*
X5994400Y4013927D02*
Y4377340D01*
X6197600Y4013927D02*
Y4377340D01*
X6146800Y4013927D02*
Y4377340D01*
X5842000Y4013927D02*
Y4377340D01*
X5791200Y4013927D02*
Y4377340D01*
X5943600Y4013927D02*
Y4377340D01*
X5892800Y4013927D02*
Y4377340D01*
X2692400Y4088007D02*
Y4377340D01*
X2743200Y4037207D02*
Y4377340D01*
X2641600Y4138807D02*
Y4377340D01*
X3098800Y4013927D02*
Y4377340D01*
X2794000Y4013927D02*
Y4377340D01*
X2540000Y4240407D02*
Y4377340D01*
X2489200Y4291207D02*
Y4377340D01*
X2403067D02*
X2766480Y4013927D01*
X2590800Y4189607D02*
Y4377340D01*
X4419600Y4013927D02*
Y4377340D01*
X4470400Y4013927D02*
Y4377340D01*
X4368800Y4013927D02*
Y4377340D01*
X4572000Y4013927D02*
Y4377340D01*
X4521200Y4013927D02*
Y4377340D01*
X3962400Y4013927D02*
Y4377340D01*
X3149600Y4013927D02*
Y4377340D01*
X4318000Y4013927D02*
Y4377340D01*
X4013200Y4013927D02*
Y4377340D01*
X7366000Y4013927D02*
Y4377340D01*
X7416800Y4013927D02*
Y4377340D01*
X7315200Y4013927D02*
Y4377340D01*
X7518400Y4013927D02*
Y4377340D01*
X7467600Y4013927D02*
Y4377340D01*
X7162800Y4013927D02*
Y4377340D01*
X7112000Y4013927D02*
Y4377340D01*
X7264400Y4013927D02*
Y4377340D01*
X7213600Y4013927D02*
Y4377340D01*
X7823200Y4013927D02*
Y4377340D01*
X7874000Y4013927D02*
Y4377340D01*
X7772400Y4013927D02*
Y4377340D01*
X7975600Y4013927D02*
Y4377340D01*
X7924800Y4013927D02*
Y4377340D01*
X7620000Y4013927D02*
Y4377340D01*
X7569200Y4013927D02*
Y4377340D01*
X7721600Y4013927D02*
Y4377340D01*
X7670800Y4013927D02*
Y4377340D01*
X6502400Y4013927D02*
Y4377340D01*
X6553200Y4013927D02*
Y4377340D01*
X6451600Y4013927D02*
Y4377340D01*
X6654800Y4013927D02*
Y4377340D01*
X6604000Y4013927D02*
Y4377340D01*
X6299200Y4013927D02*
Y4377340D01*
X6248400Y4013927D02*
Y4377340D01*
X6400800Y4013927D02*
Y4377340D01*
X6350000Y4013927D02*
Y4377340D01*
X6959600Y4013927D02*
Y4377340D01*
X6908800Y4013927D02*
Y4377340D01*
X7061200Y4013927D02*
Y4377340D01*
X7010400Y4013927D02*
Y4377340D01*
X6756400Y4013927D02*
Y4377340D01*
X6705600Y4013927D02*
Y4377340D01*
X6858000Y4013927D02*
Y4377340D01*
X6807200Y4013927D02*
Y4377340D01*
X4300718Y4216400D02*
X11599282D01*
X4300718Y4165600D02*
X11599282D01*
X4300718Y4267200D02*
X11599282D01*
Y4155000D02*
X11600859Y4147072D01*
X11599282Y4155000D02*
Y4315000D01*
X4300718Y4155000D02*
Y4315000D01*
X4049282Y4155000D02*
X4050859Y4147072D01*
X4299141D02*
X4300718Y4155000D01*
X4050859Y4147072D02*
X4055350Y4140350D01*
X4294650D02*
X4299141Y4147072D01*
X11600859D02*
X11605350Y4140350D01*
X4287928Y4135859D02*
X4294650Y4140350D01*
X11612072Y4135859D02*
X11620000Y4134282D01*
X11605350Y4140350D02*
X11612072Y4135859D01*
X4062072D02*
X4070000Y4134282D01*
X4055350Y4140350D02*
X4062072Y4135859D01*
X4280000Y4134282D02*
X4287928Y4135859D01*
X4070000Y4134282D02*
X4280000D01*
X3950160Y4216400D02*
X4049282D01*
X3950160Y4165600D02*
X4049282D01*
X3950160Y4267200D02*
X4049282D01*
Y4155000D02*
Y4350000D01*
X3950160Y4140000D02*
Y4300000D01*
X3843370Y4114800D02*
X3856630D01*
X3743370D02*
X3756630D01*
X3643370D02*
X3656630D01*
X3735320Y4064680D02*
Y4104384D01*
X5181600Y4013927D02*
Y4377340D01*
X5232400Y4013927D02*
Y4377340D01*
X5130800Y4013927D02*
Y4377340D01*
X5334000Y4013927D02*
Y4377340D01*
X5283200Y4013927D02*
Y4377340D01*
X4978400Y4013927D02*
Y4377340D01*
X4927600Y4013927D02*
Y4377340D01*
X5080000Y4013927D02*
Y4377340D01*
X5029200Y4013927D02*
Y4377340D01*
X5537200Y4013927D02*
Y4377340D01*
X5588000Y4013927D02*
Y4377340D01*
X5486400Y4013927D02*
Y4377340D01*
X11684000Y4013927D02*
Y4134282D01*
X11633200Y4013927D02*
Y4134282D01*
X4267200Y4013927D02*
Y4134282D01*
X4216400Y4013927D02*
Y4134282D01*
X5435600Y4013927D02*
Y4377340D01*
X5384800Y4013927D02*
Y4377340D01*
X4064000Y4013927D02*
Y4135476D01*
X3860800Y4013927D02*
Y4108705D01*
X3835320Y4064680D02*
Y4104384D01*
X4165600Y4013927D02*
Y4134282D01*
X4114800Y4013927D02*
Y4134282D01*
X3764680Y4064680D02*
Y4104384D01*
X3664680Y4064680D02*
Y4104384D01*
X3759200Y4013927D02*
Y4110822D01*
X3657600Y4013927D02*
Y4113200D01*
X3864680Y4064680D02*
X3935320D01*
X3864680D02*
Y4104384D01*
X3935320Y4064680D02*
Y4104384D01*
X3911600Y4013927D02*
Y4064680D01*
X3764680D02*
X3835320D01*
X3664680D02*
X3735320D01*
X3810000Y4013927D02*
Y4064680D01*
X3708400Y4013927D02*
Y4064680D01*
X3443370Y4114800D02*
X3456630D01*
X3543370D02*
X3556630D01*
X3343370D02*
X3356630D01*
X3243370D02*
X3256630D01*
X2665607D02*
X3156630D01*
X3050718Y4216400D02*
X3149840D01*
X3050718Y4165600D02*
X3149840D01*
X3050718Y4267200D02*
X3149840D01*
Y4140000D02*
Y4300000D01*
X3050718Y4155000D02*
Y4350000D01*
X2564007Y4216400D02*
X2799282D01*
X2513207Y4267200D02*
X2799282D01*
Y4155000D02*
Y4315000D01*
X2614807Y4165600D02*
X2799282D01*
X3049141Y4147072D02*
X3050718Y4155000D01*
X3044650Y4140350D02*
X3049141Y4147072D01*
X3037928Y4135859D02*
X3044650Y4140350D01*
X3030000Y4134282D02*
X3037928Y4135859D01*
X2820000Y4134282D02*
X3030000D01*
X2800859Y4147072D02*
X2805350Y4140350D01*
X2799282Y4155000D02*
X2800859Y4147072D01*
X2812072Y4135859D02*
X2820000Y4134282D01*
X2805350Y4140350D02*
X2812072Y4135859D01*
X3464680Y4064680D02*
Y4104384D01*
X3556000Y4013927D02*
Y4115916D01*
X3454400Y4013927D02*
Y4119104D01*
X3435320Y4064680D02*
Y4104384D01*
X3364680Y4064680D02*
Y4104384D01*
X3564680Y4064680D02*
Y4104384D01*
Y4064680D02*
X3635320D01*
X3535320D02*
Y4104384D01*
X3635320Y4064680D02*
Y4104384D01*
X3606800Y4013927D02*
Y4064680D01*
X3464680D02*
X3535320D01*
X3364680D02*
X3435320D01*
X3505200Y4013927D02*
Y4064680D01*
X3403600Y4013927D02*
Y4064680D01*
X3048000Y4013927D02*
Y4145364D01*
X3352800Y4013927D02*
Y4123025D01*
X3251200Y4013927D02*
Y4128399D01*
X2895600Y4013927D02*
Y4134282D01*
X2844800Y4013927D02*
Y4134282D01*
X2997200Y4013927D02*
Y4134282D01*
X2946400Y4013927D02*
Y4134282D01*
X3264680Y4064680D02*
X3335320D01*
X3264680D02*
Y4104384D01*
X3335320Y4064680D02*
Y4104384D01*
X3302000Y4013927D02*
Y4064680D01*
X3164680D02*
X3235320D01*
X3164680D02*
Y4104384D01*
X3235320Y4064680D02*
Y4104384D01*
X3200400Y4013927D02*
Y4064680D01*
D11*
X35904999Y4450000D02*
D03*
Y4550000D02*
D03*
Y4650000D02*
D03*
Y4750000D02*
D03*
Y4850000D02*
D03*
Y4950000D02*
D03*
Y5050000D02*
D03*
Y5150000D02*
D03*
Y5250000D02*
D03*
Y5350000D02*
D03*
Y5450000D02*
D03*
Y5550000D02*
D03*
Y5650000D02*
D03*
Y5750000D02*
D03*
Y5850000D02*
D03*
Y5950000D02*
D03*
D12*
X36000000Y4175000D02*
D03*
Y6225000D02*
D03*
D13*
X12000000Y4140000D02*
D03*
X12100000D02*
D03*
X12200000D02*
D03*
X12300000D02*
D03*
X12400000D02*
D03*
X12500000D02*
D03*
X12600000D02*
D03*
X12700000D02*
D03*
X3200000D02*
D03*
X3300000D02*
D03*
X3400000D02*
D03*
X3500000D02*
D03*
X3600000D02*
D03*
X3700000D02*
D03*
X3800000D02*
D03*
X3900000D02*
D03*
X32600000D02*
D03*
X32700000D02*
D03*
X32800000D02*
D03*
X32900000D02*
D03*
X33000000D02*
D03*
X33100000D02*
D03*
X33200000D02*
D03*
X33300000D02*
D03*
X23800000D02*
D03*
X23900000D02*
D03*
X24000000D02*
D03*
X24100000D02*
D03*
X24200000D02*
D03*
X24300000D02*
D03*
X24400000D02*
D03*
X24500000D02*
D03*
D14*
X11725000Y4235000D02*
D03*
X12975000D02*
D03*
X2925000D02*
D03*
X4175000D02*
D03*
X32325000D02*
D03*
X33575000D02*
D03*
X23525000D02*
D03*
X24775000D02*
D03*
D15*
X400000Y5950000D02*
D03*
Y5850000D02*
D03*
Y5750000D02*
D03*
Y5650000D02*
D03*
Y5550000D02*
D03*
Y5350000D02*
D03*
Y5450000D02*
D03*
Y5250000D02*
D03*
Y5150000D02*
D03*
Y5050000D02*
D03*
Y4950000D02*
D03*
Y4850000D02*
D03*
Y4750000D02*
D03*
Y4650000D02*
D03*
Y4550000D02*
D03*
Y4450000D02*
D03*
D16*
X33300000Y5650000D02*
X35750000D01*
X24500000D02*
X33300000D01*
X12700000D02*
X24500000D01*
X3900000D02*
X12700000D01*
X400000D02*
X3900000D01*
X192899D02*
X400000D01*
Y4550000D02*
X23800000D01*
X400000Y4450000D02*
X12000000D01*
X400000Y5050000D02*
X35750000D01*
X400000Y4850000D02*
X35600000D01*
X400000Y5350000D02*
X35750000D01*
X400000Y5550000D02*
X35750000D01*
X400000Y4750000D02*
X35750000D01*
X400000Y4950000D02*
X35500000D01*
X400000Y5250000D02*
X35750000D01*
X400000Y4650000D02*
X32600000D01*
X400000Y5150000D02*
X35750000D01*
X400000Y5450000D02*
X35750000D01*
X35600000Y4450000D02*
X35750000D01*
X35500000Y4550000D02*
X35750000D01*
D17*
X32600000Y4300000D02*
Y4650000D01*
X23800000Y4550000D02*
X23800000Y4550000D01*
Y4300000D02*
Y4550000D01*
X12000000Y4300000D02*
X12000000Y4300000D01*
X12000000Y4300000D02*
Y4450000D01*
X3200000Y4300000D02*
X3200000Y4300000D01*
X3200000Y4140000D02*
Y4300000D01*
X3300000Y4140000D02*
Y4300000D01*
X3400000Y4140000D02*
Y4300000D01*
X3500000Y4140000D02*
Y4300000D01*
X3600000Y4300000D02*
X3600000Y4300000D01*
X3600000Y4140000D02*
Y4300000D01*
X3700000D02*
X3700000Y4300000D01*
X3700000Y4140000D02*
Y4300000D01*
X3800000Y4140000D02*
Y4300000D01*
X3900000Y4140000D02*
Y4300000D01*
X12000000Y4300000D02*
X12000000Y4300000D01*
X12000000Y4140000D02*
Y4300000D01*
X12100000Y4140000D02*
Y4300000D01*
X12200000Y4140000D02*
Y4300000D01*
X12300000Y4140000D02*
Y4300000D01*
X12400000Y4300000D02*
X12400000Y4300000D01*
X12400000Y4140000D02*
Y4300000D01*
X12500000D02*
X12500000Y4300000D01*
X12500000Y4140000D02*
Y4300000D01*
X12600000Y4140000D02*
Y4300000D01*
X12700000Y4140000D02*
Y4300000D01*
X23800000Y4300000D02*
X23800000Y4300000D01*
X23800000Y4140000D02*
Y4300000D01*
X23900000Y4140000D02*
Y4300000D01*
X24000000Y4140000D02*
Y4300000D01*
X24100000Y4140000D02*
Y4300000D01*
X24200000Y4300000D02*
X24200000Y4300000D01*
X24200000Y4140000D02*
Y4300000D01*
X24300000D02*
X24300000Y4300000D01*
X24300000Y4140000D02*
Y4300000D01*
X24400000Y4140000D02*
Y4300000D01*
X24500000Y4140000D02*
Y4300000D01*
X33300000Y4140000D02*
Y4300000D01*
X33200000Y4140000D02*
Y4300000D01*
X33100000Y4140000D02*
Y4300000D01*
X33100000Y4300000D01*
X33000000Y4140000D02*
Y4300000D01*
X33000000Y4300000D01*
X32900000Y4140000D02*
Y4300000D01*
X32800000Y4140000D02*
Y4300000D01*
X32700000Y4140000D02*
Y4300000D01*
X32600000Y4140000D02*
Y4300000D01*
X32600000Y4300000D01*
X35750000Y5650000D02*
X35750000Y5650000D01*
X35904999D01*
X35750000Y5550000D02*
X35904999D01*
X35750000Y5450000D02*
X35904999D01*
X35750000Y5350000D02*
X35904999D01*
X35750000Y5250000D02*
X35904999D01*
X35750000Y5150000D02*
X35750000Y5150000D01*
X35904999D01*
X35750000Y5050000D02*
X35904999D01*
X35750000Y4450000D02*
X35904999D01*
X35750000Y4550000D02*
X35904999D01*
X35750000Y4750000D02*
X35904999D01*
D18*
X36200021Y6200003D02*
D03*
X36300021Y6000003D02*
D03*
X36200021Y5800003D02*
D03*
X36300021Y5600003D02*
D03*
X36200021Y5400003D02*
D03*
X36300021Y5200003D02*
D03*
X36200021Y5000003D02*
D03*
X36300021Y4800003D02*
D03*
X36200021Y4600002D02*
D03*
X36300021Y4400002D02*
D03*
X36200021Y4200002D02*
D03*
X36100018Y6000003D02*
D03*
X36000018Y5800003D02*
D03*
X36100018Y5600003D02*
D03*
X36000018Y5400003D02*
D03*
X36100018Y5200003D02*
D03*
X36000018Y5000003D02*
D03*
X36100018Y4800003D02*
D03*
X36000018Y4600002D02*
D03*
X36100018Y4400002D02*
D03*
X35800018Y6200003D02*
D03*
Y5800003D02*
D03*
Y4200002D02*
D03*
X35700018Y6000003D02*
D03*
X35600018Y5800003D02*
D03*
Y4200002D02*
D03*
X35500018Y6000003D02*
D03*
X35400018Y5800003D02*
D03*
Y4600002D02*
D03*
X35500018Y4400002D02*
D03*
X35400018Y4200002D02*
D03*
X35200018Y5800003D02*
D03*
Y4600002D02*
D03*
X35300018Y4400002D02*
D03*
X35200018Y4200002D02*
D03*
X35000018Y5800003D02*
D03*
Y4600002D02*
D03*
X35100018Y4400002D02*
D03*
X35000018Y4200002D02*
D03*
X34800018Y5800003D02*
D03*
Y4600002D02*
D03*
X34900018Y4400002D02*
D03*
X34800018Y4200002D02*
D03*
X34600018Y5800003D02*
D03*
Y4600002D02*
D03*
X34700018Y4400002D02*
D03*
X34600018Y4200002D02*
D03*
X34400018Y5800003D02*
D03*
Y4600002D02*
D03*
X34500018Y4400002D02*
D03*
X34400018Y4200002D02*
D03*
X34200018Y5800003D02*
D03*
Y4600002D02*
D03*
X34300018Y4400002D02*
D03*
X34200018Y4200002D02*
D03*
X34000018Y5800003D02*
D03*
Y4600002D02*
D03*
X34100018Y4400002D02*
D03*
X34000018Y4200002D02*
D03*
X33800018Y5800003D02*
D03*
Y4600002D02*
D03*
X33900018Y4400002D02*
D03*
X33800018Y4200002D02*
D03*
X33600018Y5800003D02*
D03*
Y4600002D02*
D03*
X33700018Y4400002D02*
D03*
X33400018Y5800003D02*
D03*
Y4600002D02*
D03*
X33500018Y4400002D02*
D03*
X33400018Y4200002D02*
D03*
X33200018Y5800003D02*
D03*
X33000018D02*
D03*
X32800018D02*
D03*
X32600018D02*
D03*
X32400018D02*
D03*
X32500018Y4400002D02*
D03*
X32200018Y5800003D02*
D03*
X32300018Y4400002D02*
D03*
X32000018Y5800003D02*
D03*
X32100018Y4400002D02*
D03*
X32000018Y4200002D02*
D03*
X31800018Y5800003D02*
D03*
X31900018Y4400002D02*
D03*
X31800018Y4200002D02*
D03*
X31600018Y5800003D02*
D03*
X31700018Y4400002D02*
D03*
X31600018Y4200002D02*
D03*
X31400018Y5800003D02*
D03*
X31500018Y4400002D02*
D03*
X31400018Y4200002D02*
D03*
X31200018Y5800003D02*
D03*
X31300018Y4400002D02*
D03*
X31200018Y4200002D02*
D03*
X31000018Y5800003D02*
D03*
X31100018Y4400002D02*
D03*
X31000018Y4200002D02*
D03*
X30800018Y5800003D02*
D03*
X30900018Y4400002D02*
D03*
X30800018Y4200002D02*
D03*
X30600018Y5800003D02*
D03*
X30700018Y4400002D02*
D03*
X30600018Y4200002D02*
D03*
X30400015Y5800003D02*
D03*
X30500015Y4400002D02*
D03*
X30400015Y4200002D02*
D03*
X30200015Y5800003D02*
D03*
X30300015Y4400002D02*
D03*
X30200015Y4200002D02*
D03*
X30000015Y5800003D02*
D03*
X30100015Y4400002D02*
D03*
X30000015Y4200002D02*
D03*
X29800015Y5800003D02*
D03*
X29900015Y4400002D02*
D03*
X29800015Y4200002D02*
D03*
X29600015Y5800003D02*
D03*
X29700015Y4400002D02*
D03*
X29600015Y4200002D02*
D03*
X29400015Y5800003D02*
D03*
X29500015Y4400002D02*
D03*
X29400015Y4200002D02*
D03*
X29200015Y5800003D02*
D03*
X29300015Y4400002D02*
D03*
X29200015Y4200002D02*
D03*
X29000015Y5800003D02*
D03*
X29100015Y4400002D02*
D03*
X29000015Y4200002D02*
D03*
X28800015Y5800003D02*
D03*
X28900015Y4400002D02*
D03*
X28800015Y4200002D02*
D03*
X28600015Y5800003D02*
D03*
X28700015Y4400002D02*
D03*
X28600015Y4200002D02*
D03*
X28400015Y5800003D02*
D03*
X28500015Y4400002D02*
D03*
X28400015Y4200002D02*
D03*
X28200015Y5800003D02*
D03*
X28300015Y4400002D02*
D03*
X28200015Y4200002D02*
D03*
X28000015Y5800003D02*
D03*
X28100015Y4400002D02*
D03*
X28000015Y4200002D02*
D03*
X27800015Y5800003D02*
D03*
X27900015Y4400002D02*
D03*
X27800015Y4200002D02*
D03*
X27600015Y5800003D02*
D03*
X27700015Y4400002D02*
D03*
X27600015Y4200002D02*
D03*
X27400015Y5800003D02*
D03*
X27500015Y4400002D02*
D03*
X27400015Y4200002D02*
D03*
X27200015Y5800003D02*
D03*
X27300015Y4400002D02*
D03*
X27200015Y4200002D02*
D03*
X27000015Y5800003D02*
D03*
X27100015Y4400002D02*
D03*
X27000015Y4200002D02*
D03*
X26800015Y5800003D02*
D03*
X26900015Y4400002D02*
D03*
X26800015Y4200002D02*
D03*
X26600015Y5800003D02*
D03*
X26700015Y4400002D02*
D03*
X26600015Y4200002D02*
D03*
X26400015Y5800003D02*
D03*
X26500015Y4400002D02*
D03*
X26400015Y4200002D02*
D03*
X26200015Y5800003D02*
D03*
X26300015Y4400002D02*
D03*
X26200015Y4200002D02*
D03*
X26000015Y5800003D02*
D03*
X26100015Y4400002D02*
D03*
X26000015Y4200002D02*
D03*
X25800015Y5800003D02*
D03*
X25900015Y4400002D02*
D03*
X25800015Y4200002D02*
D03*
X25600015Y5800003D02*
D03*
X25700015Y4400002D02*
D03*
X25600015Y4200002D02*
D03*
X25400014Y5800003D02*
D03*
X25500014Y4400002D02*
D03*
X25400014Y4200002D02*
D03*
X25200014Y5800003D02*
D03*
X25300014Y4400002D02*
D03*
X25200014Y4200002D02*
D03*
X25000014Y5800003D02*
D03*
X25100014Y4400002D02*
D03*
X25000014Y4200002D02*
D03*
X24800014Y5800003D02*
D03*
X24900014Y4400002D02*
D03*
X24600014Y5800003D02*
D03*
X24700014Y4400002D02*
D03*
X24600014Y4200002D02*
D03*
X24400014Y5800003D02*
D03*
X24200014D02*
D03*
X24000014D02*
D03*
X23800014D02*
D03*
X23600014D02*
D03*
X23700014Y4400002D02*
D03*
X23400014Y5800003D02*
D03*
X23500014Y4400002D02*
D03*
X23200014Y5800003D02*
D03*
X23300014Y4400002D02*
D03*
X23200014Y4200002D02*
D03*
X23000012Y5800003D02*
D03*
X23100012Y4400002D02*
D03*
X23000012Y4200002D02*
D03*
X22800012Y5800003D02*
D03*
X22900012Y4400002D02*
D03*
X22800012Y4200002D02*
D03*
X22600012Y5800003D02*
D03*
X22700012Y4400002D02*
D03*
X22600012Y4200002D02*
D03*
X22400012Y5800003D02*
D03*
X22500012Y4400002D02*
D03*
X22400012Y4200002D02*
D03*
X22200012Y5800003D02*
D03*
X22300012Y4400002D02*
D03*
X22200012Y4200002D02*
D03*
X22000012Y5800003D02*
D03*
X22100012Y4400002D02*
D03*
X22000012Y4200002D02*
D03*
X21800012Y5800003D02*
D03*
X21900012Y4400002D02*
D03*
X21800012Y4200002D02*
D03*
X21600012Y5800003D02*
D03*
X21700012Y4400002D02*
D03*
X21600012Y4200002D02*
D03*
X21400012Y5800003D02*
D03*
X21500012Y4400002D02*
D03*
X21400012Y4200002D02*
D03*
X21200011Y5800003D02*
D03*
X21300012Y4400002D02*
D03*
X21200011Y4200002D02*
D03*
X21000011Y5800003D02*
D03*
X21100011Y4400002D02*
D03*
X21000011Y4200002D02*
D03*
X20800011Y5800003D02*
D03*
X20900011Y4400002D02*
D03*
X20800011Y4200002D02*
D03*
X20600011Y5800003D02*
D03*
X20700011Y4400002D02*
D03*
X20600011Y4200002D02*
D03*
X20400011Y5800003D02*
D03*
X20500011Y4400002D02*
D03*
X20400011Y4200002D02*
D03*
X20200011Y5800003D02*
D03*
X20300011Y4400002D02*
D03*
X20200011Y4200002D02*
D03*
X20000011Y5800003D02*
D03*
X20100011Y4400002D02*
D03*
X20000011Y4200002D02*
D03*
X19800011Y5800003D02*
D03*
X19900011Y4400002D02*
D03*
X19800011Y4200002D02*
D03*
X19600011Y5800003D02*
D03*
X19700011Y4400002D02*
D03*
X19600011Y4200002D02*
D03*
X19400011Y5800003D02*
D03*
X19500011Y4400002D02*
D03*
X19400011Y4200002D02*
D03*
X19200011Y5800003D02*
D03*
X19300011Y4400002D02*
D03*
X19200011Y4200002D02*
D03*
X19000011Y5800003D02*
D03*
X19100011Y4400002D02*
D03*
X19000011Y4200002D02*
D03*
X18800011Y5800003D02*
D03*
X18900011Y4400002D02*
D03*
X18800011Y4200002D02*
D03*
X18600011Y5800003D02*
D03*
X18700011Y4400002D02*
D03*
X18600011Y4200002D02*
D03*
X18400011Y5800003D02*
D03*
X18500011Y4400002D02*
D03*
X18400011Y4200002D02*
D03*
X18200011Y5800003D02*
D03*
X18300011Y4400002D02*
D03*
X18200011Y4200002D02*
D03*
X18000011Y5800003D02*
D03*
X18100011Y4400002D02*
D03*
X18000011Y4200002D02*
D03*
X17800011Y5800003D02*
D03*
X17900011Y4400002D02*
D03*
X17800011Y4200002D02*
D03*
X17600011Y5800003D02*
D03*
X17700011Y4400002D02*
D03*
X17600011Y4200002D02*
D03*
X17400009Y5800003D02*
D03*
X17500009Y4400002D02*
D03*
X17400009Y4200002D02*
D03*
X17200009Y5800003D02*
D03*
X17300009Y4400002D02*
D03*
X17200009Y4200002D02*
D03*
X17000009Y5800003D02*
D03*
X17100009Y4400002D02*
D03*
X17000009Y4200002D02*
D03*
X16800009Y5800003D02*
D03*
X16900009Y4400002D02*
D03*
X16800009Y4200002D02*
D03*
X16600009Y5800003D02*
D03*
X16700009Y4400002D02*
D03*
X16600009Y4200002D02*
D03*
X16400009Y5800003D02*
D03*
X16500009Y4400002D02*
D03*
X16400009Y4200002D02*
D03*
X16200009Y5800003D02*
D03*
X16300009Y4400002D02*
D03*
X16200009Y4200002D02*
D03*
X16000009Y5800003D02*
D03*
X16100009Y4400002D02*
D03*
X16000009Y4200002D02*
D03*
X15800009Y5800003D02*
D03*
X15900009Y4400002D02*
D03*
X15800009Y4200002D02*
D03*
X15600008Y5800003D02*
D03*
X15700008Y4400002D02*
D03*
X15600008Y4200002D02*
D03*
X15400008Y5800003D02*
D03*
X15500008Y4400002D02*
D03*
X15400008Y4200002D02*
D03*
X15200008Y5800003D02*
D03*
X15300008Y4400002D02*
D03*
X15200008Y4200002D02*
D03*
X15000008Y5800003D02*
D03*
X15100008Y4400002D02*
D03*
X15000008Y4200002D02*
D03*
X14800008Y5800003D02*
D03*
X14900008Y4400002D02*
D03*
X14800008Y4200002D02*
D03*
X14600008Y5800003D02*
D03*
X14700008Y4400002D02*
D03*
X14600008Y4200002D02*
D03*
X14400008Y5800003D02*
D03*
X14500008Y4400002D02*
D03*
X14400008Y4200002D02*
D03*
X14200008Y5800003D02*
D03*
X14300008Y4400002D02*
D03*
X14200008Y4200002D02*
D03*
X14000008Y5800003D02*
D03*
X14100008Y4400002D02*
D03*
X14000008Y4200002D02*
D03*
X13800008Y5800003D02*
D03*
X13900008Y4400002D02*
D03*
X13800008Y4200002D02*
D03*
X13600008Y5800003D02*
D03*
X13700008Y4400002D02*
D03*
X13600008Y4200002D02*
D03*
X13400008Y5800003D02*
D03*
X13500008Y4400002D02*
D03*
X13400008Y4200002D02*
D03*
X13200008Y5800003D02*
D03*
X13300008Y4400002D02*
D03*
X13200008Y4200002D02*
D03*
X13000008Y5800003D02*
D03*
X13100008Y4400002D02*
D03*
X12800008Y5800003D02*
D03*
X12900008Y4400002D02*
D03*
X12800008Y4200002D02*
D03*
X12600007Y5800003D02*
D03*
X12400007D02*
D03*
X12200007D02*
D03*
X12000006D02*
D03*
X11800006D02*
D03*
X11600006D02*
D03*
X11400006D02*
D03*
Y4200002D02*
D03*
X11200006Y5800003D02*
D03*
Y4200002D02*
D03*
X11000006Y5800003D02*
D03*
Y4200002D02*
D03*
X10800006Y5800003D02*
D03*
Y4200002D02*
D03*
X10600006Y5800003D02*
D03*
Y4200002D02*
D03*
X10400006Y5800003D02*
D03*
Y4200002D02*
D03*
X10200006Y5800003D02*
D03*
Y4200002D02*
D03*
X10000005Y5800003D02*
D03*
Y4200002D02*
D03*
X9800005Y5800003D02*
D03*
Y4200002D02*
D03*
X9600005Y5800003D02*
D03*
Y4200002D02*
D03*
X9400005Y5800003D02*
D03*
Y4200002D02*
D03*
X9200005Y5800003D02*
D03*
Y4200002D02*
D03*
X9000005Y5800003D02*
D03*
Y4200002D02*
D03*
X8800005Y5800003D02*
D03*
Y4200002D02*
D03*
X8600005Y5800003D02*
D03*
Y4200002D02*
D03*
X8400005Y5800003D02*
D03*
Y4200002D02*
D03*
X8200004Y5800003D02*
D03*
Y4200002D02*
D03*
X8000004Y5800003D02*
D03*
Y4200002D02*
D03*
X7800004Y5800003D02*
D03*
Y4200002D02*
D03*
X7600004Y5800003D02*
D03*
Y4200002D02*
D03*
X7400004Y5800003D02*
D03*
Y4200002D02*
D03*
X7200004Y5800003D02*
D03*
Y4200002D02*
D03*
X7000004Y5800003D02*
D03*
Y4200002D02*
D03*
X6800004Y5800003D02*
D03*
Y4200002D02*
D03*
X6600004Y5800003D02*
D03*
Y4200002D02*
D03*
X6400003Y5800003D02*
D03*
Y4200002D02*
D03*
X6200003Y5800003D02*
D03*
Y4200002D02*
D03*
X6000003Y5800003D02*
D03*
Y4200002D02*
D03*
X5800003Y5800003D02*
D03*
Y4200002D02*
D03*
X5600003Y5800003D02*
D03*
Y4200002D02*
D03*
X5400003Y5800003D02*
D03*
Y4200002D02*
D03*
X5200003Y5800003D02*
D03*
Y4200002D02*
D03*
X5000003Y5800003D02*
D03*
Y4200002D02*
D03*
X4800003Y5800003D02*
D03*
Y4200002D02*
D03*
X4600002Y5800003D02*
D03*
Y4200002D02*
D03*
X4400002Y5800003D02*
D03*
Y4200002D02*
D03*
X4200002Y5800003D02*
D03*
X4000002D02*
D03*
Y4200002D02*
D03*
X3800002Y5800003D02*
D03*
X3600002D02*
D03*
X3400002D02*
D03*
X3200002D02*
D03*
X3000002D02*
D03*
X2800002D02*
D03*
X2600001D02*
D03*
Y4200002D02*
D03*
X2400001Y5800003D02*
D03*
X2200001D02*
D03*
X2000001D02*
D03*
X1800001D02*
D03*
X1600001D02*
D03*
X1400001D02*
D03*
X3200000Y4750000D02*
D03*
Y4300000D02*
D03*
X3300000D02*
D03*
X3400000D02*
D03*
X3500000D02*
D03*
X3600000D02*
D03*
X3700000D02*
D03*
X3800000D02*
D03*
X3900000D02*
D03*
X3300000Y5050000D02*
D03*
X3400000Y5150000D02*
D03*
X3500000Y5250000D02*
D03*
X3600000Y5350000D02*
D03*
X3700000Y5450000D02*
D03*
X3800000Y5550000D02*
D03*
X3900000Y5650000D02*
D03*
X12100000Y4300000D02*
D03*
X12200000D02*
D03*
X12300000D02*
D03*
X12400000D02*
D03*
X12500000D02*
D03*
X12600000D02*
D03*
X12700000D02*
D03*
X12100000Y5050000D02*
D03*
X12200000Y5150000D02*
D03*
X12300000Y5250000D02*
D03*
X12400000Y5350000D02*
D03*
X12500000Y5450000D02*
D03*
X12600000Y5550000D02*
D03*
X12700000Y5650000D02*
D03*
X23800000Y4300000D02*
D03*
X23900000D02*
D03*
X24000000D02*
D03*
X24100000D02*
D03*
X24200000D02*
D03*
X24300000D02*
D03*
X24400000D02*
D03*
X24500000D02*
D03*
X23900000Y5050000D02*
D03*
X24000000Y5150000D02*
D03*
X24100000Y5250000D02*
D03*
X24200000Y5350000D02*
D03*
X24300000Y5450000D02*
D03*
X24400000Y5550000D02*
D03*
X24500000Y5650000D02*
D03*
X33300000D02*
D03*
X33200000Y5550000D02*
D03*
X33100000Y5450000D02*
D03*
X33000000Y5350000D02*
D03*
X32900000Y5250000D02*
D03*
X32800000Y5150000D02*
D03*
X32700000Y5050000D02*
D03*
X33300000Y4300000D02*
D03*
X33200000D02*
D03*
X33100000D02*
D03*
X33000000D02*
D03*
X32900000D02*
D03*
X32800000D02*
D03*
X32700000D02*
D03*
X35500000Y4950000D02*
D03*
Y4550000D02*
D03*
X35600000Y4850000D02*
D03*
Y4450000D02*
D03*
%TF.MD5,48a4f5098349f02e818659b52bdd9c83*%
M02*
