%TF.GenerationSoftware,Altium Limited,Altium Designer,24.3.1 (35)*%
G04 Layer_Color=0*
%FSLAX45Y45*%
%MOMM*%
%TF.SameCoordinates,F890BB90-1D0F-4F84-9AE3-556F965AF49A*%
%TF.FilePolarity,Positive*%
%TF.FileFunction,Plated,1,4,PTH,Drill*%
%TF.Part,Single*%
G01*
G75*
%TA.AperFunction,ComponentDrill*%
%ADD104O,0.60000X1.70000*%
%ADD105O,0.60000X1.40000*%
%TA.AperFunction,ViaDrill,NotFilled*%
%ADD106C,0.40000*%
D104*
X7574000Y6600000D02*
D03*
X6710000D02*
D03*
D105*
X7574000Y6182000D02*
D03*
X6710000D02*
D03*
D106*
X7916092Y9450240D02*
D03*
X8549997Y14399995D02*
D03*
X8399997Y14099995D02*
D03*
X8549997Y13799995D02*
D03*
X8399997Y13499995D02*
D03*
X8549997Y13199995D02*
D03*
X8399997Y12899995D02*
D03*
X8549997Y12599996D02*
D03*
X8399997Y12299996D02*
D03*
X8549997Y11999996D02*
D03*
X8399997Y11699996D02*
D03*
X8549997Y11399997D02*
D03*
Y7799998D02*
D03*
X8399997Y7499998D02*
D03*
X8549997Y7199998D02*
D03*
X8399997Y6899998D02*
D03*
X8549997Y6599998D02*
D03*
X8099998Y14099995D02*
D03*
X8249997Y13799995D02*
D03*
X8099998Y13499995D02*
D03*
X8249997Y13199995D02*
D03*
X8099998Y12899995D02*
D03*
X8249997Y12599996D02*
D03*
X8099998Y12299996D02*
D03*
X8249997Y11999996D02*
D03*
X8099998Y11699996D02*
D03*
X8249997Y7199998D02*
D03*
X7799998Y14699995D02*
D03*
X7949998Y14399995D02*
D03*
Y13799995D02*
D03*
X7799998Y13499995D02*
D03*
X7949998Y13199995D02*
D03*
X7799998Y12899995D02*
D03*
X7949998Y12599996D02*
D03*
X7799998Y12299996D02*
D03*
X7949998Y11999996D02*
D03*
X7799998Y11699996D02*
D03*
Y6899998D02*
D03*
X7949998Y6599998D02*
D03*
X7799998Y6299998D02*
D03*
X7649998Y14399995D02*
D03*
X7499998Y14099995D02*
D03*
X7649998Y13799995D02*
D03*
X7499998Y13499995D02*
D03*
X7649998Y13199995D02*
D03*
X7499998Y12899995D02*
D03*
X7649998Y12599996D02*
D03*
X7499998Y12299996D02*
D03*
X7649998Y11999996D02*
D03*
X7499998Y11099997D02*
D03*
X7349998Y13799995D02*
D03*
X7199998Y13499995D02*
D03*
X7349998Y13199995D02*
D03*
X7199998Y12899995D02*
D03*
X7349998Y12599996D02*
D03*
X7199998Y12299996D02*
D03*
X7349998Y11999996D02*
D03*
X7199998Y11699996D02*
D03*
Y6299998D02*
D03*
X7049998Y13799995D02*
D03*
X6899998Y13499995D02*
D03*
X7049998Y13199995D02*
D03*
X6899998Y12899995D02*
D03*
X7049998Y12599996D02*
D03*
X6899998Y12299996D02*
D03*
Y11699996D02*
D03*
X7049998Y9599997D02*
D03*
X6899998Y8699997D02*
D03*
X6599998Y14699995D02*
D03*
X6749998Y13799995D02*
D03*
Y13199995D02*
D03*
Y12599996D02*
D03*
Y11999996D02*
D03*
X6299998Y14699995D02*
D03*
X6449998Y14399995D02*
D03*
X6299998Y14099995D02*
D03*
Y13499995D02*
D03*
Y12899995D02*
D03*
X6449998Y12599996D02*
D03*
X6299998Y12299996D02*
D03*
X6449998Y11999996D02*
D03*
X6299998Y11099997D02*
D03*
X6449998Y8999997D02*
D03*
X6299998Y7499998D02*
D03*
Y6299998D02*
D03*
X6149998Y14399995D02*
D03*
Y13799995D02*
D03*
Y13199995D02*
D03*
Y12599996D02*
D03*
Y11999996D02*
D03*
Y11399997D02*
D03*
Y6599998D02*
D03*
X7790000Y9190000D02*
D03*
X6851767Y10358234D02*
D03*
X6760000Y10460000D02*
D03*
X6738755Y10651245D02*
D03*
X6670000Y9750000D02*
D03*
X6250000Y9800000D02*
D03*
X6960000Y8210000D02*
D03*
X6894600Y10843155D02*
D03*
Y10932100D02*
D03*
X7570000Y9800000D02*
D03*
X7274488Y9799487D02*
D03*
X8079173Y9660000D02*
D03*
X7710000Y8960000D02*
D03*
X8079173Y9760000D02*
D03*
X7921245Y9358755D02*
D03*
X7740000Y9530000D02*
D03*
X7480000Y9290000D02*
D03*
X7670000Y9480000D02*
D03*
X7020000Y9250000D02*
D03*
X6690000Y9180000D02*
D03*
Y9290000D02*
D03*
X6780000Y8750000D02*
D03*
X6990000Y9050000D02*
D03*
X7160000D02*
D03*
X7290000D02*
D03*
Y9140000D02*
D03*
X6700000Y7920000D02*
D03*
X6531244Y8068755D02*
D03*
X7453755Y9116245D02*
D03*
X7096988Y8343013D02*
D03*
X6750000Y7820000D02*
D03*
X6820000Y7720000D02*
D03*
X6800000Y7620000D02*
D03*
X6330000Y7032100D02*
D03*
X5740000Y10290000D02*
D03*
X5820000Y8130000D02*
D03*
Y8660000D02*
D03*
X6020000Y9970000D02*
D03*
X7560000Y9480000D02*
D03*
X7390000Y9570000D02*
D03*
X8010000Y9830000D02*
D03*
X8091562Y10204462D02*
D03*
X6850000Y10100000D02*
D03*
X7020000Y10510000D02*
D03*
X6850000Y10230000D02*
D03*
X6750000Y11000000D02*
D03*
X8060000Y8190000D02*
D03*
X7431245Y10981244D02*
D03*
X7110000Y10650000D02*
D03*
X5930000Y11070000D02*
D03*
X7550000Y10080000D02*
D03*
Y10420000D02*
D03*
X7720000Y10080000D02*
D03*
X7720000Y10250000D02*
D03*
Y10420000D02*
D03*
X7550000Y10250000D02*
D03*
X7380000D02*
D03*
Y10080000D02*
D03*
Y10420000D02*
D03*
X6600000Y7760000D02*
D03*
X6470000Y11140000D02*
D03*
X6910000Y6310000D02*
D03*
X8200000Y8000000D02*
D03*
Y8200000D02*
D03*
X6460000Y9900000D02*
D03*
X7680000Y8200000D02*
D03*
X8060000Y8000000D02*
D03*
X7145000Y7655000D02*
D03*
X7131375Y7801000D02*
D03*
X6580000Y10400000D02*
D03*
X6230000Y10430000D02*
D03*
X6360000Y10160000D02*
D03*
X6600000Y9800000D02*
D03*
X6490000Y9760000D02*
D03*
Y9490000D02*
D03*
X6700000Y8020000D02*
D03*
X6500000Y7910000D02*
D03*
X7720000Y11240000D02*
D03*
X7970000Y11210000D02*
D03*
X8220000Y11230000D02*
D03*
X8350000Y9780000D02*
D03*
X6640000Y8750000D02*
D03*
X6610000Y7570000D02*
D03*
X6518755Y7568755D02*
D03*
X6400000Y7910000D02*
D03*
X6160000Y8500000D02*
D03*
X6250000Y9420000D02*
D03*
X8081562Y10301562D02*
D03*
X8410000Y10230000D02*
D03*
X6800000Y7444462D02*
D03*
X7550000Y11820000D02*
D03*
X7160000Y9570000D02*
D03*
X7170000Y9800000D02*
D03*
X6730000Y11240000D02*
D03*
X6780000Y12690000D02*
D03*
X8130000Y8710000D02*
D03*
X6350000Y8830000D02*
D03*
X5950000Y9710000D02*
D03*
X6800000Y7154462D02*
D03*
X7520000Y6830000D02*
D03*
X7210000Y11210000D02*
D03*
X7460000Y11650000D02*
D03*
X6910000Y11330000D02*
D03*
X6410000D02*
D03*
X5930000Y10820000D02*
D03*
X6650000Y12230000D02*
D03*
X6110000D02*
D03*
X6080000Y12780000D02*
D03*
X6140000Y12930000D02*
D03*
X6840000Y13000000D02*
D03*
X6630000Y13489999D02*
D03*
X8140000Y10750000D02*
D03*
X8150000Y10570000D02*
D03*
X7100000Y9900000D02*
D03*
X6350000Y9400000D02*
D03*
X6290000Y7610000D02*
D03*
X6450000Y8470000D02*
D03*
X7660000Y6990000D02*
D03*
X7620000Y8020000D02*
D03*
X7140000Y7950000D02*
D03*
X6970000Y7070000D02*
D03*
X6750000Y7530000D02*
D03*
Y7240000D02*
D03*
X6800000Y7320000D02*
D03*
X7145000Y7365000D02*
D03*
X7415000D02*
D03*
X7415000Y7655000D02*
D03*
X6430000Y7570000D02*
D03*
X7420000Y7800000D02*
D03*
X7130000Y7220000D02*
D03*
X7420000Y7510000D02*
D03*
X7131375Y7511000D02*
D03*
X7420000Y7220000D02*
D03*
X6050000Y6950000D02*
D03*
X6900000Y6780000D02*
D03*
X6470000Y6680000D02*
D03*
X6560000Y7030000D02*
D03*
X7270000Y6520000D02*
D03*
X7120000D02*
D03*
%TF.MD5,3ad2e56558a064a184d859369d3e3398*%
M02*
