%TF.GenerationSoftware,Altium Limited,Altium Designer,24.3.1 (35)*%
G04 Layer_Color=65535*
%FSLAX45Y45*%
%MOMM*%
%TF.SameCoordinates,F890BB90-1D0F-4F84-9AE3-556F965AF49A*%
%TF.FilePolarity,Positive*%
%TF.FileFunction,Legend,Top*%
%TF.Part,Single*%
G01*
G75*
%TA.AperFunction,NonConductor*%
%ADD61C,0.25000*%
%ADD62C,0.10000*%
%ADD63C,0.20000*%
%ADD64C,0.25400*%
%ADD65C,0.12700*%
G36*
X7390000Y14460001D02*
X6650000D01*
X6750000Y14739999D01*
X7490000D01*
X7390000Y14460001D01*
D02*
G37*
%LPC*%
G36*
X7235863Y14640033D02*
D01*
Y14573648D01*
X7218563D01*
Y14640033D01*
X7235863D01*
X7181145D01*
D01*
X7206191D01*
X7181145Y14626855D01*
D01*
X7185973Y14614786D01*
X7203475Y14624442D01*
Y14573648D01*
X7183358D01*
Y14560571D01*
X7235863D01*
Y14640033D01*
D02*
G37*
G36*
X7371853D02*
X7317135D01*
X7342180D01*
X7317135Y14626855D01*
D01*
X7321963Y14614786D01*
X7339465Y14624442D01*
Y14573648D01*
X7319348D01*
Y14560571D01*
X7371853D01*
Y14640033D01*
D02*
G37*
G36*
X7174105Y14639529D02*
Y14560571D01*
X7149864D01*
X7174105Y14639529D01*
X7106210D01*
X7130250Y14560571D01*
X7174105D01*
Y14639529D01*
D02*
G37*
G36*
X7035097D02*
X6975451D01*
Y14560571D01*
X6995467D01*
X6999290Y14560672D01*
X7002709Y14560974D01*
X7004218Y14561276D01*
X7005727Y14561478D01*
X7007135Y14561678D01*
X7008342Y14561980D01*
X7009449Y14562282D01*
X7010454Y14562483D01*
X7011360Y14562784D01*
X7012064Y14562987D01*
X7012667Y14563086D01*
X7013070Y14563287D01*
X7013271Y14563388D01*
X7013371D01*
X7016087Y14564595D01*
X7018501Y14565903D01*
X7020613Y14567210D01*
X7022323Y14568518D01*
X7023731Y14569725D01*
X7024838Y14570630D01*
X7025140Y14571033D01*
X7025441Y14571333D01*
X7025542Y14571436D01*
X7025643Y14571535D01*
X7027352Y14573648D01*
X7028761Y14575760D01*
X7030068Y14577972D01*
X7031074Y14579884D01*
X7031778Y14581694D01*
X7032080Y14582397D01*
X7032382Y14583102D01*
X7032583Y14583604D01*
X7032683Y14584007D01*
X7032784Y14584209D01*
Y14584309D01*
X7033589Y14587225D01*
X7034092Y14590143D01*
X7034494Y14592960D01*
X7034796Y14595474D01*
X7034896Y14596681D01*
X7034997Y14597687D01*
Y14598692D01*
X7035097Y14599498D01*
Y14560571D01*
D01*
Y14601006D01*
X7034997Y14604626D01*
X7034695Y14607947D01*
X7034595Y14609454D01*
X7034393Y14610864D01*
X7034192Y14612273D01*
X7033991Y14613480D01*
X7033689Y14614485D01*
X7033488Y14615491D01*
X7033287Y14616295D01*
X7033186Y14616998D01*
X7032985Y14617603D01*
X7032885Y14618005D01*
X7032784Y14618205D01*
Y14618307D01*
X7031879Y14620921D01*
X7030772Y14623235D01*
X7029565Y14625247D01*
X7028459Y14626958D01*
X7027453Y14628365D01*
X7026648Y14629372D01*
X7026347Y14629672D01*
X7026145Y14629974D01*
X7026045Y14630075D01*
X7025944Y14630176D01*
X7024134Y14631886D01*
X7022223Y14633295D01*
X7020412Y14634502D01*
X7018602Y14635507D01*
X7016992Y14636211D01*
X7016288Y14636513D01*
X7015685Y14636813D01*
X7015282Y14637015D01*
X7014880Y14637115D01*
X7014679Y14637218D01*
X7014578D01*
X7011963Y14638020D01*
X7009247Y14638524D01*
X7006632Y14638927D01*
X7004118Y14639227D01*
X7003011Y14639330D01*
X7002005Y14639429D01*
X7001100D01*
X7000295Y14639529D01*
X7035097D01*
D01*
D02*
G37*
G36*
X6965493D02*
X6909971D01*
Y14560571D01*
X6934011D01*
X6936827Y14560672D01*
X6939442Y14560873D01*
X6941856Y14561176D01*
X6944069Y14561478D01*
X6946181Y14561980D01*
X6948092Y14562483D01*
X6949903Y14562987D01*
X6951412Y14563589D01*
X6952820Y14564194D01*
X6954027Y14564696D01*
X6955033Y14565198D01*
X6955837Y14565701D01*
X6956541Y14566003D01*
X6956944Y14566306D01*
X6957245Y14566505D01*
X6957346Y14566608D01*
X6958754Y14567815D01*
X6960062Y14569121D01*
X6961168Y14570529D01*
X6962073Y14571938D01*
X6962878Y14573447D01*
X6963482Y14574956D01*
X6964085Y14576463D01*
X6964487Y14577972D01*
X6964789Y14579280D01*
X6965091Y14580588D01*
X6965292Y14581694D01*
X6965393Y14582700D01*
Y14583604D01*
X6965493Y14584209D01*
Y14560571D01*
D01*
Y14586121D01*
X6965292Y14587428D01*
X6965091Y14588535D01*
X6964890Y14589540D01*
X6964689Y14590445D01*
X6964487Y14591049D01*
X6964387Y14591451D01*
X6964286Y14591551D01*
X6963783Y14592657D01*
X6963280Y14593665D01*
X6962778Y14594569D01*
X6962275Y14595374D01*
X6961772Y14595976D01*
X6961369Y14596480D01*
X6961168Y14596782D01*
X6961068Y14596883D01*
X6959458Y14598492D01*
X6958654Y14599095D01*
X6957950Y14599599D01*
X6957346Y14600002D01*
X6956843Y14600302D01*
X6956441Y14600504D01*
X6956340Y14600604D01*
X6955334Y14601106D01*
X6954328Y14601509D01*
X6953423Y14601912D01*
X6952518Y14602113D01*
X6951814Y14602315D01*
X6951210Y14602415D01*
X6950808Y14602515D01*
X6950707D01*
X6951814Y14602917D01*
X6952820Y14603419D01*
X6953624Y14603923D01*
X6954429Y14604427D01*
X6955033Y14604829D01*
X6955435Y14605130D01*
X6955737Y14605331D01*
X6955837Y14605432D01*
X6957346Y14606841D01*
X6957950Y14607544D01*
X6958452Y14608148D01*
X6958855Y14608751D01*
X6959257Y14609154D01*
X6959358Y14609454D01*
X6959458Y14609557D01*
X6960464Y14611366D01*
X6960866Y14612273D01*
X6961168Y14613075D01*
X6961369Y14613680D01*
X6961571Y14614183D01*
X6961671Y14614584D01*
Y14614687D01*
X6962073Y14616798D01*
X6962174Y14617804D01*
X6962275Y14618709D01*
X6962375Y14619414D01*
Y14620016D01*
Y14620419D01*
Y14620520D01*
X6962275Y14622231D01*
X6962073Y14623839D01*
X6961772Y14625348D01*
X6961369Y14626756D01*
X6960766Y14628062D01*
X6960263Y14629269D01*
X6959659Y14630276D01*
X6959056Y14631282D01*
X6958352Y14632088D01*
X6957748Y14632791D01*
X6957245Y14633394D01*
X6956743Y14633897D01*
X6956240Y14634300D01*
X6955938Y14634601D01*
X6955737Y14634702D01*
X6955636Y14634802D01*
X6954328Y14635606D01*
X6952820Y14636412D01*
X6949601Y14637518D01*
X6946282Y14638425D01*
X6942962Y14638927D01*
X6941454Y14639128D01*
X6940046Y14639330D01*
X6938738Y14639429D01*
X6937632D01*
X6936726Y14639529D01*
X6965493D01*
D01*
D02*
G37*
G36*
X6832320D02*
X6768148D01*
X6772573Y14560571D01*
X6789270D01*
X6797015Y14584712D01*
X6799731Y14594872D01*
X6802547Y14584914D01*
X6810393Y14560571D01*
X6827894D01*
X6832320Y14639529D01*
Y14560571D01*
D01*
Y14639529D01*
D02*
G37*
G36*
X7287764Y14582800D02*
X7264228D01*
D01*
X7275795D01*
X7274085Y14582599D01*
X7273280Y14582500D01*
X7272677Y14582298D01*
X7272073Y14582097D01*
X7271671Y14581996D01*
X7271369Y14581795D01*
X7271269D01*
X7269760Y14580991D01*
X7268653Y14580185D01*
X7268151Y14579884D01*
X7267849Y14579582D01*
X7267648Y14579381D01*
X7267547Y14579280D01*
X7266541Y14577972D01*
X7265737Y14576765D01*
X7265535Y14576263D01*
X7265334Y14575861D01*
X7265133Y14575558D01*
Y14575458D01*
X7264630Y14573849D01*
X7264328Y14572340D01*
Y14571736D01*
X7264228Y14571233D01*
Y14570831D01*
X7264328Y14569121D01*
X7264530Y14568317D01*
X7264731Y14567712D01*
X7264831Y14567110D01*
X7265032Y14566707D01*
X7265133Y14566405D01*
Y14566306D01*
X7265938Y14564796D01*
X7266642Y14563690D01*
X7267044Y14563187D01*
X7267346Y14562885D01*
X7267446Y14562685D01*
X7267547Y14562582D01*
X7268855Y14561478D01*
X7270062Y14560773D01*
X7270565Y14560471D01*
X7270967Y14560271D01*
X7271168Y14560069D01*
X7271269D01*
X7272878Y14559566D01*
X7274286Y14559264D01*
X7274890D01*
X7275393Y14559163D01*
X7275795D01*
X7277605Y14559264D01*
X7278410Y14559465D01*
X7279114Y14559666D01*
X7279718Y14559767D01*
X7280120Y14559969D01*
X7280422Y14560069D01*
X7280522D01*
X7282031Y14560873D01*
X7282635Y14561276D01*
X7283238Y14561678D01*
X7283640Y14561980D01*
X7283942Y14562282D01*
X7284143Y14562483D01*
X7284244Y14562582D01*
X7285350Y14563892D01*
X7286155Y14565099D01*
X7286356Y14565601D01*
X7286557Y14566003D01*
X7286759Y14566203D01*
Y14566306D01*
X7287362Y14567914D01*
X7287664Y14569322D01*
X7287764Y14569926D01*
Y14559163D01*
D01*
Y14570831D01*
X7287563Y14572643D01*
X7287463Y14573447D01*
X7287262Y14574049D01*
X7287060Y14574654D01*
X7286960Y14575056D01*
X7286759Y14575357D01*
Y14575458D01*
X7285954Y14576967D01*
X7285552Y14577670D01*
X7285149Y14578174D01*
X7284848Y14578677D01*
X7284546Y14578978D01*
X7284345Y14579179D01*
X7284244Y14579280D01*
X7283037Y14580386D01*
X7281830Y14581190D01*
X7281327Y14581392D01*
X7280925Y14581593D01*
X7280623Y14581795D01*
X7280522D01*
X7278812Y14582397D01*
X7278008Y14582599D01*
X7277304Y14582700D01*
X7276700Y14582800D01*
X7287764D01*
D01*
D02*
G37*
G36*
X6895889Y14640839D02*
X6840166D01*
X6870944D01*
X6868027Y14640736D01*
X6865412Y14640536D01*
X6863099Y14640234D01*
X6861087Y14639932D01*
X6860182Y14639731D01*
X6859377Y14639529D01*
X6858774Y14639330D01*
X6858170Y14639227D01*
X6857768Y14639128D01*
X6857466Y14639027D01*
X6857265Y14638927D01*
X6857164D01*
X6855153Y14638222D01*
X6853342Y14637418D01*
X6851733Y14636613D01*
X6850425Y14635808D01*
X6849319Y14635104D01*
X6848615Y14634502D01*
X6848112Y14634097D01*
X6847911Y14633998D01*
X6846603Y14632791D01*
X6845597Y14631584D01*
X6844591Y14630276D01*
X6843887Y14629170D01*
X6843284Y14628165D01*
X6842881Y14627359D01*
X6842680Y14626855D01*
X6842580Y14626656D01*
X6842077Y14625146D01*
X6841674Y14623537D01*
X6841373Y14622028D01*
X6841171Y14620721D01*
X6841071Y14619614D01*
X6840970Y14618709D01*
Y14618106D01*
Y14618005D01*
Y14617905D01*
X6841071Y14616093D01*
X6841272Y14614384D01*
X6841473Y14612875D01*
X6841775Y14611568D01*
X6842077Y14610562D01*
X6842378Y14609756D01*
X6842479Y14609355D01*
X6842580Y14609154D01*
X6843284Y14607846D01*
X6843988Y14606740D01*
X6844692Y14605634D01*
X6845396Y14604729D01*
X6846100Y14604024D01*
X6846603Y14603522D01*
X6846905Y14603119D01*
X6847005Y14603018D01*
X6849118Y14601208D01*
X6850123Y14600504D01*
X6851129Y14599799D01*
X6851934Y14599297D01*
X6852537Y14598894D01*
X6853040Y14598692D01*
X6853141Y14598592D01*
X6855756Y14597385D01*
X6856963Y14596883D01*
X6857969Y14596379D01*
X6858874Y14595976D01*
X6859578Y14595676D01*
X6859981Y14595575D01*
X6860182Y14595474D01*
X6862797Y14594569D01*
X6864004Y14594066D01*
X6865110Y14593764D01*
X6865915Y14593463D01*
X6866619Y14593161D01*
X6867122Y14593060D01*
X6867223Y14592960D01*
X6868530Y14592458D01*
X6869637Y14592055D01*
X6870743Y14591551D01*
X6871648Y14591148D01*
X6872453Y14590747D01*
X6872956Y14590546D01*
X6873358Y14590344D01*
X6873459Y14590244D01*
X6874465Y14589639D01*
X6875269Y14589037D01*
X6876074Y14588432D01*
X6876678Y14587930D01*
X6877181Y14587428D01*
X6877583Y14587025D01*
X6877784Y14586824D01*
X6877885Y14586723D01*
X6878488Y14586018D01*
X6878890Y14585216D01*
X6879192Y14584309D01*
X6879393Y14583604D01*
X6879494Y14582901D01*
X6879595Y14582397D01*
Y14581996D01*
Y14581895D01*
X6879494Y14580386D01*
X6879192Y14579179D01*
X6878991Y14578677D01*
X6878790Y14578275D01*
X6878689Y14578073D01*
Y14577972D01*
X6878388Y14577370D01*
X6877885Y14576765D01*
X6877080Y14575861D01*
X6876577Y14575458D01*
X6876275Y14575156D01*
X6876074Y14575056D01*
X6875974Y14574956D01*
X6875169Y14574553D01*
X6874364Y14574150D01*
X6872755Y14573547D01*
X6872151Y14573346D01*
X6871548Y14573145D01*
X6871146Y14573044D01*
X6871045D01*
X6869939Y14572842D01*
X6868731Y14572643D01*
X6867524Y14572540D01*
X6866418Y14572441D01*
X6865412Y14572340D01*
X6863903D01*
X6861791Y14572441D01*
X6860785D01*
X6859981Y14572540D01*
X6859176D01*
X6858573Y14572643D01*
X6858070D01*
X6855857Y14572943D01*
X6854851Y14573145D01*
X6853845Y14573346D01*
X6853040Y14573447D01*
X6852437Y14573547D01*
X6852035Y14573648D01*
X6851934D01*
X6849721Y14574150D01*
X6848715Y14574352D01*
X6847810Y14574553D01*
X6847005Y14574754D01*
X6846402Y14574956D01*
X6846000Y14575056D01*
X6845899D01*
X6843686Y14575760D01*
X6842781Y14576062D01*
X6841876Y14576363D01*
X6841171Y14576564D01*
X6840669Y14576765D01*
X6840266Y14576967D01*
X6840166D01*
Y14562282D01*
X6842278Y14561678D01*
X6844290Y14561176D01*
X6846201Y14560773D01*
X6848011Y14560471D01*
X6849419Y14560168D01*
X6850526Y14559969D01*
X6850928D01*
X6851230Y14559868D01*
X6851532D01*
X6853744Y14559666D01*
X6855857Y14559465D01*
X6857868Y14559364D01*
X6859780Y14559264D01*
X6861288Y14559163D01*
X6863602D01*
X6866217Y14559264D01*
X6868631Y14559364D01*
X6870844Y14559666D01*
X6872755Y14559969D01*
X6874364Y14560168D01*
X6874968Y14560370D01*
X6875571Y14560471D01*
X6875974Y14560571D01*
X6876275D01*
X6876476Y14560672D01*
X6876577D01*
X6878689Y14561276D01*
X6880701Y14561980D01*
X6882411Y14562784D01*
X6883920Y14563489D01*
X6885127Y14564194D01*
X6886032Y14564696D01*
X6886535Y14565099D01*
X6886736Y14565198D01*
X6888245Y14566405D01*
X6889653Y14567712D01*
X6890759Y14569022D01*
X6891765Y14570328D01*
X6892469Y14571436D01*
X6893073Y14572240D01*
X6893375Y14572842D01*
X6893475Y14572943D01*
Y14573044D01*
X6894280Y14574956D01*
X6894883Y14576866D01*
X6895286Y14578777D01*
X6895587Y14580588D01*
X6895789Y14582097D01*
Y14582700D01*
X6895889Y14583304D01*
Y14559163D01*
D01*
Y14640839D01*
D02*
G37*
G36*
X6760000Y14730000D02*
X6760000D01*
Y14470000D01*
X7380000D01*
Y14470001D01*
X6760000D01*
Y14730000D01*
D02*
G37*
%LPD*%
G36*
X7371853Y14573648D02*
X7354552D01*
Y14640033D01*
X7371853D01*
Y14573648D01*
D02*
G37*
G36*
X7145036Y14592859D02*
X7140610Y14576363D01*
X7136285Y14591954D01*
X7123008Y14639529D01*
X7158313D01*
X7145036Y14592859D01*
D02*
G37*
G36*
X6999994Y14626958D02*
X7002005Y14626756D01*
X7003715Y14626454D01*
X7005224Y14626152D01*
X7006431Y14625851D01*
X7007336Y14625549D01*
X7007839Y14625348D01*
X7008040Y14625247D01*
X7009549Y14624544D01*
X7010756Y14623637D01*
X7011963Y14622733D01*
X7012868Y14621928D01*
X7013572Y14621123D01*
X7014176Y14620520D01*
X7014478Y14620117D01*
X7014578Y14619916D01*
X7015383Y14618610D01*
X7016087Y14617200D01*
X7016691Y14615791D01*
X7017193Y14614384D01*
X7017596Y14613278D01*
X7017797Y14612273D01*
X7017998Y14611668D01*
Y14611568D01*
Y14611467D01*
X7018400Y14609557D01*
X7018602Y14607544D01*
X7018803Y14605634D01*
X7019004Y14603822D01*
Y14602315D01*
X7019105Y14601610D01*
Y14601106D01*
Y14600604D01*
Y14600302D01*
Y14600101D01*
Y14600002D01*
X7019004Y14597485D01*
X7018903Y14595071D01*
X7018602Y14592960D01*
X7018199Y14590948D01*
X7017797Y14589037D01*
X7017294Y14587328D01*
X7016791Y14585818D01*
X7016288Y14584511D01*
X7015685Y14583304D01*
X7015182Y14582298D01*
X7014679Y14581392D01*
X7014277Y14580688D01*
X7013874Y14580185D01*
X7013572Y14579784D01*
X7013472Y14579582D01*
X7013371Y14579482D01*
X7012265Y14578375D01*
X7011058Y14577370D01*
X7009750Y14576463D01*
X7008443Y14575760D01*
X7007034Y14575156D01*
X7005626Y14574654D01*
X7003011Y14573849D01*
X7001704Y14573547D01*
X7000497Y14573346D01*
X6999491Y14573245D01*
X6998585Y14573145D01*
X6997781Y14573044D01*
X6990338D01*
Y14627058D01*
X6997781D01*
X6999994Y14626958D01*
D02*
G37*
G36*
X6936123Y14627661D02*
X6937129Y14627560D01*
X6938034Y14627460D01*
X6938738Y14627258D01*
X6939241Y14627158D01*
X6939543Y14627058D01*
X6939643D01*
X6940548Y14626756D01*
X6941353Y14626454D01*
X6942057Y14626152D01*
X6942661Y14625751D01*
X6943164Y14625549D01*
X6943465Y14625247D01*
X6943667Y14625146D01*
X6943767Y14625046D01*
X6944773Y14624040D01*
X6945578Y14623035D01*
X6945779Y14622531D01*
X6945980Y14622231D01*
X6946081Y14622028D01*
Y14621928D01*
X6946584Y14620520D01*
X6946785Y14619212D01*
X6946885Y14618709D01*
Y14618307D01*
Y14618005D01*
Y14617905D01*
X6946785Y14616295D01*
X6946684Y14615491D01*
X6946584Y14614886D01*
X6946382Y14614384D01*
X6946282Y14613982D01*
X6946181Y14613680D01*
Y14613579D01*
X6945477Y14612273D01*
X6944773Y14611066D01*
X6944371Y14610661D01*
X6944169Y14610361D01*
X6943968Y14610159D01*
X6943868Y14610059D01*
X6942560Y14609053D01*
X6941253Y14608247D01*
X6940649Y14608047D01*
X6940146Y14607846D01*
X6939844Y14607645D01*
X6939744D01*
X6937732Y14607143D01*
X6936726Y14607040D01*
X6935821Y14606941D01*
X6934916Y14606841D01*
X6924757D01*
Y14627762D01*
X6935016D01*
X6936123Y14627661D01*
D02*
G37*
G36*
X6936626Y14595374D02*
X6939040Y14595071D01*
X6941051Y14594569D01*
X6942661Y14594066D01*
X6943968Y14593463D01*
X6944874Y14593060D01*
X6945377Y14592657D01*
X6945578Y14592557D01*
X6946885Y14591350D01*
X6947891Y14590044D01*
X6948595Y14588734D01*
X6948998Y14587428D01*
X6949299Y14586320D01*
X6949400Y14585315D01*
X6949500Y14584712D01*
Y14584612D01*
Y14584511D01*
X6949299Y14582700D01*
X6949199Y14581895D01*
X6948998Y14581190D01*
X6948796Y14580588D01*
X6948696Y14580185D01*
X6948495Y14579884D01*
Y14579784D01*
X6947690Y14578275D01*
X6946785Y14577168D01*
X6946382Y14576665D01*
X6946081Y14576363D01*
X6945879Y14576163D01*
X6945779Y14576062D01*
X6944270Y14574956D01*
X6942862Y14574251D01*
X6942258Y14573949D01*
X6941755Y14573747D01*
X6941353Y14573547D01*
X6941253D01*
X6939140Y14573044D01*
X6938134Y14572943D01*
X6937129Y14572842D01*
X6936324Y14572742D01*
X6924757D01*
Y14595474D01*
X6933910D01*
X6936626Y14595374D01*
D02*
G37*
G36*
X6817735Y14587428D02*
X6817434Y14575156D01*
X6814517Y14585617D01*
X6805263Y14615491D01*
X6795909D01*
X6787158Y14587328D01*
X6783537Y14575056D01*
X6783135Y14588837D01*
X6781223Y14639529D01*
X6819647D01*
X6817735Y14587428D01*
D02*
G37*
G36*
X6895889Y14584410D02*
X6895789Y14586121D01*
X6895587Y14587729D01*
X6895386Y14589137D01*
X6895085Y14590445D01*
X6894682Y14591350D01*
X6894481Y14592155D01*
X6894280Y14592557D01*
X6894179Y14592758D01*
X6893475Y14594066D01*
X6892771Y14595172D01*
X6892067Y14596278D01*
X6891363Y14597185D01*
X6890659Y14597888D01*
X6890256Y14598392D01*
X6889854Y14598795D01*
X6889754Y14598894D01*
X6887641Y14600705D01*
X6886635Y14601408D01*
X6885630Y14602113D01*
X6884825Y14602615D01*
X6884121Y14603018D01*
X6883719Y14603220D01*
X6883517Y14603320D01*
X6881003Y14604626D01*
X6879796Y14605130D01*
X6878689Y14605634D01*
X6877784Y14606036D01*
X6876979Y14606337D01*
X6876577Y14606438D01*
X6876376Y14606538D01*
X6873761Y14607544D01*
X6872554Y14607947D01*
X6871447Y14608350D01*
X6870542Y14608652D01*
X6869838Y14608952D01*
X6869436Y14609053D01*
X6869234Y14609154D01*
X6868027Y14609657D01*
X6866820Y14610059D01*
X6865815Y14610562D01*
X6864909Y14610963D01*
X6864105Y14611266D01*
X6863602Y14611568D01*
X6863199Y14611668D01*
X6863099Y14611769D01*
X6862093Y14612372D01*
X6861288Y14612875D01*
X6860484Y14613480D01*
X6859880Y14613982D01*
X6859377Y14614384D01*
X6858975Y14614687D01*
X6858774Y14614886D01*
X6858673Y14614989D01*
X6858170Y14615692D01*
X6857768Y14616396D01*
X6857466Y14617200D01*
X6857265Y14617804D01*
X6857164Y14618407D01*
X6857064Y14618910D01*
Y14619212D01*
Y14619313D01*
X6857164Y14620721D01*
X6857466Y14621828D01*
X6857567Y14622231D01*
X6857667Y14622531D01*
X6857768Y14622733D01*
Y14622833D01*
X6858472Y14624040D01*
X6859377Y14624844D01*
X6859981Y14625449D01*
X6860182Y14625648D01*
X6860282D01*
X6861791Y14626353D01*
X6863199Y14626958D01*
X6863903Y14627158D01*
X6864406Y14627258D01*
X6864708Y14627359D01*
X6864809D01*
X6865915Y14627560D01*
X6867022Y14627762D01*
X6868128Y14627863D01*
X6869134Y14627963D01*
X6870039Y14628062D01*
X6873157D01*
X6873861Y14627963D01*
X6874565D01*
X6875169Y14627863D01*
X6875672D01*
X6875974Y14627762D01*
X6876074D01*
X6877885Y14627560D01*
X6878790Y14627460D01*
X6879494Y14627359D01*
X6880097Y14627258D01*
X6880600Y14627158D01*
X6880902Y14627058D01*
X6881003D01*
X6882813Y14626756D01*
X6883618Y14626555D01*
X6884322Y14626454D01*
X6884926Y14626253D01*
X6885328Y14626152D01*
X6885630Y14626051D01*
X6885730D01*
X6887340Y14625549D01*
X6888144Y14625348D01*
X6888748Y14625146D01*
X6889251Y14625046D01*
X6889754Y14624844D01*
X6889955Y14624744D01*
X6890055D01*
Y14638322D01*
X6888547Y14638625D01*
X6887138Y14638927D01*
X6886535Y14639027D01*
X6886133Y14639128D01*
X6885831Y14639227D01*
X6885730D01*
X6884020Y14639529D01*
X6883216Y14639731D01*
X6882411Y14639832D01*
X6881807Y14639932D01*
X6881304D01*
X6881003Y14640033D01*
X6880902D01*
X6879092Y14640234D01*
X6878186Y14640335D01*
X6877382Y14640434D01*
X6876778D01*
X6876175Y14640536D01*
X6875772D01*
X6873962Y14640736D01*
X6873157D01*
X6872453Y14640839D01*
X6895889D01*
Y14584410D01*
D02*
G37*
D61*
X6832500Y7901000D02*
G03*
X6832500Y7901000I-12500J0D01*
G01*
Y7321000D02*
G03*
X6832500Y7321000I-12500J0D01*
G01*
X6365000Y9470000D02*
G03*
X6365000Y9470000I-12500J0D01*
G01*
X6140000Y10110000D02*
G03*
X6140000Y10110000I-12500J0D01*
G01*
X7410000Y7055000D02*
G03*
X7410000Y7055000I-12500J0D01*
G01*
X6365000Y10235000D02*
G03*
X6365000Y10235000I-12500J0D01*
G01*
X6712500Y7457500D02*
G03*
X6712500Y7457500I-12500J0D01*
G01*
X6828000Y6770000D02*
G03*
X6828000Y6770000I-12500J0D01*
G01*
X7370000Y8245000D02*
G03*
X7370000Y8245000I-12500J0D01*
G01*
X6520000Y13145000D02*
G03*
X6520000Y13145000I-12500J0D01*
G01*
X6040000D02*
G03*
X6040000Y13145000I-12500J0D01*
G01*
X7207500Y9815000D02*
G03*
X7207500Y9815000I-12500J0D01*
G01*
X6832500Y7611000D02*
G03*
X6832500Y7611000I-12500J0D01*
G01*
D62*
X6122500Y7997500D02*
G03*
X6122500Y7997500I-5000J0D01*
G01*
X6455000Y9240000D02*
G03*
X6455000Y9240000I-5000J0D01*
G01*
X6840000Y8325000D02*
Y8390000D01*
Y8325000D02*
X7440000D01*
Y8390000D01*
X6840000Y8610000D02*
Y8675000D01*
X7440000D01*
Y8610000D02*
Y8675000D01*
X6475000Y12270000D02*
X6540000D01*
X6475000Y11670000D02*
Y12270000D01*
Y11670000D02*
X6540000D01*
X6760000Y12270000D02*
X6825000D01*
Y11670000D02*
Y12270000D01*
X6760000Y11670000D02*
X6825000D01*
X6220000D02*
X6285000D01*
Y12270000D01*
X6220000D02*
X6285000D01*
X5935000Y11670000D02*
X6000000D01*
X5935000D02*
Y12270000D01*
X6000000D01*
D63*
X7536400Y8373000D02*
G03*
X7556400Y8373000I10000J0D01*
G01*
D02*
G03*
X7536400Y8373000I-10000J0D01*
G01*
X7735000Y7195000D02*
G03*
X7735000Y7195000I-10000J0D01*
G01*
X6523000Y11573600D02*
G03*
X6523000Y11553600I0J-10000D01*
G01*
D02*
G03*
X6523000Y11573600I0J10000D01*
G01*
X6237000Y12366400D02*
G03*
X6237000Y12386400I0J10000D01*
G01*
D02*
G03*
X6237000Y12366400I0J-10000D01*
G01*
X6892500Y7411000D02*
X6915000D01*
X6892500Y7661000D02*
X6915000D01*
X7025000Y7411000D02*
X7047500D01*
X7025000Y7661000D02*
X7047500D01*
X6892500Y7701000D02*
X6915000D01*
X6892500Y7951000D02*
X6915000D01*
X7025000Y7701000D02*
X7047500D01*
X7025000Y7951000D02*
X7047500D01*
X6892500Y7121000D02*
X6915000D01*
X6892500Y7371000D02*
X6915000D01*
X7025000Y7121000D02*
X7047500D01*
X7025000Y7371000D02*
X7047500D01*
X6117500Y8037500D02*
X6125000D01*
X6455000D02*
X6462500D01*
X6117500Y8382500D02*
X6125000D01*
X6455000D02*
X6462500D01*
X6117500Y8037500D02*
Y8108000D01*
Y8312000D02*
Y8382500D01*
X6462500Y8037500D02*
Y8108000D01*
Y8312000D02*
Y8382500D01*
X6210000Y9500000D02*
Y9720000D01*
X6270000Y9500000D02*
Y9720000D01*
X6210000D02*
X6270000D01*
X6210000Y9500000D02*
X6270000D01*
X6270000Y9860000D02*
Y10080000D01*
X6210000Y9860000D02*
Y10080000D01*
Y9860000D02*
X6270000D01*
X6210000Y10080000D02*
X6270000D01*
X7477500Y7020000D02*
X7577500D01*
Y6975000D02*
Y7020000D01*
X7477500Y6800000D02*
X7577500D01*
Y6845000D01*
X6172500Y10270000D02*
X6272500D01*
X6172500D02*
Y10315000D01*
Y10490000D02*
X6272500D01*
X6172500Y10445000D02*
Y10490000D01*
X6675000Y7270000D02*
Y7370000D01*
X6365000Y7270000D02*
Y7370000D01*
X6675000D01*
X6365000Y7270000D02*
X6675000D01*
X6550000Y6365000D02*
Y6435000D01*
X6390000Y6365000D02*
Y6435000D01*
X7051100Y8011900D02*
Y8088100D01*
X6655500Y6309500D02*
Y6457500D01*
X7628500Y6309500D02*
Y6457500D01*
X6651900Y8988900D02*
X6728100D01*
X7551900D02*
X7628100D01*
X6951900D02*
X7028100D01*
X7437500Y8210000D02*
X7537500D01*
Y8165000D02*
Y8210000D01*
X7437500Y7990000D02*
X7537500D01*
Y8035000D01*
X7251900Y8988900D02*
X7328100D01*
X6587500Y13110001D02*
X6687500D01*
Y13064999D02*
Y13110001D01*
X6587500Y12889999D02*
X6687500D01*
Y12935001D01*
X6107500Y13110001D02*
X6207500D01*
Y13064999D02*
Y13110001D01*
X6107500Y12889999D02*
X6207500D01*
Y12935001D01*
X6410000Y8870000D02*
Y9270000D01*
X6360000Y8870000D02*
X6410000D01*
X6360000Y9270000D02*
X6410000D01*
X5890000Y8870000D02*
Y9270000D01*
X5940000D01*
X5890000Y8870000D02*
X5940000D01*
X7180000Y9880000D02*
X7222500D01*
X7180000D02*
Y9922500D01*
Y10577500D02*
Y10620000D01*
X7222500D01*
X7877500D02*
X7920000D01*
Y10577500D02*
Y10620000D01*
X7877500Y9880000D02*
X7920000D01*
Y9922500D01*
X8297000Y14189999D02*
X8422000D01*
X7006000Y14014999D02*
Y14189999D01*
X7131000D01*
X8422000Y11350000D02*
Y11525000D01*
X8347000Y11350000D02*
X8422000D01*
X7006000D02*
Y11525000D01*
Y11350000D02*
X7081000D01*
X8422000Y14014999D02*
Y14189999D01*
D64*
X7207000Y11250000D02*
G03*
X7207000Y11250000I-1000J0D01*
G01*
D65*
X6230000Y13314999D02*
X6530000D01*
X5955000Y13589999D02*
Y13889999D01*
X6230000Y14164999D02*
X6530000D01*
X6805000Y13589999D02*
Y13889999D01*
X7890000Y9135000D02*
X8360000D01*
Y6755000D02*
Y9135000D01*
X7890000Y6755000D02*
X8360000D01*
X7890000Y9107000D02*
Y9135000D01*
Y6755000D02*
Y6783000D01*
%TF.MD5,438434f221495c1170b6a220fbc1d9fd*%
M02*
