%TF.GenerationSoftware,Altium Limited,Altium Designer,24.3.1 (35)*%
G04 Layer_Physical_Order=2*
G04 Layer_Color=32768*
%FSLAX45Y45*%
%MOMM*%
%TF.SameCoordinates,F890BB90-1D0F-4F84-9AE3-556F965AF49A*%
%TF.FilePolarity,Negative*%
%TF.FileFunction,Copper,L2,Inr,Plane*%
%TF.Part,Single*%
G01*
G75*
%TA.AperFunction,NonConductor*%
%ADD54C,1.01600*%
%TA.AperFunction,WasherPad*%
%ADD55C,4.30000*%
%TA.AperFunction,ComponentPad*%
%ADD56C,1.65000*%
%ADD57O,1.60000X2.70000*%
%ADD58O,1.60000X2.40000*%
%ADD59C,2.00000*%
%TA.AperFunction,ViaPad*%
%ADD60C,1.40000*%
D54*
X8240000Y6000000D02*
G03*
X8640000Y6400000I0J400000D01*
G01*
Y14600000D02*
G03*
X8240000Y15000000I-400000J0D01*
G01*
X5640000Y6400000D02*
G03*
X6040000Y6000000I400000J0D01*
G01*
X6039999Y15000000D02*
G03*
X5639999Y14600000I0J-400000D01*
G01*
X6040000Y6000000D02*
X8240000D01*
X8640000Y6400000D02*
Y14600000D01*
X6039999Y15000000D02*
X8240000D01*
X5639999Y14600000D02*
X5640000Y6400000D01*
D55*
X6039999Y14600000D02*
D03*
X8240000D02*
D03*
X6040000Y6400000D02*
D03*
X8240000D02*
D03*
D56*
X7431000Y6550000D02*
D03*
X6853000D02*
D03*
D57*
X7574000Y6600000D02*
D03*
X6710000D02*
D03*
D58*
X7574000Y6182000D02*
D03*
X6710000D02*
D03*
D59*
X6008500Y10692000D02*
D03*
X6211500D02*
D03*
X6110000Y11200000D02*
D03*
D60*
X7916092Y9450240D02*
D03*
X6851767Y10358234D02*
D03*
X6894600Y10843155D02*
D03*
Y10932100D02*
D03*
X7570000Y9800000D02*
D03*
X7274488Y9799487D02*
D03*
X8079173Y9660000D02*
D03*
Y9760000D02*
D03*
X7921245Y9358755D02*
D03*
X7670000Y9480000D02*
D03*
X6690000Y9180000D02*
D03*
Y9290000D02*
D03*
X7160000Y9050000D02*
D03*
X7290000Y9140000D02*
D03*
X6531244Y8068755D02*
D03*
X7453755Y9116245D02*
D03*
X7096988Y8343013D02*
D03*
X6750000Y7820000D02*
D03*
X6820000Y7720000D02*
D03*
X5740000Y10290000D02*
D03*
X5820000Y8130000D02*
D03*
X7390000Y9570000D02*
D03*
X8010000Y9830000D02*
D03*
X8091562Y10204462D02*
D03*
X6850000Y10100000D02*
D03*
X7020000Y10510000D02*
D03*
X6850000Y10230000D02*
D03*
X6750000Y11000000D02*
D03*
X8060000Y8190000D02*
D03*
X7431245Y10981244D02*
D03*
X7110000Y10650000D02*
D03*
X5930000Y11070000D02*
D03*
X6470000Y11140000D02*
D03*
X8060000Y8000000D02*
D03*
X7145000Y7655000D02*
D03*
X7131375Y7801000D02*
D03*
X6580000Y10400000D02*
D03*
X6230000Y10430000D02*
D03*
X6600000Y9800000D02*
D03*
X6490000Y9760000D02*
D03*
X6700000Y8020000D02*
D03*
X6500000Y7910000D02*
D03*
X7720000Y11240000D02*
D03*
X7970000Y11210000D02*
D03*
X8220000Y11230000D02*
D03*
X8350000Y9780000D02*
D03*
X6640000Y8750000D02*
D03*
X6610000Y7570000D02*
D03*
X6400000Y7910000D02*
D03*
X6160000Y8500000D02*
D03*
X6250000Y9420000D02*
D03*
X8081562Y10301562D02*
D03*
X6800000Y7444462D02*
D03*
X7550000Y11820000D02*
D03*
X7160000Y9570000D02*
D03*
X6730000Y11240000D02*
D03*
X6780000Y12690000D02*
D03*
X8130000Y8710000D02*
D03*
X5950000Y9710000D02*
D03*
X6800000Y7154462D02*
D03*
X7520000Y6830000D02*
D03*
X7210000Y11210000D02*
D03*
X6910000Y11330000D02*
D03*
X6650000Y12230000D02*
D03*
X6840000Y13000000D02*
D03*
X6630000Y13489999D02*
D03*
X8150000Y10570000D02*
D03*
X7100000Y9900000D02*
D03*
X6350000Y9400000D02*
D03*
X6290000Y7610000D02*
D03*
X7660000Y6990000D02*
D03*
X7620000Y8020000D02*
D03*
X7140000Y7950000D02*
D03*
X6970000Y7070000D02*
D03*
X6750000Y7530000D02*
D03*
Y7240000D02*
D03*
X7145000Y7365000D02*
D03*
X7415000D02*
D03*
X6430000Y7570000D02*
D03*
X7130000Y7220000D02*
D03*
X7131375Y7511000D02*
D03*
X6050000Y6950000D02*
D03*
X6900000Y6780000D02*
D03*
X6560000Y7030000D02*
D03*
X7270000Y6520000D02*
D03*
X7120000D02*
D03*
%TF.MD5,9ecbc384be3e5c5d305d074218e83cba*%
M02*
