%TF.GenerationSoftware,Altium Limited,Altium Designer,24.3.1 (35)*%
G04 Layer_Physical_Order=1*
G04 Layer_Color=255*
%FSLAX45Y45*%
%MOMM*%
%TF.SameCoordinates,F890BB90-1D0F-4F84-9AE3-556F965AF49A*%
%TF.FilePolarity,Positive*%
%TF.FileFunction,Copper,L1,Top,Signal*%
%TF.Part,Single*%
G01*
G75*
%TA.AperFunction,SMDPad,CuDef*%
%ADD10R,0.55000X0.55000*%
%ADD11R,0.35000X0.63000*%
%ADD12R,0.57500X0.30000*%
%ADD13R,0.57500X0.25000*%
%ADD14R,0.25000X0.95000*%
%ADD15R,2.00000X1.19000*%
%ADD16R,0.85000X0.40000*%
%ADD17R,0.90000X0.50000*%
%ADD18R,1.30000X1.45000*%
%ADD19R,3.80000X2.03000*%
%ADD20C,1.00000*%
%ADD21R,0.60000X1.00000*%
%ADD22R,1.80000X1.30000*%
%ADD23R,1.45000X1.30000*%
%ADD24R,0.55000X0.55000*%
%ADD25R,0.50000X0.70000*%
%TA.AperFunction,ConnectorPad*%
%ADD26R,0.60000X1.15000*%
%ADD27R,0.30000X1.15000*%
%TA.AperFunction,SMDPad,CuDef*%
%ADD28R,2.00000X1.50000*%
%ADD29R,0.70000X0.50000*%
%ADD30R,0.72000X0.72000*%
%ADD31R,1.00000X1.00000*%
%TA.AperFunction,BGAPad,CuDef*%
%ADD32C,0.80000*%
%TA.AperFunction,SMDPad,CuDef*%
G04:AMPARAMS|DCode=33|XSize=3.5mm|YSize=2mm|CornerRadius=0.5mm|HoleSize=0mm|Usage=FLASHONLY|Rotation=270.000|XOffset=0mm|YOffset=0mm|HoleType=Round|Shape=RoundedRectangle|*
%AMROUNDEDRECTD33*
21,1,3.50000,1.00000,0,0,270.0*
21,1,2.50001,2.00000,0,0,270.0*
1,1,1.00000,-0.50000,-1.25000*
1,1,1.00000,-0.50000,1.25000*
1,1,1.00000,0.50000,1.25000*
1,1,1.00000,0.50000,-1.25000*
%
%ADD33ROUNDEDRECTD33*%
%ADD34R,1.10000X0.30000*%
%ADD35R,0.50000X0.50000*%
%ADD36R,1.50000X2.00000*%
G04:AMPARAMS|DCode=37|XSize=0.9mm|YSize=1mm|CornerRadius=0mm|HoleSize=0mm|Usage=FLASHONLY|Rotation=90.000|XOffset=0mm|YOffset=0mm|HoleType=Round|Shape=Octagon|*
%AMOCTAGOND37*
4,1,8,-0.50000,-0.22500,-0.50000,0.22500,-0.27500,0.45000,0.27500,0.45000,0.50000,0.22500,0.50000,-0.22500,0.27500,-0.45000,-0.27500,-0.45000,-0.50000,-0.22500,0.0*
%
%ADD37OCTAGOND37*%

%ADD38R,1.00000X0.90000*%
%ADD39O,0.25000X0.85000*%
%ADD40O,0.85000X0.25000*%
%ADD41R,5.60000X5.60000*%
%ADD42R,0.72000X0.72000*%
%ADD43R,1.60000X3.00000*%
%TA.AperFunction,Conductor*%
%ADD44C,0.20000*%
%ADD45C,0.25000*%
%ADD46C,0.40000*%
%ADD47C,1.00000*%
%TA.AperFunction,WasherPad*%
%ADD48C,3.30000*%
%TA.AperFunction,ComponentPad*%
%ADD49C,0.65000*%
G04:AMPARAMS|DCode=50|XSize=1mm|YSize=2.1mm|CornerRadius=0.5mm|HoleSize=0mm|Usage=FLASHONLY|Rotation=0.000|XOffset=0mm|YOffset=0mm|HoleType=Round|Shape=RoundedRectangle|*
%AMROUNDEDRECTD50*
21,1,1.00000,1.10000,0,0,0.0*
21,1,0.00000,2.10000,0,0,0.0*
1,1,1.00000,0.00000,-0.55000*
1,1,1.00000,0.00000,-0.55000*
1,1,1.00000,0.00000,0.55000*
1,1,1.00000,0.00000,0.55000*
%
%ADD50ROUNDEDRECTD50*%
G04:AMPARAMS|DCode=51|XSize=1mm|YSize=1.8mm|CornerRadius=0.5mm|HoleSize=0mm|Usage=FLASHONLY|Rotation=0.000|XOffset=0mm|YOffset=0mm|HoleType=Round|Shape=RoundedRectangle|*
%AMROUNDEDRECTD51*
21,1,1.00000,0.80000,0,0,0.0*
21,1,0.00000,1.80000,0,0,0.0*
1,1,1.00000,0.00000,-0.40000*
1,1,1.00000,0.00000,-0.40000*
1,1,1.00000,0.00000,0.40000*
1,1,1.00000,0.00000,0.40000*
%
%ADD51ROUNDEDRECTD51*%
%ADD52C,1.00000*%
%TA.AperFunction,ViaPad*%
%ADD53C,0.60000*%
G36*
X8240000Y14949020D02*
X8262876D01*
X8308237Y14943050D01*
X8352429Y14931207D01*
X8394699Y14913699D01*
X8434323Y14890823D01*
X8470620Y14862971D01*
X8502971Y14830620D01*
X8530823Y14794324D01*
X8553699Y14754700D01*
X8571208Y14712430D01*
X8583049Y14668237D01*
X8589021Y14622874D01*
X8589022Y14600000D01*
Y10962221D01*
X8577288Y10957361D01*
X8397325Y11137324D01*
X8384788Y11145701D01*
X8370000Y11148642D01*
X7999823D01*
X7997297Y11161342D01*
X8001382Y11163034D01*
X8016966Y11178618D01*
X8025400Y11198980D01*
Y11221020D01*
X8016966Y11241381D01*
X8006093Y11252254D01*
Y11274600D01*
X8073400D01*
Y11625400D01*
X7862600D01*
Y11274600D01*
X7933907D01*
Y11252254D01*
X7923034Y11241381D01*
X7914600Y11221020D01*
Y11198980D01*
X7923034Y11178618D01*
X7936753Y11164900D01*
X7936524Y11155624D01*
X7935140Y11150729D01*
X7930000Y11148642D01*
X7915212Y11145701D01*
X7902676Y11137324D01*
X7673783Y10908432D01*
X7662050Y10913292D01*
Y10977213D01*
X7666297Y10979665D01*
X7680335Y10993703D01*
X7690262Y11010897D01*
X7695400Y11030073D01*
Y11049927D01*
X7690262Y11069103D01*
X7680335Y11086297D01*
X7666297Y11100335D01*
X7649103Y11110262D01*
X7629927Y11115400D01*
X7610073D01*
X7590897Y11110262D01*
X7573703Y11100335D01*
X7559665Y11086297D01*
X7549738Y11069103D01*
X7544600Y11049927D01*
Y11030073D01*
X7549738Y11010897D01*
X7559665Y10993703D01*
X7573703Y10979665D01*
X7589863Y10970335D01*
Y10887774D01*
X7578130Y10882914D01*
X7486645Y10974399D01*
Y10992264D01*
X7478211Y11012626D01*
X7462626Y11028210D01*
X7442265Y11036644D01*
X7423290D01*
X7419710Y11037233D01*
X7411400Y11046735D01*
Y11087300D01*
X7350000D01*
Y11100000D01*
X7337300D01*
Y11161400D01*
X7280289D01*
Y11180587D01*
X7280289Y11180588D01*
X7276766Y11198302D01*
X7266731Y11213320D01*
X7266731Y11213320D01*
X7265400Y11214651D01*
Y11221020D01*
X7256966Y11241381D01*
X7256290Y11242058D01*
Y11274600D01*
X7311400D01*
Y11625400D01*
X7100600D01*
Y11274600D01*
X7163711D01*
Y11242058D01*
X7163034Y11241381D01*
X7154600Y11221020D01*
Y11198980D01*
X7163034Y11178618D01*
X7178619Y11163034D01*
X7187710Y11159268D01*
Y11146289D01*
X7140400D01*
Y11197900D01*
X6902700D01*
Y11100000D01*
X6890000D01*
Y11087300D01*
X6799600D01*
Y11046708D01*
X6786900Y11041447D01*
X6781381Y11046966D01*
X6761020Y11055400D01*
X6738980D01*
X6718619Y11046966D01*
X6703034Y11031382D01*
X6694600Y11011020D01*
Y10988980D01*
X6703034Y10968619D01*
X6718619Y10953034D01*
X6738980Y10944600D01*
X6761020D01*
X6781381Y10953034D01*
X6789754Y10961407D01*
X6835345D01*
X6842401Y10950847D01*
X6839200Y10943120D01*
Y10921080D01*
X6847634Y10900719D01*
X6860725Y10887628D01*
X6847634Y10874537D01*
X6839200Y10854175D01*
Y10832136D01*
X6844727Y10818794D01*
X6836721Y10806093D01*
X6524950D01*
X6244002Y11087042D01*
X6236014Y11092379D01*
X6234443Y11098243D01*
X6225833Y11113157D01*
X6213657Y11125333D01*
X6198744Y11133943D01*
X6182110Y11138400D01*
X6164890D01*
X6148256Y11133943D01*
X6133343Y11125333D01*
X6121167Y11113157D01*
X6117332Y11106515D01*
X6102667D01*
X6098833Y11113157D01*
X6086657Y11125333D01*
X6071744Y11133943D01*
X6055110Y11138400D01*
X6037890D01*
X6021256Y11133943D01*
X6006343Y11125333D01*
X5998800Y11117789D01*
X5959393D01*
X5941020Y11125400D01*
X5918980D01*
X5898619Y11116966D01*
X5898023Y11116370D01*
X5886289Y11121230D01*
Y11245826D01*
X6075063Y11434600D01*
X6210400D01*
Y11619936D01*
X6364174Y11773711D01*
X7517942D01*
X7518618Y11773034D01*
X7538980Y11764600D01*
X7561020D01*
X7581381Y11773034D01*
X7596966Y11788619D01*
X7605400Y11808980D01*
Y11831020D01*
X7596966Y11851381D01*
X7581381Y11866966D01*
X7561020Y11875400D01*
X7538980D01*
X7518618Y11866966D01*
X7517942Y11866289D01*
X6345001D01*
X6345000Y11866290D01*
X6327286Y11862766D01*
X6312268Y11852732D01*
X6312268Y11852731D01*
X6144937Y11685400D01*
X6009600D01*
Y11500063D01*
X5807268Y11297732D01*
X5797234Y11282714D01*
X5793710Y11265000D01*
X5793711Y11264999D01*
Y11040001D01*
X5793710Y11040000D01*
X5797234Y11022286D01*
X5807268Y11007268D01*
X5901268Y10913269D01*
X5901268Y10913268D01*
X5916286Y10903234D01*
X5934000Y10899710D01*
X5934001Y10899710D01*
X6000300D01*
X6006343Y10893667D01*
X6012985Y10889832D01*
Y10875167D01*
X6006343Y10871333D01*
X5994167Y10859157D01*
X5985557Y10844243D01*
X5982196Y10831700D01*
X6046500D01*
Y10806300D01*
X5982196D01*
X5985557Y10793756D01*
X5994167Y10778843D01*
X6006343Y10766667D01*
X6009750Y10764700D01*
X6006348Y10752000D01*
X5996565D01*
X5974513Y10742865D01*
X5957635Y10725987D01*
X5948500Y10703935D01*
Y10680065D01*
X5957635Y10658013D01*
X5974513Y10641134D01*
X5996565Y10632000D01*
X6020435D01*
X6042487Y10641134D01*
X6059366Y10658013D01*
X6068500Y10680065D01*
Y10703935D01*
X6059366Y10725987D01*
X6044453Y10740900D01*
X6046487Y10750193D01*
X6048346Y10753600D01*
X6055110D01*
X6071744Y10758057D01*
X6086657Y10766667D01*
X6098833Y10778843D01*
X6102667Y10785485D01*
X6117332D01*
X6121167Y10778843D01*
X6133343Y10766667D01*
X6148256Y10758057D01*
X6164890Y10753600D01*
X6171654D01*
X6173513Y10750193D01*
X6175547Y10740900D01*
X6160634Y10725987D01*
X6151500Y10703935D01*
Y10680065D01*
X6160634Y10658013D01*
X6177513Y10641134D01*
X6199565Y10632000D01*
X6223435D01*
X6245487Y10641134D01*
X6262365Y10658013D01*
X6271500Y10680065D01*
Y10703935D01*
X6262365Y10725987D01*
X6245487Y10742865D01*
X6223435Y10752000D01*
X6213652D01*
X6210249Y10764700D01*
X6213657Y10766667D01*
X6225833Y10778843D01*
X6228179Y10782907D01*
X6306050D01*
X6481130Y10607827D01*
X6476269Y10596093D01*
X6010000D01*
X5996188Y10593346D01*
X5984478Y10585522D01*
X5744356Y10345400D01*
X5728980D01*
X5708619Y10336966D01*
X5703678Y10332025D01*
X5690978Y10337286D01*
X5690977Y14600000D01*
Y14622876D01*
X5696949Y14668237D01*
X5708790Y14712428D01*
X5726299Y14754700D01*
X5749176Y14794324D01*
X5777028Y14830620D01*
X5809378Y14862971D01*
X5845676Y14890823D01*
X5885299Y14913699D01*
X5927569Y14931207D01*
X5971761Y14943050D01*
X6017123Y14949020D01*
X6039999Y14949022D01*
X8240000Y14949020D01*
D02*
G37*
G36*
X7338907Y10710049D02*
Y10668386D01*
X7337701Y10667396D01*
Y10629275D01*
X7336353Y10622500D01*
Y10592500D01*
X7313648D01*
Y10622500D01*
X7312301Y10629276D01*
Y10658616D01*
X7310212Y10658201D01*
X7300000Y10651377D01*
X7289788Y10658201D01*
X7275000Y10661143D01*
X7260212Y10658201D01*
X7247676Y10649825D01*
X7239299Y10637288D01*
X7238077Y10631142D01*
X7183506D01*
X7165400Y10649249D01*
Y10661020D01*
X7156966Y10681381D01*
X7141381Y10696966D01*
X7121020Y10705400D01*
X7098980D01*
X7084100Y10699236D01*
X7071400Y10706341D01*
Y10711400D01*
X6922700D01*
Y10650001D01*
X6910000D01*
Y10637301D01*
X6848600D01*
Y10616093D01*
X6644951D01*
X6538871Y10722173D01*
X6543731Y10733907D01*
X7315049D01*
X7338907Y10710049D01*
D02*
G37*
G36*
X8333219Y10852133D02*
X8328358Y10840400D01*
X8292700D01*
Y10762700D01*
X8377900D01*
Y10790858D01*
X8389633Y10795719D01*
X8441358Y10743994D01*
Y9949885D01*
X8429624Y9945024D01*
X8246782Y10127867D01*
X8251642Y10139600D01*
X8267299D01*
Y10230001D01*
X8279999D01*
Y10242701D01*
X8377900D01*
Y10299600D01*
Y10480400D01*
X8182100D01*
Y10463643D01*
X7968893D01*
X7960836Y10473460D01*
X7961143Y10475000D01*
X7960836Y10476540D01*
X7968893Y10486358D01*
X8015000D01*
X8029788Y10489299D01*
X8042324Y10497676D01*
X8053249Y10508600D01*
X8121400D01*
Y10510452D01*
X8131960Y10517508D01*
X8138980Y10514600D01*
X8161020D01*
X8169400Y10518071D01*
X8182100Y10509586D01*
Y10499600D01*
X8377900D01*
Y10659600D01*
Y10737300D01*
X8182100D01*
Y10659600D01*
Y10630415D01*
X8169400Y10621929D01*
X8161020Y10625400D01*
X8138980D01*
X8131960Y10622492D01*
X8121400Y10629548D01*
Y10657300D01*
X7998600D01*
Y10608600D01*
Y10563642D01*
X7863642D01*
Y10622500D01*
Y10718994D01*
X8036006Y10891358D01*
X8293994D01*
X8333219Y10852133D01*
D02*
G37*
G36*
X6936130Y10422827D02*
X6931269Y10411093D01*
X6875824D01*
X6871159Y10410166D01*
X6862786Y10413633D01*
X6840747D01*
X6820385Y10405199D01*
X6804801Y10389615D01*
X6796367Y10369253D01*
Y10347214D01*
X6799171Y10340443D01*
X6787917Y10334427D01*
X6785522Y10338011D01*
X6641360Y10482173D01*
X6646220Y10493907D01*
X6865050D01*
X6936130Y10422827D01*
D02*
G37*
G36*
X6558823Y10462622D02*
X6556345Y10450166D01*
X6548619Y10446966D01*
X6533034Y10431381D01*
X6524600Y10411020D01*
Y10388980D01*
X6533034Y10368619D01*
X6548619Y10353034D01*
X6566566Y10345600D01*
X6564040Y10332900D01*
X6527700D01*
Y10280000D01*
X6515000D01*
Y10267300D01*
X6462100D01*
Y10227100D01*
X6451761Y10221400D01*
X6448600D01*
Y10172700D01*
X6510000D01*
Y10147300D01*
X6448600D01*
Y10098600D01*
X6451761D01*
X6462100Y10092900D01*
Y10073594D01*
X6420400D01*
Y10080400D01*
X6284600D01*
Y9989600D01*
Y9936979D01*
X6276262Y9932299D01*
X6271900Y9931718D01*
X6246093Y9957525D01*
Y10317500D01*
X6243346Y10331312D01*
X6235522Y10343021D01*
X6244537Y10351919D01*
X6282100Y10314356D01*
Y10264600D01*
X6422900D01*
Y10365400D01*
X6333144D01*
X6315677Y10382867D01*
X6320537Y10394600D01*
X6422900D01*
Y10495400D01*
X6282100D01*
Y10474208D01*
X6269400Y10468947D01*
X6261381Y10476966D01*
X6241020Y10485400D01*
X6218980D01*
X6198619Y10476966D01*
X6183034Y10461381D01*
X6174600Y10441020D01*
Y10430400D01*
X6057100D01*
Y10329600D01*
X6146856D01*
X6173907Y10302549D01*
Y10080400D01*
X6059600D01*
Y10076093D01*
X5990000D01*
X5976187Y10073346D01*
X5964478Y10065522D01*
X5924478Y10025522D01*
X5916654Y10013812D01*
X5913907Y10000000D01*
Y9910000D01*
X5916654Y9896187D01*
X5924478Y9884478D01*
X6034478Y9774478D01*
X6046187Y9766654D01*
X6060000Y9763907D01*
X6135050D01*
X6166823Y9732133D01*
X6161963Y9720400D01*
X6059600D01*
Y9591289D01*
X6002900D01*
Y9682900D01*
X6002900D01*
X6000332Y9686744D01*
X6005400Y9698980D01*
Y9721020D01*
X5996966Y9741381D01*
X5981381Y9756966D01*
X5961020Y9765400D01*
X5938980D01*
X5918619Y9756966D01*
X5903034Y9741381D01*
X5894600Y9721020D01*
Y9698980D01*
X5899668Y9686744D01*
X5897100Y9682900D01*
X5897100D01*
Y9577100D01*
Y9487100D01*
X6002900D01*
Y9498710D01*
X6082461D01*
Y9449092D01*
X6069665Y9436297D01*
X6059738Y9419103D01*
X6054600Y9399927D01*
Y9380073D01*
X6059738Y9360897D01*
X6069665Y9343703D01*
X6083703Y9329665D01*
X6100897Y9319738D01*
X6120073Y9314600D01*
X6139927D01*
X6159103Y9319738D01*
X6176297Y9329665D01*
X6190335Y9343703D01*
X6200262Y9360897D01*
X6202910Y9370782D01*
X6217075Y9374577D01*
X6218618Y9373034D01*
X6238980Y9364600D01*
X6261020D01*
X6281381Y9373034D01*
X6287317Y9378970D01*
X6299773Y9376492D01*
X6303034Y9368619D01*
X6318619Y9353034D01*
X6338980Y9344600D01*
X6361020D01*
X6381381Y9353034D01*
X6396966Y9368619D01*
X6405400Y9388980D01*
Y9411020D01*
X6397539Y9429997D01*
Y9499600D01*
X6420400D01*
Y9564600D01*
Y9597301D01*
X6352499D01*
Y9622701D01*
X6420400D01*
Y9636407D01*
X6437100D01*
Y9592700D01*
X6489999D01*
Y9580000D01*
X6502699D01*
Y9527100D01*
X6523907D01*
Y8997900D01*
X6507100D01*
Y8892100D01*
Y8802100D01*
X6595792D01*
X6601053Y8789400D01*
X6593034Y8781381D01*
X6584600Y8761020D01*
Y8738980D01*
X6589669Y8726744D01*
X6587100Y8722900D01*
X6587100D01*
Y8617100D01*
X6683711D01*
Y8600400D01*
X6604600D01*
Y8399600D01*
X6683711D01*
Y8381400D01*
X6568600D01*
Y8258600D01*
X6591358D01*
Y8194755D01*
X6583703Y8190335D01*
X6569665Y8176297D01*
X6559738Y8159103D01*
X6554600Y8139927D01*
Y8132792D01*
X6542264Y8124155D01*
X6520225D01*
X6499863Y8115721D01*
X6490235Y8106094D01*
X6440400D01*
Y8143400D01*
X6415400D01*
Y8197301D01*
X6290000D01*
X6164600D01*
Y8143400D01*
X6139600D01*
Y8109142D01*
X6047900D01*
Y8199600D01*
Y8277300D01*
X5852100D01*
Y8190415D01*
X5839400Y8181929D01*
X5831020Y8185400D01*
X5808980D01*
X5788619Y8176966D01*
X5773034Y8161381D01*
X5764600Y8141020D01*
Y8118980D01*
X5773034Y8098619D01*
X5788619Y8083034D01*
X5808980Y8074600D01*
X5831020D01*
X5839400Y8078071D01*
X5852100Y8069585D01*
Y8039600D01*
X5995027D01*
X6002213Y8034799D01*
X6017000Y8031857D01*
X6017001Y8031858D01*
X6139600D01*
Y7997600D01*
X6175151D01*
X6180251Y7984900D01*
X6082676Y7887324D01*
X6074299Y7874788D01*
X6071358Y7860000D01*
Y7857900D01*
X5962700D01*
Y7760000D01*
Y7662100D01*
X6200400D01*
Y7857900D01*
X6179142D01*
X6174282Y7869633D01*
X6245000Y7940352D01*
X6291358Y7893994D01*
Y7857900D01*
X6239600D01*
Y7662100D01*
X6245792D01*
X6251053Y7649400D01*
X6243034Y7641381D01*
X6234600Y7621020D01*
Y7598980D01*
X6243034Y7578619D01*
X6258619Y7563034D01*
X6278980Y7554600D01*
X6301020D01*
X6321382Y7563034D01*
X6336966Y7578619D01*
X6345400Y7598980D01*
X6348629Y7601630D01*
X6350000Y7601358D01*
X6371595D01*
X6378650Y7590798D01*
X6374600Y7581020D01*
Y7558980D01*
X6380142Y7545600D01*
X6372159Y7532900D01*
X6369600D01*
Y7382100D01*
X6507300D01*
Y7457500D01*
X6532700D01*
Y7382100D01*
X6670400D01*
Y7532900D01*
X6667841D01*
X6659858Y7545600D01*
X6665400Y7558980D01*
Y7581020D01*
X6656966Y7601382D01*
X6645470Y7612878D01*
X6697324Y7664732D01*
X6705701Y7677269D01*
X6708643Y7692056D01*
X6708642Y7692058D01*
Y7766417D01*
X6721343Y7771906D01*
X6738980Y7764600D01*
X6761020D01*
X6773435Y7769743D01*
X6780629Y7758976D01*
X6773034Y7751382D01*
X6764600Y7731020D01*
Y7708980D01*
X6773034Y7688619D01*
X6788619Y7673034D01*
X6808980Y7664600D01*
X6831020D01*
X6851382Y7673034D01*
X6858690Y7680342D01*
X6859887Y7680682D01*
X6874343Y7678035D01*
X6878926Y7671176D01*
X6886968Y7663134D01*
X6882108Y7651400D01*
X6852100D01*
Y7612039D01*
X6849925Y7599643D01*
X6835137Y7596701D01*
X6822601Y7588324D01*
X6822600Y7588324D01*
X6802919Y7568642D01*
X6789705D01*
X6781381Y7576966D01*
X6761020Y7585400D01*
X6738980D01*
X6718619Y7576966D01*
X6703034Y7561382D01*
X6694600Y7541020D01*
Y7518980D01*
X6703034Y7498619D01*
X6718619Y7483034D01*
X6738980Y7474600D01*
X6741089D01*
X6748145Y7464040D01*
X6744600Y7455482D01*
Y7433442D01*
X6753034Y7413080D01*
X6768619Y7397496D01*
X6788980Y7389062D01*
X6811020D01*
X6831382Y7397496D01*
X6846966Y7413080D01*
X6846968Y7413084D01*
X6847929Y7415065D01*
X6852100Y7420600D01*
X6877896D01*
Y7408500D01*
X6880837Y7393712D01*
X6889214Y7381176D01*
X6897256Y7373133D01*
X6892396Y7361400D01*
X6852100D01*
Y7322038D01*
X6849925Y7309642D01*
X6835137Y7306701D01*
X6822601Y7298324D01*
X6822600Y7298323D01*
X6802919Y7278642D01*
X6789705D01*
X6781381Y7286966D01*
X6761020Y7295400D01*
X6738980D01*
X6718619Y7286966D01*
X6703034Y7271381D01*
X6694600Y7251020D01*
Y7228980D01*
X6703034Y7208619D01*
X6718619Y7193034D01*
X6738980Y7184600D01*
X6741089D01*
X6748145Y7174040D01*
X6744600Y7165481D01*
Y7143442D01*
X6753034Y7123080D01*
X6768619Y7107496D01*
X6788980Y7099062D01*
X6811020D01*
X6831382Y7107496D01*
X6846966Y7123080D01*
X6846968Y7123084D01*
X6847929Y7125065D01*
X6852100Y7130600D01*
X6877896D01*
Y7118500D01*
X6880837Y7103712D01*
X6889214Y7091176D01*
X6914600Y7065789D01*
Y7058980D01*
X6921056Y7043394D01*
X6914366Y7030694D01*
X6720350D01*
X6656643Y7094400D01*
X6661904Y7107100D01*
X6670400D01*
Y7257900D01*
X6369600D01*
Y7107100D01*
X6399691D01*
Y7034216D01*
X6402439Y7020403D01*
X6410263Y7008694D01*
X6484478Y6934478D01*
X6496188Y6926654D01*
X6510000Y6923907D01*
X6782100D01*
Y6892700D01*
X6835000D01*
Y6880000D01*
X6847700D01*
Y6827100D01*
X6850792D01*
X6856053Y6814400D01*
X6853034Y6811381D01*
X6844600Y6791020D01*
Y6768980D01*
X6851178Y6753101D01*
X6845424Y6741891D01*
X6843738Y6740400D01*
X6834700D01*
Y6657500D01*
X6809300D01*
Y6740400D01*
X6766600D01*
Y6722617D01*
X6753900Y6716354D01*
X6748025Y6720862D01*
X6729684Y6728459D01*
X6710000Y6731051D01*
X6690317Y6728459D01*
X6671975Y6720862D01*
X6656224Y6708776D01*
X6644138Y6693025D01*
X6636541Y6674684D01*
X6633949Y6655000D01*
Y6545000D01*
Y6336051D01*
X6585400D01*
Y6350400D01*
X6354600D01*
Y6169600D01*
X6585400D01*
Y6183949D01*
X6633949D01*
Y6142000D01*
X6636541Y6122317D01*
X6644138Y6103975D01*
X6656224Y6088225D01*
X6671975Y6076139D01*
X6690317Y6068541D01*
X6710000Y6065950D01*
X6729684Y6068541D01*
X6748025Y6076139D01*
X6763776Y6088225D01*
X6775862Y6103975D01*
X6776680Y6105950D01*
X7507320D01*
X7508138Y6103975D01*
X7520224Y6088225D01*
X7535975Y6076139D01*
X7554316Y6068541D01*
X7574000Y6065950D01*
X7593683Y6068541D01*
X7612025Y6076139D01*
X7627776Y6088225D01*
X7639862Y6103975D01*
X7647459Y6122317D01*
X7650050Y6142000D01*
Y6222000D01*
Y6600000D01*
Y6655000D01*
X7647459Y6674684D01*
X7639862Y6693025D01*
X7627776Y6708776D01*
X7612025Y6720862D01*
X7593683Y6728459D01*
X7574000Y6731051D01*
X7554316Y6728459D01*
X7535975Y6720862D01*
X7530100Y6716354D01*
X7517400Y6722617D01*
Y6740400D01*
X7482680D01*
X7477820Y6752134D01*
X7502833Y6777146D01*
X7508980Y6774600D01*
X7531020D01*
X7551381Y6783034D01*
X7566966Y6798619D01*
X7575400Y6818980D01*
Y6841020D01*
X7572078Y6849040D01*
X7579134Y6859600D01*
X7692900D01*
Y6921513D01*
X7693594Y6925000D01*
Y6945246D01*
X7706966Y6958619D01*
X7715400Y6978980D01*
Y7001020D01*
X7706966Y7021381D01*
X7691381Y7036966D01*
X7671020Y7045400D01*
X7648980D01*
X7628618Y7036966D01*
X7613034Y7021381D01*
X7604600Y7001020D01*
Y6978980D01*
X7607922Y6970960D01*
X7600866Y6960400D01*
X7552100D01*
Y6913009D01*
X7539400Y6907749D01*
X7467900Y6979249D01*
Y7025400D01*
X7327100D01*
Y6924600D01*
X7413252D01*
X7430718Y6907133D01*
X7425858Y6895400D01*
X7327100D01*
Y6859910D01*
X7314400Y6855101D01*
X7312900Y6856798D01*
Y6902100D01*
Y6942300D01*
X7207100D01*
Y6902100D01*
Y6860537D01*
X7195367Y6855677D01*
X7030922Y7020122D01*
X7022235Y7025927D01*
X7018596Y7034691D01*
X7018008Y7041135D01*
X7025400Y7058980D01*
Y7081020D01*
X7016966Y7101382D01*
X7012900Y7105448D01*
Y7130600D01*
X7036856D01*
X7042978Y7124478D01*
X7054688Y7116654D01*
X7068500Y7113907D01*
X7457100D01*
Y7097100D01*
X7652900D01*
Y7113907D01*
X7760000D01*
X7773812Y7116654D01*
X7785522Y7124478D01*
X7815644Y7154600D01*
X7925400D01*
Y7235400D01*
X7764600D01*
Y7205644D01*
X7745050Y7186093D01*
X7652900D01*
Y7202900D01*
X7457100D01*
Y7186093D01*
X7391400D01*
Y7207300D01*
X7330000D01*
Y7232700D01*
X7391400D01*
Y7253906D01*
X7457100D01*
Y7237100D01*
X7652900D01*
Y7256407D01*
X7764600D01*
Y7254600D01*
X7925400D01*
Y7335400D01*
X7764600D01*
Y7328593D01*
X7652900D01*
Y7342900D01*
X7477240D01*
X7470184Y7353460D01*
X7470400Y7353980D01*
Y7376020D01*
X7470184Y7376540D01*
X7477240Y7387100D01*
X7652900D01*
Y7403907D01*
X7745049D01*
X7764600Y7384356D01*
Y7354600D01*
X7925400D01*
Y7435400D01*
X7817304D01*
X7811625Y7442484D01*
X7816963Y7454600D01*
X7925400D01*
Y7535400D01*
X7817304D01*
X7811624Y7542485D01*
X7816961Y7554600D01*
X7925400D01*
Y7635400D01*
X7817304D01*
X7811624Y7642485D01*
X7816961Y7654600D01*
X7925400D01*
Y7735400D01*
X7817304D01*
X7811624Y7742485D01*
X7816961Y7754600D01*
X7925400D01*
Y7756358D01*
X8265000D01*
X8279788Y7759299D01*
X8292324Y7767676D01*
X8577288Y8052640D01*
X8589021Y8047779D01*
Y6400000D01*
Y6377124D01*
X8583049Y6331762D01*
X8571208Y6287571D01*
X8553699Y6245301D01*
X8530823Y6205677D01*
X8502971Y6169380D01*
X8470620Y6137029D01*
X8434323Y6109177D01*
X8394699Y6086300D01*
X8352430Y6068792D01*
X8308237Y6056950D01*
X8262876Y6050979D01*
X8240000Y6050978D01*
X6040000Y6050979D01*
X6017124D01*
X5971762Y6056950D01*
X5927571Y6068791D01*
X5885301Y6086301D01*
X5845677Y6109177D01*
X5809380Y6137029D01*
X5777029Y6169380D01*
X5749177Y6205677D01*
X5726300Y6245301D01*
X5708791Y6287570D01*
X5696950Y6331762D01*
X5690978Y6377124D01*
X5690978Y6400000D01*
X5690978Y10242714D01*
X5703678Y10247975D01*
X5708619Y10243034D01*
X5728980Y10234600D01*
X5751020D01*
X5771381Y10243034D01*
X5786966Y10258619D01*
X5795400Y10278980D01*
Y10294356D01*
X6024950Y10523907D01*
X6497539D01*
X6558823Y10462622D01*
D02*
G37*
G36*
X6462100Y9987100D02*
X6556211D01*
Y9971783D01*
X6553703Y9970335D01*
X6539665Y9956297D01*
X6529738Y9939103D01*
X6524600Y9919927D01*
Y9900073D01*
X6529738Y9880897D01*
X6539665Y9863703D01*
X6553703Y9849665D01*
X6555573Y9833920D01*
X6553034Y9831381D01*
X6544600Y9811020D01*
Y9801708D01*
X6531900Y9796447D01*
X6521381Y9806966D01*
X6501020Y9815400D01*
X6478980D01*
X6458619Y9806966D01*
X6443034Y9791381D01*
X6439274Y9782305D01*
X6424293Y9779325D01*
X6355751Y9847867D01*
X6360611Y9859600D01*
X6420400D01*
Y9924600D01*
Y10001407D01*
X6462100D01*
Y9987100D01*
D02*
G37*
G36*
X6673852Y10087192D02*
X6673907Y10086938D01*
Y10040000D01*
X6676654Y10026188D01*
X6684478Y10014478D01*
X6775194Y9923762D01*
X6786904Y9915939D01*
X6800716Y9913191D01*
X6865553D01*
X6870414Y9901458D01*
X6554633Y9585677D01*
X6542900Y9590537D01*
Y9722899D01*
X6542900Y9722900D01*
X6542900D01*
X6539858Y9735600D01*
X6545400Y9748980D01*
Y9758292D01*
X6558100Y9763553D01*
X6568619Y9753034D01*
X6588980Y9744600D01*
X6611020D01*
X6631381Y9753034D01*
X6646966Y9768619D01*
X6655400Y9788980D01*
Y9811020D01*
X6646966Y9831381D01*
X6644427Y9833920D01*
X6646297Y9849665D01*
X6660335Y9863703D01*
X6670262Y9880897D01*
X6675400Y9900073D01*
Y9919927D01*
X6670262Y9939103D01*
X6660335Y9956297D01*
X6648790Y9967842D01*
Y9987100D01*
X6657900D01*
Y10080505D01*
X6670600Y10088674D01*
X6673852Y10087192D01*
D02*
G37*
G36*
X8401358Y9735050D02*
Y8616006D01*
X8218993Y8433642D01*
X7925400D01*
Y8435400D01*
X7764600D01*
X7756290Y8444658D01*
Y8445342D01*
X7764600Y8454600D01*
X7768990Y8454600D01*
X7925400D01*
Y8535400D01*
X7768990D01*
X7764600Y8535400D01*
X7756290Y8544658D01*
Y8545342D01*
X7764600Y8554600D01*
X7768990Y8554600D01*
X7925400D01*
Y8635400D01*
X7764600D01*
Y8617900D01*
X7762365Y8616208D01*
X7745152Y8619109D01*
X7742732Y8622732D01*
X7742731Y8622732D01*
X7702732Y8662732D01*
X7687714Y8672766D01*
X7670000Y8676290D01*
X7669999Y8676289D01*
X7120001D01*
X7120000Y8676290D01*
X7102286Y8672766D01*
X7087268Y8662732D01*
X7087268Y8662731D01*
X6867133Y8442597D01*
X6855400Y8447457D01*
Y8600400D01*
X6776289D01*
Y8617100D01*
X6782900D01*
Y8722900D01*
X6700169D01*
X6693113Y8733460D01*
X6695400Y8738980D01*
Y8761020D01*
X6686966Y8781381D01*
X6676447Y8791900D01*
X6681708Y8804600D01*
X6750400D01*
Y8894600D01*
Y8932300D01*
X6690000D01*
Y8957700D01*
X6750400D01*
Y8959473D01*
X6762133Y8964334D01*
X6792020Y8934447D01*
X6803730Y8926623D01*
X6807100Y8925952D01*
Y8802100D01*
X6912900D01*
Y8816358D01*
X6929600D01*
Y8804600D01*
X7050400D01*
Y8894600D01*
Y8932300D01*
X6989999D01*
X6929600D01*
Y8893642D01*
X6912900D01*
Y8997900D01*
X6830655D01*
X6737348Y9091207D01*
X6742609Y9103907D01*
X7117599D01*
X7122859Y9091207D01*
X7113034Y9081381D01*
X7104600Y9061020D01*
Y9038980D01*
X7113034Y9018618D01*
X7121053Y9010600D01*
X7117016Y8997900D01*
X7107100D01*
Y8892100D01*
Y8802100D01*
X7212900D01*
Y8816358D01*
X7229600D01*
Y8804600D01*
X7350400D01*
Y8894600D01*
Y8932300D01*
X7290000D01*
X7229600D01*
Y8893642D01*
X7212900D01*
Y8997900D01*
X7202984D01*
X7198947Y9010600D01*
X7206966Y9018618D01*
X7215400Y9038980D01*
Y9061020D01*
X7206966Y9081381D01*
X7191382Y9096966D01*
X7190458Y9111095D01*
X7195522Y9114478D01*
X7221900Y9140856D01*
X7234600Y9135595D01*
Y9128980D01*
X7243034Y9108619D01*
X7258618Y9093034D01*
X7278980Y9084600D01*
X7296845D01*
X7407100Y8974345D01*
Y8892100D01*
Y8802100D01*
X7512900D01*
Y8818907D01*
X7529600D01*
Y8804600D01*
X7650400D01*
Y8894600D01*
Y8932300D01*
X7590000D01*
X7529600D01*
Y8891093D01*
X7512900D01*
Y8997900D01*
X7479048D01*
X7478377Y9001270D01*
X7470553Y9012980D01*
X7431979Y9051554D01*
X7439173Y9062320D01*
X7442735Y9060845D01*
X7464775D01*
X7485137Y9069279D01*
X7500721Y9084863D01*
X7502129Y9088263D01*
X7506238Y9089080D01*
X7517948Y9096904D01*
X7850846Y9429802D01*
X7865827Y9426822D01*
X7869126Y9418858D01*
X7877083Y9410902D01*
X7877643Y9393501D01*
X7874279Y9390137D01*
X7865845Y9369775D01*
Y9347735D01*
X7874279Y9327374D01*
X7889863Y9311789D01*
X7910225Y9303355D01*
X7932264D01*
X7952626Y9311789D01*
X7963498Y9322662D01*
X8108755D01*
X8122567Y9325409D01*
X8134277Y9333233D01*
X8228658Y9427614D01*
X8241358Y9422353D01*
Y8876006D01*
X8130751Y8765400D01*
X8118980D01*
X8098619Y8756966D01*
X8083034Y8741382D01*
X8074600Y8721020D01*
Y8698980D01*
X8083034Y8678619D01*
X8098619Y8663034D01*
X8118980Y8654600D01*
X8141020D01*
X8161381Y8663034D01*
X8176966Y8678619D01*
X8185400Y8698980D01*
Y8710751D01*
X8307324Y8832676D01*
X8315701Y8845212D01*
X8318642Y8860000D01*
Y9721594D01*
X8329202Y9728650D01*
X8338980Y9724600D01*
X8361020D01*
X8381382Y9733034D01*
X8388658Y9740310D01*
X8401358Y9735050D01*
D02*
G37*
G36*
X6369397Y9732133D02*
X6364537Y9720400D01*
X6284600D01*
X6274461Y9726583D01*
X6175522Y9825522D01*
X6163813Y9833346D01*
X6150000Y9836093D01*
X6074950D01*
X6064143Y9846900D01*
X6069404Y9859600D01*
X6195400D01*
Y9868907D01*
X6232624D01*
X6369397Y9732133D01*
D02*
G37*
G36*
X7236358Y9839705D02*
X7227522Y9830869D01*
X7219088Y9810507D01*
Y9788468D01*
X7225039Y9774100D01*
X7217657Y9761439D01*
X7217599Y9761400D01*
X7182700D01*
Y9700000D01*
Y9638600D01*
X7280963D01*
X7285823Y9626867D01*
X7265049Y9606093D01*
X7202254D01*
X7191381Y9616966D01*
X7171020Y9625400D01*
X7148980D01*
X7128618Y9616966D01*
X7113034Y9601381D01*
X7104600Y9581020D01*
Y9558980D01*
X7113034Y9538618D01*
X7121362Y9530290D01*
X7122092Y9517893D01*
X7122092Y9517892D01*
X7122092Y9517892D01*
Y9495036D01*
X7081400D01*
Y9511400D01*
X6958600D01*
Y9495036D01*
X6937900D01*
Y9540400D01*
X6742100D01*
Y9495036D01*
X6722900D01*
Y9502900D01*
X6651904D01*
X6646644Y9515600D01*
X6976867Y9845823D01*
X6988600Y9840963D01*
Y9738600D01*
Y9712700D01*
X7050000D01*
Y9700000D01*
X7062700D01*
Y9638600D01*
X7111400D01*
Y9638600D01*
X7157300D01*
Y9700000D01*
Y9761400D01*
X7111400D01*
Y9844758D01*
X7131381Y9853034D01*
X7146966Y9868619D01*
X7155400Y9888980D01*
Y9898251D01*
X7193506Y9936358D01*
X7236358D01*
Y9839705D01*
D02*
G37*
G36*
X7572700Y9528600D02*
X7621400D01*
X7621936Y9528244D01*
X7623563Y9511911D01*
X7623034Y9511382D01*
X7614600Y9491020D01*
Y9468980D01*
X7623034Y9448619D01*
X7638618Y9433034D01*
X7658980Y9424600D01*
X7665596D01*
X7670856Y9411900D01*
X7500450Y9241493D01*
X7457892D01*
Y9279793D01*
X7382491D01*
X7307092D01*
Y9241493D01*
X7273686D01*
X7268826Y9253227D01*
X7272892Y9257293D01*
Y9327693D01*
X7243782Y9356803D01*
Y9377093D01*
X7272892D01*
Y9517893D01*
X7215888D01*
X7209100Y9530593D01*
X7211314Y9533907D01*
X7280000D01*
X7293812Y9536654D01*
X7305522Y9544478D01*
X7322867Y9561823D01*
X7335591Y9556587D01*
X7343034Y9538618D01*
X7351060Y9530593D01*
X7345799Y9517893D01*
X7307092D01*
Y9377093D01*
X7457892D01*
Y9463244D01*
X7502324Y9507676D01*
X7502325Y9507677D01*
X7510701Y9520213D01*
X7512369Y9528600D01*
X7547300D01*
Y9589999D01*
X7572700D01*
Y9528600D01*
D02*
G37*
G36*
X7122092Y9377093D02*
X7151203D01*
Y9356803D01*
X7122092Y9327693D01*
Y9257293D01*
X7157292Y9222093D01*
X7184456D01*
X7189316Y9210360D01*
X7155050Y9176093D01*
X6746671D01*
X6745400Y9188794D01*
X6745400Y9191020D01*
X6755592Y9199600D01*
X6827301D01*
Y9290000D01*
X6840001D01*
Y9302700D01*
X6937900D01*
Y9359600D01*
Y9402457D01*
X6958600D01*
Y9362700D01*
X7020000D01*
X7081400D01*
Y9402457D01*
X7122092D01*
Y9377093D01*
D02*
G37*
G36*
X8441358Y8530116D02*
Y8496006D01*
X8278994Y8333642D01*
X7925400D01*
Y8335400D01*
X7764600D01*
Y8254600D01*
X7925400D01*
Y8256358D01*
X8042248D01*
X8044774Y8243658D01*
X8028618Y8236966D01*
X8022795Y8231142D01*
X7925400D01*
Y8235400D01*
X7764600D01*
Y8154600D01*
X7843768D01*
X7847500Y8153857D01*
X7847501Y8153858D01*
X8016279D01*
X8023325Y8145227D01*
X8018707Y8133642D01*
X7925400D01*
Y8135400D01*
X7764600D01*
Y8054600D01*
X7925400D01*
Y8056358D01*
X8018706D01*
X8023325Y8044773D01*
X8016279Y8036142D01*
X7847501D01*
X7847500Y8036142D01*
X7843768Y8035400D01*
X7764600D01*
Y7954600D01*
X7925400D01*
Y7958857D01*
X8022795D01*
X8028618Y7953034D01*
X8044774Y7946342D01*
X8042248Y7933642D01*
X7925400D01*
Y7935400D01*
X7764600D01*
Y7854600D01*
X7925400D01*
Y7856358D01*
X8215000D01*
X8229788Y7859299D01*
X8242324Y7867676D01*
X8549625Y8174976D01*
X8561358Y8170116D01*
Y8146007D01*
X8248993Y7833642D01*
X7925400D01*
Y7835400D01*
X7764600D01*
Y7803037D01*
X7752867Y7798177D01*
X7669236Y7881808D01*
X7669235Y7881809D01*
X7655522Y7895522D01*
X7652900Y7897274D01*
Y7922900D01*
X7457100D01*
Y7906093D01*
X7191034D01*
X7186174Y7917827D01*
X7186966Y7918619D01*
X7195400Y7938980D01*
Y7961020D01*
X7188822Y7976900D01*
X7195341Y7989600D01*
X7235400D01*
Y8110400D01*
X7231289D01*
Y8137100D01*
X7237900D01*
Y8242900D01*
X7137648D01*
Y8305326D01*
X7143953Y8311631D01*
X7152388Y8331993D01*
Y8354032D01*
X7143953Y8374394D01*
X7128369Y8389978D01*
X7118615Y8394019D01*
X7115636Y8408999D01*
X7167994Y8461358D01*
X7424600D01*
Y8399600D01*
X7658221D01*
X7661437Y8386900D01*
X7485826Y8211290D01*
X7427900D01*
Y8215400D01*
X7287100D01*
Y8114600D01*
X7427900D01*
Y8118711D01*
X7504999D01*
X7505000Y8118710D01*
X7512100Y8112883D01*
Y8049600D01*
X7560867D01*
X7567922Y8039040D01*
X7564600Y8031020D01*
Y8008980D01*
X7573034Y7988619D01*
X7588619Y7973034D01*
X7608980Y7964600D01*
X7631020D01*
X7651381Y7973034D01*
X7666966Y7988619D01*
X7675400Y8008980D01*
Y8031020D01*
X7666966Y8051381D01*
X7653594Y8064753D01*
Y8085000D01*
X7652900Y8088487D01*
Y8150400D01*
X7572457D01*
X7567597Y8162133D01*
X7742732Y8337268D01*
X7752766Y8352286D01*
X7752796Y8352437D01*
X7764600Y8354600D01*
Y8354600D01*
X7925400D01*
Y8356358D01*
X8235000D01*
X8249788Y8359299D01*
X8262324Y8367676D01*
X8429624Y8534976D01*
X8441358Y8530116D01*
D02*
G37*
G36*
X8481358Y8410116D02*
Y8376006D01*
X8238993Y8133642D01*
X8099368D01*
X8094689Y8146342D01*
X8106966Y8158618D01*
X8115400Y8178980D01*
Y8201020D01*
X8106966Y8221381D01*
X8091381Y8236966D01*
X8075226Y8243658D01*
X8077752Y8256358D01*
X8295000D01*
X8309788Y8259299D01*
X8322324Y8267676D01*
X8469624Y8414976D01*
X8481358Y8410116D01*
D02*
G37*
G36*
X7045982Y8321385D02*
X7050022Y8311631D01*
X7060364Y8301289D01*
Y8242900D01*
X7042100D01*
Y8137100D01*
X7138710D01*
Y8110400D01*
X7044600D01*
Y8061093D01*
X6737254D01*
X6731382Y8066966D01*
X6711020Y8075400D01*
X6708190D01*
X6701225Y8088100D01*
X6704495Y8093229D01*
X6783859D01*
X6798647Y8096171D01*
X6811184Y8104547D01*
X7031001Y8324365D01*
X7045982Y8321385D01*
D02*
G37*
G36*
X6963094Y7977410D02*
X6955252Y7968900D01*
X6927100D01*
Y7941400D01*
X6918950D01*
Y7901000D01*
X6893550D01*
Y7941400D01*
X6852100D01*
Y7902039D01*
X6849925Y7889643D01*
X6835137Y7886701D01*
X6822601Y7878324D01*
X6822600Y7878324D01*
X6802919Y7858642D01*
X6789705D01*
X6781381Y7866966D01*
X6761020Y7875400D01*
X6738980D01*
X6718619Y7866966D01*
X6704717Y7853064D01*
X6699899Y7851247D01*
X6689039Y7850781D01*
X6620742Y7919078D01*
Y7950834D01*
X6655780Y7985872D01*
X6668619Y7973034D01*
X6688980Y7964600D01*
X6711020D01*
X6731382Y7973034D01*
X6746966Y7988619D01*
X6747085Y7988906D01*
X6958397D01*
X6963094Y7977410D01*
D02*
G37*
G36*
X8521358Y8290116D02*
Y8256006D01*
X8198994Y7933642D01*
X8077752D01*
X8075226Y7946342D01*
X8091381Y7953034D01*
X8106966Y7968619D01*
X8115400Y7988980D01*
Y8011020D01*
X8106966Y8031381D01*
X8094690Y8043658D01*
X8099369Y8056358D01*
X8255000D01*
X8269788Y8059299D01*
X8282324Y8067676D01*
X8509624Y8294976D01*
X8521358Y8290116D01*
D02*
G37*
G36*
X7457100Y7677100D02*
X7652900D01*
Y7678095D01*
X7665600Y7683356D01*
X7720277Y7628678D01*
X7714902Y7616093D01*
X7652900D01*
Y7632900D01*
X7457100D01*
Y7616093D01*
X7377900D01*
Y7642300D01*
X7325000D01*
Y7667700D01*
X7377900D01*
Y7693907D01*
X7457100D01*
Y7677100D01*
D02*
G37*
G36*
X7760277Y7488679D02*
X7754902Y7476094D01*
X7652900D01*
Y7492900D01*
X7457100D01*
Y7476094D01*
X7391400D01*
Y7497300D01*
X7330000D01*
Y7522700D01*
X7391400D01*
Y7543907D01*
X7457100D01*
Y7527100D01*
X7652900D01*
Y7543907D01*
X7705049D01*
X7760277Y7488679D01*
D02*
G37*
G36*
X7497949Y6545000D02*
Y6258051D01*
X6786051D01*
Y6574600D01*
X6803441D01*
X6811927Y6561900D01*
X6810500Y6558454D01*
Y6541546D01*
X6816970Y6525926D01*
X6828926Y6513970D01*
X6844546Y6507500D01*
X6861454D01*
X6877074Y6513970D01*
X6889030Y6525926D01*
X6895500Y6541546D01*
Y6558454D01*
X6894073Y6561900D01*
X6902559Y6574600D01*
X7009229D01*
X7015836Y6563664D01*
X7016041Y6561900D01*
X7013507Y6549160D01*
Y6490839D01*
X7016254Y6477027D01*
X7024078Y6465318D01*
X7065318Y6424078D01*
X7077027Y6416254D01*
X7090840Y6413507D01*
X7149160D01*
X7162973Y6416254D01*
X7174682Y6424078D01*
X7215922Y6465318D01*
X7220910Y6472782D01*
X7235529Y6476123D01*
X7238618Y6473034D01*
X7258980Y6464600D01*
X7281020D01*
X7301381Y6473034D01*
X7316966Y6488618D01*
X7325400Y6508980D01*
Y6531020D01*
X7316966Y6551381D01*
X7306447Y6561900D01*
X7311707Y6574600D01*
X7381441D01*
X7389927Y6561900D01*
X7388500Y6558454D01*
Y6541546D01*
X7394970Y6525926D01*
X7406925Y6513970D01*
X7422546Y6507500D01*
X7439454D01*
X7455074Y6513970D01*
X7467030Y6525926D01*
X7473500Y6541546D01*
Y6558454D01*
X7472072Y6561900D01*
X7480559Y6574600D01*
X7497949D01*
Y6545000D01*
D02*
G37*
%LPC*%
G36*
X8257236Y14775000D02*
X8222764D01*
X8188954Y14768275D01*
X8157106Y14755083D01*
X8128444Y14735931D01*
X8104069Y14711555D01*
X8084917Y14682893D01*
X8071725Y14651047D01*
X8065000Y14617236D01*
Y14582764D01*
X8071725Y14548953D01*
X8084917Y14517107D01*
X8104069Y14488445D01*
X8128444Y14464069D01*
X8157106Y14444917D01*
X8188954Y14431725D01*
X8222764Y14425000D01*
X8257236D01*
X8291046Y14431725D01*
X8322894Y14444917D01*
X8351556Y14464069D01*
X8375931Y14488445D01*
X8395083Y14517107D01*
X8408275Y14548953D01*
X8415000Y14582764D01*
Y14617236D01*
X8408275Y14651047D01*
X8395083Y14682893D01*
X8375931Y14711555D01*
X8351556Y14735931D01*
X8322894Y14755083D01*
X8291046Y14768275D01*
X8257236Y14775000D01*
D02*
G37*
G36*
X6057235D02*
X6022763D01*
X5988953Y14768275D01*
X5957105Y14755083D01*
X5928443Y14735931D01*
X5904067Y14711555D01*
X5884916Y14682893D01*
X5871724Y14651047D01*
X5864999Y14617236D01*
Y14582764D01*
X5871724Y14548953D01*
X5884916Y14517107D01*
X5904067Y14488445D01*
X5928443Y14464069D01*
X5957105Y14444917D01*
X5988953Y14431725D01*
X6022763Y14425000D01*
X6057235D01*
X6091044Y14431725D01*
X6122892Y14444917D01*
X6151555Y14464069D01*
X6175930Y14488445D01*
X6195082Y14517107D01*
X6208273Y14548953D01*
X6214998Y14582764D01*
Y14617236D01*
X6208273Y14651047D01*
X6195082Y14682893D01*
X6175930Y14711555D01*
X6151555Y14735931D01*
X6122892Y14755083D01*
X6091044Y14768275D01*
X6057235Y14775000D01*
D02*
G37*
G36*
X6855000Y14240898D02*
X6671152D01*
X6670804Y14240828D01*
X6670454Y14240887D01*
X6665861Y14239845D01*
X6661241Y14238927D01*
X6660946Y14238728D01*
X6660600Y14238651D01*
X6656758Y14235930D01*
X6652840Y14233311D01*
X6652642Y14233017D01*
X6652353Y14232812D01*
X6562145Y14137604D01*
X6559636Y14133621D01*
X6557018Y14129703D01*
X6556948Y14129353D01*
X6556759Y14129054D01*
X6555966Y14124413D01*
X6555046Y14119792D01*
X6555116Y14119444D01*
X6555056Y14119093D01*
X6556099Y14114500D01*
X6557018Y14109882D01*
X6557215Y14109586D01*
X6557293Y14109241D01*
X6560014Y14105397D01*
X6562632Y14101480D01*
X6619324Y14044788D01*
X6474768Y13900232D01*
X6464734Y13885214D01*
X6461210Y13867500D01*
X6461211Y13867499D01*
Y13115401D01*
X6437100D01*
Y13111290D01*
X6337502D01*
X6337500Y13111290D01*
X6319786Y13107767D01*
X6304769Y13097733D01*
X6304768Y13097731D01*
X6257437Y13050400D01*
X6182100D01*
Y12949600D01*
X6322900D01*
Y12984937D01*
X6356674Y13018710D01*
X6437100D01*
Y13014600D01*
X6577900D01*
Y13115401D01*
X6553790D01*
Y13332748D01*
X6566490Y13337810D01*
X6652353Y13247188D01*
X6652642Y13246983D01*
X6652840Y13246687D01*
X6656758Y13244070D01*
X6660600Y13241348D01*
X6660946Y13241270D01*
X6661241Y13241074D01*
X6665861Y13240155D01*
X6670454Y13239111D01*
X6670804Y13239172D01*
X6671152Y13239102D01*
X6855000D01*
X6864911Y13241074D01*
X6873312Y13246687D01*
X6878926Y13255089D01*
X6880898Y13264999D01*
Y13448848D01*
X6879979Y13453464D01*
X6879185Y13458110D01*
X6878995Y13458411D01*
X6878926Y13458759D01*
X6876310Y13462674D01*
X6873799Y13466660D01*
X6783591Y13561868D01*
X6783302Y13562073D01*
X6783104Y13562367D01*
X6779186Y13564986D01*
X6775344Y13567706D01*
X6774998Y13567786D01*
X6774702Y13567982D01*
X6770083Y13568901D01*
X6765490Y13569943D01*
X6765140Y13569884D01*
X6764792Y13569954D01*
X6760171Y13569034D01*
X6755530Y13568240D01*
X6755230Y13568053D01*
X6754881Y13567982D01*
X6750963Y13565364D01*
X6746980Y13562856D01*
X6746775Y13562566D01*
X6746480Y13562367D01*
X6693403Y13509293D01*
X6680947Y13511771D01*
X6676966Y13521381D01*
X6661381Y13536966D01*
X6641020Y13545399D01*
X6618980D01*
X6598619Y13536966D01*
X6583034Y13521381D01*
X6574600Y13501019D01*
Y13478979D01*
X6583034Y13458618D01*
X6598619Y13443034D01*
X6608230Y13439053D01*
X6610708Y13426598D01*
X6566490Y13382378D01*
X6553790Y13387639D01*
Y13848326D01*
X6684787Y13979324D01*
X6746480Y13917632D01*
X6746775Y13917435D01*
X6746980Y13917145D01*
X6750966Y13914635D01*
X6754881Y13912018D01*
X6755229Y13911949D01*
X6755530Y13911758D01*
X6760176Y13910965D01*
X6764792Y13910046D01*
X6765140Y13910117D01*
X6765490Y13910056D01*
X6770083Y13911099D01*
X6774702Y13912018D01*
X6774998Y13912215D01*
X6775344Y13912292D01*
X6779186Y13915015D01*
X6783104Y13917632D01*
X6783302Y13917928D01*
X6783591Y13918132D01*
X6873799Y14013341D01*
X6876308Y14017323D01*
X6878926Y14021242D01*
X6878996Y14021590D01*
X6879185Y14021890D01*
X6879978Y14026530D01*
X6880898Y14031152D01*
Y14214999D01*
X6878926Y14224911D01*
X6873312Y14233311D01*
X6864911Y14238927D01*
X6855000Y14240898D01*
D02*
G37*
G36*
X7397400Y14265401D02*
X7304699D01*
Y14102699D01*
X7397400D01*
Y14265401D01*
D02*
G37*
G36*
X7905400D02*
X7812699D01*
Y14102699D01*
X7905400D01*
Y14265401D01*
D02*
G37*
G36*
X7279299D02*
X7186600D01*
Y14102699D01*
X7279299D01*
Y14265401D01*
D02*
G37*
G36*
X7787299D02*
X7694600D01*
Y14102699D01*
X7787299D01*
Y14265401D01*
D02*
G37*
G36*
X7905400Y14077299D02*
X7812699D01*
Y13914600D01*
X7905400D01*
Y14077299D01*
D02*
G37*
G36*
X7787299D02*
X7694600D01*
Y13914600D01*
X7787299D01*
Y14077299D01*
D02*
G37*
G36*
X7397400D02*
X7304699D01*
Y13914600D01*
X7397400D01*
Y14077299D01*
D02*
G37*
G36*
X7279299D02*
X7186600D01*
Y13914600D01*
X7279299D01*
Y14077299D01*
D02*
G37*
G36*
X6088848Y14240898D02*
X5905000D01*
X5895089Y14238927D01*
X5886687Y14233311D01*
X5881074Y14224911D01*
X5879102Y14214999D01*
Y14031152D01*
X5880020Y14026537D01*
X5880815Y14021890D01*
X5881004Y14021590D01*
X5881074Y14021242D01*
X5883690Y14017326D01*
X5886201Y14013341D01*
X5976409Y13918132D01*
X5976698Y13917928D01*
X5976896Y13917632D01*
X5980814Y13915015D01*
X5984656Y13912292D01*
X5985002Y13912215D01*
X5985297Y13912018D01*
X5989917Y13911099D01*
X5994510Y13910056D01*
X5994860Y13910117D01*
X5995208Y13910046D01*
X5999829Y13910966D01*
X6004470Y13911758D01*
X6004770Y13911948D01*
X6005119Y13912018D01*
X6009037Y13914636D01*
X6013020Y13917145D01*
X6013225Y13917435D01*
X6013520Y13917632D01*
X6197368Y14101480D01*
X6199986Y14105397D01*
X6202706Y14109241D01*
X6202785Y14109586D01*
X6202982Y14109882D01*
X6203901Y14114500D01*
X6204944Y14119093D01*
X6204884Y14119444D01*
X6204954Y14119792D01*
X6204035Y14124408D01*
X6203241Y14129054D01*
X6203051Y14129355D01*
X6202982Y14129703D01*
X6200366Y14133618D01*
X6197855Y14137604D01*
X6107647Y14232812D01*
X6107358Y14233017D01*
X6107160Y14233311D01*
X6103242Y14235930D01*
X6099400Y14238651D01*
X6099054Y14238728D01*
X6098758Y14238927D01*
X6094139Y14239845D01*
X6089546Y14240887D01*
X6089196Y14240828D01*
X6088848Y14240898D01*
D02*
G37*
G36*
X5995208Y13569954D02*
X5994672Y13569847D01*
X5994132Y13569931D01*
X5989734Y13568864D01*
X5985297Y13567982D01*
X5984843Y13567677D01*
X5984312Y13567551D01*
X5980659Y13564883D01*
X5976896Y13562367D01*
X5976592Y13561914D01*
X5976150Y13561591D01*
X5860942Y13436383D01*
X5858587Y13432521D01*
X5856074Y13428758D01*
X5855967Y13428223D01*
X5855682Y13427756D01*
X5854985Y13423285D01*
X5854102Y13418848D01*
X5854209Y13418312D01*
X5854125Y13417772D01*
X5855191Y13413374D01*
X5856074Y13408937D01*
X5856377Y13408482D01*
X5856506Y13407951D01*
X5859173Y13404298D01*
X5861688Y13400536D01*
X6045536Y13216689D01*
X6045991Y13216383D01*
X6046313Y13215942D01*
X6050172Y13213589D01*
X6053937Y13211073D01*
X6054474Y13210966D01*
X6054940Y13210683D01*
X6059410Y13209985D01*
X6063848Y13209102D01*
X6064384Y13209209D01*
X6064924Y13209125D01*
X6069322Y13210191D01*
X6073758Y13211073D01*
X6074213Y13211377D01*
X6074744Y13211507D01*
X6078397Y13214172D01*
X6082160Y13216689D01*
X6082464Y13217142D01*
X6082906Y13217465D01*
X6198114Y13342673D01*
X6200468Y13346535D01*
X6202982Y13350298D01*
X6203089Y13350835D01*
X6203373Y13351300D01*
X6204071Y13355771D01*
X6204954Y13360208D01*
X6204847Y13360744D01*
X6204931Y13361284D01*
X6203865Y13365681D01*
X6202982Y13370119D01*
X6202678Y13370573D01*
X6202550Y13371104D01*
X6199883Y13374757D01*
X6197368Y13378520D01*
X6110400Y13465489D01*
Y13470399D01*
X6105489D01*
X6013520Y13562367D01*
X6013065Y13562672D01*
X6012743Y13563113D01*
X6008884Y13565466D01*
X6005119Y13567982D01*
X6004582Y13568089D01*
X6004115Y13568373D01*
X5999646Y13569070D01*
X5995208Y13569954D01*
D02*
G37*
G36*
X6851020Y13055400D02*
X6828980D01*
X6815600Y13049858D01*
X6802900Y13050400D01*
Y13050400D01*
X6662100D01*
Y12949600D01*
X6802900D01*
X6802900Y12949600D01*
X6815600Y12950142D01*
X6828980Y12944600D01*
X6851020D01*
X6871381Y12953033D01*
X6886966Y12968617D01*
X6895400Y12988980D01*
Y13011020D01*
X6886966Y13031381D01*
X6871381Y13046967D01*
X6851020Y13055400D01*
D02*
G37*
G36*
X6097900Y12985400D02*
X6040200D01*
Y12947701D01*
X6097900D01*
Y12985400D01*
D02*
G37*
G36*
X6577900D02*
X6437100D01*
Y12884599D01*
X6577900D01*
Y12985400D01*
D02*
G37*
G36*
X6097900Y12922301D02*
X6040200D01*
Y12884599D01*
X6097900D01*
Y12922301D01*
D02*
G37*
G36*
Y13115401D02*
X5957100D01*
Y13080064D01*
X5847268Y12970232D01*
X5837234Y12955214D01*
X5833710Y12937500D01*
X5833710Y12937498D01*
Y12827901D01*
X5827100D01*
Y12722100D01*
Y12632100D01*
X5932899D01*
Y12632100D01*
X5937101D01*
Y12632100D01*
X6042900D01*
Y12648858D01*
X6742795D01*
X6748618Y12643034D01*
X6768980Y12634600D01*
X6791020D01*
X6811381Y12643034D01*
X6826966Y12658619D01*
X6835400Y12678980D01*
Y12701020D01*
X6826966Y12721381D01*
X6811381Y12736966D01*
X6791020Y12745400D01*
X6768980D01*
X6748618Y12736966D01*
X6737795Y12726142D01*
X6042900D01*
Y12762300D01*
X5989999D01*
Y12775000D01*
X5977299D01*
Y12827901D01*
X5937100D01*
X5937100Y12827901D01*
X5926289Y12832462D01*
Y12918326D01*
X5945367Y12937404D01*
X5957100Y12932542D01*
Y12884599D01*
X6014800D01*
Y12935001D01*
Y12985400D01*
X6009957D01*
X6005096Y12997133D01*
X6022563Y13014600D01*
X6097900D01*
Y13115401D01*
D02*
G37*
G36*
X6042900Y12827901D02*
X6002699D01*
Y12787700D01*
X6042900D01*
Y12827901D01*
D02*
G37*
G36*
X6210400Y12505400D02*
X6122700D01*
Y12392700D01*
X6210400D01*
Y12505400D01*
D02*
G37*
G36*
X6097300D02*
X6009600D01*
Y12392700D01*
X6097300D01*
Y12505400D01*
D02*
G37*
G36*
X6210400Y12367300D02*
X6122700D01*
Y12254600D01*
X6210400D01*
Y12367300D01*
D02*
G37*
G36*
X6097300D02*
X6009600D01*
Y12254600D01*
X6097300D01*
Y12367300D01*
D02*
G37*
G36*
X6750400Y12505400D02*
X6549600D01*
Y12254600D01*
X6588795D01*
X6595851Y12244040D01*
X6594600Y12241020D01*
Y12218980D01*
X6603034Y12198618D01*
X6618618Y12183034D01*
X6638980Y12174600D01*
X6661020D01*
X6681381Y12183034D01*
X6696966Y12198618D01*
X6705400Y12218980D01*
Y12241020D01*
X6704149Y12244040D01*
X6711205Y12254600D01*
X6750400D01*
Y12505400D01*
D02*
G37*
G36*
X7565400Y11625400D02*
X7472700D01*
Y11462700D01*
X7565400D01*
Y11625400D01*
D02*
G37*
G36*
X7447300D02*
X7354600D01*
Y11462700D01*
X7447300D01*
Y11625400D01*
D02*
G37*
G36*
X6497299Y11382900D02*
X6457100D01*
Y11342700D01*
X6497299D01*
Y11382900D01*
D02*
G37*
G36*
Y11317300D02*
X6457100D01*
Y11277100D01*
X6497299D01*
Y11317300D01*
D02*
G37*
G36*
X7565400Y11437300D02*
X7472700D01*
Y11274600D01*
X7565400D01*
Y11437300D01*
D02*
G37*
G36*
X7447300D02*
X7354600D01*
Y11274600D01*
X7447300D01*
Y11437300D01*
D02*
G37*
G36*
X7819400Y11625400D02*
X7608600D01*
Y11274600D01*
X7660621D01*
X7669107Y11261900D01*
X7664600Y11251020D01*
Y11228980D01*
X7673034Y11208619D01*
X7688619Y11193034D01*
X7708980Y11184600D01*
X7731020D01*
X7751382Y11193034D01*
X7766966Y11208619D01*
X7775400Y11228980D01*
Y11251020D01*
X7770893Y11261900D01*
X7779379Y11274600D01*
X7819400D01*
Y11625400D01*
D02*
G37*
G36*
X6750400Y11685400D02*
X6549600D01*
Y11434600D01*
X6553711D01*
Y11382900D01*
X6522699D01*
Y11330000D01*
Y11277100D01*
X6652900D01*
Y11283710D01*
X6668600D01*
Y11268600D01*
X6670452D01*
X6677508Y11258040D01*
X6674600Y11251020D01*
Y11228980D01*
X6683034Y11208619D01*
X6698619Y11193034D01*
X6718980Y11184600D01*
X6741020D01*
X6761381Y11193034D01*
X6776966Y11208619D01*
X6785400Y11228980D01*
Y11251020D01*
X6782492Y11258040D01*
X6789548Y11268600D01*
X6891400D01*
Y11269535D01*
X6898980Y11274600D01*
X6921020D01*
X6941381Y11283034D01*
X6956966Y11298618D01*
X6965400Y11318980D01*
Y11341020D01*
X6956966Y11361381D01*
X6941381Y11376966D01*
X6921020Y11385400D01*
X6898980D01*
X6891400Y11390465D01*
Y11391400D01*
X6668600D01*
Y11376289D01*
X6652900D01*
Y11382900D01*
X6646289D01*
Y11434600D01*
X6750400D01*
Y11685400D01*
D02*
G37*
G36*
X8327400Y11625400D02*
X8116600D01*
Y11274600D01*
X8168292D01*
X8173553Y11261900D01*
X8173034Y11261381D01*
X8164600Y11241020D01*
Y11218980D01*
X8173034Y11198618D01*
X8188619Y11183034D01*
X8208980Y11174600D01*
X8231020D01*
X8251382Y11183034D01*
X8266966Y11198618D01*
X8275400Y11218980D01*
Y11241020D01*
X8266966Y11261381D01*
X8266447Y11261900D01*
X8271708Y11274600D01*
X8327400D01*
Y11625400D01*
D02*
G37*
G36*
X6121935Y11260000D02*
X6098065D01*
X6076013Y11250865D01*
X6059134Y11233987D01*
X6050000Y11211935D01*
Y11188065D01*
X6059134Y11166013D01*
X6076013Y11149134D01*
X6098065Y11140000D01*
X6121935D01*
X6143987Y11149134D01*
X6160866Y11166013D01*
X6170000Y11188065D01*
Y11211935D01*
X6160866Y11233987D01*
X6143987Y11250865D01*
X6121935Y11260000D01*
D02*
G37*
G36*
X7411400Y11161400D02*
X7362700D01*
Y11112700D01*
X7411400D01*
Y11161400D01*
D02*
G37*
G36*
X6877300Y11197900D02*
X6799600D01*
Y11112700D01*
X6877300D01*
Y11197900D01*
D02*
G37*
G36*
X6481020Y11195400D02*
X6458980D01*
X6438619Y11186966D01*
X6423034Y11171382D01*
X6414600Y11151020D01*
Y11128980D01*
X6423034Y11108619D01*
X6438619Y11093034D01*
X6458980Y11084600D01*
X6480222D01*
X6494663Y11070159D01*
X6494600Y11069927D01*
Y11050073D01*
X6499738Y11030897D01*
X6509665Y11013703D01*
X6523703Y10999665D01*
X6540897Y10989738D01*
X6560073Y10984600D01*
X6579927D01*
X6599103Y10989738D01*
X6616297Y10999665D01*
X6630335Y11013703D01*
X6640262Y11030897D01*
X6645400Y11050073D01*
Y11069927D01*
X6640262Y11089103D01*
X6630335Y11106297D01*
X6616297Y11120335D01*
X6599103Y11130262D01*
X6579927Y11135400D01*
X6560073D01*
X6543232Y11130887D01*
X6525400Y11148719D01*
Y11151020D01*
X6516966Y11171382D01*
X6501381Y11186966D01*
X6481020Y11195400D01*
D02*
G37*
%LPD*%
G36*
X6855000Y14031152D02*
X6764792Y13935944D01*
X6580944Y14119792D01*
X6671152Y14214999D01*
X6855000D01*
Y14031152D01*
D02*
G37*
G36*
Y13448848D02*
Y13264999D01*
X6671152D01*
X6580944Y13360208D01*
X6764792Y13544057D01*
X6855000Y13448848D01*
D02*
G37*
G36*
X6179056Y14119792D02*
X5995208Y13935944D01*
X5905000Y14031152D01*
Y14214999D01*
X6088848D01*
X6179056Y14119792D01*
D02*
G37*
G36*
Y13360208D02*
X6063848Y13235001D01*
X5880000Y13418848D01*
X5995208Y13544057D01*
X6179056Y13360208D01*
D02*
G37*
%LPC*%
G36*
X6897300Y10711400D02*
X6848600D01*
Y10662701D01*
X6897300D01*
Y10711400D01*
D02*
G37*
G36*
X8267300Y10840400D02*
X8182100D01*
Y10762700D01*
X8267300D01*
Y10840400D01*
D02*
G37*
G36*
X8121400Y10731400D02*
X8072700D01*
Y10682700D01*
X8121400D01*
Y10731400D01*
D02*
G37*
G36*
X8047300D02*
X7998600D01*
Y10682700D01*
X8047300D01*
Y10731400D01*
D02*
G37*
G36*
X8377900Y10217301D02*
X8292699D01*
Y10139600D01*
X8377900D01*
Y10217301D01*
D02*
G37*
G36*
X6502300Y10332900D02*
X6462100D01*
Y10292700D01*
X6502300D01*
Y10332900D01*
D02*
G37*
G36*
X6477299Y9567300D02*
X6437100D01*
Y9527100D01*
X6477299D01*
Y9567300D01*
D02*
G37*
G36*
X6330000Y9271051D02*
X6230000D01*
X6210316Y9268459D01*
X6191974Y9260862D01*
X6176224Y9248776D01*
X6164138Y9233025D01*
X6156540Y9214684D01*
X6156405Y9213653D01*
X6143595D01*
X6143459Y9214684D01*
X6135862Y9233025D01*
X6123776Y9248776D01*
X6108025Y9260862D01*
X6089684Y9268459D01*
X6070000Y9271051D01*
X6032700D01*
Y9070000D01*
Y8868949D01*
X6070000D01*
X6089684Y8871540D01*
X6108025Y8879138D01*
X6123776Y8891224D01*
X6135862Y8906974D01*
X6143459Y8925316D01*
X6143595Y8926347D01*
X6156405D01*
X6156540Y8925316D01*
X6164138Y8906974D01*
X6176224Y8891224D01*
X6191974Y8879138D01*
X6210316Y8871540D01*
X6213710Y8871094D01*
Y8834173D01*
X6191053Y8811516D01*
X6183518Y8806482D01*
X6183518Y8806481D01*
X6134937Y8757900D01*
X5962700D01*
Y8660000D01*
Y8562100D01*
X6038311D01*
Y8462402D01*
X6038311Y8462400D01*
X6041834Y8444686D01*
X6051869Y8429669D01*
X6131211Y8350327D01*
Y8349500D01*
X6134734Y8331786D01*
X6139600Y8324503D01*
Y8276600D01*
X6164600D01*
Y8222701D01*
X6290000D01*
X6415400D01*
Y8276600D01*
X6440400D01*
Y8336800D01*
X6402500D01*
Y8362200D01*
X6440400D01*
Y8422400D01*
X6396142D01*
Y8501494D01*
X6411748Y8517100D01*
X6462900D01*
Y8607100D01*
Y8647300D01*
X6410000D01*
X6357100D01*
Y8583374D01*
X6355600Y8582371D01*
X6342900Y8589160D01*
Y8647300D01*
X6290000D01*
Y8660000D01*
X6277300D01*
Y8712900D01*
X6238823D01*
X6231062Y8723099D01*
X6243947Y8735984D01*
X6251482Y8741018D01*
X6292730Y8782267D01*
X6292731Y8782268D01*
X6302765Y8797285D01*
X6306289Y8814999D01*
X6306289Y8815001D01*
Y8868949D01*
X6330000D01*
X6349684Y8871540D01*
X6368025Y8879138D01*
X6383776Y8891224D01*
X6395862Y8906974D01*
X6403459Y8925316D01*
X6406051Y8945000D01*
Y9195000D01*
X6403459Y9214684D01*
X6395862Y9233025D01*
X6383776Y9248776D01*
X6368025Y9260862D01*
X6349684Y9268459D01*
X6330000Y9271051D01*
D02*
G37*
G36*
X6007300D02*
X5970000D01*
X5950316Y9268459D01*
X5931974Y9260862D01*
X5916224Y9248776D01*
X5904138Y9233025D01*
X5896540Y9214684D01*
X5893949Y9195000D01*
Y9082700D01*
X6007300D01*
Y9271051D01*
D02*
G37*
G36*
Y9057300D02*
X5893949D01*
Y8945000D01*
X5896540Y8925316D01*
X5904138Y8906974D01*
X5916224Y8891224D01*
X5931974Y8879138D01*
X5950316Y8871540D01*
X5970000Y8868949D01*
X6007300D01*
Y9057300D01*
D02*
G37*
G36*
X6342900Y8712900D02*
X6302700D01*
Y8672700D01*
X6342900D01*
Y8712900D01*
D02*
G37*
G36*
X6462900D02*
X6422700D01*
Y8672700D01*
X6462900D01*
Y8712900D01*
D02*
G37*
G36*
X5937300Y8757900D02*
X5859600D01*
Y8672700D01*
X5937300D01*
Y8757900D01*
D02*
G37*
G36*
X6397300Y8712900D02*
X6357100D01*
Y8672700D01*
X6397300D01*
Y8712900D01*
D02*
G37*
G36*
X5937300Y8647300D02*
X5859600D01*
Y8562100D01*
X5937300D01*
Y8647300D01*
D02*
G37*
G36*
X6047900Y8380400D02*
X5962700D01*
Y8302700D01*
X6047900D01*
Y8380400D01*
D02*
G37*
G36*
X5937300D02*
X5852100D01*
Y8302700D01*
X5937300D01*
Y8380400D01*
D02*
G37*
G36*
X5937300Y7857900D02*
X5859600D01*
Y7772700D01*
X5937300D01*
Y7857900D01*
D02*
G37*
G36*
Y7747300D02*
X5859600D01*
Y7662100D01*
X5937300D01*
Y7747300D01*
D02*
G37*
G36*
X6265400Y7536900D02*
X6062700D01*
Y7422700D01*
X6265400D01*
Y7536900D01*
D02*
G37*
G36*
X6037300D02*
X5834600D01*
Y7422700D01*
X6037300D01*
Y7536900D01*
D02*
G37*
G36*
X6265400Y7397300D02*
X6062700D01*
Y7283100D01*
X6265400D01*
Y7397300D01*
D02*
G37*
G36*
X6037300D02*
X5834600D01*
Y7283100D01*
X6037300D01*
Y7397300D01*
D02*
G37*
G36*
X7312900Y7007900D02*
X7272700D01*
Y6967700D01*
X7312900D01*
Y7007900D01*
D02*
G37*
G36*
X7247300D02*
X7207100D01*
Y6967700D01*
X7247300D01*
Y7007900D01*
D02*
G37*
G36*
X6265400Y7236900D02*
X5834600D01*
Y6983100D01*
X5989999D01*
X5998486Y6970400D01*
X5994600Y6961020D01*
Y6938980D01*
X6003034Y6918619D01*
X6018619Y6903034D01*
X6038980Y6894600D01*
X6061020D01*
X6081382Y6903034D01*
X6096966Y6918619D01*
X6105400Y6938980D01*
Y6961020D01*
X6101515Y6970400D01*
X6110001Y6983100D01*
X6265400D01*
Y7236900D01*
D02*
G37*
G36*
X6822300Y6867300D02*
X6782100D01*
Y6827100D01*
X6822300D01*
Y6867300D01*
D02*
G37*
G36*
X8055000Y7050898D02*
X7860000D01*
X7850089Y7048926D01*
X7841688Y7043312D01*
X7836074Y7034910D01*
X7834102Y7025000D01*
Y6815000D01*
X7836074Y6805089D01*
X7841688Y6796687D01*
X7850089Y6791074D01*
X7860000Y6789102D01*
X8020000D01*
X8029911Y6791074D01*
X8038312Y6796687D01*
X8043926Y6805089D01*
X8045898Y6815000D01*
Y6869102D01*
X8055000D01*
X8064910Y6871074D01*
X8073312Y6876688D01*
X8078926Y6885089D01*
X8080897Y6895000D01*
Y7025000D01*
X8078926Y7034910D01*
X8073312Y7043312D01*
X8064910Y7048926D01*
X8055000Y7050898D01*
D02*
G37*
G36*
X6585400Y6630400D02*
X6482700D01*
Y6552700D01*
X6585400D01*
Y6630400D01*
D02*
G37*
G36*
X6457300D02*
X6354600D01*
Y6552700D01*
X6457300D01*
Y6630400D01*
D02*
G37*
G36*
X6585400Y6527300D02*
X6482700D01*
Y6449600D01*
X6585400D01*
Y6527300D01*
D02*
G37*
G36*
X6457300D02*
X6354600D01*
Y6449600D01*
X6457300D01*
Y6527300D01*
D02*
G37*
G36*
X8257236Y6575000D02*
X8222764D01*
X8188954Y6568275D01*
X8157106Y6555083D01*
X8128444Y6535931D01*
X8104069Y6511556D01*
X8084917Y6482894D01*
X8071725Y6451046D01*
X8065000Y6417236D01*
Y6382764D01*
X8071725Y6348954D01*
X8084917Y6317106D01*
X8104069Y6288444D01*
X8128444Y6264068D01*
X8157106Y6244917D01*
X8188954Y6231725D01*
X8222764Y6225000D01*
X8257236D01*
X8291046Y6231725D01*
X8322894Y6244917D01*
X8351556Y6264068D01*
X8375931Y6288444D01*
X8395083Y6317106D01*
X8408275Y6348954D01*
X8415000Y6382764D01*
Y6417236D01*
X8408275Y6451046D01*
X8395083Y6482894D01*
X8375931Y6511556D01*
X8351556Y6535931D01*
X8322894Y6555083D01*
X8291046Y6568275D01*
X8257236Y6575000D01*
D02*
G37*
G36*
X6057236D02*
X6022764D01*
X5988954Y6568275D01*
X5957106Y6555083D01*
X5928444Y6535931D01*
X5904068Y6511556D01*
X5884917Y6482894D01*
X5871725Y6451046D01*
X5865000Y6417236D01*
Y6382764D01*
X5871725Y6348954D01*
X5884917Y6317106D01*
X5904068Y6288444D01*
X5928444Y6264068D01*
X5957106Y6244917D01*
X5988954Y6231725D01*
X6022764Y6225000D01*
X6057236D01*
X6091045Y6231725D01*
X6122894Y6244917D01*
X6151556Y6264068D01*
X6175931Y6288444D01*
X6195083Y6317106D01*
X6208275Y6348954D01*
X6215000Y6382764D01*
Y6417236D01*
X6208275Y6451046D01*
X6195083Y6482894D01*
X6175931Y6511556D01*
X6151556Y6535931D01*
X6122894Y6555083D01*
X6091045Y6568275D01*
X6057236Y6575000D01*
D02*
G37*
%LPD*%
G36*
X8055000Y6895000D02*
X8020000D01*
Y6815000D01*
X7860000D01*
Y7025000D01*
X8055000D01*
Y6895000D01*
D02*
G37*
%LPC*%
G36*
X7350400Y8995400D02*
X7302700D01*
Y8957700D01*
X7350400D01*
Y8995400D01*
D02*
G37*
G36*
X7277300D02*
X7229600D01*
Y8957700D01*
X7277300D01*
Y8995400D01*
D02*
G37*
G36*
X7650400D02*
X7602700D01*
Y8957700D01*
X7650400D01*
Y8995400D01*
D02*
G37*
G36*
X7577300D02*
X7529600D01*
Y8957700D01*
X7577300D01*
Y8995400D01*
D02*
G37*
G36*
X7050400D02*
X7002699D01*
Y8957700D01*
X7050400D01*
Y8995400D01*
D02*
G37*
G36*
X6977299D02*
X6929600D01*
Y8957700D01*
X6977299D01*
Y8995400D01*
D02*
G37*
G36*
X8020000Y9100897D02*
X7860000D01*
X7850089Y9098926D01*
X7841688Y9093312D01*
X7836074Y9084910D01*
X7834102Y9075000D01*
Y8865000D01*
X7836074Y8855089D01*
X7841688Y8846687D01*
X7850089Y8841074D01*
X7860000Y8839102D01*
X8055000D01*
X8064910Y8841074D01*
X8073312Y8846687D01*
X8078926Y8855089D01*
X8080897Y8865000D01*
Y8995000D01*
X8078926Y9004910D01*
X8073312Y9013312D01*
X8064910Y9018926D01*
X8055000Y9020897D01*
X8045898D01*
Y9075000D01*
X8043926Y9084910D01*
X8038312Y9093312D01*
X8029911Y9098926D01*
X8020000Y9100897D01*
D02*
G37*
G36*
X7925400Y8735400D02*
X7764600D01*
Y8654600D01*
X7925400D01*
Y8735400D01*
D02*
G37*
%LPD*%
G36*
X8020000Y8995000D02*
X8055000D01*
Y8865000D01*
X7860000D01*
Y9075000D01*
X8020000D01*
Y8995000D01*
D02*
G37*
%LPC*%
G36*
X7037300Y9687300D02*
X6988600D01*
Y9638600D01*
X7037300D01*
Y9687300D01*
D02*
G37*
G36*
X7457892Y9362893D02*
X7395191D01*
Y9305193D01*
X7457892D01*
Y9362893D01*
D02*
G37*
G36*
X7369791D02*
X7307092D01*
Y9305193D01*
X7369791D01*
Y9362893D01*
D02*
G37*
G36*
X7081400Y9337300D02*
X7032700D01*
Y9288600D01*
X7081400D01*
Y9337300D01*
D02*
G37*
G36*
X7007300D02*
X6958600D01*
Y9288600D01*
X7007300D01*
Y9337300D01*
D02*
G37*
G36*
X6937900Y9277300D02*
X6852701D01*
Y9199600D01*
X6937900D01*
Y9277300D01*
D02*
G37*
G36*
X7427900Y8085400D02*
X7287100D01*
Y7984600D01*
X7427900D01*
Y8085400D01*
D02*
G37*
%LPD*%
D10*
X7325000Y7655000D02*
D03*
X7235000D02*
D03*
X6605000Y10280000D02*
D03*
X6515000D02*
D03*
X6515000Y10040000D02*
D03*
X6605000D02*
D03*
X7095000Y8190000D02*
D03*
X7185000D02*
D03*
X6925000Y6880000D02*
D03*
X6835000D02*
D03*
X6640000Y8670000D02*
D03*
X6730000D02*
D03*
X6510000Y11330000D02*
D03*
X6600000D02*
D03*
X7325000Y7365000D02*
D03*
X7235000D02*
D03*
X7510000Y7870000D02*
D03*
X7600000D02*
D03*
X7510000Y7730000D02*
D03*
X7600000D02*
D03*
X7510000Y7580000D02*
D03*
X7600000D02*
D03*
X7510000Y7440000D02*
D03*
X7600000D02*
D03*
X7510000Y7290000D02*
D03*
X7600000D02*
D03*
X7510000Y7150000D02*
D03*
X7600000D02*
D03*
D11*
X6970000Y7622000D02*
D03*
Y7450000D02*
D03*
Y7912000D02*
D03*
Y7740000D02*
D03*
Y7332000D02*
D03*
Y7160000D02*
D03*
D12*
X7033750Y7611000D02*
D03*
Y7461000D02*
D03*
X6906250D02*
D03*
Y7611000D02*
D03*
X7033750Y7901000D02*
D03*
Y7751000D02*
D03*
X6906250D02*
D03*
Y7901000D02*
D03*
X7033750Y7321000D02*
D03*
Y7171000D02*
D03*
X6906250D02*
D03*
Y7321000D02*
D03*
D13*
X7033750Y7561000D02*
D03*
Y7511000D02*
D03*
X6906250D02*
D03*
Y7561000D02*
D03*
X7033750Y7851000D02*
D03*
Y7801000D02*
D03*
X6906250D02*
D03*
Y7851000D02*
D03*
X7033750Y7271000D02*
D03*
Y7221000D02*
D03*
X6906250D02*
D03*
Y7271000D02*
D03*
D14*
X6177500Y8070500D02*
D03*
X6222500D02*
D03*
X6267500D02*
D03*
X6312500D02*
D03*
X6357500D02*
D03*
X6402500D02*
D03*
X6177500Y8349500D02*
D03*
X6222500D02*
D03*
X6267500D02*
D03*
X6312500D02*
D03*
X6357500D02*
D03*
X6402500D02*
D03*
D15*
X6290000Y8210000D02*
D03*
D16*
X6127500Y9545000D02*
D03*
Y9610000D02*
D03*
Y9675000D02*
D03*
X6352500D02*
D03*
Y9610000D02*
D03*
Y9545000D02*
D03*
X6352500Y10035000D02*
D03*
Y9970000D02*
D03*
Y9905000D02*
D03*
X6127500D02*
D03*
Y9970000D02*
D03*
Y10035000D02*
D03*
D17*
X7397500Y6975000D02*
D03*
Y6845000D02*
D03*
X7622500Y6910000D02*
D03*
X6352500Y10315000D02*
D03*
Y10445000D02*
D03*
X6127500Y10380000D02*
D03*
X7357500Y8165000D02*
D03*
Y8035000D02*
D03*
X7582500Y8100000D02*
D03*
X6507500Y13064999D02*
D03*
Y12935001D02*
D03*
X6732500Y13000000D02*
D03*
X6027500Y13064999D02*
D03*
Y12935001D02*
D03*
X6252500Y13000000D02*
D03*
D18*
X6330000Y7760000D02*
D03*
X6490000D02*
D03*
X5950000Y8660000D02*
D03*
X6110000D02*
D03*
X5950000Y7760000D02*
D03*
X6110000D02*
D03*
X6890000Y11100000D02*
D03*
X7050000D02*
D03*
D19*
X6050000Y7410000D02*
D03*
Y7110000D02*
D03*
D20*
X6630000Y8130000D02*
D03*
X6130000Y9390000D02*
D03*
X6600000Y9910000D02*
D03*
X6570000Y11060000D02*
D03*
X7620000Y11040000D02*
D03*
D21*
X6615000Y7457500D02*
D03*
X6520000D02*
D03*
X6425000D02*
D03*
Y7182500D02*
D03*
X6520000D02*
D03*
X6615000D02*
D03*
D22*
X6470000Y6540000D02*
D03*
Y6260000D02*
D03*
D23*
X5950000Y8290000D02*
D03*
Y8130000D02*
D03*
X6840000Y9290000D02*
D03*
Y9450000D02*
D03*
X8280000Y10230000D02*
D03*
Y10390000D02*
D03*
Y10750000D02*
D03*
Y10590000D02*
D03*
D24*
X6290000Y8660000D02*
D03*
Y8570000D02*
D03*
X6410000Y8660000D02*
D03*
Y8570000D02*
D03*
X6490000Y9670000D02*
D03*
Y9580000D02*
D03*
X5950000Y9540000D02*
D03*
Y9630000D02*
D03*
X7260000Y6865000D02*
D03*
Y6955000D02*
D03*
X6560000Y8945000D02*
D03*
Y8855000D02*
D03*
X7160000Y8945000D02*
D03*
Y8855000D02*
D03*
X6860000Y8945000D02*
D03*
Y8855000D02*
D03*
X7460000Y8945000D02*
D03*
Y8855000D02*
D03*
X5880000Y12775000D02*
D03*
Y12685000D02*
D03*
X5990000Y12775000D02*
D03*
Y12685000D02*
D03*
X7670000Y9685000D02*
D03*
Y9595000D02*
D03*
X6670000Y9450000D02*
D03*
Y9360000D02*
D03*
D25*
X7185000Y8050000D02*
D03*
X7095000D02*
D03*
D26*
X7462000Y6657500D02*
D03*
X6822000D02*
D03*
X7382000D02*
D03*
X6902000D02*
D03*
D27*
X7317000D02*
D03*
X7267000D02*
D03*
X7217000D02*
D03*
X7167000D02*
D03*
X7117000D02*
D03*
X7067000D02*
D03*
X7017000D02*
D03*
X6967000D02*
D03*
D28*
X6730000Y8500000D02*
D03*
X7550000D02*
D03*
D29*
X6690000Y8855000D02*
D03*
Y8945000D02*
D03*
X7590000Y8855000D02*
D03*
Y8945000D02*
D03*
X6990000Y8855000D02*
D03*
Y8945000D02*
D03*
X7290000Y8855000D02*
D03*
Y8945000D02*
D03*
D30*
X6730000Y8320000D02*
D03*
X6630000D02*
D03*
X7250000Y11100000D02*
D03*
X7350000D02*
D03*
X6510000Y10160000D02*
D03*
X6610000D02*
D03*
X7270000Y9700000D02*
D03*
X7170000D02*
D03*
X7230000Y7510000D02*
D03*
X7330000D02*
D03*
X7230000Y7220000D02*
D03*
X7330000D02*
D03*
X6830000Y11330000D02*
D03*
X6730000D02*
D03*
X7010000Y10650000D02*
D03*
X6910000D02*
D03*
X7230000Y7800000D02*
D03*
X7330000D02*
D03*
D31*
X6740000Y14100000D02*
D03*
Y13380000D02*
D03*
X6035000Y13395000D02*
D03*
X6020000Y14100000D02*
D03*
D32*
X6173500Y10819000D02*
D03*
X6046500D02*
D03*
X6173500Y10946000D02*
D03*
X6046500D02*
D03*
X6173500Y11073000D02*
D03*
X6046500D02*
D03*
D33*
X6020000Y9070000D02*
D03*
X6280000D02*
D03*
D34*
X7845000Y8695000D02*
D03*
Y8595000D02*
D03*
Y8495000D02*
D03*
Y8395000D02*
D03*
Y8295000D02*
D03*
Y8195000D02*
D03*
Y8095000D02*
D03*
Y7995000D02*
D03*
Y7895000D02*
D03*
Y7795000D02*
D03*
Y7695000D02*
D03*
Y7595000D02*
D03*
Y7495000D02*
D03*
Y7395000D02*
D03*
Y7295000D02*
D03*
Y7195000D02*
D03*
D35*
X7940000Y8970000D02*
D03*
Y6920000D02*
D03*
D36*
X6650000Y12380000D02*
D03*
Y11560000D02*
D03*
X6110000D02*
D03*
Y12380000D02*
D03*
D37*
X7197492Y9292493D02*
D03*
D38*
X7382492D02*
D03*
X7197492Y9447493D02*
D03*
X7382492D02*
D03*
D39*
X7275000Y9907500D02*
D03*
X7325000D02*
D03*
X7375000D02*
D03*
X7425000D02*
D03*
X7475000D02*
D03*
X7525000D02*
D03*
X7575000D02*
D03*
X7625000D02*
D03*
X7675000D02*
D03*
X7725000D02*
D03*
X7775000D02*
D03*
X7825000D02*
D03*
Y10592500D02*
D03*
X7775000D02*
D03*
X7725000D02*
D03*
X7675000D02*
D03*
X7625000D02*
D03*
X7575000D02*
D03*
X7525000D02*
D03*
X7475000D02*
D03*
X7425000D02*
D03*
X7375000D02*
D03*
X7325000D02*
D03*
X7275000D02*
D03*
D40*
X7892500Y9975000D02*
D03*
Y10025000D02*
D03*
Y10075000D02*
D03*
Y10125000D02*
D03*
Y10175000D02*
D03*
Y10225000D02*
D03*
Y10275000D02*
D03*
Y10325000D02*
D03*
Y10375000D02*
D03*
Y10425000D02*
D03*
Y10475000D02*
D03*
Y10525000D02*
D03*
X7207500D02*
D03*
Y10475000D02*
D03*
Y10425000D02*
D03*
Y10375000D02*
D03*
Y10325000D02*
D03*
Y10275000D02*
D03*
Y10225000D02*
D03*
Y10175000D02*
D03*
Y10125000D02*
D03*
Y10075000D02*
D03*
Y10025000D02*
D03*
Y9975000D02*
D03*
D41*
X7550000Y10250000D02*
D03*
D42*
X7780000Y9690000D02*
D03*
Y9590000D02*
D03*
X7020000Y9450000D02*
D03*
Y9350000D02*
D03*
X8060000Y10570000D02*
D03*
Y10670000D02*
D03*
X7050000Y9800000D02*
D03*
Y9700000D02*
D03*
X7560000Y9690000D02*
D03*
Y9590000D02*
D03*
D43*
X8222000Y11450000D02*
D03*
X7968000D02*
D03*
X7714000D02*
D03*
X7460000D02*
D03*
X7206000D02*
D03*
X7800000Y14089999D02*
D03*
X7292000D02*
D03*
D44*
X7916092Y9450240D02*
X8100240D01*
X8144573Y9494573D01*
X6851767Y10358234D02*
X6859057D01*
X6875824Y10375000D01*
X6060000Y9800000D02*
X6150000D01*
X6250000Y9420000D02*
Y9700000D01*
X6150000Y9800000D02*
X6250000Y9700000D01*
X6901445Y10850000D02*
X7320000D01*
X6894600Y10932100D02*
X7306888D01*
X6894600Y10843155D02*
X6901445Y10850000D01*
X7935956Y10074044D02*
X8144573Y9865427D01*
Y9494573D02*
Y9865427D01*
X8075084Y9664090D02*
X8079173Y9660000D01*
X8038411Y9664090D02*
X8075084D01*
X7825000Y9877500D02*
X8038411Y9664090D01*
X8080000Y9760827D02*
Y9880000D01*
X8079173Y9760000D02*
X8080000Y9760827D01*
X7921245Y9358755D02*
X8108755D01*
X8210000Y9460000D01*
X7453755Y9116245D02*
X7459937Y9122426D01*
X7492426D01*
X7930000Y9560000D01*
X7235400Y9205400D02*
X7515400D01*
X7890000Y9580000D02*
Y9694426D01*
X7515400Y9205400D02*
X7890000Y9580000D01*
X7170000Y9140000D02*
X7235400Y9205400D01*
X6730000Y9140000D02*
X7170000D01*
X6690000Y9180000D02*
X6730000Y9140000D01*
X7445031Y8959969D02*
Y8987458D01*
X7292489Y9140000D02*
X7445031Y8987458D01*
Y8959969D02*
X7460000Y8945000D01*
X7160000D02*
Y9050000D01*
X7290000Y9140000D02*
X7292489D01*
X6403000Y8070000D02*
X6530000D01*
X6531244Y8068755D01*
X5740000Y10290000D02*
X6010000Y10560000D01*
X6512489D01*
X5950000Y9910000D02*
X6060000Y9800000D01*
X5950000Y9910000D02*
Y10000000D01*
X5990000Y10040000D01*
X6122500D01*
X6197427Y8492573D02*
X6267500Y8422500D01*
X6167427Y8492573D02*
X6197427D01*
X6267500Y8349500D02*
Y8422500D01*
X6160000Y8500000D02*
X6167427Y8492573D01*
X6817542Y8959969D02*
X6845032D01*
X6860000Y8945000D01*
X6600000Y9177511D02*
X6817542Y8959969D01*
X6600000Y9177511D02*
Y9520000D01*
X7397653Y9577653D02*
Y9599369D01*
X7400000Y9601716D02*
Y9830000D01*
X7390000Y9570000D02*
X7397653Y9577653D01*
Y9599369D02*
X7400000Y9601716D01*
X8210000Y9460000D02*
Y9860000D01*
X7930000Y9560000D02*
Y9710000D01*
X7725957Y9858469D02*
X7890000Y9694426D01*
X7725000Y9907500D02*
X7725957Y9906544D01*
Y9858469D02*
Y9906544D01*
X7775957Y9864043D02*
X7930000Y9710000D01*
X8010000Y9830000D02*
Y9890000D01*
X7927500Y9972500D02*
X8010000Y9890000D01*
X7935957Y10024043D02*
X8080000Y9880000D01*
X7923853Y9975000D02*
X7926353Y9972500D01*
X7927500D01*
X7892500Y9975000D02*
X7923853D01*
X7893457Y10024043D02*
X7935957D01*
X7892500Y10025000D02*
X7893457Y10024043D01*
Y10074044D02*
X7935956D01*
X7892500Y10075000D02*
X7893457Y10074044D01*
X7892500Y10125000D02*
X7945000D01*
X8210000Y9860000D01*
X6512489Y10560000D02*
X6760000Y10312489D01*
X6210000Y9942574D02*
X6247574Y9905000D01*
X6210000Y9942574D02*
Y10317500D01*
X6162500Y10365000D02*
X6210000Y10317500D01*
X6247574Y9905000D02*
X6465074Y9687500D01*
X6127500Y9905000D02*
X6247574D01*
X6760000Y10070000D02*
X6830000Y10000000D01*
X6760000Y10070000D02*
Y10312489D01*
X6800716Y9949284D02*
X6889284D01*
X6710000Y10040000D02*
Y10272425D01*
Y10040000D02*
X6800716Y9949284D01*
X6582425Y10400000D02*
X6710000Y10272425D01*
X6830000Y10000000D02*
X6860000D01*
X7085000Y10225000D01*
X6850000Y10100000D02*
X7025000Y10275000D01*
X7085000Y10225000D02*
X7207500D01*
X7124043Y10525957D02*
X7206544D01*
X7070000Y10580000D02*
X7124043Y10525957D01*
X6630000Y10580000D02*
X7070000D01*
X6985000Y10425000D02*
X7207500D01*
X6610000Y10530000D02*
X6880000D01*
X6985000Y10425000D01*
X6510000Y10770000D02*
X7330000D01*
X6173500Y11073000D02*
X6184980Y11061520D01*
X6218480D01*
X6510000Y10770000D01*
X7330000D02*
X7375000Y10725000D01*
X6173500Y10819000D02*
X6321000D01*
X6610000Y10530000D01*
X6875824Y10375000D02*
X7207500D01*
X6264000Y10946000D02*
X6630000Y10580000D01*
X7206544Y10525957D02*
X7207500Y10525000D01*
X6850000Y10230000D02*
X6945000Y10325000D01*
X7207500D01*
X7025000Y10275000D02*
X7207500D01*
X6889284Y9949284D02*
X7115000Y10175000D01*
X7207500D01*
X6560000Y9540000D02*
X7145000Y10125000D01*
X7207500D01*
X7155000Y10075000D02*
X7207500D01*
X6600000Y9520000D02*
X7155000Y10075000D01*
X7423750Y10896250D02*
X7423750D01*
X6752500Y10997500D02*
X7322500D01*
X6750000Y11000000D02*
X6752500Y10997500D01*
X7322500D02*
X7423750Y10896250D01*
X7423750D02*
X7525000Y10795000D01*
X7431245Y10978755D02*
X7575000Y10835000D01*
X7525000Y10592500D02*
Y10795000D01*
X7431245Y10978755D02*
Y10981244D01*
X7069000Y7870000D02*
X7510000D01*
X7095000Y8040000D02*
Y8050000D01*
X7080000Y8025000D02*
X7095000Y8040000D01*
X6705000Y8025000D02*
X7080000D01*
X6700000Y8020000D02*
X6705000Y8025000D01*
X6580000Y10400000D02*
X6582425D01*
X6237654Y10409846D02*
X6332500Y10315000D01*
X6230000Y10430000D02*
X6237654Y10422346D01*
X6332500Y10315000D02*
X6352500D01*
X6237654Y10409846D02*
Y10422346D01*
X6162500Y10365000D02*
Y10365000D01*
X6600000Y9800000D02*
Y9910000D01*
X6490000Y9670000D02*
Y9760000D01*
X6600000Y9910000D02*
X6602500Y9912500D01*
X6560000Y8945000D02*
Y9540000D01*
X6402500Y8070500D02*
X6403000Y8070000D01*
X6500000Y7910000D02*
Y7920000D01*
X6440000Y7980000D02*
X6500000Y7920000D01*
X7775957Y9864043D02*
Y9906544D01*
X7775000Y9907500D02*
X7775957Y9906544D01*
X7685400Y9700400D02*
Y9827089D01*
X7570000Y9700000D02*
Y9800000D01*
X7825000Y9877500D02*
Y9907500D01*
X7714000Y11450000D02*
X7720000Y11444000D01*
Y11240000D02*
Y11444000D01*
X7970000Y11210000D02*
Y11448000D01*
X7968000Y11450000D02*
X7970000Y11448000D01*
X8220000Y11448000D02*
X8222000Y11450000D01*
X8220000Y11230000D02*
Y11448000D01*
X7575000Y10592500D02*
Y10835000D01*
X6640000Y8670000D02*
Y8750000D01*
X6610000Y7462500D02*
Y7570000D01*
X6487500Y9672500D02*
X6490000Y9670000D01*
X7306888Y10932100D02*
X7475000Y10763988D01*
Y10592500D02*
Y10763988D01*
X7425000Y10592500D02*
Y10745000D01*
X7320000Y10850000D02*
X7425000Y10745000D01*
X7375000Y10592500D02*
Y10725000D01*
X6312500Y7997500D02*
X6400000Y7910000D01*
X6122500Y10040000D02*
X6127500Y10035000D01*
X7160000Y9570000D02*
X7280000D01*
X7350000Y9640000D02*
Y9820000D01*
X7280000Y9570000D02*
X7350000Y9640000D01*
X7570000Y9800000D02*
X7574044Y9804043D01*
X7560000Y9690000D02*
X7570000Y9700000D01*
X7574044Y9804043D02*
Y9906544D01*
X7575000Y9907500D01*
X7670000Y9685000D02*
X7685400Y9700400D01*
X7675957Y9836533D02*
X7685400Y9827089D01*
X7675957Y9836533D02*
Y9906544D01*
X7375000Y9855000D02*
Y9907500D01*
Y9855000D02*
X7400000Y9830000D01*
X7325957Y9844044D02*
X7350000Y9820000D01*
X7325957Y9844044D02*
Y9906544D01*
X7325000Y9907500D02*
X7325957Y9906544D01*
X6730000Y11240000D02*
Y11330000D01*
X6173500Y10946000D02*
X6264000D01*
X7625957Y10593457D02*
Y11034043D01*
X7620000Y11040000D02*
X7625957Y11034043D01*
X6472500Y9687500D02*
X6487500Y9672500D01*
X7625000Y10592500D02*
X7625957Y10593457D01*
X7675000Y9907500D02*
X7675957Y9906544D01*
X7670000Y9685000D02*
X7775000D01*
X7780000Y9690000D01*
X6465074Y9687500D02*
X6472500D01*
X6127500Y10380000D02*
X6147500D01*
X6162500Y10365000D01*
X6512500Y10037500D02*
X6515000Y10040000D01*
X6352500Y10035000D02*
X6355000Y10037500D01*
X6512500D01*
X6355000Y9672500D02*
X6487500D01*
X6352500Y9675000D02*
X6355000Y9672500D01*
X7460000Y8855000D02*
X7590000D01*
X7657500Y6925000D02*
Y6987500D01*
X7660000Y6990000D01*
X7622500Y6910000D02*
X7642500D01*
X7657500Y6925000D01*
X7617500Y8022500D02*
Y8085000D01*
Y8022500D02*
X7620000Y8020000D01*
X7582500Y8100000D02*
X7602500D01*
X7617500Y8085000D01*
X7217000Y6657500D02*
Y6783000D01*
X7005400Y6994600D02*
X7217000Y6783000D01*
Y6573000D02*
Y6657500D01*
X6705400Y6994600D02*
X7005400D01*
X6615000Y7085000D02*
X6705400Y6994600D01*
X6610000Y7462500D02*
X6615000Y7457500D01*
X6425000D02*
X6430000Y7462500D01*
Y7570000D01*
X6360000Y8010574D02*
X6390574Y7980000D01*
X6440000D01*
X6360000Y8010574D02*
Y8068000D01*
X6357500Y8070500D02*
X6360000Y8068000D01*
X6312500Y7997500D02*
Y8070500D01*
X7033750Y7851000D02*
Y7901000D01*
Y7851000D02*
X7050000D01*
X7069000Y7870000D01*
X6970000Y7740000D02*
Y7743500D01*
X6977500Y7751000D02*
X7033750D01*
X6970000Y7743500D02*
X6977500Y7751000D01*
X7068500Y7730000D02*
X7510000D01*
X7047500Y7751000D02*
X7068500Y7730000D01*
X7033750Y7751000D02*
X7047500D01*
X7033750Y7561000D02*
Y7611000D01*
X7050000Y7561000D02*
X7069000Y7580000D01*
X7033750Y7561000D02*
X7050000D01*
X7069000Y7580000D02*
X7510000D01*
X6970000Y7453500D02*
X6977500Y7461000D01*
X7033750D01*
X6970000Y7450000D02*
Y7453500D01*
X7033750Y7461000D02*
X7047500D01*
X7068500Y7440000D02*
X7510000D01*
X7047500Y7461000D02*
X7068500Y7440000D01*
X6977500Y7171000D02*
X7033750D01*
X6970000Y7163500D02*
X6977500Y7171000D01*
X6970000Y7160000D02*
Y7163500D01*
X7033750Y7271000D02*
Y7321000D01*
X7050000Y7271000D02*
X7069000Y7290000D01*
X7510000D01*
X7033750Y7271000D02*
X7050000D01*
X7033750Y7321000D02*
X7047500D01*
X7068500Y7150000D02*
X7510000D01*
X7047500Y7171000D02*
X7068500Y7150000D01*
X7033750Y7171000D02*
X7047500D01*
X7643713Y7856287D02*
Y7856287D01*
X7630000Y7870000D02*
X7643713Y7856287D01*
X7600000Y7870000D02*
X7630000D01*
X7600000D02*
X7613714Y7856287D01*
X7643713D02*
X7805000Y7695000D01*
X7845000D01*
X7670000Y7730000D02*
X7805000Y7595000D01*
X7600000Y7730000D02*
X7670000D01*
X7805000Y7595000D02*
X7845000D01*
X7600000Y7580000D02*
X7720000D01*
X7805000Y7495000D01*
X7845000D01*
X7805000Y7395000D02*
X7845000D01*
X7760000Y7440000D02*
X7805000Y7395000D01*
X7600000Y7440000D02*
X7760000D01*
X7602500Y7292500D02*
X7842500D01*
X7600000Y7290000D02*
X7602500Y7292500D01*
X7842500D02*
X7845000Y7295000D01*
X7600000Y7150000D02*
X7760000D01*
X7805000Y7195000D02*
X7845000D01*
X7760000Y7150000D02*
X7805000Y7195000D01*
X7017000Y6657500D02*
Y6788000D01*
X6925000Y6880000D02*
X7017000Y6788000D01*
X6615000Y7085000D02*
Y7182500D01*
X6510000Y6960000D02*
X6980000D01*
X6435784Y7034216D02*
X6510000Y6960000D01*
X6435784Y7034216D02*
Y7171716D01*
X6980000Y6960000D02*
X7167000Y6773000D01*
X7277500Y6838284D02*
Y6847500D01*
X7280000Y6780000D02*
Y6835784D01*
X7277500Y6838284D02*
X7280000Y6835784D01*
Y6780000D02*
X7317000Y6743000D01*
Y6657500D02*
Y6743000D01*
X7260000Y6865000D02*
X7277500Y6847500D01*
X6425000Y7182500D02*
X6435784Y7171716D01*
X7167000Y6657500D02*
Y6773000D01*
Y6572560D02*
Y6657500D01*
X7217000Y6573000D02*
X7270000Y6520000D01*
X7118500Y6521500D02*
Y6656000D01*
X7149160Y6449600D02*
X7190400Y6490839D01*
X7049600D02*
Y6549160D01*
X7190400Y6490839D02*
Y6549160D01*
X7167000Y6572560D02*
X7190400Y6549160D01*
X7117000Y6657500D02*
X7118500Y6656000D01*
X7067000Y6566560D02*
Y6657500D01*
X7118500Y6521500D02*
X7120000Y6520000D01*
X7049600Y6490839D02*
X7090840Y6449600D01*
X7149160D01*
X7049600Y6549160D02*
X7067000Y6566560D01*
D45*
X6738755Y10651245D02*
X6740000Y10650000D01*
X6910000D01*
X6783859Y8131872D02*
X7151988Y8500000D01*
X7550000D01*
X7270000Y9700000D02*
X7272244Y9702244D01*
Y9797244D02*
X7274488Y9799487D01*
X7272244Y9702244D02*
Y9797244D01*
X7740000Y9530000D02*
X7746697Y9536697D01*
Y9556697D01*
X7780000Y9590000D01*
X7670000Y9480000D02*
Y9595000D01*
X7670000Y9595000D01*
X6728971Y7900500D02*
X6898750D01*
X6709471Y7920000D02*
X6728971Y7900500D01*
X6700000Y7920000D02*
X6709471D01*
X7096988Y8343013D02*
X7099006Y8340994D01*
Y8194006D02*
Y8340994D01*
X7095000Y8190000D02*
X7099006Y8194006D01*
X6750000Y7820000D02*
X6818925D01*
X6849925Y7851000D01*
X6905250D01*
X6826697Y7761158D02*
X6866538Y7801000D01*
X6826697Y7726697D02*
Y7761158D01*
X6820000Y7720000D02*
X6826697Y7726697D01*
X6902750Y7613500D02*
X6905750Y7610500D01*
X6806500Y7613500D02*
X6902750D01*
X6800000Y7620000D02*
X6806500Y7613500D01*
X6631872Y8131872D02*
X6783859D01*
X6020000Y9970000D02*
X6127500D01*
X7560000Y9480000D02*
Y9590000D01*
X7955000Y10175000D02*
X8280000Y9850000D01*
X7892500Y10175000D02*
X7955000D01*
X8280000Y8860000D02*
Y9850000D01*
X8082637Y10204462D02*
X8091562D01*
X8343303Y9786697D02*
Y9856697D01*
X8104150Y10375000D02*
X8159462Y10319687D01*
Y10160538D02*
X8440000Y9880000D01*
X7892500Y10225000D02*
X7975000D01*
X8343303Y9856697D01*
X8159462Y10160538D02*
Y10319687D01*
X8012100Y10275000D02*
X8082637Y10204462D01*
X8440000Y8600000D02*
Y9880000D01*
X7020000Y10510000D02*
X7055000Y10475000D01*
X7207500D01*
X7845000Y8195000D02*
X7847500Y8192500D01*
X8057500D01*
X8060000Y8190000D01*
X7845000Y8095000D02*
X8255000D01*
X8520000Y8360000D02*
Y10800000D01*
X8255000Y8095000D02*
X8520000Y8360000D01*
X7845000Y8395000D02*
X8235000D01*
X8440000Y8600000D01*
X7845000Y8295000D02*
X8295000D01*
X8480000Y8480000D01*
Y10760000D01*
X7845000Y7895000D02*
X8215000D01*
X8560000Y8240000D02*
Y10840000D01*
X8215000Y7895000D02*
X8560000Y8240000D01*
X8245000Y10425000D02*
X8280000Y10390000D01*
X7892500Y10425000D02*
X8245000D01*
X7960000Y11050000D02*
X8350000D01*
X8560000Y10840000D01*
X8330000Y10990000D02*
X8520000Y10800000D01*
X7990000Y10990000D02*
X8330000D01*
X8370000Y11110000D02*
X8600000Y10880000D01*
X7930000Y11110000D02*
X8370000D01*
X8600000Y8130000D02*
Y10880000D01*
X8310000Y10930000D02*
X8480000Y10760000D01*
X8020000Y10930000D02*
X8310000D01*
X7825000Y10735000D02*
X8020000Y10930000D01*
X7775000Y10775000D02*
X7990000Y10990000D01*
X7725000Y10815000D02*
X7960000Y11050000D01*
X7675000Y10855000D02*
X7930000Y11110000D01*
X7675000Y10592500D02*
Y10855000D01*
X7775000Y10592500D02*
Y10775000D01*
X7110000Y10650000D02*
X7167500Y10592500D01*
X7275000D01*
X7010000Y10650000D02*
X7110000D01*
X7325000Y10475000D02*
X7550000Y10250000D01*
X7207500Y10025000D02*
X7325000D01*
X6970000Y7332000D02*
Y7346000D01*
X6965000Y7351000D02*
Y7360038D01*
Y7351000D02*
X6970000Y7346000D01*
X6916538Y7408500D02*
X6965000Y7360038D01*
X6970000Y7368500D02*
X7141500D01*
X6970000Y7658500D02*
X7141499D01*
X6946250D02*
X6970000D01*
Y7622000D02*
Y7658500D01*
X7527000Y6750000D02*
X7550000D01*
X7462000Y6657500D02*
Y6685000D01*
X7527000Y6750000D01*
X6490000Y7760000D02*
X6600000D01*
X6670000Y7692056D02*
Y7815171D01*
X6582100Y7903072D02*
X6670000Y7815171D01*
X6617944Y7640000D02*
X6670000Y7692056D01*
X6582100Y7903072D02*
Y7966840D01*
X6350000Y7640000D02*
X6617944D01*
X6479471Y11140000D02*
X6559471Y11060000D01*
X6570000D01*
X6470000Y11140000D02*
X6479471D01*
X7847500Y7997500D02*
X8057500D01*
X7845000Y7995000D02*
X7847500Y7997500D01*
X8057500D02*
X8060000Y8000000D01*
X7033750Y7801000D02*
X7229000D01*
X7141499Y7658500D02*
X7145000Y7655000D01*
X7235000D01*
X6582100Y7966840D02*
X6630000Y8014740D01*
Y8130000D01*
X6490000Y9490000D02*
Y9580000D01*
X6630000Y8130000D02*
X6631872Y8131872D01*
X8130000Y8710000D02*
X8280000Y8860000D01*
X8343303Y9786697D02*
X8350000Y9780000D01*
X6630000Y8130000D02*
X6630000Y8130000D01*
Y8320000D01*
X6518755Y7568755D02*
X6519378Y7568133D01*
Y7458122D02*
Y7568133D01*
X8072092Y10301562D02*
X8081562D01*
X7892500Y10325000D02*
X8048654D01*
X7892500Y10375000D02*
X8104150D01*
X7892500Y10275000D02*
X8012100D01*
X8048654Y10325000D02*
X8072092Y10301562D01*
X8280000Y10230000D02*
X8410000D01*
X7550000Y10250000D02*
X7775000Y10475000D01*
X7892500D01*
X7325000D02*
Y10592500D01*
Y10025000D02*
X7550000Y10250000D01*
X7387492Y9447493D02*
X7475000Y9535001D01*
Y9907500D01*
X7550000Y10250000D02*
X7625000Y10175000D01*
Y9907500D02*
Y10175000D01*
X6800000Y7444462D02*
X6866538Y7511000D01*
X6906250D01*
X7170000Y9700000D02*
Y9800000D01*
Y9700000D02*
X7170000Y9700000D01*
X7050000Y9700000D02*
X7050000Y9700000D01*
X7170000D01*
X7061355Y9811355D02*
Y9858855D01*
X7050000Y9800000D02*
X7061355Y9811355D01*
Y9858855D02*
X7177500Y9975000D01*
X7207500D01*
X6460000Y9610000D02*
X6490000Y9580000D01*
X6777500Y12687500D02*
X6780000Y12690000D01*
X5990000Y12685000D02*
X5992500Y12687500D01*
X6777500D01*
X7825000Y10592500D02*
Y10735000D01*
X8265000Y7795000D02*
X8600000Y8130000D01*
X7725000Y10592500D02*
Y10815000D01*
X7845000Y7795000D02*
X8265000D01*
X6395983Y8674016D02*
X6410000Y8660000D01*
X6395983Y8674016D02*
Y8704016D01*
X6350000Y8750000D02*
X6395983Y8704016D01*
X6350000Y8750000D02*
Y8830000D01*
X6304017Y8704016D02*
X6350000Y8750000D01*
X6304017Y8674016D02*
Y8704016D01*
X6519378Y7458122D02*
X6520000Y7457500D01*
X6800000Y7154462D02*
X6866538Y7221000D01*
X7417500Y6975000D02*
X7518521Y6873980D01*
Y6831479D02*
X7520000Y6830000D01*
X7518521Y6831479D02*
Y6873980D01*
X7513303Y6823303D02*
X7520000Y6830000D01*
X7494341Y6823303D02*
X7513303D01*
X7399500Y6728462D02*
X7494341Y6823303D01*
X7399500Y6675000D02*
Y6728462D01*
X7397500Y6975000D02*
X7417500D01*
X5990000Y12775000D02*
X5992500Y12777500D01*
X6077500D02*
X6080000Y12780000D01*
X6027500Y12935001D02*
X6030000Y12932500D01*
X6137500D02*
X6140000Y12930000D01*
X8140000Y10750000D02*
X8280000D01*
X8060000Y10670000D02*
X8140000Y10750000D01*
X8060000Y10570000D02*
X8150000D01*
X8015000Y10525000D02*
X8060000Y10570000D01*
X7892500Y10525000D02*
X8015000D01*
X8240000Y10570000D02*
X8260000Y10590000D01*
X8150000Y10570000D02*
X8240000D01*
X7275000Y9800000D02*
Y9907500D01*
X7382492Y9447493D02*
X7387492D01*
X6352500Y9610000D02*
X6460000D01*
X7160000Y8855000D02*
X7290000D01*
X6860000D02*
X6990000D01*
X6560000D02*
X6690000D01*
X6330000Y7660000D02*
Y7760000D01*
Y7650000D02*
Y7660000D01*
X6290000Y7610000D02*
X6330000Y7650000D01*
X6290000Y7610000D02*
Y7610000D01*
X6177500Y8349500D02*
X6222500D01*
X6402500D02*
Y8422500D01*
X6290000Y8570000D02*
X6312500Y8547500D01*
X6357500Y8517500D02*
X6410000Y8570000D01*
X6357500Y8349500D02*
Y8517500D01*
X6312500Y8349500D02*
Y8547500D01*
X6402500Y8422500D02*
X6450000Y8470000D01*
X6290000Y8660000D02*
X6304017Y8674016D01*
X6993038Y7950000D02*
X7140000D01*
X6970000Y7912000D02*
Y7926000D01*
X6975000Y7931962D02*
X6993038Y7950000D01*
X6970000Y7926000D02*
X6975000Y7931000D01*
Y7931962D01*
X6914038Y7171000D02*
X6916538Y7168500D01*
Y7118500D02*
Y7168500D01*
X6965038Y7070000D02*
X6970000D01*
X6906250Y7171000D02*
X6914038D01*
X6916538Y7118500D02*
X6965038Y7070000D01*
X6906250Y7698500D02*
X6946250Y7658500D01*
X6906250Y7698500D02*
Y7751000D01*
X6916538Y7408500D02*
Y7458500D01*
X6906250Y7461000D02*
X6914038D01*
X6916538Y7458500D01*
X7141500Y7368500D02*
X7145000Y7365000D01*
X6866538Y7801000D02*
X6906250D01*
X6750000Y7530000D02*
X6818925D01*
X6849925Y7561000D01*
X6905250D01*
X6800000Y7320000D02*
X6800500Y7320500D01*
X6905750D02*
X6906250Y7321000D01*
X6800500Y7320500D02*
X6905750D01*
X6849925Y7271000D02*
X6905250D01*
X6818925Y7240000D02*
X6849925Y7271000D01*
X6750000Y7240000D02*
X6818925D01*
X6866538Y7221000D02*
X6906250D01*
X7145000Y7365000D02*
X7235000D01*
X7325000D02*
X7415000D01*
X7325000Y7655000D02*
X7415000D01*
X6330000Y7660000D02*
X6350000Y7640000D01*
X6330000Y7760000D02*
Y7910000D01*
X6267500Y7972500D02*
X6330000Y7910000D01*
X6267500Y7972500D02*
Y8070500D01*
X6222500Y7972500D02*
Y8070500D01*
X6110000Y7760000D02*
Y7860000D01*
X6222500Y7972500D01*
X6267500Y8070500D02*
X6267500D01*
X6222500D02*
X6222500D01*
X6017000D02*
X6177500D01*
X5957500Y8130000D02*
X6017000Y8070500D01*
X7330000Y7800000D02*
X7420000D01*
X7229000Y7801000D02*
X7230000Y7800000D01*
X7129000Y7221000D02*
X7130000Y7220000D01*
X7230000D01*
X7033750Y7221000D02*
X7129000D01*
X7330000Y7510000D02*
X7420000D01*
X7033750Y7511000D02*
X7229000D01*
X7230000Y7510000D01*
X7330000Y7220000D02*
X7420000D01*
X6900000Y6780000D02*
X6901000Y6779000D01*
Y6658500D02*
X6902000Y6657500D01*
X7382000D02*
X7399500Y6675000D01*
D46*
X7595000Y8945000D02*
X7689588D01*
X7704588Y8960000D02*
X7710000D01*
X7689588Y8945000D02*
X7704588Y8960000D01*
X7383738Y9291246D02*
X7478754D01*
X7382492Y9292493D02*
X7383738Y9291246D01*
X7478754D02*
X7480000Y9290000D01*
X7020000Y9250000D02*
Y9350000D01*
X6840000Y9290000D02*
X6883238Y9246763D01*
X7016763D02*
X7020000Y9250000D01*
X6883238Y9246763D02*
X7016763D01*
X6690000Y9290000D02*
Y9295412D01*
X6677500Y9307912D02*
X6690000Y9295412D01*
X6677500Y9307912D02*
Y9352500D01*
X6690000Y8945000D02*
X6695000Y8940000D01*
X6721569D01*
X6780000Y8750000D02*
Y8881569D01*
X6721569Y8940000D02*
X6780000Y8881569D01*
X6990000Y8950000D02*
Y9050000D01*
X7290000Y8950000D02*
Y9050000D01*
X5820000Y8660000D02*
X5950000D01*
X5820000Y8130000D02*
X5950000D01*
X7505000Y8165000D02*
X7710000Y8370000D01*
X7357500Y8165000D02*
X7505000D01*
X7710000Y8370000D02*
Y8590000D01*
X7290000Y8950000D02*
X7292500Y8947500D01*
X6992500D02*
X6992500D01*
X6990000Y8950000D02*
X6992500Y8947500D01*
X6510000Y10275000D02*
Y10280000D01*
Y10160000D02*
Y10275000D01*
X6360000Y10160000D02*
X6510000D01*
X5934000Y10946000D02*
X6046500D01*
X5840000Y11040000D02*
Y11265000D01*
Y11040000D02*
X5934000Y10946000D01*
X6045000Y11071500D02*
X6046500Y11073000D01*
X5930000Y11070000D02*
X5931500Y11071500D01*
X6045000D01*
X5840000Y11265000D02*
X6110000Y11535000D01*
X6507500Y10272500D02*
X6510000Y10275000D01*
X6602500Y9912500D02*
Y10277500D01*
X6670000Y9360000D02*
X6677500Y9352500D01*
X6351250Y9401250D02*
Y9545000D01*
X6084600Y8462400D02*
X6177500Y8369500D01*
X6084600Y8462400D02*
Y8634600D01*
X6110000Y8660000D01*
Y8667500D01*
X6345000Y11820000D02*
X7550000D01*
X6110000Y11585000D02*
X6345000Y11820000D01*
X6110000Y11560000D02*
Y11585000D01*
X6818763Y8328763D02*
X7120000Y8630000D01*
X6738763Y8328763D02*
X6818763D01*
X7120000Y8630000D02*
X7670000D01*
X6730000Y8320000D02*
X6738763Y8328763D01*
X7670000Y8630000D02*
X7710000Y8590000D01*
X6259999Y8814999D02*
Y9049999D01*
X6280000Y9070000D01*
X6218750Y8773750D02*
X6259999Y8814999D01*
X6730000Y8320000D02*
Y8500000D01*
X5950000Y9630000D02*
Y9710000D01*
X6177500Y8349500D02*
Y8369500D01*
X7050000Y11100000D02*
X7250000D01*
X7210000Y11204588D02*
X7234000Y11180588D01*
X7210000Y11204588D02*
Y11210000D01*
X7050000Y11100000D02*
Y11107500D01*
X7234000Y11116000D02*
X7250000Y11100000D01*
X7234000Y11116000D02*
Y11180588D01*
X7210000Y11210000D02*
Y11446000D01*
X7206000Y11450000D02*
X7210000Y11446000D01*
X7460000Y11450000D02*
X7460000Y11450000D01*
Y11650000D01*
X6600000Y11330000D02*
X6730000D01*
X6600000D02*
Y11510000D01*
X6650000Y11560000D01*
X6830000Y11330000D02*
X6910000D01*
X6410000D02*
X6510000D01*
X5930500Y10819500D02*
X6046000D01*
X5930000Y10820000D02*
X5930500Y10819500D01*
X6046000D02*
X6046500Y10819000D01*
X6110000Y11535000D02*
Y11560000D01*
X6650000Y12230000D02*
Y12380000D01*
X6110000Y12230000D02*
Y12380000D01*
X5992500Y12777500D02*
X6077500D01*
X5880000Y12685000D02*
X5990000D01*
X6030000Y12932500D02*
X6137500D01*
X5880000Y12937500D02*
X6007500Y13064999D01*
X6027500D01*
X5880000Y12775000D02*
Y12937500D01*
X6272500Y13000000D02*
X6337500Y13064999D01*
X6252500Y13000000D02*
X6272500D01*
X6337500Y13064999D02*
X6507500D01*
X6732500Y13000000D02*
X6840000D01*
X6630000Y13489999D02*
X6740000Y13380000D01*
X6507500Y13867500D02*
X6740000Y14100000D01*
X6507500Y13064999D02*
Y13867500D01*
X6671254Y9448746D02*
X7196238D01*
X7197492Y9292493D02*
Y9447493D01*
X6670000Y9450000D02*
X6671254Y9448746D01*
X7196238D02*
X7197492Y9447493D01*
X6602500Y10277500D02*
X6605000Y10280000D01*
X6128750Y9391250D02*
Y9545000D01*
X5950000Y9540000D02*
X5955000Y9545000D01*
X6127500D01*
X6128750Y9391250D02*
X6130000Y9390000D01*
X6127500Y9545000D02*
X6128750D01*
X6351250D02*
X6352500D01*
X6350000Y9400000D02*
X6351250Y9401250D01*
X6216250Y8773750D02*
X6218750D01*
X6110000Y8667500D02*
X6216250Y8773750D01*
X7185000Y8050000D02*
Y8190000D01*
X6730000Y8500000D02*
Y8670000D01*
X5950000Y8130000D02*
X5950000Y8130000D01*
X5957500D01*
X6050000Y6950000D02*
Y7110000D01*
X6901000Y6658500D02*
Y6779000D01*
X6470000Y6540000D02*
Y6680000D01*
X6520000Y7070000D02*
X6560000Y7030000D01*
X6520000Y7070000D02*
Y7182500D01*
D47*
X6470000Y6260000D02*
X6672000D01*
X6710000Y6222000D01*
Y6260000D02*
Y6600000D01*
Y6222000D02*
Y6260000D01*
Y6182000D02*
Y6222000D01*
X7574000Y6182000D02*
Y6600000D01*
X6710000Y6182000D02*
X7574000D01*
D48*
X6039999Y14600000D02*
D03*
X8240000D02*
D03*
X6040000Y6400000D02*
D03*
X8240000D02*
D03*
D49*
X7431000Y6550000D02*
D03*
X6853000D02*
D03*
D50*
X7574000Y6600000D02*
D03*
X6710000D02*
D03*
D51*
X7574000Y6182000D02*
D03*
X6710000D02*
D03*
D52*
X6008500Y10692000D02*
D03*
X6211500D02*
D03*
X6110000Y11200000D02*
D03*
D53*
X7916092Y9450240D02*
D03*
X8549997Y14399995D02*
D03*
X8399997Y14099995D02*
D03*
X8549997Y13799995D02*
D03*
X8399997Y13499995D02*
D03*
X8549997Y13199995D02*
D03*
X8399997Y12899995D02*
D03*
X8549997Y12599996D02*
D03*
X8399997Y12299996D02*
D03*
X8549997Y11999996D02*
D03*
X8399997Y11699996D02*
D03*
X8549997Y11399997D02*
D03*
Y7799998D02*
D03*
X8399997Y7499998D02*
D03*
X8549997Y7199998D02*
D03*
X8399997Y6899998D02*
D03*
X8549997Y6599998D02*
D03*
X8099998Y14099995D02*
D03*
X8249997Y13799995D02*
D03*
X8099998Y13499995D02*
D03*
X8249997Y13199995D02*
D03*
X8099998Y12899995D02*
D03*
X8249997Y12599996D02*
D03*
X8099998Y12299996D02*
D03*
X8249997Y11999996D02*
D03*
X8099998Y11699996D02*
D03*
X8249997Y7199998D02*
D03*
X7799998Y14699995D02*
D03*
X7949998Y14399995D02*
D03*
Y13799995D02*
D03*
X7799998Y13499995D02*
D03*
X7949998Y13199995D02*
D03*
X7799998Y12899995D02*
D03*
X7949998Y12599996D02*
D03*
X7799998Y12299996D02*
D03*
X7949998Y11999996D02*
D03*
X7799998Y11699996D02*
D03*
Y6899998D02*
D03*
X7949998Y6599998D02*
D03*
X7799998Y6299998D02*
D03*
X7649998Y14399995D02*
D03*
X7499998Y14099995D02*
D03*
X7649998Y13799995D02*
D03*
X7499998Y13499995D02*
D03*
X7649998Y13199995D02*
D03*
X7499998Y12899995D02*
D03*
X7649998Y12599996D02*
D03*
X7499998Y12299996D02*
D03*
X7649998Y11999996D02*
D03*
X7499998Y11099997D02*
D03*
X7349998Y13799995D02*
D03*
X7199998Y13499995D02*
D03*
X7349998Y13199995D02*
D03*
X7199998Y12899995D02*
D03*
X7349998Y12599996D02*
D03*
X7199998Y12299996D02*
D03*
X7349998Y11999996D02*
D03*
X7199998Y11699996D02*
D03*
Y6299998D02*
D03*
X7049998Y13799995D02*
D03*
X6899998Y13499995D02*
D03*
X7049998Y13199995D02*
D03*
X6899998Y12899995D02*
D03*
X7049998Y12599996D02*
D03*
X6899998Y12299996D02*
D03*
Y11699996D02*
D03*
X7049998Y9599997D02*
D03*
X6899998Y8699997D02*
D03*
X6599998Y14699995D02*
D03*
X6749998Y13799995D02*
D03*
Y13199995D02*
D03*
Y12599996D02*
D03*
Y11999996D02*
D03*
X6299998Y14699995D02*
D03*
X6449998Y14399995D02*
D03*
X6299998Y14099995D02*
D03*
Y13499995D02*
D03*
Y12899995D02*
D03*
X6449998Y12599996D02*
D03*
X6299998Y12299996D02*
D03*
X6449998Y11999996D02*
D03*
X6299998Y11099997D02*
D03*
X6449998Y8999997D02*
D03*
X6299998Y7499998D02*
D03*
Y6299998D02*
D03*
X6149998Y14399995D02*
D03*
Y13799995D02*
D03*
Y13199995D02*
D03*
Y12599996D02*
D03*
Y11999996D02*
D03*
Y11399997D02*
D03*
Y6599998D02*
D03*
X7790000Y9190000D02*
D03*
X6851767Y10358234D02*
D03*
X6760000Y10460000D02*
D03*
X6738755Y10651245D02*
D03*
X6670000Y9750000D02*
D03*
X6250000Y9800000D02*
D03*
X6960000Y8210000D02*
D03*
X6894600Y10843155D02*
D03*
Y10932100D02*
D03*
X7570000Y9800000D02*
D03*
X7274488Y9799487D02*
D03*
X8079173Y9660000D02*
D03*
X7710000Y8960000D02*
D03*
X8079173Y9760000D02*
D03*
X7921245Y9358755D02*
D03*
X7740000Y9530000D02*
D03*
X7480000Y9290000D02*
D03*
X7670000Y9480000D02*
D03*
X7020000Y9250000D02*
D03*
X6690000Y9180000D02*
D03*
Y9290000D02*
D03*
X6780000Y8750000D02*
D03*
X6990000Y9050000D02*
D03*
X7160000D02*
D03*
X7290000D02*
D03*
Y9140000D02*
D03*
X6700000Y7920000D02*
D03*
X6531244Y8068755D02*
D03*
X7453755Y9116245D02*
D03*
X7096988Y8343013D02*
D03*
X6750000Y7820000D02*
D03*
X6820000Y7720000D02*
D03*
X6800000Y7620000D02*
D03*
X6330000Y7032100D02*
D03*
X5740000Y10290000D02*
D03*
X5820000Y8130000D02*
D03*
Y8660000D02*
D03*
X6020000Y9970000D02*
D03*
X7560000Y9480000D02*
D03*
X7390000Y9570000D02*
D03*
X8010000Y9830000D02*
D03*
X8091562Y10204462D02*
D03*
X6850000Y10100000D02*
D03*
X7020000Y10510000D02*
D03*
X6850000Y10230000D02*
D03*
X6750000Y11000000D02*
D03*
X8060000Y8190000D02*
D03*
X7431245Y10981244D02*
D03*
X7110000Y10650000D02*
D03*
X5930000Y11070000D02*
D03*
X7550000Y10080000D02*
D03*
Y10420000D02*
D03*
X7720000Y10080000D02*
D03*
X7720000Y10250000D02*
D03*
Y10420000D02*
D03*
X7550000Y10250000D02*
D03*
X7380000D02*
D03*
Y10080000D02*
D03*
Y10420000D02*
D03*
X6600000Y7760000D02*
D03*
X6470000Y11140000D02*
D03*
X6910000Y6310000D02*
D03*
X8200000Y8000000D02*
D03*
Y8200000D02*
D03*
X6460000Y9900000D02*
D03*
X7680000Y8200000D02*
D03*
X8060000Y8000000D02*
D03*
X7145000Y7655000D02*
D03*
X7131375Y7801000D02*
D03*
X6580000Y10400000D02*
D03*
X6230000Y10430000D02*
D03*
X6360000Y10160000D02*
D03*
X6600000Y9800000D02*
D03*
X6490000Y9760000D02*
D03*
Y9490000D02*
D03*
X6700000Y8020000D02*
D03*
X6500000Y7910000D02*
D03*
X7720000Y11240000D02*
D03*
X7970000Y11210000D02*
D03*
X8220000Y11230000D02*
D03*
X8350000Y9780000D02*
D03*
X6640000Y8750000D02*
D03*
X6610000Y7570000D02*
D03*
X6518755Y7568755D02*
D03*
X6400000Y7910000D02*
D03*
X6160000Y8500000D02*
D03*
X6250000Y9420000D02*
D03*
X8081562Y10301562D02*
D03*
X8410000Y10230000D02*
D03*
X6800000Y7444462D02*
D03*
X7550000Y11820000D02*
D03*
X7160000Y9570000D02*
D03*
X7170000Y9800000D02*
D03*
X6730000Y11240000D02*
D03*
X6780000Y12690000D02*
D03*
X8130000Y8710000D02*
D03*
X6350000Y8830000D02*
D03*
X5950000Y9710000D02*
D03*
X6800000Y7154462D02*
D03*
X7520000Y6830000D02*
D03*
X7210000Y11210000D02*
D03*
X7460000Y11650000D02*
D03*
X6910000Y11330000D02*
D03*
X6410000D02*
D03*
X5930000Y10820000D02*
D03*
X6650000Y12230000D02*
D03*
X6110000D02*
D03*
X6080000Y12780000D02*
D03*
X6140000Y12930000D02*
D03*
X6840000Y13000000D02*
D03*
X6630000Y13489999D02*
D03*
X8140000Y10750000D02*
D03*
X8150000Y10570000D02*
D03*
X7100000Y9900000D02*
D03*
X6350000Y9400000D02*
D03*
X6290000Y7610000D02*
D03*
X6450000Y8470000D02*
D03*
X7660000Y6990000D02*
D03*
X7620000Y8020000D02*
D03*
X7140000Y7950000D02*
D03*
X6970000Y7070000D02*
D03*
X6750000Y7530000D02*
D03*
Y7240000D02*
D03*
X6800000Y7320000D02*
D03*
X7145000Y7365000D02*
D03*
X7415000D02*
D03*
X7415000Y7655000D02*
D03*
X6430000Y7570000D02*
D03*
X7420000Y7800000D02*
D03*
X7130000Y7220000D02*
D03*
X7420000Y7510000D02*
D03*
X7131375Y7511000D02*
D03*
X7420000Y7220000D02*
D03*
X6050000Y6950000D02*
D03*
X6900000Y6780000D02*
D03*
X6470000Y6680000D02*
D03*
X6560000Y7030000D02*
D03*
X7270000Y6520000D02*
D03*
X7120000D02*
D03*
%TF.MD5,779c482e3e61955deafab2471e723124*%
M02*
