%TF.GenerationSoftware,Altium Limited,Altium Designer,24.3.1 (35)*%
G04 Layer_Color=8421504*
%FSLAX45Y45*%
%MOMM*%
%TF.SameCoordinates,F890BB90-1D0F-4F84-9AE3-556F965AF49A*%
%TF.FilePolarity,Positive*%
%TF.FileFunction,Paste,Top*%
%TF.Part,Single*%
G01*
G75*
%TA.AperFunction,SMDPad,CuDef*%
%ADD10R,0.55000X0.55000*%
%ADD14R,0.25000X0.95000*%
%ADD15R,2.00000X1.19000*%
%ADD16R,0.85000X0.40000*%
%ADD17R,0.90000X0.50000*%
%ADD18R,1.30000X1.45000*%
%ADD19R,3.80000X2.03000*%
%ADD21R,0.60000X1.00000*%
%ADD22R,1.80000X1.30000*%
%ADD23R,1.45000X1.30000*%
%ADD24R,0.55000X0.55000*%
%ADD25R,0.50000X0.70000*%
%TA.AperFunction,ConnectorPad*%
%ADD26R,0.60000X1.15000*%
%ADD27R,0.30000X1.15000*%
%TA.AperFunction,SMDPad,CuDef*%
%ADD28R,2.00000X1.50000*%
%ADD29R,0.70000X0.50000*%
%ADD30R,0.72000X0.72000*%
%ADD34R,1.10000X0.30000*%
%ADD36R,1.50000X2.00000*%
G04:AMPARAMS|DCode=37|XSize=0.9mm|YSize=1mm|CornerRadius=0mm|HoleSize=0mm|Usage=FLASHONLY|Rotation=90.000|XOffset=0mm|YOffset=0mm|HoleType=Round|Shape=Octagon|*
%AMOCTAGOND37*
4,1,8,-0.50000,-0.22500,-0.50000,0.22500,-0.27500,0.45000,0.27500,0.45000,0.50000,0.22500,0.50000,-0.22500,0.27500,-0.45000,-0.27500,-0.45000,-0.50000,-0.22500,0.0*
%
%ADD37OCTAGOND37*%

%ADD38R,1.00000X0.90000*%
%ADD39O,0.25000X0.85000*%
%ADD40O,0.85000X0.25000*%
%ADD41R,5.60000X5.60000*%
%ADD42R,0.72000X0.72000*%
%ADD43R,1.60000X3.00000*%
%TA.AperFunction,NonConductor*%
%ADD92R,0.52500X0.25000*%
%ADD93R,0.52500X0.25000*%
%ADD94R,0.52500X0.25000*%
%ADD95R,0.52500X0.25000*%
%ADD96R,0.30000X0.58000*%
G36*
X6855000Y14031152D02*
X6764792Y13935944D01*
X6580944Y14119792D01*
X6671152Y14214999D01*
X6855000D01*
Y14031152D01*
D02*
G37*
G36*
X6179056Y14119792D02*
X5995208Y13935944D01*
X5905000Y14031152D01*
Y14214999D01*
X6088848D01*
X6179056Y14119792D01*
D02*
G37*
G36*
X6855000Y13448848D02*
Y13264999D01*
X6671152D01*
X6580944Y13360208D01*
X6764792Y13544057D01*
X6855000Y13448848D01*
D02*
G37*
G36*
X6179056Y13360208D02*
X6063848Y13235001D01*
X5880000Y13418848D01*
X5995208Y13544057D01*
X6179056Y13360208D01*
D02*
G37*
G36*
X8020000Y8995000D02*
X8055000D01*
Y8865000D01*
X7860000D01*
Y9075000D01*
X8020000D01*
Y8995000D01*
D02*
G37*
G36*
X8055000Y6895000D02*
X8020000D01*
Y6815000D01*
X7860000D01*
Y7025000D01*
X8055000D01*
Y6895000D01*
D02*
G37*
D10*
X7325000Y7655000D02*
D03*
X7235000D02*
D03*
X6605000Y10280000D02*
D03*
X6515000D02*
D03*
X6515000Y10040000D02*
D03*
X6605000D02*
D03*
X7095000Y8190000D02*
D03*
X7185000D02*
D03*
X6925000Y6880000D02*
D03*
X6835000D02*
D03*
X6640000Y8670000D02*
D03*
X6730000D02*
D03*
X6510000Y11330000D02*
D03*
X6600000D02*
D03*
X7325000Y7365000D02*
D03*
X7235000D02*
D03*
X7510000Y7870000D02*
D03*
X7600000D02*
D03*
X7510000Y7730000D02*
D03*
X7600000D02*
D03*
X7510000Y7580000D02*
D03*
X7600000D02*
D03*
X7510000Y7440000D02*
D03*
X7600000D02*
D03*
X7510000Y7290000D02*
D03*
X7600000D02*
D03*
X7510000Y7150000D02*
D03*
X7600000D02*
D03*
D14*
X6177500Y8070500D02*
D03*
X6222500D02*
D03*
X6267500D02*
D03*
X6312500D02*
D03*
X6357500D02*
D03*
X6402500D02*
D03*
X6177500Y8349500D02*
D03*
X6222500D02*
D03*
X6267500D02*
D03*
X6312500D02*
D03*
X6357500D02*
D03*
X6402500D02*
D03*
D15*
X6290000Y8210000D02*
D03*
D16*
X6127500Y9545000D02*
D03*
Y9610000D02*
D03*
Y9675000D02*
D03*
X6352500D02*
D03*
Y9610000D02*
D03*
Y9545000D02*
D03*
X6352500Y10035000D02*
D03*
Y9970000D02*
D03*
Y9905000D02*
D03*
X6127500D02*
D03*
Y9970000D02*
D03*
Y10035000D02*
D03*
D17*
X7397500Y6975000D02*
D03*
Y6845000D02*
D03*
X7622500Y6910000D02*
D03*
X6352500Y10315000D02*
D03*
Y10445000D02*
D03*
X6127500Y10380000D02*
D03*
X7357500Y8165000D02*
D03*
Y8035000D02*
D03*
X7582500Y8100000D02*
D03*
X6507500Y13064999D02*
D03*
Y12935001D02*
D03*
X6732500Y13000000D02*
D03*
X6027500Y13064999D02*
D03*
Y12935001D02*
D03*
X6252500Y13000000D02*
D03*
D18*
X6330000Y7760000D02*
D03*
X6490000D02*
D03*
X5950000Y8660000D02*
D03*
X6110000D02*
D03*
X5950000Y7760000D02*
D03*
X6110000D02*
D03*
X6890000Y11100000D02*
D03*
X7050000D02*
D03*
D19*
X6050000Y7410000D02*
D03*
Y7110000D02*
D03*
D21*
X6615000Y7457500D02*
D03*
X6520000D02*
D03*
X6425000D02*
D03*
Y7182500D02*
D03*
X6520000D02*
D03*
X6615000D02*
D03*
D22*
X6470000Y6540000D02*
D03*
Y6260000D02*
D03*
D23*
X5950000Y8290000D02*
D03*
Y8130000D02*
D03*
X6840000Y9290000D02*
D03*
Y9450000D02*
D03*
X8280000Y10230000D02*
D03*
Y10390000D02*
D03*
Y10750000D02*
D03*
Y10590000D02*
D03*
D24*
X6290000Y8660000D02*
D03*
Y8570000D02*
D03*
X6410000Y8660000D02*
D03*
Y8570000D02*
D03*
X6490000Y9670000D02*
D03*
Y9580000D02*
D03*
X5950000Y9540000D02*
D03*
Y9630000D02*
D03*
X7260000Y6865000D02*
D03*
Y6955000D02*
D03*
X6560000Y8945000D02*
D03*
Y8855000D02*
D03*
X7160000Y8945000D02*
D03*
Y8855000D02*
D03*
X6860000Y8945000D02*
D03*
Y8855000D02*
D03*
X7460000Y8945000D02*
D03*
Y8855000D02*
D03*
X5880000Y12775000D02*
D03*
Y12685000D02*
D03*
X5990000Y12775000D02*
D03*
Y12685000D02*
D03*
X7670000Y9685000D02*
D03*
Y9595000D02*
D03*
X6670000Y9450000D02*
D03*
Y9360000D02*
D03*
D25*
X7185000Y8050000D02*
D03*
X7095000D02*
D03*
D26*
X7462000Y6657500D02*
D03*
X6822000D02*
D03*
X7382000D02*
D03*
X6902000D02*
D03*
D27*
X7317000D02*
D03*
X7267000D02*
D03*
X7217000D02*
D03*
X7167000D02*
D03*
X7117000D02*
D03*
X7067000D02*
D03*
X7017000D02*
D03*
X6967000D02*
D03*
D28*
X6730000Y8500000D02*
D03*
X7550000D02*
D03*
D29*
X6690000Y8855000D02*
D03*
Y8945000D02*
D03*
X7590000Y8855000D02*
D03*
Y8945000D02*
D03*
X6990000Y8855000D02*
D03*
Y8945000D02*
D03*
X7290000Y8855000D02*
D03*
Y8945000D02*
D03*
D30*
X6730000Y8320000D02*
D03*
X6630000D02*
D03*
X7250000Y11100000D02*
D03*
X7350000D02*
D03*
X6510000Y10160000D02*
D03*
X6610000D02*
D03*
X7270000Y9700000D02*
D03*
X7170000D02*
D03*
X7230000Y7510000D02*
D03*
X7330000D02*
D03*
X7230000Y7220000D02*
D03*
X7330000D02*
D03*
X6830000Y11330000D02*
D03*
X6730000D02*
D03*
X7010000Y10650000D02*
D03*
X6910000D02*
D03*
X7230000Y7800000D02*
D03*
X7330000D02*
D03*
D34*
X7845000Y8695000D02*
D03*
Y8595000D02*
D03*
Y8495000D02*
D03*
Y8395000D02*
D03*
Y8295000D02*
D03*
Y8195000D02*
D03*
Y8095000D02*
D03*
Y7995000D02*
D03*
Y7895000D02*
D03*
Y7795000D02*
D03*
Y7695000D02*
D03*
Y7595000D02*
D03*
Y7495000D02*
D03*
Y7395000D02*
D03*
Y7295000D02*
D03*
Y7195000D02*
D03*
D36*
X6650000Y12380000D02*
D03*
Y11560000D02*
D03*
X6110000D02*
D03*
Y12380000D02*
D03*
D37*
X7197492Y9292493D02*
D03*
D38*
X7382492D02*
D03*
X7197492Y9447493D02*
D03*
X7382492D02*
D03*
D39*
X7275000Y9907500D02*
D03*
X7325000D02*
D03*
X7375000D02*
D03*
X7425000D02*
D03*
X7475000D02*
D03*
X7525000D02*
D03*
X7575000D02*
D03*
X7625000D02*
D03*
X7675000D02*
D03*
X7725000D02*
D03*
X7775000D02*
D03*
X7825000D02*
D03*
Y10592500D02*
D03*
X7775000D02*
D03*
X7725000D02*
D03*
X7675000D02*
D03*
X7625000D02*
D03*
X7575000D02*
D03*
X7525000D02*
D03*
X7475000D02*
D03*
X7425000D02*
D03*
X7375000D02*
D03*
X7325000D02*
D03*
X7275000D02*
D03*
D40*
X7892500Y9975000D02*
D03*
Y10025000D02*
D03*
Y10075000D02*
D03*
Y10125000D02*
D03*
Y10175000D02*
D03*
Y10225000D02*
D03*
Y10275000D02*
D03*
Y10325000D02*
D03*
Y10375000D02*
D03*
Y10425000D02*
D03*
Y10475000D02*
D03*
Y10525000D02*
D03*
X7207500D02*
D03*
Y10475000D02*
D03*
Y10425000D02*
D03*
Y10375000D02*
D03*
Y10325000D02*
D03*
Y10275000D02*
D03*
Y10225000D02*
D03*
Y10175000D02*
D03*
Y10125000D02*
D03*
Y10075000D02*
D03*
Y10025000D02*
D03*
Y9975000D02*
D03*
D41*
X7550000Y10250000D02*
D03*
D42*
X7780000Y9690000D02*
D03*
Y9590000D02*
D03*
X7020000Y9450000D02*
D03*
Y9350000D02*
D03*
X8060000Y10570000D02*
D03*
Y10670000D02*
D03*
X7050000Y9800000D02*
D03*
Y9700000D02*
D03*
X7560000Y9690000D02*
D03*
Y9590000D02*
D03*
D43*
X8222000Y11450000D02*
D03*
X7968000D02*
D03*
X7714000D02*
D03*
X7460000D02*
D03*
X7206000D02*
D03*
X7800000Y14089999D02*
D03*
X7292000D02*
D03*
D92*
X7033750Y7461000D02*
D03*
Y7511000D02*
D03*
Y7751000D02*
D03*
Y7801000D02*
D03*
Y7271000D02*
D03*
Y7321000D02*
D03*
D93*
Y7561000D02*
D03*
Y7611000D02*
D03*
Y7851000D02*
D03*
Y7901000D02*
D03*
Y7171000D02*
D03*
Y7221000D02*
D03*
D94*
X6906250Y7461000D02*
D03*
Y7511000D02*
D03*
Y7751000D02*
D03*
Y7801000D02*
D03*
Y7271000D02*
D03*
Y7321000D02*
D03*
D95*
Y7561000D02*
D03*
Y7611000D02*
D03*
Y7851000D02*
D03*
Y7901000D02*
D03*
Y7171000D02*
D03*
Y7221000D02*
D03*
D96*
X6970001Y7450000D02*
D03*
X6969999Y7622000D02*
D03*
X6970001Y7740000D02*
D03*
X6969998Y7912000D02*
D03*
X6970002Y7159999D02*
D03*
X6969998Y7332002D02*
D03*
%TF.MD5,5efc48cc466d7507d1e2065b716f9d99*%
M02*
